<svg width="18" height="18" viewBox="0 0 18 18" fill="none" xmlns="http://www.w3.org/2000/svg">
<path d="M14.7526 3.96259C14.748 3.95369 14.7404 3.94671 14.7311 3.9429C13.6589 3.45096 12.5274 3.10016 11.365 2.8993C11.3544 2.89733 11.3435 2.89875 11.3338 2.90335C11.3241 2.90794 11.3161 2.91548 11.3109 2.92489C11.1568 3.20454 11.0169 3.49178 10.8918 3.78552C9.63876 3.5953 8.36416 3.5953 7.11109 3.78552C6.98514 3.49103 6.84303 3.20372 6.68542 2.92489C6.68001 2.91568 6.67196 2.90832 6.66231 2.90375C6.65266 2.89919 6.64185 2.89764 6.63131 2.8993C5.46873 3.09974 4.33716 3.45056 3.26508 3.94293C3.2559 3.94682 3.24816 3.95347 3.24292 3.96195C1.09898 7.16364 0.511673 10.2866 0.799785 13.3709C0.800596 13.3785 0.802918 13.3858 0.806614 13.3924C0.81031 13.3991 0.815305 13.4049 0.821301 13.4096C2.0697 14.3339 3.46604 15.0395 4.95075 15.4961C4.96121 15.4993 4.97238 15.4991 4.98275 15.4957C4.99312 15.4923 5.0022 15.4859 5.00878 15.4771C5.32766 15.0432 5.61021 14.5838 5.85357 14.1035C5.85691 14.0969 5.85882 14.0896 5.85917 14.0823C5.85952 14.0749 5.8583 14.0675 5.85559 14.0606C5.85288 14.0537 5.84875 14.0475 5.84346 14.0424C5.83817 14.0372 5.83185 14.0332 5.82491 14.0307C5.37934 13.8602 4.94798 13.6547 4.53487 13.4161C4.52737 13.4116 4.52106 13.4054 4.51652 13.398C4.51197 13.3906 4.50933 13.3822 4.50881 13.3735C4.5083 13.3648 4.50993 13.3561 4.51357 13.3482C4.51721 13.3403 4.52274 13.3334 4.52967 13.3281C4.61659 13.2632 4.70201 13.1963 4.78586 13.1274C4.79321 13.1213 4.80211 13.1175 4.81155 13.1162C4.82099 13.1149 4.8306 13.1163 4.8393 13.1202C7.54574 14.3554 10.4758 14.3554 13.1502 13.1202C13.1589 13.1161 13.1687 13.1145 13.1782 13.1156C13.1878 13.1168 13.1969 13.1207 13.2043 13.1268C13.2883 13.196 13.3739 13.2631 13.4612 13.3281C13.4682 13.3333 13.4737 13.3402 13.4774 13.3481C13.4811 13.356 13.4828 13.3646 13.4824 13.3733C13.4819 13.382 13.4793 13.3904 13.4748 13.3979C13.4704 13.4054 13.4641 13.4116 13.4566 13.4161C13.0445 13.6567 12.6127 13.8621 12.166 14.03C12.159 14.0327 12.1527 14.0367 12.1475 14.042C12.1422 14.0472 12.1381 14.0535 12.1355 14.0604C12.1328 14.0674 12.1317 14.0748 12.1321 14.0822C12.1325 14.0896 12.1344 14.0969 12.1378 14.1035C12.3853 14.5811 12.6674 15.04 12.982 15.4764C12.9884 15.4853 12.9974 15.492 13.0078 15.4956C13.0182 15.4991 13.0295 15.4993 13.04 15.4961C14.5274 15.0409 15.9262 14.3353 17.1761 13.4096C17.1822 13.4051 17.1873 13.3995 17.191 13.3929C17.1947 13.3863 17.197 13.3791 17.1976 13.3716C17.5426 9.80579 16.6202 6.70841 14.7526 3.96259ZM6.25775 11.4929C5.44291 11.4929 4.77151 10.7451 4.77151 9.8268C4.77151 8.90846 5.42989 8.16064 6.25775 8.16064C7.09208 8.16064 7.75698 8.91495 7.74396 9.82674C7.74396 10.7451 7.08555 11.4929 6.25775 11.4929ZM11.7528 11.4929C10.938 11.4929 10.2666 10.7451 10.2666 9.8268C10.2666 8.90846 10.925 8.16064 11.7528 8.16064C12.5872 8.16064 13.2521 8.91495 13.2391 9.82674C13.2391 10.7451 12.5872 11.4929 11.7528 11.4929Z" fill="#5A65EA"/>
</svg>
