<svg width="18" height="18" viewBox="0 0 18 18" fill="none" xmlns="http://www.w3.org/2000/svg">
<path d="M8.99297 1.33984C4.6459 1.33809 1.125 4.85723 1.125 9.20078C1.125 12.6355 3.32754 15.5553 6.39492 16.6275C6.80801 16.7312 6.74473 16.4377 6.74473 16.2373V14.875C4.35938 15.1545 4.2627 13.576 4.10273 13.3123C3.7793 12.7604 3.01465 12.6197 3.24316 12.3561C3.78633 12.0766 4.34004 12.4264 4.98164 13.3738C5.4457 14.0611 6.35098 13.9451 6.80977 13.8309C6.90996 13.4178 7.12441 13.0486 7.41973 12.7621C4.94824 12.3191 3.91816 10.8109 3.91816 9.01797C3.91816 8.14785 4.20469 7.34805 4.76719 6.70293C4.40859 5.63945 4.80059 4.72891 4.85332 4.59355C5.87461 4.50215 6.93633 5.32481 7.01895 5.38984C7.59902 5.2334 8.26172 5.15078 9.00352 5.15078C9.74883 5.15078 10.4133 5.23691 10.9986 5.39512C11.1973 5.24395 12.1816 4.53731 13.1309 4.62344C13.1818 4.75879 13.565 5.64824 13.2275 6.69766C13.7971 7.34453 14.0871 8.15137 14.0871 9.02324C14.0871 10.8197 13.05 12.3297 10.5715 12.7656C10.9846 13.1734 11.2412 13.7395 11.2412 14.3652V16.3428C11.2553 16.501 11.2412 16.6574 11.5049 16.6574C14.618 15.608 16.8592 12.6672 16.8592 9.20254C16.8592 4.85723 13.3365 1.33984 8.99297 1.33984Z" fill="white"/>
</svg>
