<svg width="18" height="18" viewBox="0 0 18 18" fill="none" xmlns="http://www.w3.org/2000/svg">
<path d="M1.88889 1H16.1111C16.3469 1 16.573 1.09365 16.7397 1.26035C16.9064 1.42705 17 1.65314 17 1.88889V16.1111C17 16.3469 16.9064 16.573 16.7397 16.7397C16.573 16.9064 16.3469 17 16.1111 17H1.88889C1.65314 17 1.42705 16.9064 1.26035 16.7397C1.09365 16.573 1 16.3469 1 16.1111V1.88889C1 1.65314 1.09365 1.42705 1.26035 1.26035C1.42705 1.09365 1.65314 1 1.88889 1ZM13.7111 12.5022C13.6222 12.4578 13.5778 12.3244 13.5778 12.2347V5.44978C13.5778 5.36089 13.6222 5.22756 13.7111 5.13778L14.56 4.15556V4.11111H11.5244L9.24889 9.86933L6.65867 4.11111H3.53511V4.15556L4.33778 5.272C4.51644 5.44978 4.56089 5.71822 4.56089 5.94133V10.8507C4.60533 11.1191 4.56089 11.4311 4.42756 11.6987L3.22222 13.3502V13.3947H6.43644V13.3502L5.23111 11.744C5.09778 11.4756 5.05244 11.208 5.09778 10.896V6.43111C5.14222 6.52 5.18667 6.52 5.23111 6.69867L8.26578 13.4836H8.31022L11.2578 6.12C11.2133 6.38667 11.2133 6.69956 11.2133 6.92356V12.1902C11.2133 12.3236 11.1689 12.4124 11.08 12.5022L10.1867 13.3502V13.3947H14.5609V13.3502L13.7129 12.5022H13.7111Z" fill="white"/>
</svg>
