<svg width="18" height="18" viewBox="0 0 18 18" fill="none" xmlns="http://www.w3.org/2000/svg">
<path d="M15.9394 5.77706V5.27306C16.6414 4.76906 17.2444 4.06706 17.7484 3.36506C17.1454 3.67106 16.4434 3.86906 15.7414 3.96806C16.4434 3.56306 17.0464 2.76206 17.3524 1.96106C16.6504 2.36606 15.9484 2.66306 15.1384 2.87006C14.5354 2.16806 13.5274 1.66406 12.5284 1.66406C10.5214 1.66406 9.00935 3.27506 9.00935 5.38106C9.00935 5.68706 9.00935 5.98406 9.10835 6.29006C6.19235 6.09206 3.58235 4.58006 1.76435 2.26706C1.26035 2.67206 1.06235 3.27506 1.06235 3.97706C1.06235 5.28206 1.66535 6.48806 2.67335 7.19906C2.07035 7.19906 1.56635 7.00106 1.06235 6.69506C1.06235 8.50406 2.26835 10.1151 3.87935 10.4121C3.57335 10.5111 3.27635 10.5111 2.97035 10.5111C2.77235 10.5111 2.56535 10.5111 2.26835 10.4121C2.67335 11.9241 4.07735 13.0221 5.58935 13.0221C4.38335 14.0301 2.87135 14.6331 1.16135 14.6331C0.855352 14.6331 0.558352 14.6331 0.360352 14.5341C1.97135 15.6411 3.78035 16.2441 5.78735 16.2441C12.3214 16.4421 15.9394 10.7091 15.9394 5.77706Z" fill="#3298F0"/>
</svg>
