<svg width="20" height="20" viewBox="0 0 20 20" fill="none" xmlns="http://www.w3.org/2000/svg">
<path d="M8.24219 17.2383C8.57756 17.8636 9.23749 18.2889 9.99672 18.2889C10.756 18.2889 11.4159 17.8636 11.7513 17.2383" stroke="white" stroke-width="1.4" stroke-linecap="round" stroke-linejoin="round"/>
<path d="M13.6289 3.2131C12.6659 2.25003 11.3597 1.70898 9.9977 1.70898C8.63571 1.70898 7.32951 2.25003 6.36644 3.2131C5.40338 4.17617 4.86233 5.48237 4.86233 6.84436C4.86233 8.0185 4.65479 8.94156 4.34797 9.66314C4.04014 10.387 3.19282 10.634 2.56058 11.1021C1.61685 11.8007 1.79931 13.2956 2.58427 13.8761C2.58427 13.8761 3.85164 14.9733 9.9977 14.9733C16.1437 14.9733 17.4111 13.8761 17.4111 13.8761C18.1961 13.2956 18.3786 11.8007 17.4348 11.1021" stroke="white" stroke-width="1.4" stroke-linecap="round" stroke-linejoin="round"/>
<rect x="13" y="6" width="6" height="1.4" rx="0.7" fill="white"/>
<rect x="16.7031" y="3.69922" width="6" height="1.4" rx="0.7" transform="rotate(90 16.7031 3.69922)" fill="white"/>
</svg>
