<svg width="32" height="32" viewBox="0 0 32 32" fill="none" xmlns="http://www.w3.org/2000/svg">
<g filter="url(#filter0_d_54000_12233)">
<circle cx="16" cy="16" r="10" fill="#D3625B"/>
</g>
<path d="M16.0002 16.9991C16.2654 16.9991 16.5198 16.8938 16.7073 16.7062C16.8949 16.5187 17.0002 16.2643 17.0002 15.9991L17.0002 11.9991C17.0002 11.7339 16.8949 11.4796 16.7073 11.292C16.5198 11.1045 16.2654 10.9991 16.0002 10.9991C15.735 10.9991 15.4806 11.1045 15.2931 11.292C15.1056 11.4796 15.0002 11.7339 15.0002 11.9991L15.0002 15.9991C15.0002 16.2643 15.1056 16.5187 15.2931 16.7062C15.4806 16.8938 15.735 16.9991 16.0002 16.9991ZM15.6202 20.9191C15.8637 21.0191 16.1367 21.0191 16.3802 20.9191C16.503 20.8715 16.6151 20.8002 16.7102 20.7091C16.7985 20.6119 16.8696 20.5003 16.9202 20.3791C16.9762 20.2604 17.0036 20.1303 17.0002 19.9991C17.001 19.8675 16.9757 19.7371 16.926 19.6152C16.8762 19.4934 16.8029 19.3826 16.7102 19.2891C16.613 19.2008 16.5014 19.1298 16.3802 19.0791C16.2287 19.0169 16.0642 18.9928 15.9013 19.009C15.7383 19.0252 15.5818 19.0812 15.4455 19.1721C15.3092 19.2629 15.1973 19.3858 15.1197 19.5301C15.0421 19.6743 15.001 19.8353 15.0002 19.9991C15.0039 20.2639 15.1075 20.5175 15.2902 20.7091C15.3853 20.8002 15.4975 20.8715 15.6202 20.9191Z" fill="white"/>
<defs>
<filter id="filter0_d_54000_12233" x="0" y="0" width="32" height="32" filterUnits="userSpaceOnUse" color-interpolation-filters="sRGB">
<feFlood flood-opacity="0" result="BackgroundImageFix"/>
<feColorMatrix in="SourceAlpha" type="matrix" values="0 0 0 0 0 0 0 0 0 0 0 0 0 0 0 0 0 0 127 0" result="hardAlpha"/>
<feOffset/>
<feGaussianBlur stdDeviation="3"/>
<feComposite in2="hardAlpha" operator="out"/>
<feColorMatrix type="matrix" values="0 0 0 0 0.827451 0 0 0 0 0.384314 0 0 0 0 0.356863 0 0 0 1 0"/>
<feBlend mode="normal" in2="BackgroundImageFix" result="effect1_dropShadow_54000_12233"/>
<feBlend mode="normal" in="SourceGraphic" in2="effect1_dropShadow_54000_12233" result="shape"/>
</filter>
</defs>
</svg>
