<svg width="124" height="90" viewBox="0 0 124 90" fill="none" xmlns="http://www.w3.org/2000/svg">
<path fill-rule="evenodd" clip-rule="evenodd" d="M34.2603 81.2029C33.5427 81.2029 32.9333 80.8302 32.5405 80.1504C31.4679 78.2921 32.1402 73.9386 32.6362 71.5088C33.3866 67.8401 34.6078 64.1916 35.7459 62.2175C36.2394 61.3639 37.025 60.2283 38.148 60.2283C38.1984 60.2283 38.2487 60.2283 38.2991 60.2359C40.5199 60.4474 45.226 63.124 47.6483 64.5794C47.7867 62.2729 48.0436 57.4787 48.308 49.726L48.3306 49.0814L52.9108 47.1602L53.2104 48.2756C53.2255 48.331 54.7086 53.8932 55.6931 59.6744C57.564 70.6804 56.0557 73.007 54.759 73.7976C53.9658 74.281 52.9762 74.5278 51.8155 74.5278C48.308 74.5278 43.831 72.2717 41.7789 71.126C40.7264 74.2181 38.0246 80.9461 34.4089 81.1979C34.361 81.2004 34.3132 81.2029 34.2653 81.2029H34.2603Z" fill="white"/>
<path d="M52.2358 48.5373C52.2358 48.5373 58.1353 70.5568 54.23 72.9413C53.5552 73.3542 52.7243 73.5229 51.8102 73.5229C47.4416 73.5229 41.1996 69.6251 41.1996 69.6251C41.1996 69.6251 38.0824 79.9337 34.3331 80.1955C34.3079 80.1955 34.2828 80.198 34.2601 80.198C30.672 80.198 35.4259 61.2378 38.1503 61.2378C38.168 61.2378 38.1881 61.2378 38.2057 61.2404C40.9377 61.5022 48.547 66.3166 48.547 66.3166C48.547 66.3166 48.9196 61.399 49.3149 49.7635L52.2358 48.5373ZM53.5854 45.7877L51.4577 46.6815L48.5369 47.9078L47.3459 48.4063L47.3031 49.6955C47.0916 55.9174 46.8851 60.2307 46.7391 62.8745C44.0952 61.3512 40.419 59.43 38.3971 59.2361C38.3165 59.2285 38.2334 59.2235 38.1503 59.2235C36.4255 59.2235 35.363 60.8098 34.7158 62.0008C34.0939 63.1465 33.4594 64.7202 32.8803 66.5532C31.9511 69.4967 30.9565 73.815 30.9565 77.111C30.9565 78.3398 31.0975 79.3067 31.3921 80.0671C31.9083 81.4092 32.981 82.2099 34.2601 82.2099C34.3306 82.2099 34.4011 82.2099 34.4741 82.2023C36.8385 82.0387 38.9712 79.9034 40.9906 75.6783C41.5194 74.5704 41.9676 73.4751 42.315 72.5586C42.8237 72.823 43.4003 73.1125 44.0222 73.3996C47.084 74.8172 49.7052 75.5348 51.8102 75.5348C53.1573 75.5348 54.3257 75.2402 55.28 74.6585C57.808 73.1176 58.226 68.5852 56.6825 59.5055C55.6904 53.6764 54.2426 48.2427 54.1796 48.0135L53.5829 45.7852L53.5854 45.7877Z" fill="black"/>
<path fill-rule="evenodd" clip-rule="evenodd" d="M38.203 61.2389C39.3688 61.3497 41.426 62.294 43.3976 63.3364C42.6497 65.6806 41.1994 69.6237 41.1994 69.6237C41.1994 69.6237 38.0821 79.9322 34.3329 80.1941C30.5812 80.456 35.471 60.9771 38.203 61.2389Z" fill="url(#paint0_linear_54268_21282)"/>
<path fill-rule="evenodd" clip-rule="evenodd" d="M47.6811 63.4336C47.6811 63.4336 47.8372 65.6318 47.3613 67.9936L47.6811 63.4336Z" fill="white"/>
<path d="M47.6811 63.4336C47.6811 63.4336 47.8372 65.6318 47.3613 67.9936" stroke="black" stroke-width="2" stroke-linecap="round" stroke-linejoin="round"/>
<path d="M42.4942 71.5443L39.7925 70.0059" stroke="black" stroke-width="2" stroke-linecap="round" stroke-linejoin="round"/>
<path fill-rule="evenodd" clip-rule="evenodd" d="M86.5909 88.4012C85.9916 88.4012 85.619 88.1595 85.41 87.958C83.5618 86.1703 81.691 83.2797 77.5867 76.942C75.1619 73.1978 71.8407 68.0687 67.2883 61.2728C66.7192 60.4242 65.0951 58.1606 63.5265 55.9725C62.0006 53.8473 60.4243 51.6466 59.7797 50.6948L58.8657 49.3477L66.7645 48.2852L67.1196 48.7233C67.2631 48.8995 81.1395 65.931 88.2654 73.0392C89.4186 72.2863 91.8837 70.7075 94.6534 69.1439C99.8731 66.1979 103.67 64.7047 105.936 64.7047C107.09 64.7047 107.938 65.0724 108.457 65.7975C109.338 67.0238 108.457 68.741 108.165 69.305C106.453 72.6388 101.628 77.574 97.685 81.0815C95.2124 83.2822 89.1794 88.3962 86.5884 88.3962L86.5909 88.4012Z" fill="white"/>
<path d="M66.3389 49.3613C66.3389 49.3613 81.0941 67.4931 88.1394 74.3318C88.1394 74.3318 100.895 65.7154 105.936 65.7154C106.709 65.7154 107.304 65.9193 107.638 66.3877C109.96 69.6258 90.4509 87.395 86.5883 87.395C86.3818 87.395 86.2182 87.3446 86.1074 87.2363C83.2621 84.4842 80.1222 78.63 68.1216 60.7147C66.986 59.0201 61.9098 52.0479 60.6106 50.1318L66.3389 49.3613ZM67.19 47.2135L66.072 47.3645L60.3437 48.135L57.1182 48.5681L58.9462 51.2623C59.5983 52.2242 61.1091 54.3317 62.708 56.5601C64.2742 58.7432 65.8907 60.9993 66.4522 61.8352C70.9997 68.6261 74.3183 73.7502 76.7431 77.4919C80.8877 83.895 82.7812 86.8158 84.7099 88.6816C85.0524 89.0115 85.6567 89.4068 86.5908 89.4068C87.4318 89.4068 88.794 89.1324 91.9138 86.9845C93.8174 85.6727 96.0457 83.895 98.3547 81.8379C102.368 78.2699 107.288 73.2239 109.061 69.7668C110.025 67.8884 110.096 66.3575 109.275 65.2118C108.779 64.5219 107.8 63.701 105.936 63.701C103.461 63.701 99.6087 65.1942 94.1573 68.2686C91.8055 69.5956 89.708 70.9099 88.4012 71.7484C81.1697 64.3784 68.0385 48.2584 67.9 48.0872L67.1875 47.2109L67.19 47.2135Z" fill="black"/>
<path fill-rule="evenodd" clip-rule="evenodd" d="M86.4978 88.3985C85.9489 88.3758 85.6015 88.1467 85.4076 87.9578C85.3421 87.8924 85.2741 87.8269 85.2061 87.7589L85.1558 87.706C85.0954 87.6456 85.0299 87.5776 84.9619 87.5046L84.9266 87.4668C84.8738 87.4114 84.8108 87.3434 84.7504 87.2754L84.7101 87.2301C84.6446 87.1571 84.5792 87.0816 84.5112 87.006C84.5112 87.006 84.3475 86.8172 84.2871 86.7416L85.04 86.0719L84.2569 86.7064C84.1864 86.6233 84.1184 86.5377 84.0479 86.4521L83.9975 86.3891C83.9346 86.3136 83.8666 86.228 83.7986 86.1399C83.713 86.0291 83.64 85.9359 83.567 85.8402L83.2824 85.4625C83.2069 85.3618 83.008 85.0899 83.008 85.0899C82.9349 84.9891 82.7562 84.7399 82.7562 84.7399L82.4742 84.342C82.3961 84.2287 82.1695 83.9064 82.1695 83.9064C82.0965 83.8007 81.9127 83.5313 81.9127 83.5313L81.5677 83.0252L81.263 82.5744L80.9181 82.0582L80.1576 80.905L78.8836 78.9486L77.6095 76.9795C76.5545 75.3504 75.3534 73.4947 73.966 71.372L73.4624 70.6016L80.7292 64.8581L81.3612 65.5732C84.1839 68.7735 86.5029 71.2814 88.2655 73.0389C90.9496 71.2764 100.631 65.1225 105.435 64.7272C105.554 64.7171 105.665 64.7121 105.775 64.707C105.831 64.707 105.886 64.707 105.939 64.707C106.113 64.707 106.281 64.7146 106.44 64.7322C107.561 64.8505 108.157 65.3768 108.459 65.7998C108.973 66.5149 108.963 67.5045 108.434 68.7433C107.064 71.9487 102.185 77.04 98.0754 80.7388C96.0762 82.5367 89.3431 88.401 86.591 88.401C86.591 88.401 86.5281 88.401 86.4978 88.401V88.3985Z" fill="url(#paint1_linear_54268_21282)"/>
<path d="M105.936 65.7147C106.075 65.7147 106.206 65.7223 106.332 65.7349C106.913 65.7953 107.361 66.0018 107.638 66.387C107.943 66.8125 107.873 67.4924 107.505 68.3485C105.093 73.9963 89.9423 87.3943 86.5884 87.3943C86.5707 87.3943 86.5556 87.3943 86.538 87.3943C86.3542 87.3867 86.2081 87.3364 86.1074 87.2357C86.0445 87.1752 85.9841 87.1148 85.9211 87.0519C85.906 87.0368 85.8934 87.0242 85.8783 87.0091C85.8179 86.9461 85.7549 86.8832 85.6945 86.8177C85.6869 86.8101 85.6794 86.8001 85.6693 86.7925C85.6114 86.7321 85.556 86.6691 85.4981 86.6062C85.4855 86.5911 85.4729 86.5785 85.4603 86.5634C85.3974 86.4929 85.3344 86.4224 85.2715 86.3494C85.2589 86.3342 85.2463 86.3217 85.2337 86.3066C85.1758 86.2386 85.1179 86.1706 85.06 86.1001C85.0499 86.0875 85.0398 86.0749 85.0297 86.0648C84.9643 85.9868 84.8988 85.9062 84.8308 85.8231C84.8157 85.8055 84.8006 85.7878 84.788 85.7702C84.7226 85.6896 84.6596 85.6091 84.5916 85.526C84.5866 85.5209 84.5815 85.5159 84.579 85.5084C84.5085 85.4202 84.438 85.3296 84.3675 85.2364C84.3524 85.2163 84.3348 85.1961 84.3197 85.1735C84.2492 85.0803 84.1762 84.9846 84.1031 84.8864C84.0981 84.8789 84.0931 84.8713 84.088 84.8638C84.02 84.7706 83.9495 84.6749 83.879 84.5792C83.8614 84.5566 83.8438 84.5314 83.8287 84.5087C83.7531 84.4055 83.6776 84.3023 83.6021 84.194C83.5895 84.1764 83.5744 84.1562 83.5618 84.1361C83.4938 84.0404 83.4233 83.9397 83.3503 83.839C83.3352 83.8163 83.3175 83.7936 83.3024 83.771C83.2219 83.6577 83.1413 83.5418 83.0607 83.4235C83.0431 83.3958 83.0229 83.3681 83.0028 83.3404C82.9298 83.2346 82.8542 83.1264 82.7787 83.0156C82.7636 82.9954 82.751 82.9753 82.7359 82.9551C82.6503 82.8318 82.5647 82.7034 82.4765 82.5749C82.4539 82.5397 82.4287 82.5044 82.4035 82.4692C82.3179 82.3433 82.2348 82.2174 82.1467 82.0865C82.1316 82.0638 82.1165 82.0411 82.1014 82.0185C82.0183 81.8951 81.9352 81.7692 81.8496 81.6408C81.8194 81.5955 81.7891 81.5501 81.7589 81.5048C81.6683 81.3688 81.5751 81.2278 81.4819 81.0868C81.4543 81.044 81.424 80.9987 81.3938 80.9534C81.3208 80.8426 81.2478 80.7318 81.1722 80.616C81.1345 80.5581 81.0967 80.5001 81.0589 80.4422C80.9658 80.2987 80.8701 80.1552 80.7744 80.0066C80.7291 79.9386 80.6838 79.8707 80.641 79.8001C80.578 79.7045 80.5151 79.6088 80.4521 79.5131C80.364 79.3771 80.2733 79.2361 80.1802 79.0951C80.1298 79.0196 80.082 78.944 80.0316 78.866C79.9561 78.7502 79.878 78.6293 79.7999 78.511C79.7773 78.4757 79.7546 78.4405 79.7294 78.4027C78.3949 76.3455 76.791 73.8603 74.8119 70.8287L80.6082 66.2485C83.4006 69.4161 86.0948 72.3495 88.1394 74.3362C88.1394 74.3362 88.1394 74.3362 88.1419 74.3387C88.1419 74.3387 100.226 66.1755 105.518 65.7399C105.617 65.7323 105.712 65.7273 105.805 65.7248C105.851 65.7248 105.894 65.7248 105.939 65.7248M80.855 63.4863L79.3568 64.6698L73.5605 69.2499L72.1177 70.3906L73.1249 71.9315C74.4997 74.0366 75.6906 75.8747 76.7406 77.4987C77.2014 78.2088 77.632 78.8761 78.0399 79.503L78.0777 79.5609L78.1104 79.6113L78.3169 79.9286L78.3446 79.9689L78.4931 80.198L78.7651 80.616L78.9539 80.9055L78.9967 80.971L79.0899 81.112L79.3769 81.5501L79.4928 81.7239L79.7143 82.0613L79.7597 82.1293L79.8025 82.1972L80.082 82.6203L80.1751 82.7587C80.2607 82.8872 80.3463 83.0156 80.4294 83.139L80.4748 83.2069C80.5629 83.3404 80.651 83.4688 80.7366 83.5947L80.7845 83.6652L80.8097 83.7005C80.9003 83.8339 80.9884 83.9648 81.074 84.0907L81.1043 84.1336L81.1194 84.1537C81.1974 84.267 81.273 84.3778 81.3485 84.4861L81.3712 84.5188L81.4064 84.5692C81.492 84.6925 81.5751 84.8109 81.6582 84.9292L81.6834 84.9645L81.706 84.9972C81.7791 85.103 81.8521 85.2037 81.9226 85.3044L81.9402 85.3271L81.9654 85.3623C82.046 85.4756 82.124 85.5839 82.2021 85.6896L82.2424 85.745L82.2575 85.7652C82.3305 85.8659 82.406 85.9666 82.4791 86.0648L82.4866 86.0774L82.4916 86.0875C82.5697 86.1907 82.6452 86.2914 82.7208 86.3922L82.7711 86.4576C82.8467 86.5583 82.9222 86.654 82.9978 86.7497L83.0028 86.7547L83.0154 86.7699C83.0859 86.858 83.1564 86.9461 83.2244 87.0342L83.2722 87.0947C83.3427 87.1828 83.4157 87.2709 83.4862 87.3565L83.5114 87.3867L83.5215 87.3968C83.5844 87.4724 83.6499 87.5479 83.7129 87.6234L83.728 87.6411L83.7557 87.6738C83.8262 87.7544 83.8967 87.8349 83.9672 87.913L83.9974 87.9457L84.01 87.9608C84.0754 88.0339 84.1409 88.1044 84.2039 88.1723L84.2316 88.2026C84.3021 88.2781 84.3751 88.3511 84.4431 88.4241L84.4934 88.477C84.5639 88.5475 84.6369 88.6206 84.7074 88.6911C85.0272 89.0008 85.5912 89.3785 86.4574 89.4137C86.5002 89.4137 86.5455 89.4162 86.5909 89.4162C87.4495 89.4162 88.8495 89.1267 92.0851 86.8731C94.0415 85.5109 96.4059 83.5997 98.7476 81.4947C100.78 79.6667 107.555 73.3718 109.358 69.1467C110.036 67.5604 110.008 66.241 109.275 65.2187C108.852 64.6295 108.036 63.8942 106.543 63.7381C106.349 63.718 106.145 63.7079 105.936 63.7079C105.873 63.7079 105.81 63.7079 105.745 63.7104C105.617 63.7129 105.483 63.7205 105.35 63.7331C100.626 64.1208 91.8962 69.4916 88.3988 71.7553C86.7344 70.0582 84.6269 67.7643 82.1139 64.9165L80.8525 63.4863H80.855Z" fill="black"/>
<path fill-rule="evenodd" clip-rule="evenodd" d="M84.272 77.5841C86.4273 74.6053 88.9327 72.8906 88.9327 72.8906L84.272 77.5841Z" fill="white"/>
<path d="M84.272 77.5841C86.4273 74.6053 88.9327 72.8906 88.9327 72.8906" stroke="black" stroke-width="2" stroke-linecap="round" stroke-linejoin="round"/>
<path d="M102.815 40.4008C99.3525 40.4008 96.4241 36.6012 96.1472 31.7491C95.8601 26.6955 98.4561 22.5787 102.059 22.3747C102.15 22.3697 102.238 22.3672 102.329 22.3672C105.791 22.3672 108.722 26.1668 108.996 31.0189C109.283 36.0699 106.687 40.1893 103.084 40.3932C102.993 40.3983 102.905 40.4008 102.815 40.4008Z" fill="white"/>
<path d="M102.328 23.3757C105.231 23.3757 107.744 26.7623 107.991 31.0781C108.243 35.4996 106.019 39.2212 103.026 39.3899C102.955 39.3949 102.884 39.3949 102.814 39.3949C99.9108 39.3949 97.3979 36.0083 97.1511 31.6925C96.8993 27.271 99.1227 23.5494 102.117 23.3807C102.187 23.3757 102.258 23.3757 102.328 23.3757ZM102.328 21.3613C102.22 21.3613 102.109 21.3638 102.001 21.3714C99.8957 21.4923 97.9594 22.7815 96.6878 24.9116C95.5447 26.8228 94.9957 29.2727 95.1418 31.8083C95.2828 34.2784 96.0709 36.605 97.3651 38.3575C98.8155 40.3266 100.752 41.4093 102.814 41.4093C102.922 41.4093 103.033 41.4068 103.141 41.3992C107.309 41.1625 110.323 36.5773 110.003 30.9623C109.862 28.4922 109.074 26.1681 107.779 24.4131C106.329 22.444 104.393 21.3613 102.331 21.3613H102.328Z" fill="black"/>
<path d="M110.828 41.0619C107.661 41.0619 104.795 39.6996 102.965 37.3252C101.343 35.2227 99.7721 31.3501 101.484 24.8261C102.567 20.6992 104.823 13.6313 107.754 12.6543C108.169 12.5158 108.575 12.4453 108.963 12.4453C109.899 12.4453 110.73 12.8532 111.37 13.6212C112.797 15.3435 113.009 18.6319 112.936 20.4751C116.119 20.8956 118.977 22.9603 120.407 25.9541C122.814 30.9951 121.58 35.7842 117.018 39.0953C115.27 40.3644 113.074 41.0619 110.831 41.0619H110.828Z" fill="white"/>
<path d="M108.962 13.4519C112.089 13.4519 112.107 19.9985 111.84 21.4036C114.98 21.4464 118.012 23.287 119.495 26.3891C121.552 30.6948 120.832 35.0811 116.423 38.2814C114.814 39.4497 112.822 40.0566 110.828 40.0566C105.291 40.0566 99.7539 35.3757 102.456 25.0823C102.901 23.3877 105.324 14.5245 108.071 13.6105C108.393 13.5022 108.688 13.4544 108.962 13.4544M108.962 11.44C108.466 11.44 107.952 11.5281 107.436 11.6994C105.611 12.3087 104.097 14.3483 102.529 18.314C101.517 20.8748 100.779 23.5438 100.509 24.5712C98.6939 31.4905 100.409 35.6627 102.166 37.9415C104.191 40.5652 107.346 42.0684 110.828 42.0684C113.28 42.0684 115.688 41.303 117.606 39.9105C120.144 38.0674 121.738 35.8113 122.345 33.2052C122.912 30.7754 122.554 28.1189 121.313 25.5204C119.87 22.5014 117.105 20.336 113.95 19.6334C113.938 17.6241 113.603 14.7411 112.145 12.9785C111.309 11.9688 110.208 11.4375 108.962 11.4375V11.44Z" fill="black"/>
<path d="M115.671 40.2439C119.715 40.2439 122.994 35.5858 122.994 29.8397C122.994 24.0937 119.715 19.4355 115.671 19.4355C111.627 19.4355 108.349 24.0937 108.349 29.8397C108.349 35.5858 111.627 40.2439 115.671 40.2439Z" fill="white"/>
<path d="M115.671 20.4421C119.158 20.4421 121.986 24.6496 121.986 29.8391C121.986 35.0286 119.158 39.2361 115.671 39.2361C112.183 39.2361 109.356 35.0286 109.356 29.8391C109.356 24.6496 112.183 20.4421 115.671 20.4421ZM115.671 18.4277C111 18.4277 107.341 23.441 107.341 29.8391C107.341 36.2372 111 41.2505 115.671 41.2505C120.342 41.2505 124 36.2372 124 29.8391C124 23.441 120.342 18.4277 115.671 18.4277Z" fill="black"/>
<path fill-rule="evenodd" clip-rule="evenodd" d="M76.1064 54.052C72.8129 54.052 63.3177 53.9663 54.9405 53.8908C48.142 53.8304 42.2701 53.775 40.6259 53.775C34.545 53.775 28.58 51.2772 24.2567 46.9186C19.9711 42.5978 17.5891 36.8871 17.5489 30.8364C17.5086 24.7379 19.8477 19.0348 24.1358 14.7819C28.3358 10.6147 33.9382 8.31836 39.9108 8.31836C45.8834 8.31836 51.8963 10.7457 56.27 15.1571C56.6149 15.5046 56.9498 15.8647 57.2721 16.2348C59.7447 13.9586 62.5397 12.1633 65.7803 10.7583C68.4518 9.5018 71.7982 8.81188 75.21 8.81188C81.6358 8.81188 87.5153 11.1712 91.7656 15.4542C96.0637 19.7876 98.4457 25.5185 98.4709 31.5893C98.4961 37.6676 96.1569 43.3507 91.8864 47.5884C87.6865 51.7556 82.0815 54.052 76.1089 54.052H76.1064Z" fill="white"/>
<path d="M39.9082 9.3266C45.8128 9.3266 51.3699 11.6482 55.5522 15.8657C56.1314 16.4499 56.6778 17.0643 57.1864 17.7038C59.7648 15.1557 62.7183 13.1766 66.1931 11.6733C68.7362 10.4748 71.9315 9.81509 75.2074 9.81509C81.3613 9.81509 86.9864 12.0687 91.0478 16.1603C99.5484 24.7289 99.6038 38.5047 91.1737 46.8693C87.1626 50.8477 81.812 53.0408 76.1063 53.0408C70.2017 53.0408 44.3473 52.7638 40.6258 52.7638C34.8118 52.7638 29.1062 50.3743 24.9717 46.2046C20.8724 42.0726 18.5937 36.6112 18.5559 30.8249C18.5182 24.9984 20.7516 19.552 24.8458 15.4906C28.8569 11.5122 34.2075 9.32157 39.9107 9.32157M39.9107 7.30721C33.6712 7.30721 27.817 9.70682 23.4257 14.0629C18.9437 18.5096 16.4988 24.4671 16.5416 30.84C16.5844 37.155 19.0696 43.1175 23.5415 47.6247C28.0511 52.1721 34.278 54.7782 40.6258 54.7782C42.265 54.7782 48.4138 54.8336 54.9253 54.8915C63.3075 54.967 72.8103 55.0527 76.1063 55.0527C82.3483 55.0527 88.2025 52.653 92.5939 48.297C101.815 39.1493 101.762 24.0944 92.4805 14.7377C88.0389 10.2608 81.9077 7.79569 75.2124 7.79569C71.6621 7.79569 68.1697 8.51834 65.3697 9.83272C62.3557 11.1395 59.7144 12.7787 57.35 14.8132C57.2317 14.6873 57.1108 14.5639 56.9875 14.4406C52.4224 9.84027 46.3592 7.30469 39.9132 7.30469L39.9107 7.30721Z" fill="black"/>
<path fill-rule="evenodd" clip-rule="evenodd" d="M87.4606 19.7232C81.5938 13.811 72.7003 14.1585 68.2813 16.2812C61.2386 19.3027 58.1894 24.0012 55.5002 28.1458L55.3038 28.4479C52.801 32.3004 50.4366 35.9388 45.7331 38.7539C45.1287 39.1794 44.469 39.5319 43.7665 39.7963C40.2968 41.1183 36.3411 40.242 33.6821 37.5654C30.0059 33.859 29.9631 27.9166 33.5915 24.3159C37.2199 20.7153 43.1647 20.8009 46.8435 24.5073C47.833 25.5069 48.5758 26.6728 49.0492 27.9796L49.4621 29.1202L54.3168 22.3746L54.0725 22.007C53.4607 21.0854 52.7506 20.2192 51.965 19.4261C45.4259 12.8341 34.8555 12.683 28.402 19.0836C21.9485 25.4868 22.019 36.0572 28.5581 42.6492C33.9868 48.1207 42.3338 49.289 48.8201 45.5121C54.2035 42.8582 57.2603 38.5701 60.4253 33.6475L60.7778 33.0986C63.8724 28.2817 66.3148 24.4771 72.5342 22.4703C75.9208 21.302 79.7682 22.2185 82.3366 24.8069C86.0128 28.5109 86.0531 34.4532 82.4247 38.0539C78.7963 41.6521 72.854 41.5665 69.1777 37.8625C68.2662 36.9435 67.5587 35.8759 67.0752 34.6798L66.6396 33.6072L61.858 40.2496L62.1149 40.6197C62.6864 41.4431 63.3361 42.2262 64.0512 42.9463C70.5878 49.5358 81.1582 49.6869 87.6117 43.2837C94.0652 36.8805 93.9947 26.3127 87.4581 19.7232H87.4606Z" fill="url(#paint2_linear_54268_21282)"/>
<path fill-rule="evenodd" clip-rule="evenodd" d="M59.0396 14.9766C59.0396 14.9766 57.4382 16.1927 56.3076 17.9276L59.0396 14.9766Z" fill="white"/>
<path d="M59.0396 14.9766C59.0396 14.9766 57.4382 16.1927 56.3076 17.9276" stroke="black" stroke-width="2" stroke-linecap="round" stroke-linejoin="round"/>
<path d="M48.4797 6.34333C43.6981 0.448795 35.3687 2.62179 32.813 4.13256" stroke="black" stroke-width="3" stroke-linecap="round" stroke-linejoin="round"/>
<path d="M84.3929 5.55506C78.1131 1.03281 72.0851 3.29393 67.5352 6.34066" stroke="black" stroke-width="3" stroke-linecap="round" stroke-linejoin="round"/>
<path d="M40.3866 36.7458C43.4974 36.7458 46.0192 34.224 46.0192 31.1131C46.0192 28.0023 43.4974 25.4805 40.3866 25.4805C37.2757 25.4805 34.7539 28.0023 34.7539 31.1131C34.7539 34.224 37.2757 36.7458 40.3866 36.7458Z" fill="black"/>
<path d="M39.0442 31.5053C39.962 31.5053 40.706 30.7613 40.706 29.8435C40.706 28.9257 39.962 28.1816 39.0442 28.1816C38.1264 28.1816 37.3823 28.9257 37.3823 29.8435C37.3823 30.7613 38.1264 31.5053 39.0442 31.5053Z" fill="white"/>
<path d="M75.6278 36.7458C78.7386 36.7458 81.2604 34.224 81.2604 31.1131C81.2604 28.0023 78.7386 25.4805 75.6278 25.4805C72.5169 25.4805 69.9951 28.0023 69.9951 31.1131C69.9951 34.224 72.5169 36.7458 75.6278 36.7458Z" fill="black"/>
<path d="M74.2834 31.5053C75.2012 31.5053 75.9453 30.7613 75.9453 29.8435C75.9453 28.9257 75.2012 28.1816 74.2834 28.1816C73.3656 28.1816 72.6216 28.9257 72.6216 29.8435C72.6216 30.7613 73.3656 31.5053 74.2834 31.5053Z" fill="white"/>
<path fill-rule="evenodd" clip-rule="evenodd" d="M56.1319 49.8235C55.9531 49.8235 55.7743 49.8235 55.5981 49.8185C51.7557 49.748 46.123 47.5145 45.627 42.7757C45.3752 40.3635 46.4528 39.0416 47.3996 38.3593C48.155 37.8129 49.074 37.5258 50.0586 37.5258C50.1769 37.5258 50.2952 37.5308 50.4136 37.5384C51.2672 37.6013 52.6319 37.6744 54.2812 37.6744C56.7941 37.6744 59.0628 37.5057 61.0268 37.1683C61.2912 37.0927 62.2077 36.8535 63.2753 36.8535C64.7156 36.8535 65.9091 37.2916 66.7274 38.1175C67.5961 38.9938 68.0267 40.2679 68.0116 41.902C67.9612 46.9379 63.6303 49.826 56.1319 49.826V49.8235Z" fill="white"/>
<path d="M63.2754 37.8573C64.9448 37.8573 67.0398 38.5245 67.0045 41.8885C66.9466 47.5816 60.8809 48.8154 56.1345 48.8154C55.9608 48.8154 55.7896 48.8154 55.6183 48.8104C52.6043 48.755 47.085 47.0226 46.6317 42.6691C46.4353 40.7983 47.1907 39.7533 47.9914 39.1742C48.5907 38.7411 49.3209 38.5296 50.0612 38.5296C50.1544 38.5296 50.25 38.5321 50.3432 38.5397C51.1414 38.5976 52.559 38.6781 54.2813 38.6781C56.3561 38.6781 58.869 38.5623 61.256 38.1469C61.256 38.1469 62.1726 37.8548 63.2754 37.8548M63.2754 35.8404C62.1449 35.8404 61.178 36.0746 60.8028 36.1803C58.9093 36.5001 56.7136 36.6613 54.2788 36.6613C52.5766 36.6613 51.1716 36.5782 50.4867 36.5278C50.3457 36.5177 50.1997 36.5127 50.0587 36.5127C48.8627 36.5127 47.7396 36.8677 46.8105 37.5375C45.1663 38.7235 44.3908 40.6195 44.6249 42.8756C44.8969 45.4817 46.4807 47.6421 49.2026 49.1176C51.0961 50.1449 53.4781 50.7819 55.5806 50.8197C55.7644 50.8222 55.9482 50.8248 56.1345 50.8248C59.3852 50.8248 62.0995 50.3111 64.2046 49.2964C67.3218 47.7957 68.9887 45.2374 69.0214 41.9036C69.0415 39.99 68.5103 38.4767 67.4452 37.4015C66.4329 36.3792 64.9927 35.8379 63.2754 35.8379V35.8404Z" fill="black"/>
<path d="M52.77 37.8691L49.4766 48.0845" stroke="black" stroke-width="2" stroke-miterlimit="10"/>
<path d="M56.9546 37.8125L57.2341 49.5915" stroke="black" stroke-width="2" stroke-miterlimit="10"/>
<path d="M61.2534 37.3105L65.2746 47.2464" stroke="black" stroke-width="2" stroke-miterlimit="10"/>
<path fill-rule="evenodd" clip-rule="evenodd" d="M12.5958 63.6949C8.67029 63.6949 4.90091 61.4514 2.76065 57.8407C1.21211 55.2295 0.680819 52.2256 1.25995 49.3753C1.84663 46.4897 3.50345 44.1103 5.92068 42.6775C7.41383 41.7912 9.13611 41.3229 10.9012 41.3229C11.9109 41.3229 12.913 41.4689 13.895 41.7585C14.1342 40.6682 14.6781 39.8373 15.4839 39.3589C15.9673 39.0718 16.5188 38.9258 17.1231 38.9258C19.4572 38.9258 22.3906 41.2247 24.4176 44.6441C27.0639 49.1084 27.2175 53.5677 24.7701 55.018C24.2866 55.3051 23.7352 55.4511 23.1334 55.4511C22.8615 55.4511 22.582 55.4209 22.2949 55.363C21.7662 58.3191 20.064 60.8698 17.5838 62.3402C16.0882 63.2266 14.3659 63.6949 12.6008 63.6949H12.5958Z" fill="white"/>
<path d="M17.1178 39.9362C19.0415 39.9362 21.6677 41.9934 23.5461 45.161C25.8274 49.0059 26.1421 53.0321 24.2512 54.1551C23.9188 54.3515 23.5386 54.4472 23.1281 54.4472C22.6069 54.4472 22.0328 54.2961 21.4386 54.0116C21.2548 57.0785 19.7289 59.8961 17.0649 61.4773C15.675 62.3007 14.1391 62.691 12.5955 62.691C9.14847 62.691 5.65355 60.7471 3.62659 57.3303C0.69066 52.38 1.94712 46.2085 6.43411 43.547C7.82151 42.7236 9.35746 42.3333 10.901 42.3333C12.2078 42.3333 13.5222 42.6128 14.7635 43.1466C14.7585 41.7844 15.1639 40.7244 15.9973 40.2283C16.3297 40.0319 16.7099 39.9362 17.1228 39.9362M17.1228 37.9219C16.3372 37.9219 15.6121 38.1158 14.97 38.496C14.1844 38.9618 13.5952 39.6643 13.22 40.5557C12.4545 40.397 11.6815 40.319 10.901 40.319C8.9571 40.319 7.05605 40.8351 5.40679 41.8146C2.74279 43.3959 0.919794 46.0095 0.27268 49.1771C-0.356809 52.2717 0.217285 55.5325 1.89424 58.3576C4.2158 62.273 8.31754 64.7054 12.5955 64.7054C14.5419 64.7054 16.443 64.1892 18.0922 63.2097C20.5649 61.7417 22.335 59.3119 23.0803 56.4616C23.0954 56.4616 23.113 56.4616 23.1281 56.4616C23.9137 56.4616 24.6364 56.2677 25.2785 55.8875C26.2101 55.3335 27.736 53.9008 27.4691 50.5217C27.313 48.5225 26.5324 46.2538 25.276 44.1337C23.0375 40.3593 19.8347 37.9219 17.1153 37.9219H17.1228Z" fill="black"/>
<path fill-rule="evenodd" clip-rule="evenodd" d="M114.032 11.3701C113.382 11.3701 112.793 11.015 112.496 10.446C112.091 9.66792 111.439 9.06613 110.56 8.66074C109.963 8.38377 109.578 7.80464 109.558 7.14745V7.11472V7.08198C109.578 6.4248 109.963 5.84567 110.56 5.56869C111.439 5.1633 112.091 4.56151 112.496 3.78346C112.793 3.21441 113.382 2.85938 114.032 2.85938C114.682 2.85938 115.271 3.21441 115.568 3.78346C115.973 4.56151 116.626 5.1633 117.504 5.56869C118.101 5.84567 118.486 6.4248 118.506 7.08198V7.11472V7.14745C118.486 7.80464 118.101 8.38377 117.504 8.66074C116.626 9.06613 115.973 9.66792 115.568 10.446C115.271 11.015 114.682 11.3701 114.032 11.3701Z" fill="#FFF034"/>
<path d="M114.032 3.86983C114.286 3.86983 114.54 3.99825 114.674 4.25256C115.266 5.38564 116.185 6.07304 117.081 6.48599C117.353 6.61189 117.491 6.86116 117.499 7.11799C117.491 7.37483 117.35 7.6241 117.081 7.75C116.187 8.16295 115.268 8.84783 114.674 9.98343C114.54 10.2377 114.286 10.3662 114.032 10.3662C113.777 10.3662 113.523 10.2377 113.39 9.98343C112.798 8.85035 111.879 8.16295 110.983 7.75C110.711 7.6241 110.572 7.37483 110.565 7.11799C110.572 6.86116 110.713 6.61189 110.983 6.48599C111.876 6.07304 112.795 5.38816 113.39 4.25256C113.523 3.99825 113.777 3.86983 114.032 3.86983ZM114.032 1.85547C113.004 1.85547 112.075 2.41697 111.605 3.32092C111.3 3.90508 110.819 4.34321 110.139 4.65795C109.195 5.09608 108.585 6.01261 108.553 7.05253V7.11548V7.17843C108.585 8.21834 109.195 9.13739 110.139 9.573C110.819 9.88774 111.3 10.3259 111.605 10.91C112.075 11.814 113.007 12.373 114.032 12.373C115.057 12.373 115.988 11.8115 116.459 10.9075C116.764 10.3234 117.245 9.88523 117.925 9.57048C118.869 9.13236 119.478 8.21582 119.511 7.17591V7.11296V7.05001C119.478 6.01009 118.869 5.09104 117.925 4.65543C117.242 4.34069 116.764 3.90257 116.459 3.3184C115.988 2.41446 115.057 1.85547 114.032 1.85547Z" fill="black"/>
<defs>
<linearGradient id="paint0_linear_54268_21282" x1="40.2662" y1="72.4469" x2="33.4977" y2="69.2907" gradientUnits="userSpaceOnUse">
<stop stop-color="#596AD2"/>
<stop offset="1" stop-color="#8075F5"/>
</linearGradient>
<linearGradient id="paint1_linear_54268_21282" x1="73.4624" y1="76.554" x2="108.835" y2="76.554" gradientUnits="userSpaceOnUse">
<stop stop-color="#596AD2"/>
<stop offset="1" stop-color="#8075F5"/>
</linearGradient>
<linearGradient id="paint2_linear_54268_21282" x1="23.6078" y1="31.1849" x2="92.4084" y2="31.1849" gradientUnits="userSpaceOnUse">
<stop stop-color="#596AD2"/>
<stop offset="1" stop-color="#8075F5"/>
</linearGradient>
</defs>
</svg>
