<svg width="14" height="18" viewBox="0 0 14 18" fill="none" xmlns="http://www.w3.org/2000/svg">
<path d="M8.17207 16.1755C8.49473 16.1755 8.75631 16.4371 8.75631 16.7596C8.75631 17.0776 8.50215 17.3363 8.18586 17.3436L8.17205 17.3438H5.2958C4.97314 17.3438 4.71156 17.0822 4.71156 16.7596C4.71156 16.4417 4.96572 16.183 5.28201 16.1757L5.2958 16.1755H8.17207ZM8.95855 14.5275C9.28121 14.5275 9.54279 14.7891 9.54279 15.1117C9.54279 15.4296 9.28863 15.6883 8.97234 15.6956L8.95855 15.6958H4.47896C4.15631 15.6958 3.89473 15.4343 3.89473 15.1117C3.89473 14.7937 4.14889 14.535 4.46518 14.5277L4.47896 14.5275H8.95855ZM6.71875 0C10.4294 0 13.4375 3.00746 13.4375 6.71732C13.4375 9.06342 12.2345 11.1286 10.4116 12.3299L10.3685 12.5327C10.3389 12.6711 10.2996 12.8522 10.2508 13.0762C10.135 13.6071 9.66871 13.9873 9.12682 13.9956H4.30154C3.74451 13.9956 3.2649 13.6025 3.15572 13.0563L3.10188 12.7902C3.03701 12.4739 2.9998 12.3127 2.99025 12.3063C1.18732 11.1016 0 9.04811 0 6.71732C0 3.00746 3.00809 0 6.71875 0ZM6.71875 1.16822C3.65342 1.16822 1.16848 3.65266 1.16848 6.71732C1.16848 8.57574 2.08795 10.2764 3.59371 11.304L3.63951 11.335C3.88394 11.4983 3.96719 11.6297 4.05721 11.8282C4.07563 11.8687 4.09183 11.9103 4.10572 11.9526C4.1178 11.9892 4.12863 12.0263 4.13818 12.0637L4.14529 12.0915C4.15252 12.1205 4.1602 12.153 4.16855 12.1898L4.19492 12.3092C4.21465 12.4007 4.23818 12.5138 4.26562 12.649L4.30154 12.8274H9.10912L9.23574 12.2425L9.26781 12.0911L9.36631 11.6196L9.76853 11.3545C11.3182 10.3333 12.269 8.60703 12.269 6.71732C12.269 3.65266 9.78406 1.16822 6.71875 1.16822ZM6.17791 3.08299C6.23711 3.40012 6.02799 3.70518 5.7108 3.76437C4.31318 4.0252 3.68389 4.89129 3.59443 6.51057C3.57664 6.83268 3.30104 7.07938 2.97887 7.06158C2.65668 7.04379 2.40992 6.76824 2.42773 6.44615C2.54477 4.32773 3.52059 2.98471 5.49639 2.61598C5.81357 2.5568 6.11869 2.76586 6.17791 3.08299Z" fill="#8492C4"/>
</svg>
