<svg width="24" height="24" viewBox="0 0 24 24" fill="none" xmlns="http://www.w3.org/2000/svg">
<path d="M9.23913 4.32747C10.6779 3.89582 12.1016 3.89086 13.4716 4.31282C14.5552 4.64662 15.3963 5.18612 15.9901 5.6722C15.6418 5.84297 15.291 6.09953 15.0096 6.48568C14.9756 6.53219 14.9556 6.58741 14.951 6.64486C14.9466 6.70238 14.9578 6.76059 14.9843 6.81185C15.0092 6.85989 15.0465 6.90115 15.0917 6.93099C15.137 6.96076 15.19 6.97877 15.244 6.98275C15.2979 6.98661 15.3522 6.97625 15.4012 6.95345C15.4503 6.93054 15.4935 6.89577 15.5253 6.85189C15.8929 6.3495 16.4292 6.13358 16.8153 6.04134L16.9462 6.01302C17.7098 6.14316 18.8736 6.50509 19.8475 7.5013C20.0414 7.69827 20.1017 7.98938 20.0028 8.24544C19.9536 8.37171 19.8688 8.4815 19.7596 8.56185C19.6506 8.64205 19.5207 8.69008 19.3856 8.69954C19.0269 8.72669 18.7111 8.78916 18.4647 8.88314C18.6316 9.31003 18.7691 9.74739 18.8768 10.1937C19.1931 11.5045 19.2 12.6767 18.8973 13.6751C18.5296 14.891 17.9611 16.0337 17.2548 16.9759C16.463 18.0305 15.5306 18.78 14.5575 19.1458L14.5155 19.1615C13.6161 19.4991 12.5961 19.8814 11.3573 19.931C11.266 19.9348 11.1743 19.9368 11.0829 19.9368C9.75944 19.9368 8.354 19.5557 6.7987 18.7747C6.68866 18.7207 6.60088 18.6292 6.55163 18.5169C6.50244 18.4045 6.49513 18.2781 6.53015 18.1605C6.60293 17.9179 6.84037 17.7622 7.0946 17.7913C7.78477 17.8651 9.44676 17.9418 9.98816 17.0677C10.6158 16.0519 10.3045 14.7599 10.1415 14.2523C10.112 14.1598 10.1069 14.0612 10.1268 13.9661C10.1469 13.871 10.1913 13.7822 10.2557 13.7093C10.3209 13.6357 10.4042 13.5798 10.4969 13.5472C10.5898 13.5147 10.6901 13.506 10.787 13.5228C11.1828 13.5908 11.7502 13.7754 12.2186 14.2591C12.5835 14.6367 12.8147 15.1218 12.912 15.7083C13.543 12.7744 11.8404 11.8906 11.2655 11.5306C10.0035 10.7394 7.18648 11.2264 6.40222 11.3822C6.05284 11.5058 5.6111 11.6034 5.22839 11.4993C5.09435 11.4646 4.96859 11.4027 4.85925 11.3177C4.74994 11.2327 4.6584 11.1265 4.59167 11.0052L4.56823 10.9632L4.55652 10.9163C4.54002 10.8552 4.46493 10.5324 4.61706 10.0902C4.79171 9.58176 5.18647 9.12969 5.79089 8.74837C5.87089 8.1554 6.03386 7.57656 6.27429 7.02865C6.87689 5.66627 7.90198 4.73211 9.23913 4.32747ZM11.2499 7.2972C10.8618 6.89452 9.91369 6.74906 9.26355 7.29525V7.29622C8.67164 7.81244 9.36945 8.4989 9.89538 7.83626C10.2399 7.40251 10.7521 7.14582 11.2499 7.2972Z" fill="#35C4DC"/>
</svg>
