<svg width="24" height="24" viewBox="0 0 24 24" fill="none" xmlns="http://www.w3.org/2000/svg">
<path d="M11.6 5.20004C11.2688 4.94999 10.8189 4.93436 10.4658 5.15316C10.1128 5.37196 9.9378 5.7908 10.019 6.19714L10.3221 7.71623C9.71596 7.99754 9.16917 8.33824 8.68488 8.70083C8.20684 9.06028 7.77878 9.44787 7.41322 9.83545L4.50433 8.1382C4.11377 7.91002 3.61698 7.97254 3.29516 8.29136C2.97334 8.61018 2.90773 9.10404 3.13269 9.49788L4.5637 12.0016L3.13269 14.5052C2.90773 14.8991 2.97646 15.3929 3.29829 15.7118C3.62011 16.0306 4.11377 16.0931 4.50746 15.8649L7.41634 14.1677C7.78503 14.5521 8.20996 14.9428 8.68801 15.3023C9.1723 15.6649 9.71908 16.0056 10.3252 16.2869L10.0222 17.806C9.94092 18.2123 10.119 18.628 10.469 18.8468C10.8189 19.0656 11.2688 19.05 11.6031 18.8L14.0277 16.9808C15.7431 16.8558 17.1991 16.1369 18.3145 15.2992C19.5393 14.3802 20.4142 13.2768 20.8641 12.5017C21.0453 12.1922 21.0453 11.8078 20.8641 11.4983C20.4142 10.7232 19.5362 9.61978 18.3145 8.70083C17.196 7.86314 15.7431 7.14423 14.0277 7.0192L11.6 5.20004ZM14.9994 12.0016C14.9994 11.7363 15.1048 11.4819 15.2923 11.2943C15.4798 11.1067 15.7341 11.0013 15.9993 11.0013C16.2645 11.0013 16.5188 11.1067 16.7063 11.2943C16.8938 11.4819 16.9991 11.7363 16.9991 12.0016C16.9991 12.2668 16.8938 12.5212 16.7063 12.7088C16.5188 12.8964 16.2645 13.0018 15.9993 13.0018C15.7341 13.0018 15.4798 12.8964 15.2923 12.7088C15.1048 12.5212 14.9994 12.2668 14.9994 12.0016Z" fill="#D07E45"/>
</svg>
