<svg width="24" height="24" viewBox="0 0 24 24" fill="none" xmlns="http://www.w3.org/2000/svg">
<path d="M7.94438 5.36697C7.91625 5.20564 7.79812 5.07165 7.63781 5.02243C7.4775 4.97322 7.30031 5.01423 7.18219 5.12907L6.0375 6.24197C5.52281 6.74236 5.28937 7.45056 5.4075 8.14782L5.62969 9.44392L4.22625 10.8084C3.44156 11.5713 3 12.6076 3 13.6849C3 16.1377 5.04469 18.1256 7.5675 18.1256H18.3C19.7906 18.1256 21 16.9498 21 15.5006V12.4408C21 10.2642 19.1859 8.50056 16.9472 8.50056C14.6269 8.50056 12.3797 9.3072 10.6191 10.7756L7.39875 13.4607C7.17375 13.6467 6.88969 13.7506 6.59437 13.7506H6.56344C6.04875 13.7506 5.59312 13.4306 5.43 12.9576C5.3175 12.6295 5.3625 12.2685 5.55094 11.9759L6.60844 10.3326L7.86562 10.5377C8.58281 10.6525 9.31406 10.4256 9.82594 9.9279L10.9706 8.81501C11.0887 8.70017 11.1337 8.5279 11.0803 8.37204C11.0269 8.21618 10.8919 8.10134 10.7259 8.074L8.34094 7.68298L7.94438 5.36697ZM14.25 12.6568C14.429 12.6568 14.6007 12.7259 14.7273 12.849C14.8539 12.9721 14.925 13.139 14.925 13.3131C14.925 13.4871 14.8539 13.654 14.7273 13.7771C14.6007 13.9002 14.429 13.9693 14.25 13.9693C14.071 13.9693 13.8993 13.9002 13.7727 13.7771C13.6461 13.654 13.575 13.4871 13.575 13.3131C13.575 13.139 13.6461 12.9721 13.7727 12.849C13.8993 12.7259 14.071 12.6568 14.25 12.6568Z" fill="#1396FF"/>
</svg>
