<svg width="40" height="40" viewBox="0 0 40 40" fill="none" xmlns="http://www.w3.org/2000/svg">
<circle cx="20" cy="20" r="20" fill="#FF26E6"/>
<path fill-rule="evenodd" clip-rule="evenodd" d="M12 14.4954C12 14.4954 12 14.4954 12 14.4954C12 13.0008 13.1661 11.87 14.5534 11.162C15.9891 10.4293 17.9159 10 20 10C22.0841 10 24.0109 10.4293 25.4466 11.162C26.8339 11.87 28 13.0008 28 14.4954V25.3115C28 26.8372 26.8635 28.0206 25.4616 28.7736C24.0224 29.5467 22.0901 30 20 30C17.91 30 15.9776 29.5467 14.5384 28.7736C13.1365 28.0206 12 26.8372 12 25.3115V14.4954ZM13.618 14.4954C13.618 13.9633 14.0617 13.2592 15.277 12.639C16.4439 12.0435 18.1126 11.6514 20 11.6514C21.8874 11.6514 23.5561 12.0435 24.7231 12.639C25.9383 13.2592 26.382 13.9633 26.382 14.4954C26.382 15.0275 25.9383 15.7316 24.7231 16.3518C23.5561 16.9473 21.8874 17.3394 20 17.3394C18.1126 17.3394 16.4439 16.9473 15.277 16.3518C14.0617 15.7316 13.618 15.0275 13.618 14.4954ZM13.618 20.9255V21.8349C13.618 22.367 14.0617 23.071 15.277 23.6912C16.4439 24.2867 18.1126 24.6789 20 24.6789C21.8874 24.6789 23.5561 24.2867 24.7231 23.6912C25.9383 23.071 26.382 22.367 26.382 21.8349V20.9255C26.091 21.1397 25.775 21.331 25.4466 21.4985C24.0109 22.2312 22.0841 22.6606 20 22.6606C17.9159 22.6606 15.9891 22.2312 14.5534 21.4985C14.225 21.331 13.909 21.1397 13.618 20.9255ZM26.382 18.1651C26.382 18.6973 25.9383 19.4013 24.7231 20.0215C23.5561 20.617 21.8874 21.0092 20 21.0092C18.1126 21.0092 16.4439 20.617 15.277 20.0215C14.0617 19.4013 13.618 18.6973 13.618 18.1651V17.2558C13.909 17.47 14.225 17.6612 14.5534 17.8288C15.9891 18.5615 17.9159 18.9908 20 18.9908C22.0841 18.9908 24.0109 18.5615 25.4466 17.8288C25.775 17.6612 26.091 17.47 26.382 17.2558V18.1651ZM26.382 24.5952C26.091 24.8095 25.775 25.0007 25.4466 25.1683C24.0109 25.9009 22.0841 26.3303 20 26.3303C17.9159 26.3303 15.9891 25.9009 14.5534 25.1683C14.225 25.0007 13.909 24.8095 13.618 24.5952V25.3115C13.618 25.9191 14.0912 26.6673 15.292 27.3122C16.4554 27.9372 18.1186 28.3486 20 28.3486C21.8814 28.3486 23.5446 27.9372 24.708 27.3122C25.9088 26.6673 26.382 25.9191 26.382 25.3115V24.5952Z" fill="white"/>
<path d="M12 14.4954C12 14.4954 12 14.4954 12 14.4954ZM12 14.4954C12 13.0008 13.1661 11.87 14.5534 11.162C15.9891 10.4293 17.9159 10 20 10C22.0841 10 24.0109 10.4293 25.4466 11.162C26.8339 11.87 28 13.0008 28 14.4954V25.3115C28 26.8373 26.8635 28.0206 25.4616 28.7736C24.0224 29.5467 22.0901 30 20 30C17.91 30 15.9776 29.5467 14.5384 28.7736C13.1365 28.0206 12 26.8373 12 25.3115V14.4954ZM13.618 14.4954C13.618 13.9633 14.0617 13.2592 15.277 12.639C16.4439 12.0435 18.1126 11.6514 20 11.6514C21.8874 11.6514 23.5561 12.0435 24.7231 12.639C25.9383 13.2592 26.382 13.9633 26.382 14.4954C26.382 15.0275 25.9383 15.7316 24.7231 16.3518C23.5561 16.9473 21.8874 17.3394 20 17.3394C18.1126 17.3394 16.4439 16.9473 15.277 16.3518C14.0617 15.7316 13.618 15.0275 13.618 14.4954ZM13.618 20.9255V21.8349C13.618 22.367 14.0617 23.071 15.277 23.6912C16.4439 24.2867 18.1126 24.6789 20 24.6789C21.8874 24.6789 23.5561 24.2867 24.7231 23.6912C25.9383 23.071 26.382 22.367 26.382 21.8349V20.9255C26.091 21.1397 25.775 21.331 25.4466 21.4985C24.0109 22.2312 22.0841 22.6606 20 22.6606C17.9159 22.6606 15.9891 22.2312 14.5534 21.4985C14.225 21.331 13.909 21.1397 13.618 20.9255ZM26.382 18.1651C26.382 18.6973 25.9383 19.4013 24.7231 20.0215C23.5561 20.617 21.8874 21.0092 20 21.0092C18.1126 21.0092 16.4439 20.617 15.277 20.0215C14.0617 19.4013 13.618 18.6973 13.618 18.1651V17.2558C13.909 17.47 14.225 17.6612 14.5534 17.8288C15.9891 18.5615 17.9159 18.9908 20 18.9908C22.0841 18.9908 24.0109 18.5615 25.4466 17.8288C25.775 17.6612 26.091 17.47 26.382 17.2558V18.1651ZM26.382 24.5952C26.091 24.8095 25.775 25.0007 25.4466 25.1683C24.0109 25.9009 22.0841 26.3303 20 26.3303C17.9159 26.3303 15.9891 25.9009 14.5534 25.1683C14.225 25.0007 13.909 24.8095 13.618 24.5952V25.3115C13.618 25.9191 14.0912 26.6673 15.292 27.3122C16.4554 27.9372 18.1186 28.3486 20 28.3486C21.8814 28.3486 23.5446 27.9372 24.708 27.3122C25.9088 26.6673 26.382 25.9191 26.382 25.3115V24.5952Z" stroke="white" stroke-width="0.5"/>
</svg>
