<svg width="40" height="40" viewBox="0 0 40 40" fill="none" xmlns="http://www.w3.org/2000/svg">
<circle cx="20" cy="20" r="20" fill="#FF922C"/>
<circle cx="23.75" cy="16.25" r="6.25" stroke="white" stroke-width="2.5"/>
<path fill-rule="evenodd" clip-rule="evenodd" d="M16.25 31.25C20.3921 31.25 23.75 27.8921 23.75 23.75C23.75 19.6079 20.3921 16.25 16.25 16.25C12.1079 16.25 8.75 19.6079 8.75 23.75C8.75 27.8921 12.1079 31.25 16.25 31.25ZM16.7642 20.5886L19.1782 23.0025C19.4711 23.2954 19.4711 23.7703 19.1782 24.0632C18.8853 24.3561 18.4104 24.3561 18.1175 24.0632L16.9761 22.9218V26.3689C16.9761 26.7831 16.6403 27.1189 16.2261 27.1189C15.8119 27.1189 15.4761 26.7831 15.4761 26.3689V22.9374L14.3503 24.0632C14.0574 24.3561 13.5825 24.3561 13.2896 24.0632C12.9967 23.7703 12.9967 23.2954 13.2896 23.0025L15.7036 20.5886C15.9964 20.2957 16.4713 20.2957 16.7642 20.5886Z" fill="#FFFDFF"/>
</svg>
