<svg width="163" height="170" viewBox="0 0 163 170" fill="none" xmlns="http://www.w3.org/2000/svg">
<path fill-rule="evenodd" clip-rule="evenodd" d="M64.0161 167.918C58.438 167.918 48.5903 153.77 45.3755 146.109C43.7466 142.23 43.606 139.793 44.9341 138.445C48.2075 135.113 63.8169 127.57 68.6997 125.254C67.7739 122.457 65.5317 115.418 62.977 105.414L62.5083 103.586L73.9067 102.879L74.3286 103.926C74.5903 104.582 80.7817 120.098 82.4771 130.938C82.7036 132.383 82.0942 134.195 72.313 140.457C68.9536 142.605 65.5396 144.609 63.7427 145.648C65.7075 149.719 70.5708 161.039 66.7544 166.484C66.106 167.406 65.1372 167.918 64.02 167.918H64.0161Z" fill="white"/>
<path d="M72.879 104.508C72.879 104.508 79.2462 120.391 80.9337 131.18C81.3673 133.949 61.6798 145.027 61.6798 145.027C61.6798 145.027 69.4884 159.859 65.4727 165.59C65.1055 166.117 64.6094 166.355 64.0157 166.355C58.1602 166.355 42.7969 142.848 46.0469 139.539C49.6251 135.895 70.6251 126.07 70.6251 126.07C70.6251 126.07 67.8555 118.191 64.4884 105.027L72.8751 104.508M74.9337 101.25L72.6798 101.391L64.293 101.91L60.5235 102.145L61.4571 105.805C63.711 114.629 65.6876 121.062 66.7774 124.437C60.5665 127.406 47.0235 134.086 43.8126 137.355C41.418 139.793 42.7344 143.867 43.9298 146.723C45.7071 150.957 49.0313 156.387 52.6055 160.895C59.4219 169.488 62.8751 169.488 64.0079 169.488C65.6485 169.488 67.0743 168.742 68.0235 167.391C70.3165 164.121 70.3243 159.148 68.043 152.195C67.3008 149.926 66.4376 147.848 65.7423 146.297C67.6485 145.184 70.3907 143.547 73.1446 141.781C76.0626 139.914 78.3868 138.293 80.0509 136.961C82.6837 134.852 84.3673 132.98 84.0118 130.707C82.2891 119.691 76.0352 104.016 75.7696 103.355L74.9298 101.262L74.9337 101.25Z" fill="black"/>
<path fill-rule="evenodd" clip-rule="evenodd" d="M65.8716 164.902C65.9146 164.812 65.9537 164.723 65.9927 164.633C66.0123 164.59 66.0318 164.551 66.0474 164.512C66.0748 164.445 66.1021 164.375 66.1256 164.309C66.1763 164.172 66.2193 164.031 66.2623 163.891C66.2818 163.824 66.3013 163.762 66.3209 163.695C66.3717 163.508 66.4146 163.313 66.4498 163.117C66.4498 163.098 66.4576 163.078 66.4615 163.059C66.5006 162.84 66.5318 162.613 66.5552 162.387C66.5631 162.316 66.567 162.25 66.5709 162.18C66.5787 162.066 66.5865 161.953 66.5943 161.84C66.5943 161.785 66.6021 161.734 66.606 161.684C66.606 161.602 66.6099 161.52 66.6138 161.437C66.6138 161.332 66.6138 161.227 66.6138 161.121C66.6138 161.059 66.6138 161 66.6138 160.941C66.6138 160.863 66.6138 160.781 66.6099 160.703C66.6021 160.496 66.5943 160.285 66.5787 160.074C66.5787 160.035 66.5787 159.996 66.5709 159.957C66.5513 159.703 66.524 159.449 66.4966 159.191C66.4888 159.121 66.4771 159.051 66.4693 158.977C66.4459 158.789 66.4185 158.598 66.3873 158.406C66.3756 158.32 66.3599 158.23 66.3443 158.145C66.3131 157.961 66.2818 157.777 66.2467 157.594C66.231 157.508 66.2154 157.422 66.1959 157.336C66.1724 157.211 66.1451 157.086 66.1177 156.965C66.0982 156.871 66.0787 156.781 66.0592 156.687C66.0474 156.641 66.0396 156.594 66.0279 156.547C65.9693 156.281 65.9029 156.016 65.8365 155.75C65.8209 155.687 65.8013 155.621 65.7857 155.559C65.7349 155.355 65.6802 155.156 65.6216 154.957C65.5982 154.871 65.5748 154.785 65.5474 154.703C65.5318 154.648 65.5162 154.598 65.5006 154.543C65.4615 154.414 65.4263 154.281 65.3873 154.152C65.3638 154.07 65.3365 153.988 65.3131 153.902C65.2506 153.699 65.1842 153.492 65.1177 153.293C65.1021 153.242 65.0826 153.187 65.067 153.137C64.981 152.879 64.8951 152.625 64.8091 152.375C64.7935 152.332 64.7779 152.285 64.7623 152.242C64.7427 152.187 64.7232 152.133 64.7037 152.074C64.6529 151.926 64.5982 151.777 64.5474 151.633C64.5201 151.559 64.4927 151.488 64.4654 151.414C64.4498 151.371 64.4341 151.328 64.4185 151.285C64.3677 151.152 64.3209 151.02 64.2701 150.887C64.2427 150.82 64.2193 150.754 64.192 150.688C64.1177 150.496 64.0435 150.309 63.9732 150.125C63.9576 150.086 63.942 150.043 63.9263 150.004C63.8482 149.809 63.7701 149.621 63.6959 149.434C63.6802 149.398 63.6685 149.363 63.6529 149.328C63.6451 149.312 63.6412 149.297 63.6334 149.281C63.5904 149.18 63.5513 149.086 63.5123 148.988C63.4732 148.891 63.4302 148.793 63.3912 148.699C63.3717 148.652 63.3482 148.602 63.3287 148.555C63.2818 148.441 63.2349 148.336 63.1881 148.227C63.1685 148.184 63.149 148.137 63.1295 148.094C63.1099 148.051 63.0904 148.008 63.0748 147.965C63.0279 147.855 62.981 147.754 62.9342 147.652C62.9107 147.598 62.8834 147.539 62.8599 147.484C62.8521 147.465 62.8404 147.445 62.8326 147.422C62.2779 146.195 61.8521 145.359 61.7271 145.113C61.6998 145.062 61.6841 145.031 61.6841 145.031C61.6841 145.031 64.7427 143.688 68.4185 141.73C66.981 138.902 64.649 133.891 62.6998 129.922C56.3482 133.086 48.1646 137.391 46.0513 139.543C45.9888 139.609 45.9341 139.684 45.8834 139.766C45.8677 139.789 45.856 139.82 45.8404 139.844C45.8091 139.902 45.7779 139.965 45.7545 140.031C45.7427 140.063 45.731 140.098 45.7193 140.133C45.6959 140.203 45.6802 140.277 45.6646 140.355C45.6568 140.391 45.649 140.422 45.6451 140.457C45.6256 140.57 45.6138 140.691 45.6099 140.816C45.606 140.953 45.6099 141.102 45.6177 141.25C45.6412 141.641 45.7115 142.082 45.8248 142.559C45.9381 143.047 46.0982 143.578 46.2974 144.141C46.2974 144.141 46.2974 144.141 46.2974 144.145C46.3912 144.414 46.4966 144.695 46.6099 144.98C46.6099 144.98 46.6099 144.988 46.6138 144.992C46.7271 145.273 46.8443 145.563 46.9732 145.855C46.9732 145.859 46.9732 145.863 46.9771 145.867C47.0982 146.145 47.2271 146.43 47.3599 146.715C47.3834 146.766 47.4068 146.816 47.4341 146.871C47.567 147.152 47.7037 147.441 47.8482 147.73C47.8482 147.738 47.856 147.742 47.856 147.75C47.856 147.75 47.856 147.75 47.856 147.754C47.9693 147.984 48.0904 148.215 48.2115 148.449C48.2427 148.512 48.2779 148.578 48.3131 148.641C48.4029 148.816 48.4966 148.992 48.5943 149.168C48.6334 149.242 48.6724 149.316 48.7154 149.387C48.8091 149.562 48.9068 149.734 49.0045 149.91C49.0435 149.98 49.0826 150.047 49.1177 150.117C49.2349 150.328 49.356 150.539 49.481 150.75C49.5006 150.781 49.5201 150.816 49.5357 150.848C49.6802 151.098 49.8287 151.348 49.981 151.598C50.0045 151.637 50.0279 151.676 50.0513 151.715C50.1763 151.922 50.3013 152.129 50.4302 152.336C50.4732 152.406 50.5162 152.477 50.5591 152.547C50.6724 152.727 50.7857 152.906 50.899 153.086C50.9459 153.16 50.9927 153.234 51.0435 153.309C51.1646 153.496 51.2857 153.68 51.4068 153.867C51.4459 153.93 51.4849 153.988 51.5279 154.051C51.856 154.547 52.1881 155.039 52.5279 155.527C52.5709 155.586 52.6099 155.645 52.6529 155.703C52.7818 155.887 52.9107 156.07 53.0396 156.25C53.0904 156.324 53.1451 156.395 53.1959 156.469C53.317 156.641 53.442 156.809 53.567 156.977C53.6177 157.047 53.6724 157.117 53.7232 157.187C53.8638 157.375 54.0045 157.566 54.1451 157.75C54.1802 157.793 54.2115 157.84 54.2466 157.883C54.4224 158.117 54.6021 158.348 54.7818 158.578C54.8052 158.605 54.8287 158.637 54.8482 158.664C55.0006 158.859 55.1529 159.051 55.3052 159.242C55.356 159.309 55.4107 159.371 55.4615 159.438C55.5865 159.594 55.7115 159.746 55.8365 159.895C55.8951 159.965 55.9498 160.031 56.0084 160.102C56.1334 160.254 56.2584 160.398 56.3873 160.547C56.4381 160.609 56.4927 160.668 56.5435 160.73C56.7076 160.918 56.8717 161.105 57.0318 161.289C57.0435 161.301 57.0552 161.316 57.067 161.328C57.2427 161.527 57.4224 161.719 57.5982 161.91C57.6412 161.957 57.6881 162.004 57.731 162.051C57.8599 162.188 57.9888 162.324 58.1177 162.457C58.1763 162.516 58.2349 162.574 58.2896 162.637C58.4068 162.754 58.524 162.871 58.6373 162.988C58.6959 163.047 58.7545 163.102 58.8091 163.16C58.9341 163.281 59.0552 163.398 59.1802 163.512C59.2271 163.555 59.2701 163.598 59.317 163.641C59.4849 163.797 59.6529 163.945 59.817 164.09C59.8326 164.105 59.8482 164.117 59.8638 164.129C60.0123 164.258 60.1568 164.379 60.3013 164.496C60.3521 164.539 60.4029 164.578 60.4537 164.617C60.5631 164.703 60.6724 164.789 60.7818 164.871C60.8365 164.914 60.8912 164.953 60.9498 164.996C61.0552 165.074 61.1568 165.148 61.2584 165.219C61.3091 165.254 61.3638 165.293 61.4146 165.324C61.5357 165.406 61.6529 165.48 61.7701 165.551C61.8013 165.57 61.8326 165.59 61.8599 165.609C62.0045 165.695 62.149 165.777 62.2896 165.848C62.3248 165.867 62.3599 165.883 62.3951 165.898C62.5006 165.949 62.6021 166 62.7037 166.043C62.7506 166.062 62.7974 166.082 62.8443 166.098C62.9341 166.133 63.0201 166.164 63.106 166.191C63.1529 166.207 63.1998 166.223 63.2466 166.234C63.3326 166.258 63.4185 166.277 63.5045 166.297C63.5435 166.305 63.5826 166.312 63.6216 166.32C63.7427 166.34 63.8599 166.352 63.9732 166.355C64.0904 166.355 64.1998 166.348 64.3091 166.332C64.3443 166.328 64.3756 166.316 64.4068 166.312C64.481 166.297 64.5552 166.277 64.6256 166.254C64.6607 166.242 64.6959 166.227 64.731 166.211C64.8013 166.18 64.8638 166.145 64.9302 166.105C64.9576 166.086 64.9888 166.07 65.0162 166.051C65.106 165.988 65.192 165.918 65.2701 165.832C65.3404 165.758 65.4068 165.676 65.4693 165.59C65.5826 165.426 65.6881 165.25 65.7818 165.074C65.8131 165.02 65.8365 164.961 65.8677 164.902H65.8716Z" fill="url(#paint0_linear_52028_12641)"/>
<path d="M61.3633 129.797L68.5078 142.527" stroke="black" stroke-width="8" stroke-linecap="round" stroke-linejoin="round"/>
<path fill-rule="evenodd" clip-rule="evenodd" d="M100.848 167.918C99.7311 167.918 98.7624 167.41 98.1139 166.484C94.2975 161.039 99.1608 149.715 101.126 145.648C99.3288 144.609 95.9147 142.609 92.5553 140.457C82.7741 134.195 82.1647 132.383 82.3913 130.938C84.0866 120.098 90.2741 104.578 90.5397 103.926L90.9616 102.879L102.36 103.586L101.891 105.414C99.3366 115.414 97.0944 122.457 96.1686 125.254C101.051 127.57 116.661 135.113 119.934 138.445C121.262 139.797 121.118 142.234 119.489 146.121C116.274 153.777 106.426 167.922 100.856 167.922L100.848 167.918Z" fill="white"/>
<path d="M91.9847 104.508L100.371 105.027C97.0082 118.191 94.2386 126.07 94.2386 126.07C94.2386 126.07 115.239 135.895 118.817 139.539C122.067 142.848 106.703 166.355 100.848 166.355C100.254 166.355 99.7621 166.113 99.391 165.59C95.3753 159.859 103.184 145.027 103.184 145.027C103.184 145.027 83.5004 133.953 83.93 131.18C85.6175 120.391 91.9847 104.508 91.9847 104.508ZM89.9261 101.25L89.0863 103.344C88.8207 104.004 82.5668 119.684 80.8441 130.695C80.4886 132.973 82.1722 134.844 84.805 136.949C86.4691 138.281 88.7933 139.902 91.7113 141.77C94.4652 143.531 97.2074 145.172 99.1136 146.285C98.4183 147.832 97.555 149.914 96.8128 152.184C94.5355 159.137 94.5394 164.109 96.8324 167.379C97.7816 168.73 99.2074 169.477 100.848 169.477C101.981 169.477 105.434 169.477 112.25 160.883C115.825 156.375 119.149 150.945 120.926 146.711C122.121 143.859 123.438 139.781 121.043 137.344C117.832 134.074 104.289 127.395 98.0785 124.426C99.1683 121.051 101.145 114.621 103.399 105.793L104.332 102.133L100.563 101.898L92.1761 101.379L89.9222 101.238L89.9261 101.25Z" fill="black"/>
<path fill-rule="evenodd" clip-rule="evenodd" d="M98.9922 164.902C98.9492 164.812 98.9102 164.723 98.8711 164.633C98.8516 164.59 98.832 164.551 98.8164 164.512C98.7891 164.445 98.7617 164.375 98.7383 164.309C98.6875 164.172 98.6445 164.031 98.6016 163.891C98.582 163.824 98.5625 163.762 98.543 163.695C98.4922 163.508 98.4492 163.313 98.4141 163.117C98.4141 163.098 98.4063 163.078 98.4023 163.059C98.3633 162.84 98.332 162.613 98.3086 162.387C98.3008 162.316 98.2969 162.25 98.293 162.18C98.2852 162.066 98.2773 161.953 98.2695 161.84C98.2695 161.785 98.2617 161.734 98.2578 161.684C98.2578 161.602 98.2539 161.52 98.25 161.437C98.25 161.332 98.25 161.227 98.25 161.121C98.25 161.059 98.25 161 98.25 160.941C98.25 160.863 98.25 160.781 98.2539 160.703C98.2617 160.496 98.2695 160.285 98.2852 160.074C98.2852 160.035 98.2852 159.996 98.293 159.957C98.3125 159.703 98.3398 159.449 98.3672 159.191C98.375 159.121 98.3867 159.051 98.3945 158.977C98.418 158.789 98.4453 158.598 98.4766 158.406C98.4883 158.32 98.5039 158.23 98.5195 158.145C98.5508 157.961 98.582 157.777 98.6172 157.594C98.6328 157.508 98.6484 157.422 98.668 157.336C98.6914 157.211 98.7188 157.086 98.7461 156.965C98.7656 156.871 98.7852 156.781 98.8047 156.687C98.8164 156.641 98.8242 156.594 98.8359 156.547C98.8945 156.281 98.9609 156.016 99.0273 155.75C99.043 155.687 99.0625 155.621 99.0781 155.559C99.1289 155.355 99.1836 155.156 99.2422 154.957C99.2656 154.871 99.2891 154.785 99.3164 154.703C99.332 154.648 99.3477 154.598 99.3633 154.543C99.4023 154.414 99.4375 154.281 99.4766 154.152C99.5 154.07 99.5273 153.988 99.5508 153.902C99.6133 153.699 99.6797 153.492 99.7461 153.293C99.7617 153.242 99.7813 153.187 99.7969 153.137C99.8828 152.879 99.9688 152.625 100.055 152.375C100.07 152.332 100.086 152.285 100.102 152.242C100.121 152.187 100.141 152.133 100.16 152.074C100.211 151.926 100.266 151.777 100.316 151.633C100.344 151.559 100.371 151.488 100.398 151.414C100.414 151.371 100.43 151.328 100.445 151.285C100.496 151.152 100.543 151.02 100.594 150.887C100.621 150.82 100.645 150.754 100.672 150.688C100.746 150.496 100.82 150.309 100.891 150.125C100.906 150.086 100.922 150.043 100.938 150.004C101.016 149.809 101.094 149.621 101.168 149.434C101.184 149.398 101.195 149.363 101.211 149.328C101.219 149.312 101.223 149.297 101.23 149.281C101.273 149.18 101.313 149.086 101.352 148.988C101.391 148.891 101.434 148.793 101.473 148.699C101.492 148.652 101.516 148.602 101.535 148.555C101.582 148.441 101.629 148.336 101.676 148.227C101.695 148.184 101.715 148.137 101.734 148.094C101.754 148.051 101.773 148.008 101.789 147.965C101.836 147.855 101.883 147.754 101.93 147.652C101.953 147.598 101.98 147.539 102.004 147.484C102.012 147.465 102.023 147.445 102.031 147.422C102.586 146.195 103.012 145.359 103.137 145.113C103.164 145.062 103.18 145.031 103.18 145.031C103.18 145.031 100.121 143.688 96.4453 141.73C97.8828 138.902 100.215 133.891 102.164 129.922C108.516 133.086 116.699 137.391 118.813 139.543C118.875 139.609 118.93 139.684 118.98 139.766C118.996 139.789 119.008 139.82 119.023 139.844C119.055 139.902 119.086 139.965 119.109 140.031C119.121 140.063 119.133 140.098 119.145 140.133C119.168 140.203 119.184 140.277 119.199 140.355C119.207 140.391 119.215 140.422 119.219 140.457C119.238 140.57 119.25 140.691 119.254 140.816C119.258 140.953 119.254 141.102 119.246 141.25C119.223 141.641 119.152 142.082 119.039 142.559C118.926 143.047 118.766 143.578 118.566 144.141C118.566 144.141 118.566 144.141 118.566 144.145C118.473 144.414 118.367 144.695 118.254 144.98C118.254 144.98 118.254 144.988 118.25 144.992C118.137 145.273 118.02 145.563 117.891 145.855C117.891 145.859 117.891 145.863 117.887 145.867C117.766 146.145 117.637 146.43 117.504 146.715C117.48 146.766 117.457 146.816 117.43 146.871C117.297 147.152 117.16 147.441 117.016 147.73C117.016 147.738 117.008 147.742 117.008 147.75C117.008 147.75 117.008 147.75 117.008 147.754C116.895 147.984 116.773 148.215 116.652 148.449C116.621 148.512 116.586 148.578 116.551 148.641C116.461 148.816 116.367 148.992 116.27 149.168C116.23 149.242 116.191 149.316 116.148 149.387C116.055 149.562 115.957 149.734 115.859 149.91C115.82 149.98 115.781 150.047 115.746 150.117C115.629 150.328 115.508 150.539 115.383 150.75C115.363 150.781 115.344 150.816 115.328 150.848C115.184 151.098 115.035 151.348 114.883 151.598C114.859 151.637 114.836 151.676 114.813 151.715C114.688 151.922 114.563 152.129 114.434 152.336C114.391 152.406 114.348 152.477 114.305 152.547C114.191 152.727 114.078 152.906 113.965 153.086C113.918 153.16 113.871 153.234 113.82 153.309C113.699 153.496 113.578 153.68 113.457 153.867C113.418 153.93 113.379 153.988 113.336 154.051C113.008 154.547 112.676 155.039 112.336 155.527C112.293 155.586 112.254 155.645 112.211 155.703C112.082 155.887 111.953 156.07 111.824 156.25C111.773 156.324 111.719 156.395 111.668 156.469C111.547 156.641 111.422 156.809 111.297 156.977C111.246 157.047 111.191 157.117 111.141 157.187C111 157.375 110.859 157.566 110.719 157.75C110.684 157.793 110.652 157.84 110.617 157.883C110.441 158.117 110.262 158.348 110.082 158.578C110.059 158.605 110.035 158.637 110.016 158.664C109.863 158.859 109.711 159.051 109.559 159.242C109.508 159.309 109.453 159.371 109.402 159.438C109.277 159.594 109.152 159.746 109.027 159.895C108.969 159.965 108.914 160.031 108.855 160.102C108.73 160.254 108.605 160.398 108.477 160.547C108.426 160.609 108.371 160.668 108.32 160.73C108.156 160.918 107.992 161.105 107.832 161.289C107.82 161.301 107.809 161.316 107.797 161.328C107.621 161.527 107.441 161.719 107.266 161.91C107.223 161.957 107.176 162.004 107.133 162.051C107.004 162.188 106.875 162.324 106.746 162.457C106.688 162.516 106.629 162.574 106.574 162.637C106.457 162.754 106.34 162.871 106.227 162.988C106.168 163.047 106.109 163.102 106.055 163.16C105.93 163.281 105.809 163.398 105.684 163.512C105.637 163.555 105.594 163.598 105.547 163.641C105.379 163.797 105.211 163.945 105.047 164.09C105.031 164.105 105.016 164.117 105 164.129C104.852 164.258 104.707 164.379 104.563 164.496C104.512 164.539 104.461 164.578 104.41 164.617C104.301 164.703 104.191 164.789 104.082 164.871C104.027 164.914 103.973 164.953 103.914 164.996C103.809 165.074 103.707 165.148 103.605 165.219C103.555 165.254 103.5 165.293 103.449 165.324C103.328 165.406 103.211 165.48 103.094 165.551C103.063 165.57 103.031 165.59 103.004 165.609C102.859 165.695 102.715 165.777 102.574 165.848C102.539 165.867 102.504 165.883 102.469 165.898C102.363 165.949 102.262 166 102.16 166.043C102.113 166.062 102.066 166.082 102.02 166.098C101.93 166.133 101.844 166.164 101.758 166.191C101.711 166.207 101.664 166.223 101.617 166.234C101.531 166.258 101.445 166.277 101.359 166.297C101.32 166.305 101.281 166.312 101.242 166.32C101.121 166.34 101.004 166.352 100.891 166.355C100.773 166.355 100.664 166.348 100.555 166.332C100.52 166.328 100.488 166.316 100.457 166.312C100.383 166.297 100.309 166.277 100.238 166.254C100.203 166.242 100.168 166.227 100.133 166.211C100.063 166.18 100 166.145 99.9336 166.105C99.9063 166.086 99.875 166.07 99.8477 166.051C99.7578 165.988 99.6719 165.918 99.5938 165.832C99.5234 165.758 99.457 165.676 99.3945 165.59C99.2813 165.426 99.1758 165.25 99.082 165.074C99.0508 165.02 99.0274 164.961 98.9961 164.902H98.9922Z" fill="url(#paint1_linear_52028_12641)"/>
<path d="M103.504 129.797L96.3594 142.527" stroke="black" stroke-width="8" stroke-linecap="round" stroke-linejoin="round"/>
<path fill-rule="evenodd" clip-rule="evenodd" d="M118.059 116.445C111.926 116.445 94.2383 116.285 78.6289 116.145C66 116.031 55.0937 115.934 52.039 115.934C40.8086 115.934 29.7851 111.316 21.8007 103.27C13.8828 95.2891 9.48043 84.7383 9.41012 73.5625C9.3359 62.2969 13.6562 51.7695 21.5742 43.9102C29.332 36.2148 39.6757 31.9766 50.707 31.9766C61.7383 31.9766 72.8476 36.4609 80.9297 44.6055C81.6406 45.3242 82.332 46.0703 82.9922 46.8359C87.6289 42.5234 92.8711 39.1289 98.9765 36.4844C103.906 34.1641 110.09 32.8867 116.391 32.8867C128.262 32.8867 139.125 37.2422 146.973 45.1563C154.914 53.1602 159.312 63.7461 159.359 74.9648C159.406 86.1914 155.086 96.6836 147.199 104.512C139.441 112.211 129.094 116.449 118.062 116.449L118.059 116.445Z" fill="white"/>
<path d="M50.707 33.5352C61.6952 33.5352 72.0312 37.8555 79.8163 45.7031C80.8945 46.7891 81.9101 47.9336 82.8593 49.125C87.6562 44.3828 93.1523 40.7031 99.6171 37.9063C104.348 35.6758 110.297 34.4492 116.391 34.4492C127.844 34.4492 138.309 38.6406 145.863 46.2578C161.68 62.1992 161.785 87.8359 146.098 103.398C138.633 110.805 128.676 114.883 118.062 114.883C107.078 114.883 58.9687 114.367 52.0429 114.367C41.2265 114.367 30.6093 109.918 22.914 102.164C15.2851 94.4766 11.0468 84.3125 10.9765 73.5469C10.9062 62.707 15.0624 52.5742 22.6796 45.0156C30.1406 37.6133 40.0976 33.5352 50.7148 33.5352M50.7148 30.4102C39.2695 30.4102 28.5312 34.8086 20.4804 42.7969C12.2616 50.9531 7.77727 61.8789 7.85149 73.5664C7.92962 85.1523 12.4882 96.0899 20.6952 104.363C28.9726 112.707 40.3984 117.488 52.0429 117.488C55.0976 117.488 66.0116 117.586 78.6523 117.703C94.2499 117.844 111.93 118.004 118.066 118.004C129.512 118.004 140.254 113.605 148.305 105.613C165.219 88.8359 165.121 61.2188 148.09 44.0508C139.945 35.8398 128.691 31.3203 116.398 31.3203C109.879 31.3203 103.469 32.6445 98.3398 35.0547C92.5937 37.5469 87.582 40.6914 83.1171 44.6172C82.7656 44.2383 82.4062 43.8633 82.0468 43.5C73.6718 35.0586 62.5429 30.4062 50.7187 30.4062L50.7148 30.4102Z" fill="black"/>
<path fill-rule="evenodd" clip-rule="evenodd" d="M139.188 52.8793C128.27 41.8754 111.723 42.5238 103.5 46.473C90.3986 52.0941 84.7228 60.8402 79.7189 68.5472L79.3557 69.1097C74.6994 76.2777 70.301 83.0472 61.5471 88.2894C60.426 89.0824 59.1955 89.7347 57.8869 90.2308C51.4338 92.6918 44.0666 91.0629 39.1252 86.0785C32.2814 79.1801 32.2072 68.1215 38.9572 61.4261C45.7111 54.7269 56.7697 54.8871 63.6135 61.7855C65.4572 63.6449 66.8361 65.8168 67.7189 68.2465L68.4885 70.3675L77.5197 57.8129L77.0666 57.1293C75.926 55.4144 74.6057 53.8011 73.1447 52.3285C60.9768 40.0629 41.3088 39.7777 29.301 51.6918C17.2932 63.6058 17.4221 83.2738 29.59 95.5394C39.6916 105.719 55.2228 107.895 67.2893 100.864C77.3049 95.9261 82.9963 87.9457 88.8869 78.7855L89.5432 77.766C95.2971 68.805 99.8439 61.7269 111.418 57.9886C117.719 55.8129 124.879 57.5199 129.66 62.3363C136.5 69.2308 136.574 80.2855 129.824 86.9847C123.074 93.68 112.016 93.5199 105.176 86.6254C103.481 84.9144 102.164 82.9261 101.266 80.7035L100.457 78.7074L91.5627 91.0707L92.0392 91.7621C93.1017 93.2933 94.3127 94.7504 95.6408 96.0902C107.805 108.352 127.473 108.633 139.481 96.7191C151.488 84.8051 151.36 65.141 139.195 52.8793H139.188Z" fill="url(#paint2_linear_52028_12641)"/>
<path fill-rule="evenodd" clip-rule="evenodd" d="M88.25 42.6328C88.25 42.6328 83.3242 46.3086 81.2188 49.5352L88.25 42.6328Z" fill="white"/>
<path d="M88.25 42.6328C88.25 42.6328 83.3242 46.3086 81.2188 49.5352" stroke="black" stroke-width="3" stroke-linecap="round" stroke-linejoin="round"/>
<path fill-rule="evenodd" clip-rule="evenodd" d="M33.8653 26.6393C38.8661 23.6832 44.5747 22.1094 50.5823 22.1094C56.5883 22.1094 62.3631 23.6823 67.4416 26.6334C68.1877 27.067 68.441 28.0233 68.0075 28.7694C67.5739 29.5155 66.6176 29.7689 65.8714 29.3353C61.2702 26.6615 56.0372 25.2344 50.5823 25.2344C45.1289 25.2344 39.9703 26.6606 35.4555 29.3294C34.7127 29.7686 33.7545 29.5223 33.3153 28.7795C32.8762 28.0366 33.1224 27.0784 33.8653 26.6393Z" fill="black"/>
<path fill-rule="evenodd" clip-rule="evenodd" d="M101.315 26.6393C106.315 23.6832 112.024 22.1094 118.032 22.1094C124.038 22.1094 129.812 23.6823 134.891 26.6334C135.637 27.067 135.89 28.0233 135.457 28.7694C135.023 29.5155 134.067 29.7689 133.321 29.3353C128.719 26.6615 123.486 25.2344 118.032 25.2344C112.578 25.2344 107.42 26.6606 102.905 29.3294C102.162 29.7686 101.204 29.5223 100.765 28.7795C100.325 28.0366 100.572 27.0784 101.315 26.6393Z" fill="black"/>
<path d="M51.5977 84.6172C57.4225 84.6172 62.1445 79.8952 62.1445 74.0703C62.1445 68.2454 57.4225 63.5234 51.5977 63.5234C45.7728 63.5234 41.0508 68.2454 41.0508 74.0703C41.0508 79.8952 45.7728 84.6172 51.5977 84.6172Z" fill="white"/>
<path d="M51.5977 65.0859C56.5586 65.0859 60.582 69.1094 60.582 74.0703C60.582 79.0312 56.5586 83.0547 51.5977 83.0547C46.6367 83.0547 42.6133 79.0312 42.6133 74.0703C42.6133 69.1094 46.6367 65.0859 51.5977 65.0859ZM51.5977 61.9609C44.9219 61.9609 39.4883 67.3945 39.4883 74.0703C39.4883 80.7461 44.9219 86.1797 51.5977 86.1797C58.2734 86.1797 63.707 80.7461 63.707 74.0703C63.707 67.3945 58.2734 61.9609 51.5977 61.9609Z" fill="black"/>
<path d="M117.168 84.6172C122.993 84.6172 127.715 79.8952 127.715 74.0703C127.715 68.2454 122.993 63.5234 117.168 63.5234C111.343 63.5234 106.621 68.2454 106.621 74.0703C106.621 79.8952 111.343 84.6172 117.168 84.6172Z" fill="white"/>
<path d="M117.168 65.0859C122.129 65.0859 126.152 69.1094 126.152 74.0703C126.152 79.0312 122.129 83.0547 117.168 83.0547C112.207 83.0547 108.184 79.0312 108.184 74.0703C108.184 69.1094 112.207 65.0859 117.168 65.0859ZM117.168 61.9609C110.492 61.9609 105.059 67.3945 105.059 74.0703C105.059 80.7461 110.492 86.1797 117.168 86.1797C123.844 86.1797 129.277 80.7461 129.277 74.0703C129.277 67.3945 123.844 61.9609 117.168 61.9609Z" fill="black"/>
<path fill-rule="evenodd" clip-rule="evenodd" d="M127.332 28.6758C126.945 28.6758 126.563 28.625 126.188 28.5234L123.547 27.8086C121.332 27.207 119.953 24.9727 120.406 22.7227L123.922 5.35547C124.332 3.32422 126.133 1.85156 128.203 1.85156C128.641 1.85156 129.074 1.91797 129.496 2.04688L135.121 3.78906C136.281 4.14844 137.246 4.98438 137.774 6.07812C138.297 7.17188 138.34 8.44922 137.891 9.57812L131.391 25.918C130.727 27.5898 129.133 28.6719 127.332 28.6719V28.6758Z" fill="#F7D35B"/>
<path d="M128.207 3.41797C128.481 3.41797 128.762 3.45703 129.039 3.54297L134.664 5.28516C136.227 5.76953 137.047 7.48437 136.442 9.00391L129.942 25.3438C129.508 26.4336 128.457 27.1133 127.332 27.1133C127.09 27.1133 126.84 27.082 126.598 27.0156L123.957 26.3008C122.528 25.9141 121.649 24.4844 121.942 23.0352L125.457 5.67188C125.731 4.32812 126.911 3.42187 128.207 3.42187M128.207 0.296874C125.399 0.296874 122.953 2.29687 122.395 5.05469L118.879 22.418C118.262 25.4727 120.133 28.5039 123.141 29.3203L125.782 30.0352C126.289 30.1719 126.813 30.2422 127.336 30.2422C129.782 30.2422 131.942 28.7734 132.848 26.5039L139.348 10.1641C139.957 8.63281 139.899 6.89844 139.188 5.41016C138.477 3.92187 137.164 2.78906 135.59 2.30078L129.965 0.558594C129.395 0.382813 128.805 0.292969 128.207 0.292969V0.296874Z" fill="black"/>
<path fill-rule="evenodd" clip-rule="evenodd" d="M123.59 40.5937C123.344 40.5937 123.097 40.5625 122.855 40.5039L119 39.5234C117.41 39.1211 116.449 37.5 116.851 35.9102L117.586 33.0117C117.922 31.6914 119.105 30.7695 120.465 30.7695C120.711 30.7695 120.957 30.8008 121.199 30.8594L125.054 31.8398C126.644 32.2422 127.605 33.8633 127.203 35.4531L126.469 38.3516C126.133 39.6719 124.949 40.5937 123.59 40.5937Z" fill="#F7D35B"/>
<path d="M120.465 32.332C120.578 32.332 120.696 32.3477 120.813 32.375L124.668 33.3555C125.422 33.5469 125.879 34.3125 125.688 35.0703L124.953 37.9687C124.793 38.6055 124.219 39.0312 123.59 39.0312C123.477 39.0312 123.36 39.0156 123.242 38.9883L119.387 38.0078C118.633 37.8164 118.176 37.0508 118.367 36.2969L119.102 33.3984C119.266 32.7617 119.836 32.3359 120.465 32.3359M120.465 29.2109C118.391 29.2109 116.582 30.6172 116.071 32.6289L115.336 35.5273C115.039 36.6992 115.215 37.9219 115.832 38.9609C116.453 40 117.438 40.7383 118.613 41.0391L122.469 42.0195C122.836 42.1133 123.211 42.1602 123.586 42.1602C125.66 42.1602 127.469 40.7539 127.981 38.7422L128.715 35.8437C129.328 33.4219 127.86 30.9492 125.438 30.332L121.582 29.3516C121.215 29.2578 120.84 29.2109 120.465 29.2109Z" fill="black"/>
<path fill-rule="evenodd" clip-rule="evenodd" d="M144.699 33.3828C144.113 33.3828 143.531 33.2344 143.012 32.957L140.602 31.6641C138.949 30.7773 138.262 28.7461 139.039 27.0391L145.254 13.3945C145.832 12.125 147.109 11.3047 148.508 11.3047C149.137 11.3047 149.758 11.4727 150.305 11.793L154.973 14.5117C155.832 15.0117 156.445 15.8555 156.66 16.8242C156.875 17.793 156.676 18.8164 156.109 19.6328L147.637 31.8477C146.969 32.8086 145.871 33.3828 144.703 33.3828H144.699Z" fill="#F7D35B"/>
<path d="M148.504 12.8672C148.847 12.8672 149.195 12.9531 149.512 13.1406L154.179 15.8633C155.191 16.4531 155.484 17.7812 154.82 18.7422L146.347 30.957C145.961 31.5156 145.336 31.8203 144.695 31.8203C144.375 31.8203 144.047 31.7422 143.746 31.582L141.336 30.2891C140.402 29.7891 140.019 28.6523 140.457 27.6875L146.672 14.043C147.012 13.2969 147.742 12.8672 148.5 12.8672M148.5 9.74219C146.492 9.74219 144.656 10.9219 143.828 12.75L137.613 26.3945C136.496 28.8477 137.48 31.7695 139.855 33.043L142.265 34.3359C143.008 34.7344 143.847 34.9453 144.691 34.9453C146.375 34.9453 147.953 34.1211 148.91 32.7383L157.383 20.5234C158.195 19.3516 158.484 17.8789 158.176 16.4883C157.867 15.0938 156.984 13.8828 155.75 13.1641L151.082 10.4414C150.297 9.98438 149.406 9.74219 148.5 9.74219Z" fill="black"/>
<path fill-rule="evenodd" clip-rule="evenodd" d="M138.534 44.0781C138.147 44.0781 137.765 43.9844 137.421 43.8086L134.05 42.0664C132.858 41.4492 132.39 39.9805 133.003 38.7891L134.374 36.1328C134.792 35.3203 135.62 34.8164 136.538 34.8164C136.925 34.8164 137.308 34.9102 137.651 35.0859L141.022 36.8281C142.214 37.4453 142.683 38.9141 142.069 40.1055L140.698 42.7617C140.28 43.5742 139.452 44.0781 138.534 44.0781Z" fill="#F7D35B"/>
<path d="M136.535 36.3789C136.667 36.3789 136.804 36.4102 136.933 36.4766L140.304 38.2148C140.73 38.4336 140.898 38.9609 140.679 39.3867L139.308 42.043C139.152 42.3437 138.851 42.5156 138.535 42.5156C138.402 42.5156 138.265 42.4844 138.136 42.418L134.765 40.6797C134.339 40.4609 134.171 39.9336 134.39 39.5078L135.761 36.8516C135.917 36.5508 136.218 36.3789 136.535 36.3789ZM136.535 33.2539C135.035 33.2539 133.671 34.082 132.984 35.418L131.613 38.0742C130.601 40.0312 131.374 42.4453 133.332 43.457L136.703 45.1953C137.265 45.4883 137.902 45.6406 138.535 45.6406C140.035 45.6406 141.398 44.8125 142.085 43.4766L143.457 40.8203C144.464 38.8633 143.695 36.4492 141.738 35.4375L138.367 33.6992C137.804 33.4102 137.171 33.2539 136.535 33.2539Z" fill="black"/>
<path fill-rule="evenodd" clip-rule="evenodd" d="M83.4451 120.613C78.0232 120.613 72.9295 120.457 69.1053 120.168C62.6756 119.688 61.3865 119.055 60.9373 117.828C59.574 114.121 66.5623 100.621 69.117 96.1875C73.4217 88.7109 74.9412 88.4453 75.6717 88.3164L75.7381 88.3047C78.2771 87.8633 80.8709 87.6367 83.449 87.6367C86.0271 87.6367 88.6209 87.8633 91.1599 88.3047L91.2264 88.3164C91.9568 88.4453 93.4764 88.7109 97.781 96.1836C100.336 100.621 107.324 114.121 105.961 117.828C105.508 119.059 104.222 119.688 97.7928 120.168C93.9646 120.453 88.8709 120.613 83.4529 120.613H83.4451Z" fill="black"/>
<path d="M83.4452 89.1953C85.9373 89.1953 88.4256 89.4101 90.8866 89.8398C90.91 89.8398 90.9295 89.8476 90.953 89.8516C93.992 90.3867 105.801 113.727 104.492 117.289C104.062 118.465 93.7537 119.051 83.4491 119.051C73.1444 119.051 62.8358 118.465 62.4061 117.289C61.0975 113.73 72.9061 90.3867 75.9452 89.8516C75.9686 89.8516 75.9881 89.8437 76.0116 89.8398C78.4725 89.4101 80.9608 89.1953 83.453 89.1953M83.453 86.0703C80.785 86.0703 78.1014 86.3047 75.4725 86.7617H75.4413L75.4022 86.7734C73.9998 87.0195 72.7733 87.9883 71.1678 90.1133C70.1639 91.4453 69.0194 93.2227 67.7655 95.3984C65.5545 99.2383 63.2655 103.883 61.6483 107.812C58.8397 114.637 58.9413 116.914 59.4725 118.359C60.3319 120.703 62.9842 121.27 68.992 121.719C72.8592 122.008 77.992 122.168 83.4491 122.168C88.9061 122.168 94.0428 122.008 97.9061 121.719C103.914 121.27 106.562 120.703 107.426 118.359C107.957 116.914 108.058 114.637 105.25 107.812C103.633 103.879 101.344 99.2383 99.1327 95.3984C94.8241 87.918 92.9959 87.0352 91.492 86.7695L91.4569 86.7617H91.4334C88.8006 86.2969 86.117 86.0664 83.4491 86.0664L83.453 86.0703Z" fill="black"/>
<path fill-rule="evenodd" clip-rule="evenodd" d="M65.5703 106.59C63.3828 111.48 61.8906 115.895 62.3984 117.289C63.2617 119.637 103.621 119.637 104.484 117.289C104.996 115.898 103.504 111.484 101.312 106.59C95.957 103.82 89.8828 102.258 83.4374 102.258C76.9921 102.258 70.9179 103.824 65.5624 106.59H65.5703Z" fill="#E66E67"/>
<path fill-rule="evenodd" clip-rule="evenodd" d="M32.2151 126.43C28.8361 126.43 24.7307 123.969 21.5002 120.012C19.4065 117.441 17.9611 114.566 17.4338 111.914C16.8361 108.914 17.4611 106.484 19.1877 105.074C20.1096 104.32 21.3049 103.926 22.6369 103.926C26.0158 103.926 30.1213 106.387 33.3518 110.344C35.4455 112.914 36.8908 115.789 37.4182 118.441C38.0158 121.441 37.3908 123.871 35.6643 125.281C34.7424 126.035 33.5471 126.43 32.2151 126.43Z" fill="white"/>
<path d="M22.6368 105.488C25.4258 105.488 29.1563 107.676 32.1407 111.332C36.1446 116.242 37.2813 121.945 34.6758 124.07C34.0118 124.613 33.168 124.867 32.2149 124.867C29.4258 124.867 25.6954 122.68 22.711 119.023C18.7071 114.113 17.5704 108.41 20.1758 106.285C20.8399 105.742 21.6836 105.488 22.6368 105.488ZM22.6368 102.363C20.9375 102.363 19.4024 102.883 18.1993 103.863C14.129 107.18 15.0274 114.547 20.2891 120.996C23.8086 125.309 28.379 127.992 32.2149 127.992C33.9141 127.992 35.4493 127.473 36.6524 126.492C40.7227 123.176 39.8243 115.809 34.5625 109.359C31.043 105.047 26.4727 102.363 22.6368 102.363Z" fill="black"/>
<path fill-rule="evenodd" clip-rule="evenodd" d="M40.9848 122.066C35.5863 122.066 30.8246 119.902 27.5746 115.973C23.0746 110.535 22.2895 103.246 25.473 96.4805C27.6527 91.8476 31.141 88.7383 34.1527 88.7383C34.559 88.7383 34.9535 88.793 35.3285 88.9062C38.5277 89.8594 40.1371 92.3008 39.852 95.7812C39.8441 95.875 39.8715 95.957 39.9301 96.0195C39.977 96.0703 40.0395 96.1016 40.0941 96.1016C40.1215 96.1016 40.1488 96.0977 40.1762 96.082C41.7426 95.4687 43.3012 95.1562 44.8012 95.1562C47.3559 95.1562 51.0668 96.0977 54.2465 100.59C57.4965 105.176 58.1215 109.953 56.0082 114.039C53.5277 118.84 47.4887 122.062 40.9809 122.062L40.9848 122.066Z" fill="white"/>
<path d="M34.1527 90.2969C34.4066 90.2969 34.6488 90.332 34.8832 90.3984C37.8832 91.293 38.4613 93.5859 38.2933 95.6523C38.2035 96.7656 39.0746 97.6641 40.0941 97.6641C40.3089 97.6641 40.5277 97.625 40.7464 97.5391C41.9222 97.0781 43.3128 96.7227 44.805 96.7227C47.4418 96.7227 50.3871 97.8438 52.9769 101.496C60.5003 112.113 50.9964 120.504 40.9886 120.504C36.5355 120.504 31.9808 118.844 28.7816 114.977C20.0472 104.418 28.973 90.3008 34.1566 90.3008M34.1566 87.1758C30.4964 87.1758 26.5316 90.5703 24.0628 95.8203C20.6175 103.148 21.4808 111.055 26.3753 116.969C29.93 121.262 35.1175 123.629 40.9886 123.629C48.0628 123.629 54.6605 120.062 57.4027 114.758C58.7894 112.074 60.391 106.547 55.5277 99.6875C51.9574 94.6523 47.7269 93.5977 44.805 93.5977C43.6839 93.5977 42.5433 93.75 41.3949 94.0469C41.055 90.8008 39.0472 88.3789 35.7738 87.4062C35.2542 87.2539 34.7113 87.1758 34.1527 87.1758H34.1566Z" fill="black"/>
<path fill-rule="evenodd" clip-rule="evenodd" d="M136.551 126.43C135.215 126.43 134.023 126.031 133.102 125.281C129.777 122.57 130.793 116.012 135.414 110.348C138.645 106.387 142.75 103.93 146.129 103.93C147.465 103.93 148.656 104.328 149.578 105.078C152.902 107.789 151.887 114.348 147.266 120.012C144.035 123.973 139.93 126.43 136.551 126.43Z" fill="white"/>
<path d="M146.129 105.488C147.082 105.488 147.926 105.746 148.59 106.285C151.195 108.41 150.059 114.109 146.055 119.023C143.07 122.68 139.34 124.867 136.551 124.867C135.598 124.867 134.754 124.609 134.09 124.07C131.484 121.945 132.621 116.246 136.625 111.332C139.609 107.676 143.34 105.488 146.129 105.488ZM146.129 102.363C142.293 102.363 137.723 105.043 134.203 109.359C131.949 112.121 130.391 115.238 129.812 118.137C129.105 121.68 129.945 124.723 132.113 126.492C133.316 127.473 134.851 127.992 136.551 127.992C140.387 127.992 144.957 125.312 148.476 120.996C150.73 118.234 152.289 115.117 152.867 112.219C153.574 108.676 152.734 105.633 150.566 103.863C149.363 102.883 147.828 102.363 146.129 102.363Z" fill="black"/>
<path fill-rule="evenodd" clip-rule="evenodd" d="M127.782 122.066C121.274 122.066 115.235 118.84 112.754 114.039C110.641 109.949 111.266 105.176 114.516 100.59C117.7 96.1016 121.41 95.1563 123.961 95.1563C125.465 95.1563 127.02 95.4687 128.586 96.082C128.617 96.0937 128.645 96.1016 128.668 96.1016C128.723 96.1016 128.785 96.0703 128.832 96.0195C128.891 95.957 128.918 95.875 128.91 95.7813C128.625 92.2969 130.231 89.8555 133.434 88.9023C133.809 88.793 134.203 88.7344 134.61 88.7344C137.621 88.7344 141.11 91.8477 143.289 96.4766C146.473 103.242 145.688 110.531 141.188 115.969C137.938 119.898 133.176 122.063 127.782 122.063V122.066Z" fill="white"/>
<path d="M134.613 90.2969C139.797 90.2969 148.723 104.418 139.988 114.973C136.789 118.84 132.238 120.5 127.781 120.5C117.774 120.5 108.266 112.105 115.793 101.492C118.383 97.8398 121.328 96.7188 123.965 96.7188C125.457 96.7188 126.848 97.0781 128.024 97.5352C128.242 97.6211 128.461 97.6602 128.676 97.6602C129.692 97.6602 130.567 96.7656 130.477 95.6484C130.309 93.582 130.887 91.2891 133.887 90.3945C134.121 90.3242 134.363 90.293 134.617 90.293M134.617 87.168C134.063 87.168 133.516 87.2461 132.996 87.4023C129.727 88.375 127.715 90.7969 127.375 94.043C126.227 93.7422 125.086 93.5938 123.965 93.5938C121.043 93.5938 116.813 94.6523 113.242 99.6836C108.379 106.547 109.981 112.07 111.367 114.754C114.11 120.059 120.707 123.625 127.781 123.625C133.652 123.625 138.844 121.258 142.395 116.965C147.289 111.047 148.152 103.141 144.703 95.8125C142.235 90.5625 138.274 87.1719 134.61 87.1719L134.617 87.168Z" fill="black"/>
<path fill-rule="evenodd" clip-rule="evenodd" d="M13.1244 74.7188C13.1244 74.7188 4.29236 81.6484 9.31579 85.2852C13.3822 88.2305 17.4564 80.957 17.4564 80.957" fill="white"/>
<path d="M13.1244 74.7188C13.1244 74.7188 4.29235 81.6484 9.31579 85.2852C13.3822 88.2305 17.4564 80.957 17.4564 80.957" stroke="black" stroke-width="3" stroke-linecap="round" stroke-linejoin="round"/>
<path fill-rule="evenodd" clip-rule="evenodd" d="M155.422 76.2773C155.422 76.2773 164.254 83.207 159.23 86.8438C155.164 89.7891 151.09 82.5156 151.09 82.5156" fill="white"/>
<path d="M155.422 76.2773C155.422 76.2773 164.254 83.207 159.23 86.8438C155.164 89.7891 151.09 82.5156 151.09 82.5156" stroke="black" stroke-width="3" stroke-linecap="round" stroke-linejoin="round"/>
<path fill-rule="evenodd" clip-rule="evenodd" d="M152.871 58.1523C152.871 58.1523 161.43 61.5977 158.297 65.6211C155.762 68.8789 150.883 64.0664 150.883 64.0664" fill="white"/>
<path d="M152.871 58.1523C152.871 58.1523 161.43 61.5977 158.297 65.6211C155.762 68.8789 150.883 64.0664 150.883 64.0664" stroke="black" stroke-width="3" stroke-linecap="round" stroke-linejoin="round"/>
<path fill-rule="evenodd" clip-rule="evenodd" d="M6.52694 105.453C5.60897 105.453 4.68319 105.07 3.6949 104.285C2.76522 103.543 2.28084 102.543 2.30037 101.391C2.35506 97.918 7.33553 94.0273 8.33553 93.2813C8.60897 93.0742 8.93709 92.9727 9.26913 92.9727C9.49569 92.9727 9.72616 93.0234 9.93709 93.1211C10.4605 93.3672 10.8043 93.8828 10.8316 94.4609C10.8902 95.7148 11.066 102.09 8.82381 104.438C8.191 105.102 7.39803 105.453 6.53084 105.453H6.52694Z" fill="white"/>
<path d="M9.26932 94.5312C9.26932 94.5312 9.70291 103.891 6.53104 103.891C6.01151 103.891 5.39822 103.641 4.67166 103.062C1.36697 100.43 9.27322 94.5352 9.27322 94.5352M9.27322 91.4102C8.61307 91.4102 7.95291 91.6211 7.40604 92.0312C7.34354 92.0781 5.85916 93.1875 4.36697 94.6992C1.96072 97.1289 0.777132 99.3125 0.741975 101.367C0.714632 102.996 1.42166 104.469 2.72635 105.508C3.98416 106.508 5.26541 107.02 6.53494 107.02C7.80447 107.02 9.03885 106.488 9.96072 105.52C11.2888 104.125 12.0389 101.883 12.3123 98.457C12.4842 96.3242 12.4021 94.4727 12.3982 94.3945C12.3435 93.2383 11.656 92.207 10.6131 91.7148C10.1873 91.5156 9.73026 91.4141 9.27713 91.4141L9.27322 91.4102Z" fill="black"/>
<path fill-rule="evenodd" clip-rule="evenodd" d="M66.0386 44.3242C66.0386 44.3242 61.1871 50.7305 64.9996 52.6367C70.1949 55.2344 71.2339 47.6992 71.2339 47.6992" fill="white"/>
<path d="M66.0386 44.3242C66.0386 44.3242 61.1871 50.7305 64.9996 52.6367C70.1949 55.2344 71.2339 47.6992 71.2339 47.6992" stroke="black" stroke-width="3" stroke-linecap="round" stroke-linejoin="round"/>
<defs>
<linearGradient id="paint0_linear_52028_12641" x1="45.606" y1="148.137" x2="68.4146" y2="148.137" gradientUnits="userSpaceOnUse">
<stop stop-color="#596AD2"/>
<stop offset="1" stop-color="#8075F5"/>
</linearGradient>
<linearGradient id="paint1_linear_52028_12641" x1="119.262" y1="148.137" x2="96.4492" y2="148.137" gradientUnits="userSpaceOnUse">
<stop stop-color="#596AD2"/>
<stop offset="1" stop-color="#8075F5"/>
</linearGradient>
<linearGradient id="paint2_linear_52028_12641" x1="20.3752" y1="74.2074" x2="148.395" y2="74.2074" gradientUnits="userSpaceOnUse">
<stop stop-color="#596AD2"/>
<stop offset="1" stop-color="#8075F5"/>
</linearGradient>
</defs>
</svg>
