<svg width="16" height="16" viewBox="0 0 16 16" fill="none" xmlns="http://www.w3.org/2000/svg">
<path fill-rule="evenodd" clip-rule="evenodd" d="M13.7125 3.65348C13.9839 3.84355 14.0499 4.21768 13.8598 4.48912L12.0626 7.05577C12.0575 7.0631 12.0524 7.07037 12.0473 7.0777C11.9172 7.2635 11.7935 7.4403 11.6745 7.5763C11.5434 7.72617 11.3734 7.8805 11.1315 7.96384C11.0058 8.0071 10.8741 8.0303 10.7412 8.03264C10.4854 8.0371 10.2729 7.95017 10.0984 7.85417C9.94009 7.7671 9.76343 7.6433 9.57756 7.51317C9.57029 7.50804 9.56303 7.50297 9.55569 7.49784L8.79116 6.9625C8.57543 6.81144 8.45263 6.7265 8.35829 6.67457C8.33343 6.66088 8.31603 6.65272 8.30489 6.64798C8.29603 6.65625 8.28249 6.66984 8.26383 6.69124C8.19289 6.7723 8.10656 6.8941 7.95549 7.10984L6.15831 9.6765C5.96825 9.94797 5.59412 10.0139 5.32268 9.82384C5.05123 9.63377 4.98527 9.25964 5.17533 8.98824L6.97256 6.42155C6.97763 6.41424 6.98276 6.40694 6.98789 6.39966C7.11796 6.2138 7.24169 6.03707 7.36069 5.90106C7.49176 5.75121 7.66176 5.59682 7.90363 5.51354C8.02936 5.47026 8.16103 5.44704 8.29396 5.44472C8.54969 5.44026 8.76223 5.52719 8.93669 5.62316C9.09503 5.71028 9.27176 5.83404 9.45756 5.96418C9.46483 5.96928 9.47216 5.9744 9.47943 5.97951L10.244 6.51485C10.4597 6.6659 10.5825 6.75084 10.6769 6.80277C10.7017 6.81644 10.7191 6.82464 10.7302 6.82937C10.7391 6.8211 10.7526 6.8075 10.7714 6.7861C10.8423 6.70504 10.9286 6.58322 11.0796 6.3675L12.8768 3.80083C13.0669 3.52938 13.441 3.46342 13.7125 3.65348Z" fill="#8492C4"/>
<path fill-rule="evenodd" clip-rule="evenodd" d="M13.9338 13.3331C13.9338 13.6644 13.6651 13.9331 13.3338 13.9331H7.43202C6.46184 13.9331 5.68495 13.9331 5.06498 13.8659C4.42635 13.7968 3.88346 13.6506 3.41364 13.3092C3.13632 13.1077 2.89244 12.8638 2.69095 12.5865C2.34961 12.1167 2.20342 11.5738 2.13423 10.9352C2.06706 10.3152 2.06706 9.53829 2.06708 8.56802V2.66641C2.06708 2.33503 2.3357 2.06641 2.66708 2.06641C2.99844 2.06641 3.26708 2.33503 3.26708 2.66641V8.53309C3.26708 9.54635 3.2679 10.2582 3.32724 10.8059C3.38538 11.3424 3.49382 11.65 3.66177 11.8812C3.78924 12.0566 3.94354 12.2109 4.11898 12.3384C4.35014 12.5063 4.6577 12.6148 5.19424 12.6729C5.742 12.7322 6.45378 12.7331 7.46708 12.7331H13.3338C13.6651 12.7331 13.9338 13.0017 13.9338 13.3331Z" fill="#8492C4"/>
</svg>
