<svg width="120" height="90" viewBox="0 0 120 90" fill="none" xmlns="http://www.w3.org/2000/svg">
<path fill-rule="evenodd" clip-rule="evenodd" d="M81.5989 70.9898C77.1471 70.9898 64.306 70.8746 52.9757 70.7701C43.8069 70.6871 35.8891 70.6148 33.6685 70.6148C25.531 70.6148 17.5462 67.2693 11.7605 61.438C6.023 55.6576 2.8355 48.013 2.78193 39.9157C2.72836 31.7541 5.85693 24.1255 11.5944 18.4335C17.2141 12.8594 24.7087 9.78711 32.7016 9.78711C40.6944 9.78711 48.7409 13.0362 54.5962 18.9371C55.1266 19.4728 55.6409 20.03 56.1337 20.6032C59.506 17.4559 63.323 14.9782 67.7694 13.055C71.34 11.3755 75.8212 10.4487 80.3882 10.4487C88.9891 10.4487 96.8587 13.6068 102.545 19.3362C114.444 31.3309 114.519 50.6193 102.709 62.3353C97.0891 67.9121 89.5917 70.9818 81.5989 70.9818V70.9898Z" fill="white"/>
<path d="M32.7027 10.8616C40.6795 10.8616 48.1849 13.9982 53.8367 19.6955C54.6188 20.483 55.3554 21.3134 56.0438 22.1786C59.5259 18.7339 63.517 16.0634 68.2099 14.033C71.6465 12.4125 75.9617 11.5232 80.3867 11.5232C88.701 11.5232 96.3001 14.5661 101.783 20.0946C113.266 31.6688 113.341 50.2795 101.952 61.5804C96.5331 66.9563 89.3036 69.9161 81.5974 69.9161C73.6233 69.9161 38.6947 69.5438 33.667 69.5438C25.8134 69.5438 18.1045 66.3134 12.5197 60.6857C6.98309 55.1036 3.90273 47.7268 3.85184 39.9107C3.80094 32.0411 6.81702 24.6857 12.3483 19.1973C17.767 13.8214 24.9938 10.8616 32.7001 10.8616M32.7001 8.71875C24.4233 8.71875 16.6608 11.9009 10.8402 17.6759C4.89648 23.5714 1.65541 31.4732 1.71166 39.9241C1.76791 48.3027 5.06523 56.2125 11.0009 62.1937C16.9876 68.2259 25.2483 71.6866 33.6697 71.6866C35.8849 71.6866 43.8081 71.7589 52.9795 71.842C64.3072 71.9438 77.1456 72.0616 81.6001 72.0616C89.8768 72.0616 97.642 68.8795 103.465 63.1045C115.693 50.9732 115.623 31.0018 103.307 18.5893C97.417 12.6536 89.2795 9.38303 80.3893 9.38303C75.6751 9.38303 71.0385 10.342 67.3313 12.083C63.1313 13.9045 59.4751 16.2054 56.2179 19.0875C55.9367 18.7821 55.6501 18.4821 55.3608 18.1875C49.3045 12.083 41.2581 8.71875 32.7054 8.71875H32.7001Z" fill="black"/>
<path fill-rule="evenodd" clip-rule="evenodd" d="M96.9365 24.9082C89.0107 16.9207 76.9973 17.3894 71.0294 20.2582C61.5178 24.3403 57.3982 30.6885 53.7633 36.2841L53.4981 36.6912C50.1178 41.8957 46.9249 46.8109 40.5687 50.6144C39.7544 51.1903 38.8598 51.6644 37.9115 52.0234C33.2267 53.81 27.8803 52.626 24.291 49.0073C19.3223 44.001 19.2687 35.9707 24.1678 31.1091C29.0696 26.2448 37.0999 26.3626 42.0687 31.3689C43.408 32.7162 44.4071 34.2966 45.0499 36.0591L45.6071 37.5993L52.1642 28.4867L51.8348 27.9912C51.0071 26.7484 50.0481 25.5751 48.9874 24.5064C40.1535 15.6028 25.8767 15.3966 17.158 24.0457C8.43922 32.6948 8.53297 46.9743 17.3669 55.8778C24.7008 63.268 35.9749 64.8457 44.7365 59.743C52.0089 56.1591 56.1392 50.3626 60.4142 43.7144L60.8883 42.9751C65.0669 36.4689 68.3669 31.3314 76.7669 28.618C81.3419 27.0376 86.5383 28.2778 90.0098 31.7734C94.9758 36.7796 95.0294 44.8046 90.1303 49.6662C85.2312 54.5278 77.2008 54.4126 72.2374 49.4064C71.0053 48.1662 70.0517 46.7225 69.3981 45.1073L68.8089 43.6582L62.3508 52.6314L62.6964 53.1323C63.4678 54.2439 64.3464 55.3019 65.3106 56.2743C74.1419 65.1751 88.4214 65.3814 97.1374 56.7296C105.854 48.0805 105.762 33.8037 96.9312 24.9028L96.9365 24.9082Z" fill="url(#paint0_linear_52028_12571)"/>
<path fill-rule="evenodd" clip-rule="evenodd" d="M58.5426 18.4961C58.5426 18.4961 56.381 20.1407 54.8516 22.4818L58.5426 18.4961Z" fill="white"/>
<path fill-rule="evenodd" clip-rule="evenodd" d="M59.1934 19.3474C59.1932 19.3475 59.1931 19.3477 59.1929 19.3478L59.1926 19.348L59.191 19.3492L59.1774 19.3598C59.1645 19.3699 59.1438 19.386 59.1162 19.4081C59.061 19.4521 58.9779 19.5196 58.8723 19.6084C58.661 19.7864 58.3609 20.0493 58.0147 20.3824C57.3177 21.0529 56.4554 21.987 55.7498 23.067C55.4261 23.5624 54.7622 23.7016 54.2668 23.378C53.7714 23.0544 53.6322 22.3904 53.9558 21.895C54.7797 20.634 55.7629 19.5752 56.5291 18.8381C56.9144 18.4674 57.2504 18.1728 57.4921 17.9693C57.6131 17.8674 57.7108 17.788 57.7798 17.733C57.8143 17.7055 57.8416 17.6841 57.861 17.669C57.8707 17.6614 57.8785 17.6554 57.8842 17.651L57.8912 17.6456L57.8936 17.6438L57.8948 17.6429C57.895 17.6427 57.8951 17.6426 58.5439 18.4953L57.8951 17.6426C58.366 17.2843 59.0383 17.3756 59.3966 17.8466C59.7547 18.3172 59.6637 18.989 59.1934 19.3474Z" fill="black"/>
<path fill-rule="evenodd" clip-rule="evenodd" d="M20.5029 5.91121C24.1221 3.7717 28.2562 2.63086 32.6062 2.63086C36.9552 2.63086 41.1372 3.77112 44.8148 5.90703C45.3265 6.20422 45.5004 6.85995 45.2032 7.37164C44.906 7.88333 44.2503 8.05722 43.7386 7.76003C40.3876 5.81381 36.5768 4.77372 32.6062 4.77372C28.6366 4.77372 24.8795 5.81323 21.5934 7.75586C21.084 8.05698 20.427 7.88815 20.1258 7.37877C19.8247 6.86939 19.9935 6.21234 20.5029 5.91121Z" fill="black"/>
<path fill-rule="evenodd" clip-rule="evenodd" d="M69.4717 5.91121C73.0909 3.7717 77.2249 2.63086 81.5749 2.63086C85.9239 2.63086 90.106 3.77112 93.7836 5.90703C94.2953 6.20422 94.4692 6.85995 94.172 7.37164C93.8748 7.88333 93.2191 8.05722 92.7074 7.76003C89.3564 5.81381 85.5456 4.77372 81.5749 4.77372C77.6053 4.77372 73.8483 5.81323 70.5621 7.75586C70.0528 8.05698 69.3957 7.88815 69.0946 7.37877C68.7935 6.86939 68.9623 6.21234 69.4717 5.91121Z" fill="black"/>
<path fill-rule="evenodd" clip-rule="evenodd" d="M24.6641 40.2921C24.6641 39.7004 25.1438 39.2207 25.7355 39.2207H40.9551C41.5469 39.2207 42.0266 39.7004 42.0266 40.2921C42.0266 40.8839 41.5469 41.3636 40.9551 41.3636H25.7355C25.1438 41.3636 24.6641 40.8839 24.6641 40.2921Z" fill="black"/>
<path d="M80.9536 47.9013C85.1564 47.9013 88.5634 44.4943 88.5634 40.2915C88.5634 36.0887 85.1564 32.6816 80.9536 32.6816C76.7508 32.6816 73.3438 36.0887 73.3438 40.2915C73.3438 44.4943 76.7508 47.9013 80.9536 47.9013Z" fill="black"/>
<path d="M79.1431 40.8194C80.3828 40.8194 81.3877 39.8144 81.3877 38.5747C81.3877 37.335 80.3828 36.3301 79.1431 36.3301C77.9034 36.3301 76.8984 37.335 76.8984 38.5747C76.8984 39.8144 77.9034 40.8194 79.1431 40.8194Z" fill="white"/>
<mask id="mask0_52028_12571" style="mask-type:luminance" maskUnits="userSpaceOnUse" x="58" y="18" width="48" height="47">
<path d="M81.9871 64.7847C94.8292 64.7847 105.24 54.3741 105.24 41.532C105.24 28.6899 94.8292 18.2793 81.9871 18.2793C69.1449 18.2793 58.7344 28.6899 58.7344 41.532C58.7344 54.3741 69.1449 64.7847 81.9871 64.7847Z" fill="white"/>
</mask>
<g mask="url(#mask0_52028_12571)">
<path fill-rule="evenodd" clip-rule="evenodd" d="M83.0392 79.7256C77.4544 79.7256 61.3428 79.581 47.1276 79.4497C35.6017 79.3453 25.6455 79.2542 22.8544 79.2542C12.708 79.2542 2.75442 75.0836 -4.46165 67.814C-11.6134 60.606 -15.5884 51.0756 -15.6554 40.9774C-15.7224 30.8042 -11.8197 21.2953 -4.67058 14.1997C2.33388 7.24883 11.6794 3.42383 21.641 3.42383C31.6026 3.42383 41.6392 7.47651 48.941 14.8345C49.6696 15.5685 50.3741 16.3399 51.0437 17.1301C55.308 13.1042 60.1428 9.94883 65.7892 7.50329C70.2383 5.40865 75.8232 4.25686 81.5205 4.25686C92.2482 4.25686 102.06 8.19168 109.15 15.3381C123.987 30.2926 124.078 54.3408 109.356 68.947C102.349 75.8979 93.0062 79.7256 83.0419 79.7256H83.0392Z" fill="white"/>
<path d="M21.6394 4.49564C31.6546 4.49564 41.0805 8.43582 48.1787 15.5903C49.1618 16.5787 50.0885 17.6233 50.951 18.7108C55.3225 14.3876 60.3368 11.0314 66.2296 8.48404C70.5448 6.451 75.9635 5.33136 81.5189 5.33136C91.96 5.33136 101.501 9.15368 108.388 16.0939C122.806 30.6278 122.903 53.9956 108.599 68.1867C101.796 74.9367 92.718 78.6546 83.0403 78.6546C73.0252 78.6546 29.1662 78.1858 22.8555 78.1858C12.993 78.1858 3.31533 74.1305 -3.69985 67.0617C-10.6534 60.0519 -14.5186 50.7894 -14.5829 40.9724C-14.6472 31.0912 -10.8597 21.8528 -3.91413 14.9635C2.88944 8.2135 11.9644 4.49833 21.6421 4.49833M21.6421 2.35547C11.3966 2.35547 1.78319 6.29297 -5.42217 13.4448C-12.7802 20.7439 -16.7927 30.526 -16.7257 40.9912C-16.6561 51.368 -12.5713 61.1662 -5.22127 68.5751C2.19301 76.0483 12.4252 80.334 22.8555 80.334C25.6412 80.334 35.5948 80.4251 47.118 80.5296C61.3359 80.6581 77.4528 80.8028 83.0403 80.8028C93.2885 80.8028 102.902 76.8653 110.11 69.7135C125.252 54.6921 125.161 29.9635 109.909 14.5912C102.618 7.24118 92.5359 3.19386 81.5189 3.19386C75.6743 3.19386 69.9341 4.38047 65.3457 6.53672C59.9484 8.87511 55.2743 11.8537 51.1252 15.6037C50.6618 15.0867 50.185 14.5805 49.6975 14.0903C42.1948 6.52868 32.2305 2.3635 21.6368 2.3635L21.6421 2.35547Z" fill="black"/>
<path fill-rule="evenodd" clip-rule="evenodd" d="M102.302 22.1312C92.3509 12.0999 77.2625 12.6919 69.7706 16.2919C57.8242 21.416 52.6518 29.3874 48.0902 36.416L47.7581 36.9276C43.5125 43.4633 39.5027 49.6347 31.5233 54.4106C30.5 55.1338 29.3777 55.7285 28.1884 56.1785C22.3036 58.4231 15.5911 56.9365 11.0831 52.3937C4.84469 46.1071 4.77505 36.0249 10.9304 29.9205C17.0858 23.8133 27.1706 23.958 33.409 30.2472C35.0884 31.9401 36.3474 33.9222 37.1509 36.1374L37.8527 38.0713L46.0867 26.6285L45.6742 26.0071C44.6349 24.4455 43.4322 22.9722 42.0983 21.6303C31.0063 10.4499 13.0759 10.1901 2.12862 21.0517C-8.82138 31.9106 -8.70352 49.841 2.38844 61.0214C11.5974 70.3026 25.7563 72.2847 36.7572 65.8749C45.8884 61.3722 51.0742 54.0972 56.4447 45.7481L57.042 44.8187C62.2893 36.649 66.4331 30.1964 76.9813 26.7919C82.7242 24.8097 89.2518 26.3633 93.6099 30.7535C99.8456 37.0374 99.9125 47.1169 93.7599 53.224C87.6072 59.3285 77.525 59.1838 71.2893 52.8972C69.7438 51.3383 68.5438 49.5249 67.7242 47.4999L66.9849 45.6812L58.8768 56.9499L59.3108 57.5794C60.2777 58.9749 61.384 60.3035 62.5947 61.5249C73.684 72.7026 91.6143 72.9597 102.562 62.0981C113.509 51.2392 113.391 33.3088 102.302 22.1312Z" fill="url(#paint1_linear_52028_12571)"/>
<path d="M47.25 64.1602C47.25 64.1602 52.1491 68.8155 57.2946 64.1602" stroke="black" stroke-width="8" stroke-linecap="round" stroke-linejoin="round"/>
<path d="M82.229 51.0069C87.5073 51.0069 91.7862 46.728 91.7862 41.4497C91.7862 36.1715 87.5073 31.8926 82.229 31.8926C76.9508 31.8926 72.6719 36.1715 72.6719 41.4497C72.6719 46.728 76.9508 51.0069 82.229 51.0069Z" fill="black"/>
<path d="M79.9507 42.1142C81.5069 42.1142 82.7685 40.8526 82.7685 39.2964C82.7685 37.7401 81.5069 36.4785 79.9507 36.4785C78.3944 36.4785 77.1328 37.7401 77.1328 39.2964C77.1328 40.8526 78.3944 42.1142 79.9507 42.1142Z" fill="white"/>
</g>
<path d="M104.658 79.1823C104.588 79.1823 104.519 79.1769 104.452 79.1608C104.173 79.1046 103.927 78.9412 103.769 78.7055L93.8821 63.9653C90.2313 65.9046 86.1437 66.9278 81.9893 66.9278C67.9857 66.9278 56.5938 55.5358 56.5938 41.5323C56.5938 27.5287 67.9857 16.1367 81.9893 16.1367C95.9929 16.1367 107.385 27.5287 107.385 41.5323C107.385 48.5689 104.457 55.2733 99.3223 60.0787L109.321 74.9823C109.651 75.4724 109.52 76.1394 109.029 76.4689L105.258 79.0001C105.081 79.1206 104.872 79.1823 104.661 79.1823H104.658ZM81.9893 21.8956C71.1598 21.8956 62.3527 30.7055 62.3527 41.5349C62.3527 52.3644 71.1625 61.1742 81.9893 61.1742C92.8161 61.1742 101.629 52.3644 101.629 41.5349C101.629 30.7055 92.8187 21.8956 81.9893 21.8956Z" fill="#F7D35B"/>
<path d="M81.9904 17.208C95.402 17.208 106.315 28.1205 106.315 41.5321C106.315 48.858 103.057 55.4393 97.9172 59.9018L108.433 75.5768L104.662 78.108L94.2234 62.5509C90.6288 64.6509 86.4475 65.8563 81.9904 65.8563C68.5788 65.8563 57.6663 54.9438 57.6663 41.5321C57.6663 28.1205 68.5788 17.208 81.9904 17.208ZM81.9904 62.2429C93.4091 62.2429 102.701 52.9536 102.701 41.5348C102.701 30.1161 93.4118 20.8241 81.9904 20.8241C70.569 20.8241 61.2824 30.1134 61.2824 41.5348C61.2824 52.9563 70.5716 62.2429 81.9904 62.2429ZM81.9904 15.0652C67.3975 15.0652 55.5234 26.9393 55.5234 41.5321C55.5234 56.125 67.3975 67.9991 81.9904 67.9991C85.9922 67.9991 89.9404 67.0884 93.5217 65.35L102.881 79.3C103.293 79.9161 103.971 80.2482 104.662 80.2482C105.072 80.2482 105.487 80.1304 105.854 79.8839L109.625 77.3527C110.097 77.0366 110.423 76.5438 110.533 75.9866C110.643 75.4295 110.528 74.8509 110.209 74.3795L100.711 60.2205C105.656 55.2679 108.457 48.558 108.457 41.5295C108.457 26.9366 96.5833 15.0625 81.9904 15.0625V15.0652ZM81.9904 60.1C71.7529 60.1 63.4252 51.7723 63.4252 41.5348C63.4252 31.2973 71.7529 22.967 81.9904 22.967C92.2279 22.967 100.558 31.2973 100.558 41.5348C100.558 51.7723 92.2279 60.1 81.9904 60.1Z" fill="black"/>
<path fill-rule="evenodd" clip-rule="evenodd" d="M23.045 77.4925C21.5316 77.4925 20.0557 77.2032 18.6628 76.63C15.5584 75.355 13.1905 72.8131 12.0119 69.5452C11.2834 69.9014 10.5628 70.0863 9.88247 70.0863C9.40569 70.0863 8.94497 69.9979 8.51908 69.8211C5.41997 68.5488 4.85479 63.2747 7.2039 57.5586C9.1539 52.8122 12.5209 49.4961 15.395 49.4961C15.8744 49.4961 16.3325 49.5845 16.761 49.7613C17.4521 50.0452 18.3066 50.6559 18.8771 51.9604C20.6959 51.0068 22.67 50.5086 24.6575 50.5086C26.1709 50.5086 27.6468 50.7979 29.0423 51.3711C32.1441 52.6434 34.5066 55.1666 35.7012 58.4693C36.8798 61.7372 36.7727 65.3827 35.3932 68.739C33.2423 73.9756 28.2843 77.4925 23.053 77.4925H23.045Z" fill="white"/>
<path d="M15.3896 50.5647C15.7244 50.5647 16.0458 50.6237 16.3485 50.7496C17.3289 51.1513 17.969 52.1719 18.2556 53.5674C20.1896 52.2844 22.4128 51.5772 24.6521 51.5772C25.9914 51.5772 27.336 51.829 28.6297 52.3594C34.4556 54.7513 37.0351 61.9031 34.3967 68.329C32.3422 73.3299 27.7351 76.4183 23.0476 76.4183C21.7083 76.4183 20.3637 76.1665 19.0699 75.6362C15.7431 74.2701 13.4744 71.3478 12.6333 67.8978C11.6905 68.6129 10.7422 69.0121 9.87975 69.0121C9.54493 69.0121 9.22618 68.9531 8.9235 68.8272C6.46993 67.8201 6.14046 62.9531 8.19225 57.9629C9.98957 53.5862 13.019 50.5647 15.3922 50.5647M15.3922 48.4219C12.044 48.4219 8.35564 51.9308 6.2101 57.1487C5.09582 59.8594 4.57082 62.6612 4.73153 65.0344C4.92707 67.946 6.12707 69.9978 8.11189 70.8121C8.66903 71.0397 9.26368 71.1576 9.88243 71.1576C10.3914 71.1576 10.903 71.0826 11.4172 70.9299C12.7994 73.9915 15.1967 76.3647 18.2556 77.621C19.7797 78.2478 21.3922 78.5638 23.0476 78.5638C25.8226 78.5638 28.5521 77.6799 30.9387 76.0058C33.3467 74.3183 35.2271 71.9451 36.3789 69.146C39.4646 61.6353 36.3521 53.2165 29.444 50.3799C27.9199 49.7531 26.3074 49.4371 24.6521 49.4371C22.8306 49.4371 21.0199 49.8228 19.3164 50.5621C18.7592 49.7397 18.0306 49.1263 17.1628 48.7701C16.6056 48.5424 16.0083 48.4246 15.3896 48.4246L15.3922 48.4219Z" fill="black"/>
<path d="M105.017 86.8738C111.878 86.8738 117.44 81.3117 117.44 74.4506C117.44 67.5894 111.878 62.0273 105.017 62.0273C98.1558 62.0273 92.5938 67.5894 92.5938 74.4506C92.5938 81.3117 98.1558 86.8738 105.017 86.8738Z" fill="white"/>
<path d="M105.018 63.096C111.289 63.096 116.37 68.1799 116.37 74.4478C116.37 80.7156 111.286 85.7995 105.018 85.7995C98.7502 85.7995 93.6663 80.7156 93.6663 74.4478C93.6663 68.1799 98.7502 63.096 105.018 63.096ZM105.018 60.9531C97.577 60.9531 91.5234 67.0067 91.5234 74.4478C91.5234 81.8888 97.577 87.9424 105.018 87.9424C112.459 87.9424 118.513 81.8888 118.513 74.4478C118.513 67.0067 112.459 60.9531 105.018 60.9531Z" fill="black"/>
<path d="M54.5703 58.4824C54.5703 58.4824 58.473 62.1896 62.5685 58.4824" stroke="black" stroke-width="2" stroke-linecap="round" stroke-linejoin="round"/>
<defs>
<linearGradient id="paint0_linear_52028_12571" x1="10.6812" y1="40.3903" x2="103.622" y2="40.3903" gradientUnits="userSpaceOnUse">
<stop stop-color="#596AD2"/>
<stop offset="1" stop-color="#8075F5"/>
</linearGradient>
<linearGradient id="paint1_linear_52028_12571" x1="-6.00888" y1="41.5749" x2="110.696" y2="41.5749" gradientUnits="userSpaceOnUse">
<stop stop-color="#596AD2"/>
<stop offset="1" stop-color="#8075F5"/>
</linearGradient>
</defs>
</svg>
