<svg width="36" height="36" viewBox="0 0 36 36" fill="none" xmlns="http://www.w3.org/2000/svg">
<rect x="2" y="2" width="32" height="32" rx="10" fill="#212946" stroke="#111936" stroke-width="4"/>
<path fill-rule="evenodd" clip-rule="evenodd" d="M17.1289 13.875C17.1289 13.3918 17.5207 13 18.0039 13C18.4872 13 18.8789 13.3918 18.8789 13.875V19.8499L21.0975 17.6313C21.4392 17.2896 21.9932 17.2896 22.3349 17.6313C22.6766 17.973 22.6766 18.527 22.3349 18.8687L18.6226 22.581C18.451 22.7527 18.2257 22.8381 18.0007 22.8373C17.7757 22.8381 17.5504 22.7527 17.3787 22.581L13.6664 18.8687C13.3247 18.527 13.3247 17.973 13.6664 17.6313C14.0081 17.2896 14.5622 17.2896 14.9039 17.6313L17.1289 19.8563V13.875Z" fill="#8492C4"/>
</svg>
