<svg width="36" height="36" viewBox="0 0 36 36" fill="none" xmlns="http://www.w3.org/2000/svg">
<rect x="2" y="2" width="32" height="32" rx="10" fill="#111936" stroke="#212946" stroke-width="4"/>
<path fill-rule="evenodd" clip-rule="evenodd" d="M16.6875 14.0625C16.6875 13.5793 17.0793 13.1875 17.5625 13.1875C18.0457 13.1875 18.4375 13.5793 18.4375 14.0625V20.0374L20.6561 17.8188C20.9978 17.4771 21.5518 17.4771 21.8935 17.8188C22.2352 18.1605 22.2352 18.7145 21.8935 19.0562L18.1812 22.7685C18.0095 22.9402 17.7843 23.0256 17.5593 23.0248C17.3343 23.0256 17.109 22.9402 16.9373 22.7685L13.225 19.0562C12.8833 18.7145 12.8833 18.1605 13.225 17.8188C13.5667 17.4771 14.1208 17.4771 14.4625 17.8188L16.6875 20.0438V14.0625Z" fill="#8492C4"/>
</svg>
