<svg width="32" height="33" viewBox="0 0 32 33" fill="none" xmlns="http://www.w3.org/2000/svg">
<rect y="0.625" width="32" height="32" rx="16" fill="#2E354D"/>
<path d="M18 15.9023H23.1213C23.6213 15.9023 23.8713 16.1446 23.8713 16.629C23.8713 17.1134 23.6213 17.3557 23.1213 17.3557H18C17.5 17.3557 17.25 17.1134 17.25 16.629C17.25 16.1446 17.5 15.9023 18 15.9023Z" fill="white"/>
<path d="M25.2499 16.6476L22.4538 14.4133V18.882L25.2499 16.6476ZM18.5002 20.1936V22.3931C18.5002 22.6003 18.4152 22.7989 18.2641 22.9453C18.1129 23.0918 17.9079 23.1741 17.6941 23.1741H11.7984C11.5846 23.1741 11.3796 23.0918 11.2284 22.9453C11.0772 22.7989 10.9922 22.6003 10.9922 22.3931V10.867C10.9922 10.7645 11.013 10.6629 11.0536 10.5681C11.0941 10.4734 11.1535 10.3873 11.2283 10.3148C11.3032 10.2422 11.3921 10.1847 11.4899 10.1455C11.5877 10.1063 11.6926 10.0861 11.7984 10.0861H17.6941C17.9079 10.0861 18.1129 10.1684 18.2641 10.3148C18.4152 10.4613 18.5002 10.6599 18.5002 10.867V13.022C18.5002 13.2133 18.5786 13.3967 18.7182 13.532C18.8578 13.6672 19.0471 13.7432 19.2445 13.7432H19.2947C19.3873 13.7432 19.4791 13.7256 19.5647 13.6912C19.6502 13.6569 19.728 13.6065 19.7935 13.543C19.859 13.4796 19.911 13.4042 19.9465 13.3213C19.9819 13.2384 20.0002 13.1495 20.0002 13.0597V10.867C20.0002 10.2745 19.7572 9.7062 19.3247 9.2872C18.8923 8.8682 18.3057 8.63281 17.6941 8.63281H11.7984C11.4956 8.63278 11.1957 8.69055 10.9159 8.80282C10.6361 8.91509 10.3818 9.07965 10.1677 9.28712C9.95353 9.49459 9.78365 9.7409 9.66774 10.012C9.55184 10.2831 9.49219 10.5736 9.49219 10.867V22.3931C9.49219 22.6866 9.55184 22.9771 9.66774 23.2482C9.78365 23.5193 9.95353 23.7656 10.1677 23.9731C10.3818 24.1805 10.6361 24.3451 10.9159 24.4574C11.1957 24.5696 11.4956 24.6274 11.7984 24.6274H17.6941C18.3057 24.6274 18.8923 24.392 19.3247 23.973C19.7572 23.554 20.0002 22.9857 20.0002 22.3931V20.3294C20.0002 20.1187 19.9137 19.9165 19.7599 19.7674C19.6061 19.6184 19.3974 19.5347 19.1798 19.5347C19.0905 19.5347 19.0021 19.5517 18.9196 19.5848C18.8371 19.618 18.7622 19.6665 18.6991 19.7277C18.6359 19.7889 18.5859 19.8616 18.5518 19.9415C18.5176 20.0214 18.5001 20.1071 18.5002 20.1936Z" fill="white"/>
</svg>
