<svg width="16" height="16" viewBox="0 0 16 16" fill="none" xmlns="http://www.w3.org/2000/svg">
<circle cx="8" cy="8" r="8" fill="#D3625B"/>
<path d="M8.00056 8.79813C8.21273 8.79813 8.41621 8.71384 8.56624 8.56381C8.71627 8.41379 8.80056 8.2103 8.80056 7.99813L8.80056 4.79813C8.80056 4.58596 8.71627 4.38247 8.56624 4.23244C8.41622 4.08241 8.21273 3.99813 8.00056 3.99813C7.78839 3.99813 7.5849 4.08241 7.43487 4.23244C7.28484 4.38247 7.20056 4.58596 7.20056 4.79813L7.20056 7.99813C7.20056 8.2103 7.28484 8.41379 7.43487 8.56381C7.5849 8.71384 7.78839 8.79813 8.00056 8.79813ZM7.69656 11.9341C7.89133 12.0141 8.10979 12.0141 8.30456 11.9341C8.40276 11.8961 8.49248 11.839 8.56856 11.7661C8.63922 11.6884 8.69604 11.5991 8.73656 11.5021C8.78134 11.4072 8.80326 11.3031 8.80056 11.1981C8.80117 11.0928 8.78099 10.9885 8.74117 10.891C8.70136 10.7935 8.6427 10.7049 8.56856 10.6301C8.4908 10.5595 8.40151 10.5026 8.30456 10.4621C8.18336 10.4123 8.05179 10.3931 7.9214 10.406C7.79102 10.419 7.66581 10.4638 7.55679 10.5365C7.44777 10.6092 7.35827 10.7075 7.29615 10.8229C7.23404 10.9382 7.20121 11.0671 7.20056 11.1981C7.20351 11.4099 7.28637 11.6128 7.43256 11.7661C7.50864 11.839 7.59836 11.8961 7.69656 11.9341Z" fill="white"/>
</svg>
