<svg width="16" height="16" viewBox="0 0 16 16" fill="none" xmlns="http://www.w3.org/2000/svg">
<path fill-rule="evenodd" clip-rule="evenodd" d="M13.7124 3.65348C13.9838 3.84355 14.0498 4.21768 13.8597 4.48912L12.0625 7.05577C12.0574 7.0631 12.0522 7.07037 12.0472 7.0777C11.917 7.2635 11.7934 7.4403 11.6744 7.5763C11.5432 7.72617 11.3732 7.8805 11.1314 7.96384C11.0057 8.0071 10.874 8.0303 10.7411 8.03264C10.4853 8.0371 10.2728 7.95017 10.0983 7.85417C9.93997 7.7671 9.7633 7.6433 9.57744 7.51317C9.57017 7.50804 9.5629 7.50297 9.55557 7.49784L8.79104 6.9625C8.5753 6.81144 8.4525 6.7265 8.35817 6.67457C8.3333 6.66088 8.3159 6.65272 8.30477 6.64798C8.2959 6.65625 8.28237 6.66984 8.2637 6.69124C8.19277 6.7723 8.10644 6.8941 7.95537 7.10984L6.15819 9.6765C5.96812 9.94797 5.594 10.0139 5.32256 9.82384C5.05111 9.63377 4.98514 9.25964 5.17521 8.98824L6.97244 6.42155C6.9775 6.41424 6.98264 6.40694 6.98777 6.39966C7.11784 6.2138 7.24157 6.03707 7.36057 5.90106C7.49164 5.75121 7.66164 5.59682 7.9035 5.51354C8.02924 5.47026 8.1609 5.44704 8.29384 5.44472C8.54957 5.44026 8.7621 5.52719 8.93657 5.62316C9.0949 5.71028 9.27164 5.83404 9.45744 5.96418C9.4647 5.96928 9.47204 5.9744 9.4793 5.97951L10.2438 6.51485C10.4596 6.6659 10.5824 6.75084 10.6768 6.80277C10.7016 6.81644 10.719 6.82464 10.7301 6.82937C10.739 6.8211 10.7525 6.8075 10.7712 6.7861C10.8422 6.70504 10.9284 6.58322 11.0795 6.3675L12.8767 3.80083C13.0668 3.52938 13.4409 3.46342 13.7124 3.65348Z" fill="white"/>
<path fill-rule="evenodd" clip-rule="evenodd" d="M13.9338 13.3331C13.9338 13.6644 13.6651 13.9331 13.3338 13.9331H7.43208C6.4619 13.9331 5.68501 13.9331 5.06505 13.8659C4.42641 13.7968 3.88352 13.6506 3.41371 13.3092C3.13639 13.1077 2.8925 12.8638 2.69101 12.5865C2.34967 12.1167 2.20348 11.5738 2.13429 10.9352C2.06712 10.3152 2.06713 9.53829 2.06714 8.56802V2.66641C2.06714 2.33503 2.33577 2.06641 2.66714 2.06641C2.99851 2.06641 3.26714 2.33503 3.26714 2.66641V8.53309C3.26714 9.54635 3.26796 10.2582 3.32731 10.8059C3.38544 11.3424 3.49389 11.65 3.66183 11.8812C3.78931 12.0566 3.9436 12.2109 4.11905 12.3384C4.35021 12.5063 4.65777 12.6148 5.19431 12.6729C5.74207 12.7322 6.45385 12.7331 7.46715 12.7331H13.3338C13.6651 12.7331 13.9338 13.0017 13.9338 13.3331Z" fill="white"/>
</svg>
