<svg width="16" height="16" viewBox="0 0 16 16" fill="none" xmlns="http://www.w3.org/2000/svg">
<path fill-rule="evenodd" clip-rule="evenodd" d="M5.99966 2.06641C4.77023 2.06641 3.7401 2.91973 3.46923 4.06641H1.99966C1.66828 4.06641 1.39966 4.33503 1.39966 4.66641C1.39966 4.99777 1.66828 5.26641 1.99966 5.26641H3.46923C3.7401 6.41309 4.77023 7.26642 5.99966 7.26642C7.22912 7.26642 8.25925 6.41309 8.53005 5.26641H13.9997C14.3311 5.26641 14.5997 4.99777 14.5997 4.66641C14.5997 4.33503 14.3311 4.06641 13.9997 4.06641H8.53012C8.25925 2.91973 7.22912 2.06641 5.99966 2.06641ZM5.99966 6.06641C5.22646 6.06641 4.59966 5.4396 4.59966 4.66641C4.59966 3.89321 5.22646 3.26641 5.99966 3.26641C6.77285 3.26641 7.39965 3.89321 7.39965 4.66641C7.39965 5.4396 6.77285 6.06641 5.99966 6.06641Z" fill="white"/>
<path fill-rule="evenodd" clip-rule="evenodd" d="M7.46925 11.9324H1.99966C1.66828 11.9324 1.39966 11.6638 1.39966 11.3324C1.39966 11.001 1.66828 10.7324 1.99966 10.7324H7.46925C7.74012 9.58576 8.77025 8.73242 9.99965 8.73242C11.2291 8.73242 12.2593 9.58576 12.5301 10.7324H13.9997C14.3311 10.7324 14.5997 11.001 14.5997 11.3324C14.5997 11.6638 14.3311 11.9324 13.9997 11.9324H12.5301C12.2593 13.0791 11.2291 13.9324 9.99965 13.9324C8.77025 13.9324 7.74012 13.0791 7.46925 11.9324ZM11.3997 11.3324C11.3997 10.5592 10.7729 9.93242 9.99965 9.93242C9.22645 9.93242 8.59965 10.5592 8.59965 11.3324C8.59965 12.1056 9.22645 12.7324 9.99965 12.7324C10.7729 12.7324 11.3997 12.1056 11.3997 11.3324Z" fill="white"/>
</svg>
