<svg width="16" height="16" viewBox="0 0 16 16" fill="none" xmlns="http://www.w3.org/2000/svg">
<path fill-rule="evenodd" clip-rule="evenodd" d="M5.99972 2.06641C4.77029 2.06641 3.74016 2.91973 3.46929 4.06641H1.99972C1.66835 4.06641 1.39972 4.33503 1.39972 4.66641C1.39972 4.99777 1.66835 5.26641 1.99972 5.26641H3.46929C3.74016 6.41309 4.77029 7.26642 5.99972 7.26642C7.22918 7.26642 8.25931 6.41309 8.53011 5.26641H13.9997C14.3311 5.26641 14.5997 4.99777 14.5997 4.66641C14.5997 4.33503 14.3311 4.06641 13.9997 4.06641H8.53018C8.25931 2.91973 7.22918 2.06641 5.99972 2.06641ZM5.99972 6.06641C5.22652 6.06641 4.59972 5.4396 4.59972 4.66641C4.59972 3.89321 5.22652 3.26641 5.99972 3.26641C6.77291 3.26641 7.39971 3.89321 7.39971 4.66641C7.39971 5.4396 6.77291 6.06641 5.99972 6.06641Z" fill="#8492C4"/>
<path fill-rule="evenodd" clip-rule="evenodd" d="M7.46931 11.9324H1.99972C1.66835 11.9324 1.39972 11.6638 1.39972 11.3324C1.39972 11.001 1.66835 10.7324 1.99972 10.7324H7.46931C7.74018 9.58576 8.77031 8.73242 9.99971 8.73242C11.2292 8.73242 12.2593 9.58576 12.5301 10.7324H13.9997C14.3311 10.7324 14.5997 11.001 14.5997 11.3324C14.5997 11.6638 14.3311 11.9324 13.9997 11.9324H12.5301C12.2593 13.0791 11.2292 13.9324 9.99971 13.9324C8.77031 13.9324 7.74018 13.0791 7.46931 11.9324ZM11.3997 11.3324C11.3997 10.5592 10.7729 9.93242 9.99971 9.93242C9.22651 9.93242 8.59971 10.5592 8.59971 11.3324C8.59971 12.1056 9.22651 12.7324 9.99971 12.7324C10.7729 12.7324 11.3997 12.1056 11.3997 11.3324Z" fill="#8492C4"/>
</svg>
