<svg width="24" height="24" viewBox="0 0 24 24" fill="none" xmlns="http://www.w3.org/2000/svg">
<path d="M10.3331 14.4102H6.74219C6.46605 14.4102 6.24219 14.634 6.24219 14.9102V18.5011" stroke="white" stroke-width="1.5" stroke-linecap="round"/>
<path d="M17.4057 12.3633C17.2185 12.3633 17.0597 12.5009 17.0332 12.6863C16.6788 15.1639 14.547 17.0686 11.9714 17.0686C10.0794 17.0686 8.42657 16.0414 7.54147 14.5114L7.23421 13.9802L6.17188 14.5947L6.47914 15.1259C7.57459 17.0196 9.62357 18.2959 11.9714 18.2959C15.1663 18.2959 17.8085 15.9335 18.2481 12.8601C18.2856 12.5979 18.0822 12.3633 17.8173 12.3633H17.4057Z" fill="white"/>
<path d="M13.3388 9.08984H16.9297C17.2058 9.08984 17.4297 8.86599 17.4297 8.58984V4.99893" stroke="white" stroke-width="1.5" stroke-linecap="round"/>
<path d="M6.26619 11.1367C6.45342 11.1367 6.61217 10.9991 6.63868 10.8137C6.99307 8.33615 9.12488 6.43137 11.7005 6.43137C13.5925 6.43137 15.2453 7.45856 16.1304 8.98863L16.4377 9.5198L17.5 8.90527L17.1927 8.3741C16.0973 6.4804 14.0483 5.20409 11.7005 5.20409C8.50554 5.20409 5.8634 7.56647 5.42378 10.6399C5.38628 10.9021 5.58971 11.1367 5.85456 11.1367H6.26619Z" fill="white"/>
</svg>
