<svg width="40" height="40" viewBox="0 0 40 40" fill="none" xmlns="http://www.w3.org/2000/svg">
<rect x="1" y="1" width="38" height="38" rx="19" fill="#29314F" stroke="url(#paint0_linear_47392_21085)" stroke-width="2"/>
<path d="M25.532 11.8008H13.2331C11.7237 11.8008 10.5 13.0244 10.5 14.5339V14.5339C10.5 16.0433 11.7237 17.267 13.2331 17.267H26.8986" stroke="#8492C4" stroke-width="1.5" stroke-linecap="round"/>
<path fill-rule="evenodd" clip-rule="evenodd" d="M28.2482 14.5273H9.75V26.1928C9.75 27.2974 10.6454 28.1928 11.75 28.1928H28.2482C29.3528 28.1928 30.2482 27.2974 30.2482 26.1928V16.5273C30.2482 15.4228 29.3528 14.5273 28.2482 14.5273ZM26.14 22.7214C26.8947 22.7214 27.5065 22.1096 27.5065 21.3548C27.5065 20.6001 26.8947 19.9883 26.14 19.9883C25.3853 19.9883 24.7734 20.6001 24.7734 21.3548C24.7734 22.1096 25.3853 22.7214 26.14 22.7214Z" fill="#8492C4"/>
<defs>
<linearGradient id="paint0_linear_47392_21085" x1="-0.330579" y1="18.9189" x2="36.6016" y2="18.5593" gradientUnits="userSpaceOnUse">
<stop stop-color="#5569DB"/>
<stop offset="1" stop-color="#8572FF"/>
</linearGradient>
</defs>
</svg>
