<svg width="30" height="30" viewBox="0 0 30 30" fill="none" xmlns="http://www.w3.org/2000/svg">
<rect x="1" y="1" width="28" height="28" rx="14" fill="#212946" stroke="url(#paint0_linear_50458_10292)" stroke-width="2"/>
<path fill-rule="evenodd" clip-rule="evenodd" d="M7.61107 10.5547C8.52774 9.42283 9.92873 8.69922 11.4987 8.69922H18.9987C19.232 8.69922 19.4615 8.71519 19.6862 8.7461V8.5C19.6862 7.94772 19.2385 7.5 18.6862 7.5H11.4987C9.61523 7.5 8.03579 8.8018 7.61107 10.5547Z" fill="#8492C4"/>
<path fill-rule="evenodd" clip-rule="evenodd" d="M11.5 9.69922C9.29086 9.69922 7.5 11.4901 7.5 13.6992V17.6992C7.5 19.9084 9.29086 21.6992 11.5 21.6992H18.5C20.4324 21.6992 22.0448 20.3289 22.4184 18.507H18.0623C16.6031 18.507 15.4203 17.3241 15.4203 15.865C15.4203 14.4058 16.6031 13.2229 18.0623 13.2229H22.4719C22.2365 11.2383 20.548 9.69922 18.5 9.69922H11.5Z" fill="#8492C4"/>
<path d="M17.6328 15.8651C17.6328 15.3787 18.0271 14.9844 18.5135 14.9844H22.4766V16.7457H18.5135C18.0271 16.7457 17.6328 16.3514 17.6328 15.8651Z" fill="#8492C4"/>
<defs>
<linearGradient id="paint0_linear_50458_10292" x1="-0.247934" y1="14.1892" x2="27.4512" y2="13.9195" gradientUnits="userSpaceOnUse">
<stop stop-color="#5569DB"/>
<stop offset="1" stop-color="#8572FF"/>
</linearGradient>
</defs>
</svg>
