<svg width="41" height="40" viewBox="0 0 41 40" fill="none" xmlns="http://www.w3.org/2000/svg"><ellipse cx="20.3175" cy="20" rx="20.3175" ry="20" fill="url(#paint0_linear_30487_79809)"></ellipse><path fill-rule="evenodd" clip-rule="evenodd" d="M25.0303 9.16797C21.9165 9.16797 19.6673 11.6198 19.0675 13.3511C18.0152 16.0153 18.4594 18.0617 18.8509 19.8665L18.8792 19.9979C19.2428 21.6764 19.5858 23.2616 19.0946 25.2513C19.0489 25.5237 18.9679 25.7916 18.8536 26.0476C18.2915 27.3164 17.0169 28.1358 15.6066 28.1358C13.6548 28.1358 12.0668 26.582 12.0668 24.6717C12.0668 22.7606 13.6548 21.2059 15.6066 21.2059C16.1323 21.2059 16.6374 21.3167 17.1091 21.5348L17.5202 21.7252L17.008 18.6608L16.8464 18.6288C16.4408 18.549 16.0236 18.5088 15.6066 18.5088C12.1359 18.5088 9.3125 21.2734 9.3125 24.6717C9.3125 28.0702 12.1359 30.8346 15.6066 30.8346C18.4878 30.8346 20.9952 28.9272 21.7004 26.2115C22.4135 24.0844 22.0801 22.1437 21.6077 20.0079L21.5548 19.7702C21.0912 17.6814 20.7249 16.0314 21.8294 13.8527C22.4107 12.6462 23.667 11.8663 25.0303 11.8663C26.9813 11.8663 28.5687 13.4201 28.5687 15.3304C28.5687 17.2406 26.9813 18.795 25.0303 18.795C24.5466 18.795 24.0768 18.701 23.6325 18.5147L23.2332 18.3478L23.7375 21.3654L23.9035 21.3952C24.2721 21.4604 24.6513 21.4938 25.0303 21.4938C28.5001 21.4938 31.3231 18.7288 31.3231 15.3304C31.3231 11.9324 28.5001 9.16797 25.0303 9.16797Z" fill="white"></path><defs><linearGradient id="paint0_linear_30487_79809" x1="-0.335826" y1="18.9189" x2="37.1824" y2="18.5478" gradientUnits="userSpaceOnUse"><stop stop-color="#5569DB"></stop><stop offset="1" stop-color="#8572FF"></stop></linearGradient></defs></svg>