<svg width="40" height="40" viewBox="0 0 40 40" fill="none" xmlns="http://www.w3.org/2000/svg"><rect width="40" height="40" rx="20" fill="white"></rect><path d="M27.7134 12.9141C26.0365 12.9141 24.2091 13.7734 22.2764 15.466C21.3599 16.268 20.5683 17.1274 19.9746 17.8148C19.9746 17.8148 19.9746 17.8148 19.9798 17.82V17.8148C19.9798 17.8148 20.9173 18.8356 21.9532 19.9293C22.511 19.2679 23.3132 18.3669 24.2348 17.5544C25.9533 16.0493 27.0733 15.7316 27.7134 15.7316C30.1252 15.7316 32.0836 17.643 32.0836 19.9918C32.0836 22.325 30.1199 24.2363 27.7134 24.252C27.6045 24.252 27.4638 24.2363 27.2867 24.1999C27.9897 24.5019 28.7449 24.7207 29.4638 24.7207C33.88 24.7207 34.745 21.8407 34.8017 21.6323C34.9318 21.1063 35 20.5543 35 19.9866C35 16.091 31.7295 12.9141 27.7134 12.9141Z" fill="url(#paint0_linear_30487_79829)"></path><path d="M12.286 27.0814C13.963 27.0814 15.791 26.2221 17.7233 24.5294C18.6399 23.7274 19.4315 22.868 20.0252 22.1806C20.0252 22.1806 20.0252 22.1806 20.02 22.1754V22.1806C20.02 22.1806 19.0826 21.1598 18.0461 20.0661C17.4889 20.7276 16.6868 21.6285 15.765 22.441C14.0463 23.9461 12.9266 24.2638 12.286 24.2638C9.87474 24.2586 7.91649 22.3473 7.91649 19.9984C7.91649 17.6652 9.87997 15.7539 12.286 15.7383C12.3954 15.7383 12.5361 15.7539 12.7131 15.7903C12.01 15.4883 11.2549 15.2695 10.5361 15.2695C6.11972 15.2695 5.26039 18.1496 5.19788 18.3527C5.06773 18.8839 5 19.4308 5 19.9984C5 23.9044 8.27064 27.0814 12.286 27.0814Z" fill="url(#paint1_linear_30487_79829)"></path><path d="M29.4533 24.6582C27.193 24.6009 24.8441 22.8197 24.3651 22.377C23.1256 21.2313 20.266 18.1325 20.0421 17.8877C17.9485 15.5389 15.1101 12.9141 12.2874 12.9141H12.2822H12.2769C8.85003 12.9297 5.97002 15.2525 5.19922 18.3513C5.2565 18.1481 6.38658 15.2108 10.5322 15.315C12.7925 15.3723 15.1517 17.1795 15.6361 17.6221C16.8756 18.7679 19.7348 21.8667 19.9588 22.1114C22.0525 24.4551 24.891 27.0799 27.7136 27.0799H27.7189H27.7242C31.1506 27.0644 34.036 24.7415 34.8018 21.6427C34.739 21.8458 33.6039 24.7572 29.4533 24.6582Z" fill="#29ABE2"></path><defs><linearGradient id="paint0_linear_30487_79829" x1="23.9205" y1="13.8481" x2="33.8269" y2="24.1063" gradientUnits="userSpaceOnUse"><stop offset="0.21" stop-color="#F15A24"></stop><stop offset="0.6841" stop-color="#FBB03B"></stop></linearGradient><linearGradient id="paint1_linear_30487_79829" x1="16.0789" y1="26.1473" x2="6.17258" y2="15.8891" gradientUnits="userSpaceOnUse"><stop offset="0.21" stop-color="#ED1E79"></stop><stop offset="0.8929" stop-color="#522785"></stop></linearGradient></defs></svg>