<svg width="32" height="32" viewBox="0 0 32 32" fill="none" xmlns="http://www.w3.org/2000/svg">
<circle cx="16" cy="16" r="16" fill="white" fill-opacity="0.06"/>
<g clip-path="url(#clip0_37197_15349)">
<path d="M18.9172 17.6672H18.2589L18.0255 17.4422C19.0255 16.2755 19.5422 14.6839 19.2589 12.9922C18.8672 10.6755 16.9339 8.82552 14.6005 8.54219C11.0755 8.10885 8.10885 11.0755 8.54219 14.6005C8.82552 16.9339 10.6755 18.8672 12.9922 19.2589C14.6839 19.5422 16.2755 19.0255 17.4422 18.0255L17.6672 18.2589V18.9172L21.2089 22.4589C21.5505 22.8005 22.1089 22.8005 22.4505 22.4589C22.7922 22.1172 22.7922 21.5589 22.4505 21.2172L18.9172 17.6672ZM13.9172 17.6672C11.8422 17.6672 10.1672 15.9922 10.1672 13.9172C10.1672 11.8422 11.8422 10.1672 13.9172 10.1672C15.9922 10.1672 17.6672 11.8422 17.6672 13.9172C17.6672 15.9922 15.9922 17.6672 13.9172 17.6672Z" fill="white"/>
</g>
<defs>
<clipPath id="clip0_37197_15349">
<rect width="20" height="20" fill="white" transform="translate(6 6)"/>
</clipPath>
</defs>
</svg>
