<svg width="356" height="269" viewBox="0 0 356 269" fill="none" xmlns="http://www.w3.org/2000/svg">
<g clip-path="url(#clip0)">
<path opacity="0.18" d="M316.924 61.5873C320.315 80.9151 300.929 99.9755 306.918 118.643C310.365 129.427 320.707 136.151 329.622 143.087C343.79 154.086 356.863 170.066 354.907 187.906C352.791 207.148 334.487 220.752 316.294 227.312C248.053 251.898 14.3732 295.087 0.524197 186.069C-2.1129 165.231 9.84451 144.583 23.2627 128.435C33.936 115.594 93.3869 57.8822 115.117 47.1076C211.914 -0.903535 306.953 4.69511 316.924 61.5873Z" fill="#4F5A84"/>
<path opacity="0.05" d="M198.366 33.6847C198.366 33.6847 326.343 32.5675 304.876 84.9696C288.247 125.514 307.25 128.486 313.192 148.094C319.134 167.703 312.218 190.041 297.904 200.626C283.589 211.211 226.302 209.339 226.302 225.009C226.302 240.679 210.358 234.96 210.358 234.96H110.002L128.333 179.629L198.366 33.6847Z" fill="#000405"/>
<path d="M217.731 228.831H110.002V234.977H217.731V228.831Z" fill="#4F5A84"/>
<path d="M201.275 179.642H128.333V228.83H201.275V179.642Z" fill="#4F5A84"/>
<path d="M201.275 179.642H128.333V228.83H201.275V179.642Z" fill="#4F5A84"/>
<path d="M201.275 179.642H128.333V228.83H201.275V179.642Z" fill="url(#paint0_linear)"/>
<path d="M297.904 40.478V169.299C297.904 172.991 297.177 176.647 295.765 180.058C294.353 183.469 292.283 186.568 289.674 189.178C287.065 191.788 283.968 193.858 280.559 195.269C277.151 196.681 273.498 197.406 269.809 197.404H56.0583C48.6118 197.404 41.4702 194.443 36.2047 189.172C30.9392 183.901 27.9811 176.753 27.9811 169.299V40.478C27.9805 36.7866 28.7063 33.1312 30.117 29.7206C31.5277 26.3099 33.5957 23.2108 36.2029 20.6002C38.8102 17.9896 41.9055 15.9186 45.3123 14.5054C48.7191 13.0922 52.3706 12.3646 56.0583 12.364H269.783C273.473 12.3595 277.128 13.0828 280.538 14.4925C283.948 15.9023 287.048 17.9709 289.659 20.5801C292.271 23.1894 294.343 26.2881 295.758 29.6993C297.172 33.1105 297.902 36.7673 297.904 40.4608V40.478Z" fill="#4F5A84"/>
<path d="M297.904 40.478V162.544H28.0111V40.478C28.0105 36.7866 28.7363 33.1312 30.147 29.7206C31.5578 26.3099 33.6258 23.2108 36.233 20.6002C38.8402 17.9896 41.9356 15.9186 45.3424 14.5054C48.7492 13.0922 52.4007 12.3646 56.0884 12.364H269.783C273.473 12.3595 277.128 13.0828 280.538 14.4925C283.948 15.9023 287.048 17.9709 289.659 20.5801C292.271 23.1894 294.343 26.2881 295.758 29.6993C297.172 33.1105 297.901 36.7673 297.904 40.4607V40.478Z" fill="url(#paint1_linear)"/>
<path d="M251.285 37.834H60.5956V75.4761H251.285V37.834Z" fill="url(#paint2_linear)"/>
<path d="M147.215 80.2811H60.5956V156.096H147.215V80.2811Z" fill="url(#paint3_linear)"/>
<path d="M249.747 80.2811H153.333V105.6H249.747V80.2811Z" fill="url(#paint4_linear)"/>
<path d="M249.747 110.405H153.333V135.724H249.747V110.405Z" fill="url(#paint5_linear)"/>
<path d="M249.747 140.529H153.333V156.096H249.747V140.529Z" fill="url(#paint6_linear)"/>
<path d="M208.277 246.735H212.392L199.711 87.0443L196.234 87.9802L197.022 98.4141L184.526 99.2034L183.565 87.0443L180.088 87.9802L192.119 246.735H196.234L194.799 228.619L206.864 227.877L206.683 225.009L194.57 225.755L193.541 212.815L205.924 212.03L205.748 209.171L193.316 209.938L192.291 196.973L204.434 196.201L208.277 246.735ZM184.755 102.05L197.251 101.252L198.233 114.218L185.793 115.02L184.755 102.05ZM186.008 117.863L198.44 117.065L199.422 130.087L187.051 130.863L186.008 117.863ZM187.271 133.705L199.638 132.912L200.689 146.753L188.344 147.504L187.271 133.705ZM188.589 150.355L200.905 149.617L201.818 161.694L189.55 162.466L188.589 150.355ZM189.774 165.33L202.033 164.55L203.016 177.533L190.804 178.305L189.774 165.33ZM192.063 194.13L191.028 181.147L203.236 180.366L204.218 193.358L192.063 194.13Z" fill="#4F5A84"/>
<path d="M103.492 97.1848V87.0443H100.954V97.1848H88.6084V100.325H100.954V240.718H103.492V116.672L118.539 100.325H130.061V97.1675L103.492 97.1848ZM103.492 112.234V100.325H114.936L103.492 112.234Z" fill="#4F5A84"/>
<path d="M228.848 97.1848V87.0443H226.31V97.1848H201.926V100.325H212.513L226.302 115.292V240.718H228.848V100.325H243.387V97.1675L228.848 97.1848ZM226.31 110.931L216.111 100.325H226.302L226.31 110.931Z" fill="#4F5A84"/>
<g opacity="0.61">
<path opacity="0.61" d="M208.277 246.735H212.392L199.711 87.0443L196.234 87.9802L197.022 98.4141L184.526 99.2034L183.565 87.0443L180.088 87.9802L192.119 246.735H196.234L194.799 228.619L206.864 227.877L206.683 225.009L194.57 225.755L193.541 212.815L205.924 212.03L205.748 209.171L193.316 209.938L192.291 196.973L204.434 196.201L208.277 246.735ZM184.755 102.05L197.251 101.252L198.233 114.218L185.793 115.02L184.755 102.05ZM186.008 117.863L198.44 117.065L199.422 130.087L187.051 130.863L186.008 117.863ZM187.271 133.705L199.638 132.912L200.689 146.753L188.344 147.504L187.271 133.705ZM188.589 150.355L200.905 149.617L201.818 161.694L189.55 162.466L188.589 150.355ZM189.774 165.33L202.033 164.55L203.016 177.533L190.804 178.305L189.774 165.33ZM192.063 194.13L191.028 181.147L203.236 180.366L204.218 193.358L192.063 194.13Z" fill="url(#paint7_linear)"/>
<path opacity="0.61" d="M103.492 97.1848V87.0443H100.954V97.1848H88.6084V100.325H100.954V240.718H103.492V116.672L118.539 100.325H130.061V97.1675L103.492 97.1848ZM103.492 112.234V100.325H114.936L103.492 112.234Z" fill="url(#paint8_linear)"/>
<path opacity="0.61" d="M228.848 97.1848V87.0443H226.31V97.1848H201.926V100.325H212.513L226.302 115.292V240.718H228.848V100.325H243.387V97.1675L228.848 97.1848ZM226.31 110.931L216.111 100.325H226.302L226.31 110.931Z" fill="url(#paint9_linear)"/>
</g>
<path d="M202.305 129.5L202.012 132.131H195.941C195.941 132.131 195.445 130.613 196.552 130.233C197.16 130.018 197.786 129.861 198.423 129.763L202.305 129.5Z" fill="#4F5A84"/>
<path d="M193.838 75.0059C193.558 77.3606 193.704 79.7465 194.269 82.0494C194.607 82.4862 195.056 82.8248 195.569 83.0303C196.082 83.2357 196.64 83.3006 197.186 83.2183V84.9695H200.09L201.331 76.2006C201.331 76.2006 196.759 70.3605 193.838 75.0059Z" fill="url(#paint10_linear)"/>
<path d="M195.885 75.8815C196.342 76.7977 196.634 77.7878 196.746 78.8059C196.746 78.8059 197.328 77.637 197.608 78.2193C197.888 78.8016 197.026 79.9748 197.026 79.9748L197.888 81.4327H200.84C200.84 81.4327 202.301 75.0361 201.482 74.1562C200.663 73.2763 200.112 73.2935 200.112 73.2935C200.112 73.2935 200.112 72.4308 198.358 72.4308C196.604 72.4308 194.273 72.4308 193.398 73.8931C192.524 75.3553 192.231 74.7557 192.231 74.7557C192.231 74.7557 192.726 75.8383 193.484 75.5752C193.665 75.5321 195.592 75.0059 195.885 75.8815Z" fill="#333333"/>
<path d="M197.195 84.9696H202.102C202.102 84.9696 204.175 85.4009 204.464 90.3741C204.64 93.7722 204.64 97.1771 204.464 100.575V108.727L202.102 107.938L193.342 109.896L192.481 97.944C191.572 97.8328 190.698 97.5253 189.92 97.0427C189.142 96.5601 188.477 95.9139 187.973 95.1489C187.336 94.1918 186.934 93.0967 186.802 91.9538C186.671 90.8109 186.812 89.653 187.215 88.5755L193.312 91.7889L193.635 90.0636C193.969 88.194 195.015 86.5271 196.552 85.4139L197.195 84.9696Z" fill="#4F5A84"/>
<path d="M188.029 86.958L186.573 82.2824L192.381 81.4025L194.338 87.7732L193.312 91.7888L189.83 89.9729L188.029 86.958Z" fill="#FCFDFF"/>
<path d="M186.862 89.5719C186.961 88.5939 187.37 87.6734 188.029 86.9451L188.322 87.2341H190.179L190.472 88.3771L189.8 89.339C189.396 89.6798 188.895 89.8855 188.368 89.9273C187.841 89.969 187.314 89.8448 186.862 89.5719Z" fill="url(#paint11_linear)"/>
<path d="M189.831 89.973L191.214 93.6479L193.312 91.7888L189.831 89.973Z" fill="url(#paint12_linear)"/>
<path opacity="0.61" d="M192.381 97.7369C192.381 97.7369 197.074 95.9814 197.074 93.0613L198.246 106.48L193.278 107.657L192.381 97.7369Z" fill="url(#paint13_linear)"/>
<path d="M193.256 107.645L192.381 122.198L193.549 129.793H197.052L197.634 117.259L199.677 111.997L198.22 129.793L202.305 130.087L204.317 106.476L202.012 105.6L193.256 107.645Z" fill="#333333"/>
<path d="M196.876 129.793V132.705L190.718 130.505C190.718 130.505 190.718 128.896 191.912 128.896C192.558 128.892 193.203 128.951 193.838 129.073L196.876 129.793Z" fill="#4F5A84"/>
<path d="M116.496 245.217L116.798 247.839H122.873C122.873 247.839 123.369 246.321 122.257 245.941C121.652 245.726 121.027 245.57 120.391 245.475L116.496 245.217Z" fill="#4F5A84"/>
<path d="M120.715 190.162C121.77 192.267 122.443 194.544 122.701 196.886C122.352 198.551 120.305 198.931 120.305 198.931L120.861 200.596L117.944 201.618L113.971 193.729C113.971 193.729 116.453 186.685 120.715 190.162Z" fill="url(#paint14_linear)"/>
<path d="M119.051 191.654C118.883 192.62 118.883 193.608 119.051 194.574C119.051 194.574 118.116 193.669 118.03 194.311C117.944 194.954 119.137 195.773 119.137 195.773L118.788 197.438L116.134 198.344C116.134 198.344 112.687 192.737 113.213 191.654C113.738 190.572 114.001 190.455 114.001 190.455C114.001 190.455 113.708 189.636 115.371 189.053C117.035 188.471 119.249 187.759 120.542 188.851C121.835 189.942 121.912 189.282 121.912 189.282C121.912 189.282 121.912 190.451 120.977 190.481C121.068 190.602 119.051 190.718 119.051 191.654Z" fill="#333333"/>
<path d="M121.766 200.626H116.862C116.862 200.626 114.79 201.057 114.497 206.031C114.32 209.427 114.32 212.831 114.497 216.227V224.379L116.862 223.59L125.618 225.548L126.48 213.6C127.386 213.451 128.249 213.107 129.01 212.593C129.771 212.078 130.411 211.405 130.888 210.62C131.524 209.661 131.924 208.565 132.056 207.422C132.188 206.279 132.047 205.121 131.646 204.042L125.545 207.255L125.222 205.53C124.887 203.662 123.841 201.997 122.305 200.885L121.766 200.626Z" fill="#4F5A84"/>
<path d="M130.789 202.64L132.245 197.995L126.407 197.119L124.481 203.49L125.532 207.316L129.035 205.565L130.789 202.64Z" fill="#FCFDFF"/>
<path d="M131.952 205.302C131.857 204.321 131.448 203.398 130.785 202.67L130.496 202.964H128.656L128.363 204.102L129.035 205.064C129.437 205.401 129.934 205.605 130.456 205.647C130.978 205.69 131.501 205.569 131.952 205.302Z" fill="url(#paint15_linear)"/>
<path opacity="0.61" d="M126.407 213.54C126.407 213.54 121.736 211.789 121.736 208.864L122.115 224.703L125.532 225.462L126.407 213.54Z" fill="url(#paint16_linear)"/>
<path d="M125.532 223.357L126.407 237.91L125.269 245.506H121.766L121.184 232.971L119.137 227.709L120.598 245.506L116.513 245.799L114.471 222.188L116.802 221.312L125.532 223.357Z" fill="#333333"/>
<path d="M121.943 245.506V247.554L128.333 247.261C128.333 247.261 128.044 245.217 126.876 245.217C126.246 245.236 125.621 245.087 125.067 244.785L121.943 245.506Z" fill="#4F5A84"/>
<path d="M225.19 75.3078H210.272C208.236 75.3067 206.284 74.4964 204.845 73.055C203.406 71.6137 202.598 69.6593 202.598 67.6215V64.3477C202.598 62.3104 203.406 60.3564 204.846 58.9158C206.285 57.4751 208.237 56.6658 210.272 56.6658H225.19C226.198 56.6652 227.196 56.8633 228.127 57.2489C229.058 57.6344 229.905 58.1998 230.618 58.9127C231.331 59.6257 231.896 60.4722 232.283 61.404C232.669 62.3358 232.868 63.3346 232.868 64.3434V67.6172C232.868 68.6266 232.67 69.6261 232.284 70.5586C231.898 71.4912 231.332 72.3385 230.619 73.0522C229.906 73.766 229.06 74.3321 228.128 74.7184C227.197 75.1047 226.198 75.3035 225.19 75.3035V75.3078Z" fill="white"/>
<path d="M204.317 79.358C204.317 79.358 210.419 79.6513 211.88 75.269H216.404C216.404 75.269 213.37 80.8202 204.317 79.358Z" fill="white"/>
<path opacity="0.15" d="M207.764 59.5471H228.258C228.397 59.5471 228.531 59.6025 228.63 59.7012C228.728 59.7999 228.784 59.9337 228.784 60.0733V60.5046C228.784 60.6442 228.728 60.778 228.63 60.8767C228.531 60.9754 228.397 61.0308 228.258 61.0308H207.764C207.695 61.0308 207.627 61.0172 207.563 60.9908C207.5 60.9643 207.442 60.9256 207.393 60.8767C207.344 60.8278 207.305 60.7698 207.279 60.706C207.252 60.6421 207.239 60.5737 207.239 60.5046V60.0733C207.239 60.0042 207.252 59.9357 207.279 59.8719C207.305 59.8081 207.344 59.75 207.393 59.7012C207.442 59.6523 207.5 59.6136 207.563 59.5871C207.627 59.5607 207.695 59.5471 207.764 59.5471Z" fill="#020202"/>
<path opacity="0.15" d="M207.764 63.0538H228.258C228.397 63.0538 228.531 63.1092 228.63 63.2079C228.728 63.3066 228.784 63.4404 228.784 63.58V64.0113C228.784 64.1509 228.728 64.2847 228.63 64.3834C228.531 64.4821 228.397 64.5375 228.258 64.5375H207.764C207.695 64.5375 207.627 64.5239 207.563 64.4975C207.5 64.471 207.442 64.4323 207.393 64.3834C207.344 64.3346 207.305 64.2765 207.279 64.2127C207.252 64.1489 207.239 64.0804 207.239 64.0113V63.58C207.239 63.5109 207.252 63.4425 207.279 63.3786C207.305 63.3148 207.344 63.2568 207.393 63.2079C207.442 63.159 207.5 63.1203 207.563 63.0938C207.627 63.0674 207.695 63.0538 207.764 63.0538Z" fill="#020202"/>
<path opacity="0.15" d="M207.764 66.5303H228.258C228.397 66.5303 228.531 66.5857 228.63 66.6844C228.728 66.7831 228.784 66.9169 228.784 67.0565V67.4878C228.784 67.5569 228.77 67.6254 228.744 67.6892C228.717 67.7531 228.679 67.8111 228.63 67.8599C228.581 67.9088 228.523 67.9476 228.459 67.974C228.395 68.0005 228.327 68.0141 228.258 68.0141H207.764C207.695 68.0141 207.627 68.0005 207.563 67.974C207.5 67.9476 207.442 67.9088 207.393 67.8599C207.344 67.8111 207.305 67.7531 207.279 67.6892C207.252 67.6254 207.239 67.5569 207.239 67.4878V67.0565C207.239 66.9874 207.252 66.919 207.279 66.8551C207.305 66.7913 207.344 66.7333 207.393 66.6844C207.442 66.6355 207.5 66.5968 207.563 66.5703C207.627 66.5439 207.695 66.5303 207.764 66.5303Z" fill="#020202"/>
<path opacity="0.15" d="M207.764 70.037H218.938C219.076 70.0381 219.209 70.0941 219.307 70.1926C219.404 70.2912 219.459 70.4244 219.459 70.5632V70.9945C219.459 71.1333 219.404 71.2665 219.307 71.3651C219.209 71.4637 219.076 71.5196 218.938 71.5208H207.764C207.695 71.5208 207.627 71.5071 207.563 71.4807C207.5 71.4543 207.442 71.4155 207.393 71.3666C207.344 71.3178 207.305 71.2598 207.279 71.1959C207.252 71.1321 207.239 71.0636 207.239 70.9945V70.5632C207.239 70.4941 207.252 70.4257 207.279 70.3618C207.305 70.298 207.344 70.24 207.393 70.1911C207.442 70.1422 207.5 70.1035 207.563 70.077C207.627 70.0506 207.695 70.037 207.764 70.037Z" fill="#020202"/>
<path d="M89.1901 191.857H104.108C106.115 191.852 108.039 191.059 109.469 189.65C110.899 188.24 111.72 186.326 111.756 184.317V180.901C111.756 178.864 110.948 176.91 109.508 175.469C108.069 174.029 106.117 173.219 104.082 173.219H89.1901C87.1536 173.219 85.2005 174.029 83.7605 175.471C82.3205 176.912 81.5115 178.867 81.5115 180.906V184.322C81.551 186.334 82.3774 188.25 83.8131 189.659C85.2489 191.068 87.1794 191.857 89.1901 191.857Z" fill="white"/>
<path d="M110.002 196.006C110.002 196.006 103.901 196.3 102.44 191.917H97.9674C97.9674 191.917 100.872 197.404 110.002 196.006Z" fill="white"/>
<path opacity="0.15" d="M106.559 177.563H86.066C85.9266 177.563 85.7928 177.507 85.6943 177.409C85.5957 177.31 85.5403 177.176 85.5403 177.037V176.627C85.5403 176.487 85.5957 176.353 85.6943 176.255C85.7928 176.156 85.9266 176.101 86.066 176.101H106.559C106.699 176.101 106.833 176.156 106.931 176.255C107.03 176.353 107.085 176.487 107.085 176.627V177.037C107.085 177.176 107.03 177.31 106.931 177.409C106.833 177.507 106.699 177.563 106.559 177.563Z" fill="#020202"/>
<path opacity="0.15" d="M106.559 181.104H86.066C85.9266 181.104 85.7928 181.048 85.6943 180.95C85.5957 180.851 85.5403 180.717 85.5403 180.578V180.151C85.5414 180.012 85.5973 179.879 85.6958 179.781C85.7942 179.684 85.9273 179.629 86.066 179.629H106.559C106.698 179.629 106.831 179.684 106.93 179.781C107.028 179.879 107.084 180.012 107.085 180.151V180.582C107.085 180.722 107.03 180.855 106.931 180.954C106.833 181.053 106.699 181.108 106.559 181.108V181.104Z" fill="#020202"/>
<path opacity="0.15" d="M106.559 184.581H86.066C85.9273 184.581 85.7942 184.526 85.6958 184.428C85.5973 184.33 85.5414 184.197 85.5403 184.059V183.649C85.5403 183.509 85.5957 183.375 85.6943 183.277C85.7928 183.178 85.9266 183.123 86.066 183.123H106.559C106.699 183.123 106.833 183.178 106.931 183.277C107.03 183.375 107.085 183.509 107.085 183.649V184.059C107.084 184.197 107.028 184.33 106.93 184.428C106.831 184.526 106.698 184.581 106.559 184.581Z" fill="#020202"/>
<path opacity="0.15" d="M106.559 188.087H95.382C95.2425 188.087 95.1088 188.032 95.0102 187.933C94.9117 187.834 94.8563 187.701 94.8563 187.561V187.156C94.8551 187.086 94.8679 187.016 94.8938 186.952C94.9197 186.887 94.9582 186.828 95.0072 186.778C95.0561 186.728 95.1144 186.689 95.1788 186.662C95.2431 186.635 95.3122 186.621 95.382 186.621H106.564C106.703 186.621 106.837 186.676 106.935 186.775C107.034 186.874 107.089 187.007 107.089 187.147V187.552C107.089 187.622 107.076 187.69 107.049 187.754C107.023 187.818 106.984 187.876 106.935 187.925C106.887 187.973 106.829 188.012 106.765 188.039C106.701 188.065 106.633 188.079 106.564 188.079L106.559 188.087Z" fill="#020202"/>
<path d="M129.035 205.565C129.035 205.565 128.057 209.654 126.881 209.071C126.55 208.888 126.26 208.639 126.03 208.338C125.8 208.037 125.635 207.692 125.545 207.325L129.035 205.565Z" fill="url(#paint17_linear)"/>
</g>
<defs>
<linearGradient id="paint0_linear" x1="164.804" y1="189.373" x2="164.804" y2="255.573" gradientUnits="userSpaceOnUse">
<stop stop-opacity="0.4"/>
<stop offset="1" stop-color="white" stop-opacity="0"/>
</linearGradient>
<linearGradient id="paint1_linear" x1="73.6733" y1="-4.63461" x2="292.965" y2="242.502" gradientUnits="userSpaceOnUse">
<stop offset="0.02" stop-color="white" stop-opacity="0"/>
<stop offset="1" stop-color="white"/>
</linearGradient>
<linearGradient id="paint2_linear" x1="66681.7" y1="2713.14" x2="66816.2" y2="-26923.9" gradientUnits="userSpaceOnUse">
<stop offset="0.02" stop-color="white" stop-opacity="0"/>
<stop offset="1" stop-color="white"/>
</linearGradient>
<linearGradient id="paint3_linear" x1="19979.5" y1="11567.6" x2="21180.1" y2="-48101.3" gradientUnits="userSpaceOnUse">
<stop offset="0.02" stop-color="white" stop-opacity="0"/>
<stop offset="1" stop-color="white"/>
</linearGradient>
<linearGradient id="paint4_linear" x1="44080.2" y1="3537.01" x2="44200.5" y2="-16397.3" gradientUnits="userSpaceOnUse">
<stop offset="0.02" stop-color="white" stop-opacity="0"/>
<stop offset="1" stop-color="white"/>
</linearGradient>
<linearGradient id="paint5_linear" x1="44043.5" y1="5696.72" x2="44163.9" y2="-14237.6" gradientUnits="userSpaceOnUse">
<stop offset="0.02" stop-color="white" stop-opacity="0"/>
<stop offset="1" stop-color="white"/>
</linearGradient>
<linearGradient id="paint6_linear" x1="44609.5" y1="467.529" x2="44655" y2="-11788.7" gradientUnits="userSpaceOnUse">
<stop offset="0.02" stop-color="white" stop-opacity="0"/>
<stop offset="1" stop-color="white"/>
</linearGradient>
<linearGradient id="paint7_linear" x1="231.007" y1="261.167" x2="142.967" y2="25.1243" gradientUnits="userSpaceOnUse">
<stop offset="0.58"/>
<stop offset="0.78" stop-opacity="0.16"/>
</linearGradient>
<linearGradient id="paint8_linear" x1="15450.8" y1="-13519.2" x2="-30053" y2="19422.8" gradientUnits="userSpaceOnUse">
<stop offset="0.58"/>
<stop offset="0.78" stop-opacity="0.16"/>
</linearGradient>
<linearGradient id="paint9_linear" x1="25650.2" y1="406.687" x2="-19856.6" y2="33357.7" gradientUnits="userSpaceOnUse">
<stop offset="0.58"/>
<stop offset="0.78" stop-opacity="0.16"/>
</linearGradient>
<linearGradient id="paint10_linear" x1="193.7" y1="79.0905" x2="201.331" y2="79.0905" gradientUnits="userSpaceOnUse">
<stop stop-color="#ECC4D7"/>
<stop offset="0.42" stop-color="#EFD4D1"/>
<stop offset="1" stop-color="#F2EAC9"/>
</linearGradient>
<linearGradient id="paint11_linear" x1="1752.39" y1="1203.84" x2="1782.51" y2="1203.84" gradientUnits="userSpaceOnUse">
<stop stop-color="#ECC4D7"/>
<stop offset="0.42" stop-color="#EFD4D1"/>
<stop offset="1" stop-color="#F2EAC9"/>
</linearGradient>
<linearGradient id="paint12_linear" x1="188.715" y1="91.1203" x2="195.917" y2="93.8673" gradientUnits="userSpaceOnUse">
<stop stop-opacity="0"/>
<stop offset="0.91" stop-opacity="0.8"/>
<stop offset="1"/>
</linearGradient>
<linearGradient id="paint13_linear" x1="181.501" y1="101.119" x2="203.718" y2="99.8831" gradientUnits="userSpaceOnUse">
<stop offset="0.36" stop-color="#00272E"/>
<stop offset="1" stop-color="#69B9EB" stop-opacity="0"/>
</linearGradient>
<linearGradient id="paint14_linear" x1="2422.18" y1="1748.67" x2="2599.05" y2="1748.67" gradientUnits="userSpaceOnUse">
<stop stop-color="#ECC4D7"/>
<stop offset="0.42" stop-color="#EFD4D1"/>
<stop offset="1" stop-color="#F2EAC9"/>
</linearGradient>
<linearGradient id="paint15_linear" x1="1197.28" y1="516.883" x2="1227.18" y2="516.883" gradientUnits="userSpaceOnUse">
<stop stop-color="#ECC4D7"/>
<stop offset="0.42" stop-color="#EFD4D1"/>
<stop offset="1" stop-color="#F2EAC9"/>
</linearGradient>
<linearGradient id="paint16_linear" x1="1563.66" y1="1410.36" x2="1397.92" y2="1416.19" gradientUnits="userSpaceOnUse">
<stop offset="0.36" stop-color="#00272E"/>
<stop offset="1" stop-color="#69B9EB" stop-opacity="0"/>
</linearGradient>
<linearGradient id="paint17_linear" x1="1157.93" y1="1802.98" x2="1141.1" y2="1846.79" gradientUnits="userSpaceOnUse">
<stop stop-opacity="0"/>
<stop offset="0.91" stop-opacity="0.8"/>
<stop offset="1"/>
</linearGradient>
<clipPath id="clip0">
<rect width="354.947" height="267.789" fill="white" transform="translate(0.157959 0.684082)"/>
</clipPath>
</defs>
</svg>
