<svg width="50" height="50" viewBox="0 0 50 50" fill="none" xmlns="http://www.w3.org/2000/svg">
<path fill-rule="evenodd" clip-rule="evenodd" d="M29.1921 23.8671C29.1921 23.8671 29.9821 24.1675 30.2783 24.365C33.3065 25.6558 35.239 27.6533 36.4692 29.8168C35.6921 30.1996 34.9747 30.7118 34.3441 31.3421C32.833 32.8523 32 34.8624 32 36.9999C32 38.2148 32.269 39.3884 32.7787 40.4526H15.7336C13.2896 40.4526 11.3845 38.309 11.6808 35.8732C12.1786 31.8245 13.8944 26.4345 19.7041 24.3691C20.0003 24.1675 20.494 23.97 20.7903 23.8712C20.494 23.6737 20.0003 23.2746 19.7041 22.9784C18.3175 21.5877 17.5275 19.7032 17.5275 17.6213C17.5275 15.5394 18.3216 13.6549 19.7041 12.2642C21.1853 10.7748 23.0656 9.97656 25.0406 9.97656C27.0155 9.97656 28.8958 10.7707 30.2783 12.2601C31.6649 13.6508 32.4549 15.5352 32.4549 17.6172C32.4549 19.6004 31.6608 21.4848 30.2783 22.9743C29.9821 23.2705 29.2908 23.8671 29.1921 23.8671ZM42.3233 29.3406C41.6121 27.5287 40.2821 25.7315 37.8037 24.6749C37.6144 24.5474 37.1083 24.3581 37.1083 24.3581C37.1742 24.3581 37.6144 23.9755 37.8037 23.7862C38.6883 22.8357 39.1944 21.6261 39.1944 20.3588C39.1944 19.0257 38.6883 17.8202 37.8037 16.9314C36.9191 15.981 35.7176 15.4708 34.4504 15.4708C34.2117 15.4708 33.9772 15.4955 33.7468 15.5284C33.899 16.2073 33.9895 16.9067 33.9895 17.6227C33.9895 19.7087 33.2571 21.7454 31.9117 23.4365C34.5254 24.7768 36.5416 26.743 37.9224 29.271C38.5919 29.0922 39.2892 29 40.0007 29C40.7993 29 41.5799 29.1162 42.3233 29.3406ZM15.9966 17.6184C15.9966 19.7703 16.7084 21.7864 18.0168 23.3952C13.7583 25.3701 11.1168 29.3242 10.261 34.9693H8.91554C7.2574 34.9693 5.96956 33.5086 6.19174 31.8587C6.53736 29.2913 7.67296 25.9667 11.3061 24.6707C11.4953 24.5431 11.8121 24.4156 12.0014 24.3539C11.8121 24.2263 11.4953 23.9712 11.3061 23.7819C10.4214 22.8932 9.91536 21.6877 9.91536 20.3546C9.91536 19.0215 10.4214 17.8159 11.3061 16.9272C12.2524 15.9726 13.4538 15.4665 14.7211 15.4665C15.2272 15.4665 15.725 15.5488 16.1941 15.7093C16.0665 16.3265 15.9966 16.9683 15.9966 17.6184Z" fill="#5464F8"/>
<path d="M45.0959 32.9029C43.8683 31.6758 42.2366 31 40.5006 31C38.7646 31 37.1323 31.6758 35.9045 32.9029C34.6768 34.13 34 35.7632 34 37.4999C34 39.2367 34.6765 40.8696 35.9045 42.0971C37.1326 43.3246 38.764 44 40.5001 44C42.2363 44 43.8683 43.3249 45.0955 42.0971C46.3227 40.8693 47 39.2362 47 37.4995C47 35.7628 46.3245 34.1305 45.0959 32.9029H45.0959Z" fill="#4450C1"/>
<rect x="37" y="36.75" width="7" height="1.5" rx="0.75" fill="white"/>
<rect x="39.75" y="41" width="7" height="1.5" rx="0.75" transform="rotate(-90 39.75 41)" fill="white"/>
</svg>
