<svg width="50" height="50" viewBox="0 0 50 50" fill="none" xmlns="http://www.w3.org/2000/svg">
<path d="M18.293 12.2278C18.293 16.2245 21.5241 19.4556 25.5208 19.4556C29.5075 19.4556 32.7486 16.2245 32.7486 12.2278C32.7486 8.23114 29.5174 5 25.5208 5C21.5241 5 18.293 8.23114 18.293 12.2278Z" fill="#5464F8"/>
<path d="M19.3254 12.2265C19.3254 14.4399 20.5062 16.4851 22.4231 17.5918C24.3399 18.6984 26.7015 18.6984 28.6183 17.5918C30.5351 16.4851 31.716 14.4399 31.716 12.2265C31.716 8.80496 28.9422 6.03125 25.5207 6.03125C22.0992 6.03125 19.3254 8.80496 19.3254 12.2265Z" fill="#4450C1"/>
<path d="M23.5 15.9641C22.2624 15.2496 21.5 13.9291 21.5 12.5C21.5 10.2909 23.2909 8.5 25.5 8.5C27.7091 8.5 29.5 10.2909 29.5 12.5C29.5 13.9291 28.7376 15.2496 27.5 15.9641C26.2624 16.6786 24.7376 16.6786 23.5 15.9641Z" stroke="white"/>
<path d="M33.8434 16.4023L29.8684 20.3655H34.1746V23.0154H15.6249V20.3655H19.9311L15.9561 16.4023H9V27.0495H40.7285V16.4023H33.8434ZM9 29.664H40.7285V44.2387H9V29.664Z" fill="#5464F8"/>
<path d="M34.6559 34.7031H15.6636V44.2299H34.6559V34.7031Z" fill="#4450C1"/>
</svg>
