<svg width="50" height="50" viewBox="0 0 50 50" fill="none" xmlns="http://www.w3.org/2000/svg">
<path d="M33 16H26C25.4477 16 25 16.4477 25 17C25 17.5523 25.4477 18 26 18H33C33.5523 18 34 17.5523 34 17C34 16.4477 33.5523 16 33 16Z" fill="#111936"/>
<path d="M33 21H26C25.4477 21 25 21.4477 25 22C25 22.5523 25.4477 23 26 23H33C33.5523 23 34 22.5523 34 22C34 21.4477 33.5523 21 33 21Z" fill="#111936"/>
<g clip-path="url(#clip0_19312_75249)">
<path d="M23.7885 9C23.9079 9.12187 24.0512 9.07312 24.1944 9.12187C25.0779 9.36561 25.8181 9.82871 26.4628 10.4868C26.5344 10.5599 26.606 10.6574 26.6777 10.7549C26.8448 11.0474 26.7732 11.2424 26.4628 11.3643C26.2717 11.4374 26.0569 11.4617 25.842 11.4617C25.6509 11.4617 25.4599 11.4617 25.2689 11.4617C25.245 11.4617 25.2211 11.4861 25.1973 11.4861C25.6748 13.1192 26.1762 14.7522 26.6538 16.3852C27.0597 17.7502 27.4895 19.1151 27.8715 20.48C27.9432 20.6994 28.0387 20.7725 28.2536 20.7725C31.9545 20.7725 35.6555 20.7725 39.3565 20.7725C40.0011 20.7725 40.6219 20.87 41.195 21.1381C42.1023 21.5768 42.6038 22.2593 42.5799 23.3074C42.556 24.4042 42.5799 25.5254 42.556 26.6466C42.556 26.8903 42.6276 27.0366 42.8425 27.1584C43.535 27.6215 44.2274 28.0846 44.9437 28.5477C45.1109 28.6696 45.1825 28.7671 45.1825 28.9865C45.1586 29.5958 45.1825 30.2051 45.1825 30.8389C45.1825 31.0095 45.1586 31.0826 44.9676 31.0582C44.4901 31.0095 44.0364 30.9364 43.5588 30.8876C41.3383 30.6926 39.2371 31.0095 37.3746 32.3257C35.9659 33.325 34.963 34.6412 34.3184 36.2742C34.2229 36.4936 34.1273 36.5423 33.9125 36.5423C31.1666 36.5423 28.3968 36.5179 25.6509 36.5423C25.2928 36.5423 25.1973 36.4448 25.1495 36.1036C24.8152 33.8856 24.0512 31.8382 22.6902 30.0833C21.0426 27.914 18.8698 26.476 16.1717 25.9885C14.3331 25.6473 12.5662 26.0616 10.8709 26.8172C9.60546 27.4022 8.48323 28.1578 7.45651 29.1083C7.31325 29.2546 7.24161 29.2546 7.09835 29.084C6.74019 28.6696 6.42979 28.2065 6 27.8653V27.7921C6.02388 27.7678 6.02388 27.7434 6.04775 27.719C6.88346 26.9878 7.69528 26.281 8.53098 25.5741C8.722 25.4035 8.79363 25.2329 8.79363 24.9648C8.79363 22.9418 8.79363 20.9188 8.79363 18.8957C8.79363 18.7982 8.69812 18.6032 8.88914 18.6276C9.29505 18.652 9.72484 18.5301 10.1308 18.7007C10.5605 18.8714 11.1814 18.457 11.1814 17.9695C11.1814 15.9465 11.1814 13.9235 11.1814 11.9005C11.1814 10.4137 11.9693 9.41435 13.4019 9.04875C13.4258 9.04875 13.4497 9 13.4736 9C16.9119 9 20.3502 9 23.7885 9ZM16.8164 14.5085C16.7925 15.4347 16.7447 16.3852 16.697 17.3114C16.6731 18.0427 16.9358 18.3839 17.6282 18.5789C18.2251 18.7251 18.8459 18.7007 19.4429 18.6033C19.6578 18.5789 19.7771 18.6276 19.9204 18.7739C20.6128 19.4807 21.3053 20.1632 21.9977 20.87C22.1887 21.065 22.3559 21.1137 22.6185 21.1137C23.4304 21.0894 24.2422 21.1137 25.054 21.1137C25.1973 21.1137 25.3405 21.1137 25.4838 21.065C25.9375 20.9675 26.0569 20.7481 25.9375 20.285C25.245 17.6039 24.5287 14.9228 23.8363 12.2417C23.7408 11.8274 23.502 11.4861 23.1677 11.2668C23.0722 11.1936 22.9528 11.1449 22.8096 11.1449C20.9233 11.1449 19.037 11.1449 17.1507 11.1449C17.0074 11.1449 16.9358 11.1693 16.9358 11.3399C16.9119 12.3879 16.8641 13.436 16.8164 14.5085ZM33.4349 25.3304C33.4349 24.6479 33.4349 23.9655 33.4349 23.283C33.4349 23.1124 33.3872 23.0636 33.22 23.0636C32.5515 23.0636 31.8829 23.0636 31.2143 23.0636C31.0472 23.0636 30.9994 23.1124 30.9994 23.283C30.9994 24.6236 30.9994 25.9885 30.9994 27.329C30.9994 27.4997 31.0472 27.5484 31.2143 27.5484C31.8829 27.5484 32.5515 27.5484 33.22 27.5484C33.3872 27.5484 33.4349 27.4997 33.4349 27.329C33.411 26.671 33.4349 26.0129 33.4349 25.3304ZM35.6316 25.3304C35.6316 25.9885 35.6316 26.671 35.6316 27.329C35.6316 27.4997 35.6794 27.5728 35.8465 27.5484C36.4912 27.5484 37.1598 27.5484 37.8044 27.5484C37.9955 27.5484 38.0432 27.4997 38.0193 27.329C38.0193 25.9885 38.0193 24.6479 38.0193 23.3318C38.0193 23.1611 37.9716 23.088 37.8044 23.1124C37.1598 23.1124 36.4912 23.1124 35.8465 23.1124C35.6555 23.1124 35.6077 23.1611 35.6316 23.3318C35.6555 23.9898 35.6316 24.6479 35.6316 25.3304Z" fill="#5464F8"/>
<path d="M13.5931 45C13.4976 44.8782 13.3543 44.9025 13.2111 44.8782C9.22357 44.1957 6.31055 40.6859 6.31055 36.5667C6.31055 32.4232 9.22357 28.9134 13.2349 28.2309C17.9149 27.4266 22.3083 30.8389 22.7858 35.6649C23.2634 40.2715 20.0399 44.3907 15.551 44.9269C15.5033 44.9269 15.4316 44.9269 15.4316 45C14.8347 45 14.2139 45 13.5931 45Z" fill="#4450C1"/>
<path d="M11.012 36.523L11.0119 36.523C10.9909 38.5426 12.5881 40.163 14.5261 40.1857C16.4864 40.1843 18.0852 38.5863 18.1064 36.5614C18.1274 34.5409 16.5287 32.92 14.5895 32.8986L11.012 36.523ZM11.012 36.523V36.5178M11.012 36.523V36.5178M11.012 36.5178C11.012 34.4958 12.6324 32.8774 14.5895 32.8986L11.012 36.5178Z" stroke="white"/>
<path d="M41.1473 44.9991C41.0518 44.8773 40.9324 44.9017 40.813 44.8773C37.8761 44.2923 35.8466 41.6356 35.9659 38.5401C36.0853 35.5909 38.3298 33.1291 41.2428 32.7392C44.4424 32.3248 47.3554 34.5428 47.9284 37.8333C47.9523 37.9064 47.9045 38.0039 48.0001 38.0526V39.6613C47.8807 39.7344 47.9284 39.8563 47.9045 39.9538C47.4031 42.513 45.5646 44.3898 43.0575 44.8773C42.9381 44.9017 42.7948 44.8529 42.6754 44.9748H41.1473V44.9991Z" fill="#4450C1"/>
<path d="M39.6406 38.6622C39.6406 37.3268 40.7082 36.2639 42.002 36.2617C43.2715 36.2838 44.3234 37.3446 44.3234 38.6866C44.3234 40.022 43.2558 41.0849 41.9621 41.087C40.6925 41.065 39.6406 40.0042 39.6406 38.6622Z" stroke="white"/>
<path d="M6 27.7441C6.02388 27.7441 6.02388 27.7441 6.04775 27.7441C6.04775 27.7685 6.02388 27.7929 6 27.8173V27.7441Z" fill="black"/>
</g>
<defs>
<clipPath id="clip0_19312_75249">
<rect width="42" height="36" fill="white" transform="translate(6 9)"/>
</clipPath>
</defs>
</svg>
