<svg width="50" height="50" viewBox="0 0 50 50" fill="none" xmlns="http://www.w3.org/2000/svg">
<path d="M40.8824 15.5292H38.4558L23.9412 8.29272L9.42659 15.5292H7L23.9412 7.05859L40.8824 15.5292Z" fill="#5464F8"/>
<path d="M21.8235 8.20588C21.8235 8.79092 22.0559 9.35199 22.4696 9.76568C22.8833 10.1794 23.4443 10.4118 24.0294 10.4118C24.6144 10.4118 25.1755 10.1794 25.5892 9.76568C26.0028 9.35199 26.2353 8.79092 26.2353 8.20588C26.2353 7.62085 26.0028 7.05977 25.5892 6.64609C25.1755 6.2324 24.6144 6 24.0294 6C23.4443 6 22.8833 6.2324 22.4696 6.64609C22.0559 7.05977 21.8235 7.62085 21.8235 8.20588Z" fill="#4450C1"/>
<path fill-rule="evenodd" clip-rule="evenodd" d="M40.8824 15H7V42.5735H30.5377C29.0433 41.0173 28.1765 38.9233 28.1765 36.7059C28.1765 32.0277 31.9689 28.2353 36.6471 28.2353C38.1899 28.2353 39.6364 28.6478 40.8824 29.3685V15Z" fill="#5464F8"/>
<path d="M30.2942 36.7045C30.2942 38.9742 31.5051 41.0715 33.4707 42.2063C35.4363 43.3412 37.858 43.3412 39.8236 42.2063C41.7892 41.0715 43.0001 38.9742 43.0001 36.7045C43.0001 33.1959 40.1558 30.3516 36.6471 30.3516C33.1385 30.3516 30.2942 33.1959 30.2942 36.7045Z" fill="#4450C1"/>
<path d="M34.7942 39.9134C33.6476 39.2514 32.9413 38.028 32.9413 36.704C32.9413 34.6573 34.6005 32.9982 36.6472 32.9982C38.6939 32.9982 40.353 34.6573 40.353 36.704C40.353 38.028 39.6467 39.2514 38.5001 39.9134C37.3535 40.5754 35.9408 40.5754 34.7942 39.9134Z" stroke="white" stroke-width="1.05882"/>
<path d="M35.5883 21.8828H12.2942V25.0593H35.5883V21.8828Z" fill="#111936"/>
<path d="M23.9412 30.3516H12.2942V33.528H23.9412V30.3516Z" fill="#111936"/>
</svg>
