<svg width="50" height="50" viewBox="0 0 50 50" fill="none" xmlns="http://www.w3.org/2000/svg">
<path fill-rule="evenodd" clip-rule="evenodd" d="M10 10C8.34315 10 7 11.3431 7 13V40C7 41.6569 8.34315 43 10 43H30.978C29.2149 41.4121 28.1765 39.1329 28.1765 36.7059C28.1765 32.0277 31.9689 28.2353 36.6471 28.2353C38.2387 28.2353 39.7279 28.6743 41 29.4378V13C41 11.3431 39.6569 10 38 10H10Z" fill="#5464F8"/>
<path d="M37 16H30C29.4477 16 29 16.4477 29 17C29 17.5523 29.4477 18 30 18H37C37.5523 18 38 17.5523 38 17C38 16.4477 37.5523 16 37 16Z" fill="#111936"/>
<path d="M37 21H30C29.4477 21 29 21.4477 29 22C29 22.5523 29.4477 23 30 23H37C37.5523 23 38 22.5523 38 22C38 21.4477 37.5523 21 37 21Z" fill="#111936"/>
<path d="M30 36.7045C30 38.9742 31.2109 41.0715 33.1765 42.2063C35.1421 43.3412 37.5638 43.3412 39.5294 42.2063C41.495 41.0715 42.7059 38.9742 42.7059 36.7045C42.7059 33.1959 39.8616 30.3516 36.3529 30.3516C32.8443 30.3516 30 33.1959 30 36.7045Z" fill="#4450C1"/>
<path d="M37.5441 36.358C37.6017 36.358 37.6578 36.3758 37.7048 36.409L40.6854 38.5144C40.811 38.6032 40.841 38.7771 40.7522 38.9027C40.7351 38.9269 40.7142 38.9483 40.6904 38.9659L37.7099 41.1726C37.5862 41.2642 37.4117 41.2381 37.3202 41.1145C37.2847 41.0665 37.2655 41.0084 37.2655 40.9487V39.5291H34.8288C33.0923 39.539 32.1494 38.6808 32 36.9545C32.1509 37.1125 32.8104 38.0447 34.8288 38.0447C36.1745 38.0447 36.9867 38.0292 37.2655 37.9983V36.6366C37.2655 36.4827 37.3902 36.358 37.5441 36.358ZM35.6798 32.0855C35.7153 32.1335 35.7345 32.1916 35.7345 32.2513V33.6708H38.1712C39.9077 33.661 40.8506 34.5192 41 36.2454C40.8491 36.0874 40.1896 35.1552 38.1712 35.1552C36.8255 35.1552 36.0133 35.1707 35.7345 35.2016V36.5634C35.7345 36.7172 35.6098 36.842 35.4559 36.842C35.3983 36.842 35.3422 36.8241 35.2952 36.7909L32.3146 34.6855C32.189 34.5967 32.159 34.4229 32.2478 34.2972C32.2649 34.273 32.2858 34.2517 32.3096 34.234L35.2901 32.0274C35.4138 31.9358 35.5883 31.9618 35.6798 32.0855V32.0855Z" fill="white"/>
<path d="M18 25.8243C14.1211 25.8243 10 24.4538 10 21.9111C10 19.3684 14.1211 18 18 18C21.8789 18 25.9999 19.3725 25.9999 21.9132C25.9999 24.4538 21.8789 25.8243 18 25.8243Z" fill="white"/>
<path fill-rule="evenodd" clip-rule="evenodd" d="M10.8395 24.7656C12.2416 26.1338 15.1846 26.8558 18 26.8558C20.8147 26.8558 23.757 26.1341 25.1595 24.7673C25.6898 25.2843 25.9999 25.8934 25.9999 26.5904C25.9999 29.131 21.8789 30.5015 18 30.5015C14.1211 30.5015 10 29.131 10 26.5883C10 25.8911 10.3098 25.2822 10.8395 24.7656Z" fill="white"/>
<path fill-rule="evenodd" clip-rule="evenodd" d="M10.8432 29.5234C12.2468 30.8893 15.1871 31.61 18 31.61C20.8122 31.61 23.7518 30.8896 25.1558 29.5251C25.6883 30.0429 25.9999 30.6532 25.9999 31.3518C25.9999 33.8924 21.8789 35.2629 18 35.2629C14.1211 35.2629 10 33.8924 10 31.3497C10 30.6509 10.3113 30.0408 10.8432 29.5234Z" fill="white"/>
</svg>
