<svg width="50" height="50" viewBox="0 0 50 50" fill="none" xmlns="http://www.w3.org/2000/svg">
<path d="M36.4855 17.0926C37.8123 19.0597 40.4753 19.5774 42.4425 18.2505C44.4047 16.927 44.9272 14.2607 43.6004 12.2935C42.2735 10.3264 39.6105 9.80878 37.6434 11.1356C35.6763 12.4625 35.1586 15.1255 36.4855 17.0926Z" fill="#5464F8"/>
<path d="M37.3611 16.5021C38.0074 17.4602 39.1157 18.0008 40.2686 17.9202C41.4215 17.8396 42.4438 17.15 42.9504 16.1113C43.457 15.0725 43.371 13.8424 42.7248 12.8843C41.7257 11.4032 39.7152 11.0124 38.2341 12.0114C36.7529 13.0104 36.3621 15.021 37.3611 16.5021Z" fill="#4450C1"/>
<path fill-rule="evenodd" clip-rule="evenodd" d="M28.5938 21.1746C28.5938 21.1746 29.5213 21.5272 29.8691 21.759C32.386 22.8319 34.2581 24.3207 35.6494 26H32.094C31.426 25.9991 30.7643 26.1318 30.1468 26.3905C29.5292 26.6492 28.9679 27.0289 28.4949 27.5079C28.0219 27.9869 27.6464 28.5559 27.3899 29.1822C27.1334 29.8085 27.0009 30.4801 27 31.1584V37.8428C27.0016 38.8454 27.2902 39.8175 27.8194 40.6458H12.7936C9.9244 40.6458 7.68793 38.1292 8.03572 35.2696C8.6202 30.5165 10.6345 24.1887 17.455 21.7639C17.8028 21.5272 18.3824 21.2953 18.7302 21.1794C18.3824 20.9475 17.8028 20.479 17.455 20.1312C15.8271 18.4985 14.8997 16.2862 14.8997 13.842C14.8997 11.3979 15.832 9.18555 17.455 7.55288C19.1939 5.80428 21.4014 4.86719 23.72 4.86719C26.0386 4.86719 28.246 5.79945 29.8691 7.54805C31.4969 9.18072 32.4243 11.393 32.4243 13.8372C32.4243 16.1655 31.4921 18.3778 29.8691 20.1264C29.5213 20.4742 28.7098 21.1746 28.5938 21.1746ZM39.2162 37.3423C39.0144 37.9618 38.6866 38.5286 38.2622 39.0111C38.1821 39.0061 38.1026 38.9902 38.0257 38.9635C37.8441 38.9003 37.6872 38.7796 37.5779 38.6193L33.937 33.3587V38.0965C33.937 38.3388 33.8423 38.5711 33.6736 38.7424C33.5049 38.9137 33.2761 39.0099 33.0375 39.0099C32.7989 39.0099 32.5701 38.9137 32.4015 38.7424C32.2328 38.5711 32.138 38.3388 32.138 38.0965V30.6803C32.137 30.4853 32.1975 30.2951 32.3107 30.1376C32.4239 29.9801 32.5837 29.8635 32.7669 29.805C32.95 29.7464 33.1468 29.7489 33.3284 29.8121C33.5101 29.8754 33.667 29.996 33.7762 30.1563L37.4171 35.404V30.6791C37.4171 30.4368 37.5119 30.2045 37.6806 30.0332C37.7636 29.949 37.8611 29.8829 37.9672 29.8375C38.5774 31.2669 38.968 32.7136 39.2162 34.0713V37.3423Z" fill="#5464F8"/>
<rect x="31.6255" y="30.6289" width="9.625" height="9.33333" fill="white"/>
<path d="M39.0971 28.0039H33.1956C32.6454 28.0031 32.1005 28.1124 31.5919 28.3255C31.0834 28.5386 30.6211 28.8513 30.2316 29.2457C29.842 29.6402 29.5328 30.1087 29.3216 30.6245C29.1103 31.1404 29.0012 31.6934 29.0005 32.252V37.7568C29.0023 38.8848 29.4452 39.966 30.2319 40.7624C31.0186 41.5589 32.0846 42.0054 33.1956 42.0039H39.0971C40.208 42.0054 41.274 41.5589 42.0607 40.7624C42.8474 39.966 43.2904 38.8848 43.2922 37.7568V32.251C43.2904 31.123 42.8474 30.0419 42.0607 29.2454C41.274 28.4489 40.208 28.0024 39.0971 28.0039ZM39.0609 37.9648C39.0617 38.1253 39.0118 38.282 38.9186 38.4117C38.8254 38.5414 38.6938 38.6374 38.543 38.6856C38.3922 38.7338 38.2301 38.7318 38.0805 38.6797C37.9309 38.6277 37.8017 38.5283 37.7117 38.3963L34.7133 34.064V37.9658C34.7133 38.1653 34.6353 38.3566 34.4964 38.4976C34.3574 38.6387 34.169 38.718 33.9726 38.718C33.7761 38.718 33.5877 38.6387 33.4487 38.4976C33.3098 38.3566 33.2318 38.1653 33.2318 37.9658V31.8582C33.231 31.6977 33.2808 31.5411 33.374 31.4114C33.4672 31.2817 33.5988 31.1857 33.7497 31.1374C33.9005 31.0892 34.0626 31.0912 34.2121 31.1433C34.3617 31.1954 34.491 31.2947 34.5809 31.4268L37.5793 35.7484V31.8573C37.5793 31.6578 37.6573 31.4665 37.7963 31.3254C37.9352 31.1843 38.1236 31.1051 38.3201 31.1051C38.5166 31.1051 38.705 31.1843 38.8439 31.3254C38.9828 31.4665 39.0609 31.6578 39.0609 31.8573V37.9648Z" fill="#4450C1"/>
</svg>
