<svg width="50" height="50" viewBox="0 0 50 50" fill="none" xmlns="http://www.w3.org/2000/svg">
<path d="M19.3849 11.6531H29.6147C30.3524 11.6407 31.0549 11.3357 31.5677 10.8053C32.0805 10.2748 32.3615 9.5623 32.3489 8.82461C32.3615 8.08691 32.0805 7.37443 31.5677 6.84396C31.0549 6.31349 30.3524 6.00849 29.6147 5.99609H19.3849C18.6472 6.00849 17.9447 6.31349 17.4319 6.84396C16.9191 7.37443 16.6381 8.08691 16.6507 8.82461C16.6381 9.5623 16.9191 10.2748 17.4319 10.8053C17.9447 11.3357 18.6472 11.6407 19.3849 11.6531Z" fill="#5464F8"/>
<path d="M37.6526 9.77344H34.1877V10.1034C34.2066 11.0015 33.8663 11.8699 33.2423 12.516C32.6183 13.1621 31.7623 13.5324 30.8642 13.5448H18.1358C17.2377 13.5324 16.3817 13.1621 15.7577 12.516C15.1337 11.8699 14.7934 11.0015 14.8123 10.1034V9.77344H11.3474C10.4472 9.78585 9.58876 10.1554 8.96104 10.8008C8.33333 11.4462 7.98774 12.3146 8.00033 13.2148V40.2743C7.98704 42.1437 9.47828 43.677 11.3474 43.7156H37.6526C38.5528 43.7032 39.4112 43.3336 40.039 42.6882C40.6667 42.0428 41.0123 41.1745 40.9997 40.2743V13.2148C41.013 11.3453 39.5217 9.81207 37.6526 9.77344Z" fill="#5464F8"/>
<mask id="path-3-inside-1_15996_71056" fill="white">
<rect x="29.6799" y="38.1484" width="9.54" height="1.56708" rx="0.668989"/>
</mask>
<rect x="29.6799" y="38.1484" width="9.54" height="1.56708" rx="0.668989" stroke="white" stroke-width="1.56708" mask="url(#path-3-inside-1_15996_71056)"/>
<mask id="path-4-inside-2_15996_71056" fill="white">
<rect x="32.4434" y="33.8438" width="6.77" height="1.56708" rx="0.668989"/>
</mask>
<rect x="32.4434" y="33.8438" width="6.77" height="1.56708" rx="0.668989" stroke="white" stroke-width="1.56708" mask="url(#path-4-inside-2_15996_71056)"/>
<path d="M33.085 23.4247L24.1768 32.3329C23.561 32.9487 22.5758 32.9487 21.96 32.3329L17.1981 27.5709C16.5823 26.9551 16.5823 25.9699 17.1981 25.3541C17.8138 24.7384 18.7991 24.7384 19.4148 25.3541L23.0684 29.0077L30.8682 21.2079C31.484 20.5922 32.4692 20.5922 33.085 21.2079C33.7008 21.8647 33.7008 22.85 33.085 23.4247Z" fill="white"/>
</svg>