<svg width="50" height="50" viewBox="0 0 50 50" fill="none" xmlns="http://www.w3.org/2000/svg">
<path d="M24.289 31.2606L8.30078 21.457V27.2606L24.289 37.5097V31.2606Z" fill="#5464F8"/>
<path d="M24.2897 31.2766L41.7227 21.457V27.2606L24.2897 37.5117V31.2766Z" fill="#5464F8"/>
<path d="M24.289 40.2606L8.30078 30.457V36.2606L24.289 46.5097V40.2606Z" fill="#5464F8"/>
<path d="M24.2897 40.2766L41.7227 30.457V36.2606L24.2897 46.5117V40.2766Z" fill="#5464F8"/>
<path d="M24.289 23.1043L8.30078 13.3008V18.1043L24.289 28.3535V23.1043Z" fill="#5464F8"/>
<path d="M24.2698 23.2954L41.7227 13.3008V18.1043L24.2698 28.3464V23.2954Z" fill="#5464F8"/>
<path d="M41.7219 13.2996L24.7886 3.49609L8.30078 13.2996L24.289 23.299L41.7219 13.2996Z" fill="#5464F8"/>
<path d="M38.1 13.3262L24.876 5.82031L12 13.3262L24.876 21.1733L38.1 13.3262Z" fill="#4450C1"/>
<path d="M23.5736 8.33952L21.3555 11.9691L21.3824 11.9826L25.7245 9.49561L26.4638 9.88546L20.3876 13.3806L19.7155 12.9773L22.0142 9.25364L21.9873 9.2402L17.6453 11.7271L17 11.3239L22.888 7.97656L23.5736 8.33952Z" fill="white"/>
<path d="M30.5635 12.0744L29.6897 12.5853L27.2566 11.2544L25.5493 12.2358L27.8077 13.5128L26.9205 14.0237L24.6755 12.7331L21.9332 14.3194L21.2207 13.8892L27.3507 10.3672L30.5635 12.0744Z" fill="white"/>
<path d="M34.9999 14.4542L34.0857 14.9919L32.3919 14.0643L26.84 17.3041L26.0469 16.8201L31.5585 13.6073L29.9453 12.7335L30.8191 12.2227L34.9999 14.4542Z" fill="white"/>
</svg>
