<svg width="50" height="50" viewBox="0 0 50 50" fill="none" xmlns="http://www.w3.org/2000/svg">
<path d="M24.2891 31.2606L8.3009 21.457V27.2606L24.2891 37.5097V31.2606Z" fill="#5464F8"/>
<path d="M24.2891 31.2766L41.722 21.457V27.2606L24.2891 37.5117V31.2766Z" fill="#5464F8"/>
<path d="M24.2891 40.2606L8.3009 30.457V36.2606L24.2891 46.5097V40.2606Z" fill="#5464F8"/>
<path d="M24.2891 40.2766L41.722 30.457V36.2606L24.2891 46.5117V40.2766Z" fill="#5464F8"/>
<path d="M24.2891 23.1043L8.3009 13.3008V18.1043L24.2891 28.3535V23.1043Z" fill="#5464F8"/>
<path d="M24.2692 23.2954L41.722 13.3008V18.1043L24.2692 28.3464V23.2954Z" fill="#5464F8"/>
<path d="M41.7221 13.2996L24.7887 3.49609L8.3009 13.2996L24.2891 23.299L41.7221 13.2996Z" fill="#5464F8"/>
<path d="M38.1 13.3262L24.876 5.82031L12 13.3262L24.876 21.1733L38.1 13.3262Z" fill="#4450C1"/>
<path d="M23.5736 8.33952L21.3555 11.9691L21.3824 11.9826L25.7245 9.49561L26.4638 9.88546L20.3876 13.3806L19.7155 12.9773L22.0142 9.25364L21.9873 9.2402L17.6453 11.7271L17 11.3239L22.888 7.97656L23.5736 8.33952Z" fill="white"/>
<path d="M30.564 12.0744L29.6902 12.5853L27.2571 11.2544L25.5498 12.2358L27.8082 13.5128L26.921 14.0237L24.676 12.7331L21.9337 14.3194L21.2212 13.8892L27.3512 10.3672L30.564 12.0744Z" fill="white"/>
<path d="M35 14.4542L34.0859 14.9919L32.3921 14.0643L26.8401 17.3041L26.047 16.8201L31.5586 13.6073L29.9454 12.7335L30.8192 12.2227L35 14.4542Z" fill="white"/>
</svg>
