<svg width="50" height="50" viewBox="0 0 50 50" fill="none" xmlns="http://www.w3.org/2000/svg">
<rect x="5" y="11" width="40" height="30" rx="3.25359" fill="#5464F8"/>
<path d="M23.9474 11H41.8421C43.5862 11 45 12.4138 45 14.1579V37.8421C45 39.5862 43.5862 41 41.8421 41H23.9474V11Z" fill="#4450C1"/>
<path d="M8 26C8 27.4291 8.7624 28.7496 10 29.4641C11.2376 30.1786 12.7624 30.1786 14 29.4641C15.2376 28.7496 16 27.4291 16 26C16 23.7909 14.2091 22 12 22C9.79086 22 8 23.7909 8 26Z" fill="#4450C1"/>
<path d="M10.7419 28.1791C9.96342 27.7296 9.48384 26.8989 9.48384 26C9.48384 24.6104 10.6104 23.4838 12 23.4838C13.3896 23.4838 14.5162 24.6104 14.5162 26C14.5162 26.8989 14.0366 27.7296 13.2581 28.1791C12.4796 28.6285 11.5204 28.6285 10.7419 28.1791Z" stroke="white" stroke-width="0.967677"/>
<path d="M34 26C34 27.4291 34.7624 28.7496 36 29.4641C37.2376 30.1786 38.7624 30.1786 40 29.4641C41.2376 28.7496 42 27.4291 42 26C42 23.7909 40.2091 22 38 22C35.7909 22 34 23.7909 34 26Z" fill="#5464F8"/>
<path d="M36.7419 28.1791C35.9634 27.7296 35.4838 26.8989 35.4838 26C35.4838 24.6104 36.6104 23.4838 38 23.4838C39.3896 23.4838 40.5162 24.6104 40.5162 26C40.5162 26.8989 40.0366 27.7296 39.2581 28.1791C38.4796 28.6285 37.5204 28.6285 36.7419 28.1791Z" stroke="white" stroke-width="0.967677"/>
<path d="M29.6692 20.8297C28.4887 19.6498 26.9198 19 25.2506 19C23.5813 19 22.0118 19.6498 20.8313 20.8297C19.6508 22.0096 19 23.58 19 25.2499C19 26.9199 19.6504 28.49 20.8313 29.6703C22.0121 30.8506 23.5807 31.5 25.2501 31.5C26.9195 31.5 28.4887 30.8509 29.6687 29.6703C30.8487 28.4897 31.5 26.9194 31.5 25.2495C31.5 23.5796 30.8505 22.0101 29.6691 20.8297H29.6692Z" fill="white"/>
<path d="M23.5996 21.9111L22.668 22.6573C23.7657 22.9673 24.6801 23.2935 25.3415 23.6786L25.2413 23.798L25.3671 23.9718L22.5416 27.5414C22.4445 27.6976 22.4572 27.8442 22.5434 27.9841L22.5828 28.0177C22.7059 28.1545 22.8923 28.175 23.1423 28.0795L26.3333 24.8836L26.5227 24.941L26.6931 24.7785C27.2637 25.3932 27.8933 26.2608 28.652 27.3391C28.377 25.8864 27.9881 24.813 27.5114 24.0056L27.7152 23.8029L27.1761 22.7061L26.0879 22.5058L26.0242 22.6218C25.4429 22.3036 24.6844 22.0747 23.8225 21.9287L23.5996 21.9111Z" fill="#4450C1"/>
</svg>
