<svg width="50" height="50" viewBox="0 0 50 50" fill="none" xmlns="http://www.w3.org/2000/svg">
<path d="M42.6612 35.4354C41.6322 36.0654 40.2252 36.5484 38.4612 36.9054C36.6972 37.2624 34.7652 37.4514 32.6862 37.4514C30.6072 37.4514 28.6752 37.2624 26.9112 36.9054C25.1472 36.5484 23.7402 36.0444 22.7112 35.4354C21.6822 34.8264 21.1572 34.1334 21.1572 33.4194V30.7314C22.3542 31.6134 23.9712 32.2854 26.0292 32.7264C28.0872 33.1674 30.3132 33.3984 32.6862 33.3984C35.0592 33.3984 37.2642 33.1674 39.3432 32.7264C41.4012 32.2644 43.0392 31.6134 44.2152 30.7314V33.4194C44.2152 34.1334 43.6902 34.8054 42.6612 35.4354ZM42.6612 29.3664C41.6322 29.9964 40.2252 30.4794 38.4612 30.8364C36.6972 31.1934 34.7652 31.3824 32.6862 31.3824C30.6072 31.3824 28.6752 31.1934 26.9112 30.8364C25.1472 30.4794 23.7402 29.9754 22.7112 29.3664C21.6822 28.7364 21.1572 28.0644 21.1572 27.3504V24.6624C22.3542 25.5444 23.9712 26.2164 26.0292 26.6574C28.0872 27.1194 30.3132 27.3294 32.6862 27.3294C35.0592 27.3294 37.2642 27.0984 39.3432 26.6574C41.4012 26.2164 43.0392 25.5444 44.2152 24.6624V27.3504C44.2152 28.0644 43.6902 28.7364 42.6612 29.3664ZM42.6612 23.3184C41.6322 23.9274 40.2252 24.4314 38.4612 24.7884C36.6972 25.1454 34.7652 25.3344 32.6862 25.3344C30.6072 25.3344 28.6752 25.1454 26.9112 24.7884C25.1472 24.4314 23.7402 23.9274 22.7112 23.3184C21.6822 22.6884 21.1572 22.0164 21.1572 21.3024V19.2864C21.1572 18.5514 21.6822 17.8794 22.7112 17.2704C23.7402 16.6404 25.1472 16.1574 26.9112 15.8004C28.6752 15.4434 30.6072 15.2544 32.6862 15.2544C34.7652 15.2544 36.6972 15.4434 38.4612 15.8004C40.2252 16.1574 41.6322 16.6614 42.6612 17.2704C43.6902 17.9004 44.2152 18.5724 44.2152 19.2864V21.3024C44.2152 22.0164 43.6902 22.6884 42.6612 23.3184ZM19.0362 18.7614C16.6842 18.7404 14.5002 18.5514 12.5052 18.1524C10.4472 17.7324 8.80916 17.1864 7.61216 16.4724C6.41516 15.7584 5.80616 15.0024 5.80616 14.1834V11.8944C5.80616 11.0754 6.41516 10.2984 7.61216 9.60541C8.80916 8.89141 10.4472 8.34541 12.5052 7.92541C14.5632 7.50541 16.8102 7.31641 19.2462 7.31641C21.6822 7.31641 23.9292 7.52641 25.9872 7.92541C28.0452 8.34541 29.6832 8.89141 30.8802 9.60541C32.0772 10.3194 32.6862 11.0754 32.6862 11.8944V12.7974L28.3182 13.1754C24.8952 13.1334 18.8682 15.2334 19.0362 18.7614ZM18.9732 21.0504V25.6284C16.6422 25.6074 14.4792 25.4184 12.5052 25.0194C10.4472 24.5994 8.80916 24.0534 7.61216 23.3394C6.41516 22.6254 5.80616 21.8694 5.80616 21.0504V18.0054C7.19216 19.0134 9.08216 19.7694 11.4972 20.2734C13.8072 20.7774 16.3062 21.0294 18.9732 21.0504ZM18.9732 27.9384V32.5164C16.6422 32.4954 14.4792 32.3064 12.5052 31.9074C10.4472 31.4874 8.80916 30.9414 7.61216 30.2274C6.41516 29.5134 5.80616 28.7574 5.80616 27.9384V24.8934C7.19216 25.9014 9.08216 26.6574 11.4972 27.1614C13.8072 27.6654 16.3062 27.9174 18.9732 27.9384ZM18.9732 34.8264V39.1314C18.9732 39.2364 18.9942 39.3204 18.9942 39.4254C16.6632 39.4044 14.4792 39.2154 12.4842 38.8164C10.4262 38.3964 8.78816 37.8504 7.59116 37.1364C6.39416 36.4224 5.78516 35.6664 5.78516 34.8474V31.8024C7.17116 32.8104 9.06116 33.5664 11.4762 34.0704C13.8072 34.5534 16.3062 34.8054 18.9732 34.8264ZM32.6862 39.4674C35.0592 39.4674 37.2642 39.2364 39.3432 38.7954C41.4012 38.3334 43.0392 37.6824 44.2152 36.8004V39.4884C44.2152 40.2234 43.6902 40.8954 42.6612 41.5044C41.6322 42.1344 40.2252 42.6174 38.4612 42.9744C36.6972 43.3314 34.7652 43.5204 32.6862 43.5204C30.6072 43.5204 28.6752 43.3314 26.9112 42.9744C25.1472 42.6174 23.7402 42.1134 22.7112 41.5044C21.6822 40.8744 21.1572 40.2024 21.1572 39.4884V36.7794C22.3542 37.6614 23.9712 38.3334 26.0292 38.7744C28.0872 39.2364 30.3132 39.4674 32.6862 39.4674Z" fill="#5464F8"/>
<path d="M23.25 19.3125C23.25 20.4066 25.0845 21.4176 28.0625 21.9647C31.0405 22.5118 34.7095 22.5118 37.6875 21.9647C40.6655 21.4176 42.5 20.4066 42.5 19.3125C42.5 17.6211 38.1907 16.25 32.875 16.25C27.5593 16.25 23.25 17.6211 23.25 19.3125Z" fill="#4450C1"/>
<path d="M31.6801 21.0615L29.5437 20.3784L34.3438 18.245L28.0623 19.7506L25.8748 19.313L34.1873 17.5622L36.4994 18.0071L31.68 20.153L37.4998 18.4991L38.9999 19L31.6801 21.0615Z" fill="white"/>
<path d="M41.8025 13.5934L39.0004 13.2088" stroke="#5669DC" stroke-linecap="round"/>
<path d="M36.7449 6.99918L35.9774 9.72147" stroke="#5669DC" stroke-linecap="round"/>
<path d="M41.0002 7.99865L37.9902 11.263" stroke="#5669DC" stroke-linecap="round"/>
</svg>
