<svg width="50" height="50" viewBox="0 0 50 50" fill="none" xmlns="http://www.w3.org/2000/svg">
<path d="M42.3492 42H7.64036C5.00059 42 3.24762 38.8049 4.32003 35.9512L10.8305 11.561C11.408 10 12.7072 9 14.1508 9H34.9635C36.4071 9 37.7064 10 38.2838 11.561L45.6901 35.9756C46.7419 38.8049 44.989 42 42.3492 42Z" fill="#5464F8"/>
<path d="M32.7181 20.1471C32.4589 21.0495 31.7991 21.513 31.045 21.8788C30.1496 22.3422 29.1835 22.5617 28.1938 22.6837C26.615 22.8788 25.0362 22.8056 23.481 22.391C22.7269 22.1959 22.02 21.9276 21.3838 21.4398C21.1481 21.2447 20.9361 21.0252 20.724 20.7813C20.5119 20.5374 20.4176 20.2203 20.4176 19.8788V19.8544C20.2763 18.7569 20.7947 18.0495 21.6665 17.513C22.5384 16.9764 23.5045 16.7081 24.4942 16.5374C26.2851 16.2447 28.076 16.2935 29.8197 16.83C30.3852 17.0008 30.9508 17.2691 31.4692 17.5617C32.0583 17.8788 32.4824 18.3422 32.671 19.0495C32.7181 19.4398 32.7181 19.8056 32.7181 20.1471Z" fill="white"/>
<path d="M32.7167 26.6099C32.4811 27.3904 31.9155 27.8538 31.2557 28.2197C30.3603 28.7075 29.3942 28.9758 28.4045 29.0977C26.7314 29.3416 25.0584 29.2684 23.4089 28.805C22.6784 28.6099 21.9951 28.3416 21.3824 27.8782C21.1467 27.7075 20.9347 27.4879 20.7462 27.244C20.5341 27.0001 20.4398 26.6831 20.4398 26.3416C20.4398 25.9514 20.3927 25.5611 20.5576 25.1709C20.6519 25.2928 20.7226 25.4148 20.8169 25.5367C21.241 26.0733 21.783 26.3904 22.3721 26.6343C23.7388 27.2197 25.1762 27.4148 26.6607 27.4148C27.9332 27.4148 29.1821 27.244 30.3839 26.7806C30.7373 26.6587 31.0672 26.4879 31.3971 26.3172C31.8684 26.0489 32.2926 25.6831 32.5753 25.1465C32.6225 25.2684 32.6696 25.366 32.7167 25.4636C32.7167 25.8538 32.7167 26.2197 32.7167 26.6099Z" fill="white"/>
<path d="M32.7172 23.3658C32.5523 24.0731 32.081 24.5121 31.5154 24.8536C30.62 25.4146 29.6303 25.7073 28.5935 25.8536C26.7555 26.1463 24.9411 26.0731 23.1738 25.5121C22.6318 25.3414 22.1134 25.0975 21.6421 24.8292C20.6995 24.2926 20.2989 23.4634 20.4639 22.3658C20.4875 22.2439 20.511 22.0975 20.5581 21.9512C21.43 23.2682 22.7732 23.6829 24.1634 23.9756C26.2135 24.3902 28.24 24.317 30.2194 23.6585C30.62 23.5121 31.0206 23.317 31.3976 23.1219C31.8925 22.8536 32.2931 22.4878 32.5758 21.9512C32.6229 22.0731 32.6701 22.1951 32.7172 22.2926C32.7172 22.6341 32.7172 23 32.7172 23.3658Z" fill="white"/>
<path d="M32.7182 33.1715C32.5532 33.8788 32.0819 34.3178 31.5164 34.6593C30.621 35.2203 29.6313 35.513 28.618 35.6593C26.78 35.952 24.942 35.8788 23.1512 35.3178C22.3971 35.0739 21.6902 34.7569 21.0775 34.2203C20.3706 33.5861 20.3235 32.6105 20.5591 31.7812C21.431 33.0983 22.7741 33.4886 24.1644 33.7813C26.1202 34.1715 28.0525 34.1227 29.9847 33.5373C30.6681 33.3422 31.3279 33.0495 31.8934 32.5861C32.1526 32.3666 32.3647 32.0739 32.6239 31.83C32.6475 31.9032 32.6946 32.0008 32.7417 32.0983C32.7182 32.4642 32.7182 32.83 32.7182 33.1715Z" fill="white"/>
<path d="M32.7172 29.9761C32.5287 30.7078 32.0103 31.1713 31.4212 31.5127C30.5257 32.0493 29.5361 32.3176 28.5464 32.4639C26.7555 32.7322 24.9646 32.6591 23.2209 32.1469C22.514 31.9274 21.8306 31.6347 21.2415 31.1469C20.4168 30.4883 20.2989 29.6591 20.5581 28.5859H20.5817C21.0766 29.4395 21.8777 29.8542 22.7496 30.1713C24.2106 30.7078 25.7422 30.8542 27.2975 30.781C28.5228 30.7078 29.701 30.4883 30.8321 30.0005C31.539 29.6835 32.1752 29.2688 32.5994 28.5371C32.6465 28.6835 32.6936 28.781 32.7172 28.903C32.7172 29.2688 32.7172 29.6103 32.7172 29.9761Z" fill="white"/>
<path d="M19.4263 21.4154C19.4263 23.4642 19.4263 25.513 19.4263 27.5617C18.5544 27.6837 17.6825 27.7081 16.8342 27.6349C15.7503 27.5617 14.6663 27.3666 13.6531 26.9276C13.1111 26.7081 12.5927 26.4154 12.1685 25.9764C11.7915 25.5861 11.6266 25.1471 11.603 24.5861C11.5323 23.6105 11.98 22.9764 12.7341 22.4886C13.6059 21.9276 14.5721 21.6349 15.5618 21.4398C16.8342 21.2203 18.1067 21.1959 19.3791 21.3422C19.3556 21.391 19.3791 21.4154 19.4263 21.4154Z" fill="white"/>
<path d="M19.4266 32.1952C19.4266 32.8049 19.3794 33.3903 19.6622 33.9757C19.2145 34.0244 18.8139 34.0732 18.4133 34.0976C16.8581 34.1708 15.35 34.0244 13.8654 33.4878C13.2763 33.2683 12.7108 32.9757 12.216 32.5366C11.7918 32.1464 11.5326 31.6586 11.5562 31.0488C11.5797 30.8049 11.5797 30.561 11.6033 30.3171C11.6033 30.2439 11.6504 30.1708 11.674 30.0488C12.3102 31.0976 13.3235 31.5366 14.3603 31.8537C15.9862 32.3415 17.6357 32.4147 19.3087 32.2196C19.3559 32.1952 19.3794 32.1952 19.4266 32.1952Z" fill="white"/>
<path d="M19.4264 29.0009C19.4264 29.6106 19.4264 30.196 19.4264 30.8057C19.2379 30.8301 19.0494 30.8545 18.8609 30.8789C17.1643 31.0252 15.5148 30.8789 13.9124 30.2935C13.3233 30.074 12.7578 29.7813 12.2865 29.3667C11.8152 28.9521 11.556 28.4643 11.6031 27.8057C11.6267 27.5618 11.6267 27.3423 11.6503 27.0984C11.6503 27.0252 11.6974 26.9521 11.721 26.8789C12.4986 28.074 13.7003 28.4887 14.9257 28.8057C16.3395 29.1716 17.8005 29.196 19.2379 29.0496C19.285 29.0009 19.3321 29.0009 19.4264 29.0009Z" fill="white"/>
<path d="M33.2589 36.4397C36.3823 36.4397 38.9143 33.819 38.9143 30.5861C38.9143 27.3532 36.3823 24.7324 33.2589 24.7324C30.1355 24.7324 27.6035 27.3532 27.6035 30.5861C27.6035 33.819 30.1355 36.4397 33.2589 36.4397Z" fill="white"/>
<path d="M33.2587 35.2682C35.7574 35.2682 37.783 33.1716 37.783 30.5853C37.783 27.999 35.7574 25.9023 33.2587 25.9023C30.76 25.9023 28.7344 27.999 28.7344 30.5853C28.7344 33.1716 30.76 35.2682 33.2587 35.2682Z" fill="#4450C1"/>
<path d="M35.5242 32.6884H34.0777L32.399 30.1407L32.4729 31.2084V32.6884H31V28H32.4201L34.1041 30.5477L34.0514 29.48V28H35.5242V32.6884Z" fill="white"/>
</svg>
