<svg width="130" height="36" viewBox="0 0 130 36" fill="none" xmlns="http://www.w3.org/2000/svg">
<path fill-rule="evenodd" clip-rule="evenodd" d="M42.0642 24.9585H44.7989V10.3455H42.0642V24.9585Z" fill="black"/>
<path fill-rule="evenodd" clip-rule="evenodd" d="M60.2689 23.1214C58.766 24.6034 56.8245 25.2923 54.7157 25.2923C49.288 25.2923 46.9917 21.5556 46.9711 17.7564C46.9503 13.9363 49.4342 10.053 54.7157 10.053C56.6991 10.053 58.5782 10.8045 60.0812 12.2867L58.2439 14.0613C57.2838 13.1222 55.9897 12.6836 54.7157 12.6836C51.188 12.6836 49.664 15.3139 49.6851 17.7564C49.7057 20.1781 51.1046 22.7042 54.7157 22.7042C55.9897 22.7042 57.4298 22.1822 58.3903 21.222L60.2689 23.1214Z" fill="black"/>
<path fill-rule="evenodd" clip-rule="evenodd" d="M64.363 18.1317H68.4965C72.0243 18.1317 72.0037 12.9543 68.4965 12.9543H64.363V18.1317ZM68.4966 20.658H64.3631V24.9582H61.6074V10.3452C63.9039 10.3452 66.2002 10.3244 68.4966 10.3244C75.6361 10.3244 75.6569 20.658 68.4966 20.658Z" fill="black"/>
<path fill-rule="evenodd" clip-rule="evenodd" d="M84.7405 13.8735C84.2399 13.0382 82.8617 12.2451 81.2755 12.2451C79.2293 12.2451 78.2483 13.1008 78.2483 14.1867C78.2483 15.4599 79.7511 15.8151 81.505 16.0238C84.5529 16.3996 87.3917 17.1925 87.3917 20.6787C87.3917 23.9355 84.5107 25.3343 81.2541 25.3343C78.2691 25.3343 75.9726 24.416 74.8875 21.7437L77.1832 20.5537C77.8305 22.1609 79.5215 22.871 81.2961 22.871C83.0287 22.871 84.6571 22.2655 84.6571 20.6787C84.6571 19.3012 83.2167 18.7373 81.2755 18.5286C78.2897 18.174 75.5342 17.3807 75.5342 14.1031C75.5342 11.0967 78.4986 9.86541 81.1915 9.84424C83.467 9.84424 85.8261 10.4915 86.9328 12.7457L84.7405 13.8735Z" fill="black"/>
<path fill-rule="evenodd" clip-rule="evenodd" d="M98.5839 14.6458L100.838 22.3905L103.197 14.6458H106.016L102.425 25.0005H99.4605L98.396 21.9527L97.4777 18.5079L96.5586 21.9527L95.4941 25.0005H92.5297L88.918 14.6458H91.7576L94.1161 22.3905L96.3504 14.6458H98.5839Z" fill="black"/>
<path fill-rule="evenodd" clip-rule="evenodd" d="M111.467 22.9073C109.86 22.9073 108.552 21.5992 108.552 19.9914C108.552 18.384 109.86 17.0759 111.467 17.0759C113.075 17.0759 114.383 18.384 114.383 19.9914C114.383 21.5992 113.075 22.9073 111.467 22.9073ZM114.409 15.4046C113.529 14.8387 112.514 14.5402 111.467 14.5402C108.461 14.5402 106.016 16.9859 106.016 19.9916C106.016 22.9977 108.461 25.4433 111.467 25.4433C112.514 25.4433 113.529 25.1447 114.409 24.5788V25.2328H116.919V14.7294H114.409V15.4046Z" fill="black"/>
<mask id="mask0" mask-type="alpha" maskUnits="userSpaceOnUse" x="118" y="14" width="13" height="16">
<path fill-rule="evenodd" clip-rule="evenodd" d="M118.62 14.5294H130V29.3644H118.62V14.5294Z" fill="black"/>
</mask>
<g mask="url(#mask0)">
<path fill-rule="evenodd" clip-rule="evenodd" d="M124.548 22.8964C122.941 22.8964 121.633 21.5885 121.633 19.9807C121.633 18.3732 122.941 17.0652 124.548 17.0652C126.156 17.0652 127.464 18.3732 127.464 19.9807C127.464 21.5885 126.156 22.8964 124.548 22.8964ZM124.549 14.5294C123.307 14.5294 122.098 14.9587 121.129 15.7407V14.7813H118.62V29.3644H121.129V24.2213C122.098 25.0033 123.307 25.4325 124.549 25.4325C127.555 25.4325 130 22.9868 130 19.9809C130 16.9752 127.555 14.5294 124.549 14.5294Z" fill="black"/>
</g>
<circle cx="17.6411" cy="17.6411" r="17.6411" fill="black" fill-opacity="0.06"/>
<path fill-rule="evenodd" clip-rule="evenodd" d="M22.243 7.75574C19.4032 7.75574 17.3519 10.0274 16.8048 11.6315C15.8451 14.0998 16.2502 15.9959 16.6072 17.668L16.6331 17.7898C16.9647 19.3449 17.2775 20.8136 16.8295 22.6571C16.7879 22.9094 16.7139 23.1576 16.6098 23.3948C16.0971 24.5704 14.9346 25.3295 13.6484 25.3295C11.8683 25.3295 10.42 23.89 10.42 22.1201C10.42 20.3494 11.8683 18.9089 13.6484 18.9089C14.1278 18.9089 14.5885 19.0117 15.0187 19.2137L15.3936 19.3901L14.9265 16.5509L14.7791 16.5213C14.4092 16.4473 14.0287 16.4101 13.6484 16.4101C10.483 16.4101 7.90796 18.9715 7.90796 22.1201C7.90796 25.2688 10.483 27.8301 13.6484 27.8301C16.2761 27.8301 18.5629 26.0628 19.2061 23.5467C19.8564 21.5759 19.5524 19.7778 19.1215 17.799L19.0733 17.5788C18.6505 15.6435 18.3164 14.1147 19.3237 12.0961C19.8539 10.9783 20.9997 10.2558 22.243 10.2558C24.0224 10.2558 25.4702 11.6954 25.4702 13.4653C25.4702 15.2351 24.0224 16.6752 22.243 16.6752C21.8019 16.6752 21.3734 16.5881 20.9682 16.4156L20.6041 16.2609L21.064 19.0568L21.2153 19.0843C21.5515 19.1448 21.8974 19.1757 22.243 19.1757C25.4077 19.1757 27.9823 16.6139 27.9823 13.4653C27.9823 10.317 25.4077 7.75574 22.243 7.75574Z" fill="black"/>
</svg>
