<svg width="240" height="200" viewBox="0 0 240 200" fill="none" xmlns="http://www.w3.org/2000/svg">
<g clip-path="url(#clip0_52028_12814)">
<path d="M30.5309 114.894C33.1572 108.048 42.8431 108.048 45.4694 114.894L58.847 149.766H17.1533L30.5309 114.894Z" fill="#ED9F18"/>
<rect x="12" y="147.865" width="52" height="5.28814" rx="2.64407" fill="#ED9F18"/>
<mask id="mask0_52028_12814" style="mask-type:alpha" maskUnits="userSpaceOnUse" x="17" y="95" width="42" height="55">
<path d="M37.9992 95.4219L58.846 149.764H17.1523L37.9992 95.4219Z" fill="#5C78E5"/>
</mask>
<g mask="url(#mask0_52028_12814)">
<rect x="14.3154" y="117.896" width="44.0729" height="8.37288" fill="white"/>
<rect x="13.9414" y="130.676" width="44.0729" height="8.37288" fill="white"/>
</g>
<path fill-rule="evenodd" clip-rule="evenodd" d="M144.872 64.8281C144.872 64.8281 141.915 67.0742 139.825 70.2734L144.872 64.8281Z" fill="white"/>
<path d="M144.872 64.8281C144.872 64.8281 141.915 67.0742 139.825 70.2734" stroke="black" stroke-width="3" stroke-linecap="round" stroke-linejoin="round"/>
<path fill-rule="evenodd" clip-rule="evenodd" d="M176.38 136.676C170.302 136.676 152.767 136.516 137.298 136.379C124.747 136.266 113.907 136.168 110.872 136.168C99.7236 136.168 88.7861 131.586 80.8603 123.598C73.0009 115.676 68.6338 105.207 68.5595 94.1133C68.4853 82.9336 72.7744 72.4805 80.6338 64.6836C88.333 57.0469 98.6025 52.8398 109.552 52.8398C120.501 52.8398 131.524 57.293 139.548 65.375C140.251 66.082 140.935 66.8203 141.587 67.582C146.185 63.3047 151.388 59.9375 157.442 57.3164C162.337 55.0156 168.474 53.7461 174.728 53.7461C186.509 53.7461 197.29 58.0703 205.083 65.9219C212.966 73.8672 217.329 84.3711 217.376 95.5078C217.423 106.652 213.134 117.066 205.306 124.832C197.606 132.473 187.333 136.68 176.384 136.68L176.38 136.676Z" fill="white"/>
<path d="M109.548 54.3945C120.45 54.3945 130.708 58.6836 138.435 66.4687C139.505 67.5469 140.513 68.6797 141.454 69.8633C146.212 65.1562 151.669 61.5078 158.083 58.7305C162.778 56.5156 168.677 55.3008 174.728 55.3008C186.091 55.3008 196.478 59.4609 203.97 67.0156C219.665 82.8359 219.767 108.27 204.2 123.715C196.794 131.063 186.915 135.109 176.38 135.109C165.478 135.109 117.743 134.598 110.872 134.598C100.138 134.598 89.6026 130.184 81.9698 122.488C74.3994 114.859 70.1924 104.773 70.1221 94.0938C70.0518 83.3359 74.1768 73.2812 81.7354 65.7812C89.1416 58.4336 99.0205 54.3906 109.552 54.3906M109.552 51.2656C98.1885 51.2656 87.5284 55.6328 79.5362 63.5625C71.376 71.6602 66.9229 82.5078 67.001 94.1133C67.0752 105.617 71.6065 116.477 79.7549 124.688C87.9737 132.969 99.3135 137.719 110.876 137.719C113.903 137.719 124.735 137.816 137.278 137.93C152.755 138.07 170.298 138.227 176.384 138.23C187.747 138.23 198.411 133.863 206.407 125.93C223.196 109.27 223.103 81.8516 206.192 64.8086C198.106 56.6562 186.931 52.168 174.731 52.168C168.259 52.168 161.896 53.4844 156.802 55.875C151.106 58.3438 146.138 61.4609 141.708 65.3516C141.364 64.9805 141.013 64.6172 140.661 64.2578C132.345 55.875 121.298 51.2578 109.556 51.2578L109.552 51.2656Z" fill="black"/>
<path fill-rule="evenodd" clip-rule="evenodd" d="M197.341 73.5882C186.508 62.6703 170.087 63.3148 161.93 67.2328C148.926 72.8109 143.298 81.4867 138.333 89.139L137.969 89.6976C133.348 96.8109 128.985 103.53 120.298 108.729C119.184 109.518 117.962 110.162 116.669 110.655C110.266 113.096 102.958 111.479 98.0514 106.534C91.2624 99.6898 91.1843 88.7171 97.8835 82.0726C104.583 75.4242 115.559 75.5843 122.348 82.4281C124.176 84.2718 125.544 86.4281 126.423 88.8421L127.184 90.9476L136.145 78.4906L135.696 77.8148C134.567 76.1156 133.255 74.514 131.805 73.0492C119.731 60.8812 100.216 60.596 88.3015 72.4203C76.3835 84.2445 76.5124 103.76 88.5866 115.928C98.61 126.03 114.02 128.186 125.997 121.213C135.934 116.315 141.579 108.393 147.426 99.307L148.075 98.2953C153.786 89.4046 158.298 82.3812 169.778 78.6742C176.032 76.514 183.133 78.2093 187.876 82.9867C194.661 89.8265 194.739 100.799 188.04 107.444C181.341 114.088 170.368 113.928 163.583 107.088C161.899 105.393 160.594 103.416 159.704 101.213L158.899 99.2328L150.075 111.498L150.548 112.182C151.602 113.702 152.801 115.147 154.122 116.475C166.192 128.643 185.708 128.92 197.622 117.1C209.536 105.28 209.411 85.764 197.337 73.5999L197.341 73.5882Z" fill="url(#paint0_linear_52028_12814)"/>
<path d="M134.923 121.212C134.923 121.212 141.853 108.915 152.935 121.04" stroke="black" stroke-width="3" stroke-linecap="round" stroke-linejoin="round"/>
<path d="M131.286 66.3081C113.274 60.2456 121.067 48.4682 109.423 44.6088C103.431 42.6245 96.6494 45.8706 93.626 48.8901" stroke="black" stroke-width="3" stroke-linecap="round" stroke-linejoin="round"/>
<path d="M192.302 48.8867C176.317 69.4258 165.235 55.5664 160.556 48.8867" stroke="black" stroke-width="3" stroke-linecap="round" stroke-linejoin="round"/>
<path d="M110.431 105.02C116.176 105.02 120.833 100.362 120.833 94.6172C120.833 88.8721 116.176 84.2148 110.431 84.2148C104.686 84.2148 100.028 88.8721 100.028 94.6172C100.028 100.362 104.686 105.02 110.431 105.02Z" fill="black"/>
<path d="M107.954 95.3398C109.648 95.3398 111.021 93.967 111.021 92.2734C111.021 90.5799 109.648 89.207 107.954 89.207C106.261 89.207 104.888 90.5799 104.888 92.2734C104.888 93.967 106.261 95.3398 107.954 95.3398Z" fill="white"/>
<path d="M175.493 105.02C181.238 105.02 185.896 100.362 185.896 94.6172C185.896 88.8721 181.238 84.2148 175.493 84.2148C169.748 84.2148 165.091 88.8721 165.091 94.6172C165.091 100.362 169.748 105.02 175.493 105.02Z" fill="black"/>
<path d="M173.017 95.3398C174.71 95.3398 176.083 93.967 176.083 92.2734C176.083 90.5799 174.71 89.207 173.017 89.207C171.323 89.207 169.95 90.5799 169.95 92.2734C169.95 93.967 171.323 95.3398 173.017 95.3398Z" fill="white"/>
<path fill-rule="evenodd" clip-rule="evenodd" d="M85.9414 144.215C81.6563 144.215 78.293 138.492 78.2891 131.184C78.2852 123.875 81.6367 118.145 85.9258 118.141C90.2148 118.141 93.5781 123.863 93.582 131.172C93.5859 138.48 90.2344 144.211 85.9453 144.215H85.9414Z" fill="white"/>
<path d="M85.9297 119.707C89.2891 119.707 92.0156 124.84 92.0195 131.176C92.0234 137.512 89.3047 142.652 85.9453 142.652C82.5859 142.652 79.8594 137.52 79.8555 131.184C79.8516 124.848 82.5703 119.707 85.9297 119.707ZM85.9297 116.582C83.1289 116.582 80.5586 118.418 78.8672 121.609C77.4844 124.219 76.7266 127.621 76.7266 131.187C76.7344 139.504 80.6953 145.777 85.9414 145.777C88.7422 145.777 91.3164 143.941 93.0039 140.75C94.3867 138.141 95.1445 134.738 95.1445 131.172C95.1367 122.855 91.1758 116.582 85.9297 116.582Z" fill="black"/>
<path fill-rule="evenodd" clip-rule="evenodd" d="M102.203 144.535C97.7503 144.535 93.2855 142.719 90.262 139.672C87.7737 137.168 86.4691 134.078 86.4925 130.734C86.5277 124.93 89.3011 121.352 91.6214 119.371C94.5081 116.906 98.4105 115.496 102.332 115.496C108.407 115.496 114.86 119.094 115.59 127.125C116.102 132.758 114.879 137.367 112.059 140.457C109.657 143.086 106.157 144.535 102.207 144.535H102.203Z" fill="white"/>
<path d="M102.328 117.055C108.024 117.055 113.399 120.336 114.028 127.262C115.047 138.457 108.813 142.969 102.199 142.969C95.5862 142.969 88.0003 138.074 88.0472 130.738C88.1018 121.828 95.4495 117.051 102.324 117.051M102.324 113.926C98.0354 113.926 93.762 115.477 90.5979 118.176C86.969 121.273 84.9495 125.73 84.9182 130.719C84.8948 134.488 86.3557 137.965 89.1409 140.77C92.4534 144.102 97.3323 146.094 102.192 146.094C106.586 146.094 110.496 144.465 113.2 141.508C115.379 139.121 117.832 134.664 117.133 126.98C116.758 122.879 114.989 119.465 112.008 117.109C109.414 115.059 105.973 113.93 102.321 113.93L102.324 113.926Z" fill="black"/>
<path d="M117.063 149.785C124.048 149.785 129.711 144.122 129.711 137.137C129.711 130.151 124.048 124.488 117.063 124.488C110.077 124.488 104.414 130.151 104.414 137.137C104.414 144.122 110.077 149.785 117.063 149.785Z" fill="#727171"/>
<path d="M117.063 126.051C123.184 126.051 128.148 131.012 128.148 137.137C128.148 143.262 123.188 148.223 117.063 148.223C110.938 148.223 105.977 143.262 105.977 137.137C105.977 131.012 110.938 126.051 117.063 126.051ZM117.063 122.926C109.227 122.926 102.852 129.301 102.852 137.137C102.852 144.973 109.227 151.348 117.063 151.348C124.898 151.348 131.273 144.973 131.273 137.137C131.273 129.301 124.898 122.926 117.063 122.926Z" fill="black"/>
<path fill-rule="evenodd" clip-rule="evenodd" d="M147.371 138.18C146.508 138.18 145.809 137.48 145.809 136.617V133.984C145.809 131.582 147.762 129.629 150.164 129.629H179.934C180.797 129.629 181.496 130.328 181.496 131.191V136.617C181.496 137.48 180.797 138.18 179.934 138.18H147.371Z" fill="#727171"/>
<path d="M179.934 131.191V136.617H147.371V133.984C147.371 132.441 148.621 131.191 150.164 131.191H179.934ZM179.934 128.066H150.164C146.902 128.066 144.246 130.723 144.246 133.984V136.617C144.246 138.344 145.645 139.742 147.371 139.742H179.934C181.66 139.742 183.059 138.344 183.059 136.617V131.191C183.059 129.465 181.66 128.066 179.934 128.066Z" fill="black"/>
<path fill-rule="evenodd" clip-rule="evenodd" d="M169.367 138.18C168.848 138.18 168.359 137.922 168.07 137.488C167.781 137.055 167.723 136.508 167.922 136.027L182.41 100.477C182.648 99.8867 183.223 99.5039 183.855 99.5039H227.676C228.195 99.5039 228.683 99.7617 228.973 100.195C229.262 100.629 229.32 101.176 229.121 101.656L214.633 137.207C214.394 137.797 213.82 138.18 213.187 138.18H169.367Z" fill="#727171"/>
<path d="M227.676 101.066L213.187 136.617H169.367L183.855 101.066H227.676ZM227.676 97.9414H183.855C182.586 97.9414 181.441 98.7109 180.961 99.8867L166.472 135.437C166.078 136.402 166.191 137.496 166.773 138.359C167.355 139.223 168.328 139.742 169.367 139.742H213.187C214.457 139.742 215.601 138.973 216.082 137.797L230.57 102.246C230.965 101.281 230.851 100.187 230.269 99.3242C229.687 98.4609 228.715 97.9414 227.676 97.9414Z" fill="black"/>
<path d="M215.352 137.391H70.125C69.2621 137.391 68.5625 138.09 68.5625 138.953V152.461C68.5625 153.324 69.2621 154.023 70.125 154.023H215.352C216.214 154.023 216.914 153.324 216.914 152.461V138.953C216.914 138.09 216.214 137.391 215.352 137.391Z" fill="#C9CACA"/>
<path d="M215.352 138.953V152.461H70.125V138.953H215.352ZM215.352 135.828H70.125C68.3984 135.828 67 137.227 67 138.953V152.461C67 154.188 68.3984 155.586 70.125 155.586H215.352C217.078 155.586 218.477 154.188 218.477 152.461V138.953C218.477 137.227 217.078 135.828 215.352 135.828Z" fill="black"/>
</g>
<defs>
<linearGradient id="paint0_linear_52028_12814" x1="79.4499" y1="94.7523" x2="206.477" y2="94.7523" gradientUnits="userSpaceOnUse">
<stop stop-color="#596AD2"/>
<stop offset="1" stop-color="#8075F5"/>
</linearGradient>
<clipPath id="clip0_52028_12814">
<rect width="240" height="200" fill="white"/>
</clipPath>
</defs>
</svg>
