<svg width="29" height="29" viewBox="0 0 29 29" fill="none" xmlns="http://www.w3.org/2000/svg">
<circle cx="14.0039" cy="14.5" r="14" fill="white"/>
<path d="M19.0796 7.08594C17.9489 7.08594 16.7155 7.68859 15.4136 8.87666C14.7969 9.43628 14.2573 10.0389 13.8633 10.521C13.8633 10.521 14.4971 11.2356 15.1909 12.0018C15.5678 11.5369 16.1074 10.9084 16.7327 10.3402C17.889 9.2813 18.6427 9.06608 19.0796 9.06608C20.707 9.06608 22.0261 10.4005 22.0261 12.0535C22.0261 13.6893 20.707 15.0237 19.0796 15.0409C19.0024 15.0409 18.9082 15.0323 18.7969 15.0065C19.2679 15.2217 19.7819 15.3767 20.2616 15.3767C23.2423 15.3767 23.8246 13.3621 23.8589 13.2157C23.9445 12.8455 23.9961 12.4581 23.9961 12.0621C23.9874 9.31573 21.7862 7.08594 19.0796 7.08594Z" fill="url(#paint0_linear_638_0)"/>
<path d="M8.6743 17.0134C9.80492 17.0134 11.0383 16.4107 12.3403 15.2227C12.9569 14.663 13.4966 14.0604 13.8906 13.5783C13.8906 13.5783 13.2567 12.8637 12.5629 12.0975C12.1861 12.5624 11.6465 13.1909 11.0212 13.7591C9.86488 14.8094 9.10256 15.0332 8.6743 15.0332C7.04688 15.0332 5.72782 13.6988 5.72782 12.0458C5.72782 10.4101 7.04688 9.07564 8.6743 9.05842C8.75139 9.05842 8.8456 9.06702 8.95695 9.09285C8.48586 8.87762 7.97194 8.72266 7.49229 8.72266C4.51155 8.72266 3.92911 10.7372 3.89486 10.8836C3.80921 11.2538 3.75781 11.6412 3.75781 12.0372C3.75781 14.7836 5.9591 17.0134 8.6743 17.0134Z" fill="url(#paint1_linear_638_0)"/>
<path fill-rule="evenodd" clip-rule="evenodd" d="M10.9423 10.3833C10.6168 10.0734 9.02365 8.80779 7.49903 8.76475C4.78203 8.69793 3.98334 10.6322 3.91448 10.8817C4.43491 8.71265 6.37483 7.09452 8.68104 7.08594C10.5611 7.08594 12.4611 8.89116 13.8648 10.5204C13.8671 10.5176 13.8693 10.515 13.8714 10.5124C13.8714 10.5124 14.5053 11.227 15.1991 11.9932C15.1991 11.9932 15.9871 12.9058 16.8265 13.7064C17.152 14.0164 18.7365 15.2647 20.2611 15.3078C23.0535 15.3852 23.8244 13.3448 23.8671 13.1899C23.3533 15.368 21.409 16.9952 19.0962 17.0038C17.2156 17.0038 15.315 15.1974 13.9053 13.5677C13.9025 13.5711 13.8999 13.5743 13.8973 13.5773C13.8973 13.5773 13.2635 12.8628 12.5697 12.0965C12.5697 12.0965 11.7817 11.1839 10.9423 10.3833ZM3.91016 10.8998C3.91093 10.8955 3.91236 10.8894 3.91448 10.8817C3.91303 10.8877 3.91159 10.8938 3.91016 10.8998Z" fill="#29ABE2"/>
<mask id="mask0_638_0" style="mask-type:alpha" maskUnits="userSpaceOnUse" x="0" y="0" width="28" height="29">
<circle cx="14" cy="14.5" r="14" fill="white"/>
</mask>
<g mask="url(#mask0_638_0)">
<path fill-rule="evenodd" clip-rule="evenodd" d="M27.4982 18.5C23.848 20.5441 19.1392 21.7753 13.9991 21.7753C8.85897 21.7753 4.15017 20.5441 0.5 18.5C2.13091 24.4239 7.55685 28.7753 13.9991 28.7753C20.4413 28.7753 25.8673 24.4239 27.4982 18.5Z" fill="#5669DC"/>
<path d="M11.5947 23.025H12.2047L11.1747 26.5H10.5297L9.79969 23.87L9.02469 26.5L8.38469 26.505L7.39969 23.025H8.00469L8.72469 25.855L9.50469 23.025H10.1447L10.8697 25.84L11.5947 23.025ZM13.2448 23.745V24.225C13.4215 23.875 13.6965 23.7 14.0698 23.7V24.29H13.9248C13.7015 24.29 13.5315 24.3467 13.4148 24.46C13.3015 24.5733 13.2448 24.77 13.2448 25.05V26.5H12.6748V23.745H13.2448ZM16.4088 25.8C16.5754 25.63 16.6588 25.4033 16.6588 25.12C16.6588 24.8367 16.5754 24.6117 16.4088 24.445C16.2454 24.2783 16.0504 24.195 15.8238 24.195C15.5971 24.195 15.4004 24.2767 15.2338 24.44C15.0704 24.6033 14.9888 24.8267 14.9888 25.11C14.9888 25.3933 15.0704 25.6217 15.2338 25.795C15.4004 25.965 15.5971 26.05 15.8238 26.05C16.0504 26.05 16.2454 25.9667 16.4088 25.8ZM15.7038 26.545C15.3371 26.545 15.0288 26.4117 14.7788 26.145C14.5288 25.875 14.4038 25.5317 14.4038 25.115C14.4038 24.695 14.5271 24.355 14.7738 24.095C15.0238 23.8317 15.3338 23.7 15.7038 23.7C15.9204 23.7 16.1104 23.75 16.2738 23.85C16.4404 23.9467 16.5688 24.075 16.6588 24.235V23.745H17.2338V26.5H16.6588V25.985C16.5654 26.155 16.4371 26.2917 16.2738 26.395C16.1104 26.495 15.9204 26.545 15.7038 26.545ZM19.9774 25.795C20.1441 25.6217 20.2274 25.3933 20.2274 25.11C20.2274 24.8267 20.1441 24.6033 19.9774 24.44C19.8141 24.2767 19.6174 24.195 19.3874 24.195C19.1608 24.195 18.9641 24.2783 18.7974 24.445C18.6341 24.6117 18.5524 24.8367 18.5524 25.12C18.5524 25.4033 18.6341 25.63 18.7974 25.8C18.9641 25.9667 19.1608 26.05 19.3874 26.05C19.6141 26.05 19.8108 25.965 19.9774 25.795ZM19.5124 23.7C19.8824 23.7 20.1908 23.8317 20.4374 24.095C20.6841 24.355 20.8074 24.695 20.8074 25.115C20.8074 25.5317 20.6824 25.875 20.4324 26.145C20.1858 26.4117 19.8791 26.545 19.5124 26.545C19.2958 26.545 19.1058 26.495 18.9424 26.395C18.7791 26.2917 18.6491 26.155 18.5524 25.985V27.81H17.9824V23.745H18.5524V24.235C18.6458 24.075 18.7741 23.9467 18.9374 23.85C19.1041 23.75 19.2958 23.7 19.5124 23.7Z" fill="white"/>
</g>
<defs>
<linearGradient id="paint0_linear_638_0" x1="16.501" y1="7.80481" x2="23.3046" y2="14.8142" gradientUnits="userSpaceOnUse">
<stop offset="0.21" stop-color="#F15A24"/>
<stop offset="0.6841" stop-color="#FBB03B"/>
</linearGradient>
<linearGradient id="paint1_linear_638_0" x1="11.2474" y1="16.2908" x2="4.44368" y2="9.2814" gradientUnits="userSpaceOnUse">
<stop offset="0.21" stop-color="#ED1E79"/>
<stop offset="0.8929" stop-color="#522785"/>
</linearGradient>
</defs>
</svg>
