<svg width="12" height="12" viewBox="0 0 12 12" fill="none" xmlns="http://www.w3.org/2000/svg">
<g clip-path="url(#clip0_37103_16306)">
<path d="M6 0C4.81332 0 3.65328 0.351894 2.66658 1.01118C1.67989 1.67047 0.910851 2.60754 0.456726 3.7039C0.00259969 4.80026 -0.11622 6.00666 0.115291 7.17054C0.346802 8.33443 0.918247 9.40353 1.75736 10.2426C2.59648 11.0818 3.66558 11.6532 4.82946 11.8847C5.99335 12.1162 7.19975 11.9974 8.2961 11.5433C9.39246 11.0892 10.3295 10.3201 10.9888 9.33342C11.6481 8.34673 12 7.18669 12 6C12 4.4087 11.3679 2.88258 10.2426 1.75736C9.11743 0.632141 7.5913 0 6 0V0ZM6 10.2C5.83048 10.2 5.66476 10.1497 5.5238 10.0555C5.38284 9.96136 5.27298 9.82749 5.20811 9.67087C5.14323 9.51425 5.12626 9.34191 5.15933 9.17564C5.1924 9.00937 5.27404 8.85664 5.39391 8.73677C5.51379 8.61689 5.66651 8.53526 5.83278 8.50218C5.99905 8.46911 6.1714 8.48609 6.32802 8.55096C6.48464 8.61584 6.61851 8.7257 6.71269 8.86665C6.80688 9.00761 6.85715 9.17333 6.85715 9.34286C6.85715 9.57019 6.76684 9.7882 6.60609 9.94895C6.44535 10.1097 6.22733 10.2 6 10.2ZM8.34 5.28857C8.02434 5.709 7.65227 6.08395 7.23429 6.40286C7.01478 6.56253 6.82846 6.76341 6.68572 6.99429C6.59995 7.25072 6.56786 7.52206 6.59143 7.79143H5.33143V7.45714C5.3203 7.11134 5.39077 6.76778 5.53715 6.45429C5.74793 6.11928 6.02152 5.82822 6.34286 5.59714C6.60235 5.40248 6.84597 5.18752 7.07143 4.95429C7.18935 4.80235 7.25275 4.61518 7.25143 4.42286C7.25163 4.29029 7.22253 4.15931 7.16622 4.03929C7.10992 3.91927 7.02779 3.81317 6.92572 3.72857C6.68557 3.52931 6.38041 3.42556 6.06857 3.43714C5.75649 3.43336 5.45304 3.53957 5.21143 3.73714C4.96277 3.98878 4.79297 4.30753 4.72286 4.65429C4.68 4.91143 3.43715 5.02286 3.44572 4.5C3.46448 4.21218 3.54092 3.93107 3.6705 3.67338C3.80008 3.4157 3.98015 3.1867 4.2 3C4.69781 2.5651 5.33905 2.32998 6 2.34C6.69015 2.30376 7.3689 2.52695 7.90286 2.96571C8.11452 3.14456 8.28416 3.36785 8.39971 3.6197C8.51527 3.87155 8.5739 4.14577 8.57143 4.42286C8.57913 4.72768 8.49878 5.02825 8.34 5.28857Z" fill="#EFEFFF"/>
</g>
<defs>
<clipPath id="clip0_37103_16306">
<rect width="12" height="12" fill="white"/>
</clipPath>
</defs>
</svg>
