<svg width="32" height="32" viewBox="0 0 32 32" fill="none" xmlns="http://www.w3.org/2000/svg">
<path d="M14 19H9.5C9.22386 19 9 19.2239 9 19.5V24" stroke="white" stroke-width="1.5" stroke-linecap="round"/>
<path d="M22.6443 16.5C22.4154 16.5 22.2214 16.6682 22.189 16.8948C21.7559 19.9229 19.1503 22.251 16.0023 22.251C13.6899 22.251 11.6698 20.9955 10.588 19.1254L10.2125 18.4762L8.91406 19.2273L9.28961 19.8765C10.6285 22.1911 13.1328 23.751 16.0023 23.751C19.9073 23.751 23.1366 20.8636 23.6739 17.1072L23.6791 17.0708C23.7222 16.7696 23.4884 16.5 23.1841 16.5H22.6443Z" fill="white"/>
<path d="M17.6758 12.5H22.1758C22.4519 12.5 22.6758 12.2761 22.6758 12V7.5" stroke="white" stroke-width="1.5" stroke-linecap="round"/>
<path d="M9.0315 15C9.26034 15 9.45437 14.8318 9.48678 14.6052C9.91992 11.5771 12.5255 9.24901 15.6734 9.24901C17.9859 9.24901 20.006 10.5045 21.0878 12.3746L21.4633 13.0238L22.7617 12.2727L22.3862 11.6235C21.0473 9.30895 18.543 7.74901 15.6734 7.74901C11.7685 7.74901 8.53921 10.6364 8.00189 14.3928L7.99669 14.4292C7.9536 14.7304 8.18734 15 8.49165 15H9.0315Z" fill="white"/>
</svg>
