<svg xmlns="http://www.w3.org/2000/svg" fill="none" viewBox="0 0 360 360"><g clip-path="url(#a)"><mask id="b" width="360" height="360" x="0" y="0"><path fill="#fff" d="M0 0h360v360h-360v-360Z"/></mask><g mask="url(#b)"><path fill="#3B00B9" d="M180 0a180 180 0 1 1 0 360 180 180 0 0 1 0-360Z"/><path fill="url(#c)" d="M40 190c5 69 61 125 130 130v15a156 156 0 0 1-145-145h15Z"/><path fill="#29ABE2" d="M170 40c-69 5-125 61-130 130h-15c5-78 67-140 145-145v15Z"/><path fill="url(#d)" d="M320 169a140 140 0 0 0-130-129v-15c78 5 140 67 145 144h-15Z"/><path fill="#29ABE2" d="M190 320c69-5 125-61 130-130h15c-5 78-67 140-145 145v-15Z"/></g><path fill="#CFB66C" d="m103 154-2-2a225 225 0 0 0-3-2l-2-2-1-2-1-1 1 1 1 1 2 3a69 69 0 0 1 3 2 72 72 0 0 0 2 2Zm-41 0 17 2 21 3-38-5Zm0 0 9 1h8l2 1 9 1 5 1 5 1-5-1-5-1-9-1h-2l-3-1h-5a274 274 0 0 1-9-1Zm37 8-16 4-17 5 33-9Z"/><path fill="#CFB66C" d="m99 162-8 2-8 2-8 2-4 1-4 2 4-2 4-1 8-2 8-2 8-2Zm-31 16a1243 1243 0 0 0 20-9 126 126 0 0 1 7-3l-27 12Z"/><path fill="#CFB66C" d="m68 178 4-1 3-2 7-3 6-3 4-2h1l2-1-7 3-6 3-7 3-7 3Zm2 6 18-10 11-6-29 16Z"/><path fill="#CFB66C" d="m70 184 7-4 3-2 4-2 3-3h2l2-1 8-4-7 4-4 2-4 2a100 100 0 0 1-3 2l-4 2-7 4Zm29-14-12 9-11 8 23-17Z"/><path fill="#E2CC85" d="m148 223-5-8 3-11 18-7-8-16 4-16 7-14 23-4 16-15 35 3 7 37-13 48-8 24-31 1-14-9-17-7-17-6Z"/><path fill="#F1D789" d="M202 223s-4 2-12 1c-2-3-17-4-17-4l-5 1-9 2c-3 0-6-3-8-4l-5-3h-6l-13-6-19-19-6 8-1 10 6 13 16 14 31 8 19-5 23-10 6-6Z"/><path fill="#F4ECB4" d="m90 153 4-12 5-8 15-1-4 13-13 23 5 20-9 5-3-4-2-10-1-12 3-14Z"/><path fill="#F3E19D" d="m107 222-3-4v-6l-2-5c0-2 0-3 2-4l1-4 2 1v-1l1 2c0-2-1-7 1-8 1-2 4 6 4 6l-2-11-4-11-7-10-1-11-4 9c-1 3 1 6 1 10v5c1 2 3 5 2 8 0 2-3 0-3 0l-2 3a5 5 0 0 0-1-3v1l-1-3-2-8a164 164 0 0 0-1 4l1 5 1 7 2 4 2 6 1 3 2 3 1 6 5 6 2 1 2-1Z"/><path fill="#F2E8B0" d="M93 143s-4 6-5 13c-1 6-2 13-1 21a88 88 0 0 0 3 18l6 15v-1a24 24 0 0 1-1-4l-2-7-2-4-1-5-1-5-1-8v-10l4-14 2-9c2-2 3-5 3-7l-4 7Z"/><path fill="#F5EEC0" d="m110 141-3 1-2 4-2 5-4 5-1 9c-1 2 1 5 1 5h1l1 2c1 2 2-3 2-3l4-16 8-5v-4l-5-3Z"/><path fill="#E6DB9D" d="m114 148-5 1-2 2c-1 1-3 2-3 4-1 1-2 3-2 7l-1 5v4c0 3 2 4 3 6l4-2 4-17 10-6-6-6-2 2Z"/><path fill="#E5CB7A" d="M90 263v-1l1-13 1-6v-6l2-7-1-4-1-1s4-4 4-16h1l2 6 1 2 6 11 8 8 11 7 7 8 1 20-9 12-2 3a132 132 0 0 1-33-23Z"/><path fill="#D8C173" d="m118 282 2-4 1 2a13 13 0 0 1 9-6c6-1 7-6 7-6l13-11 14-14 18-6 9-2-1 2 9-2h3l2 4 5-2 7 4c4 0 5-2 8-4l4-3 33-11 10 1 2 11-1 28-1 1-46 24-65 10a130 130 0 0 1-42-14v-2Z"/><path fill="#F1D789" d="m93 267 2-5 1 7-3-2Z"/><path fill="#E0CD81" d="m141 294 8-3 1 1v1l3-1 2 3 5-2 5-3 1 2c2-1 6-7 10-7l7-8c4-3 7-3 10-3a18 18 0 0 1 5-4h4l7-5a7 7 0 0 1 4 1s9-8 15-11c-1 0-1-3 6-9v2l4-3 8-4c3-1 7 1 7 1l1-1h2v5l2 1-2 4 3 2a33 33 0 0 0-3 3l-3 7-2 5-4 5 9-3-8 11a131 131 0 0 1-107 13Z"/><path fill="#DFC57C" d="m114 147-2 1 3 1 2 2 14 7 10-1 3-4-6-6 4-13-6 1-14 8-7 3-1 1Z"/><path fill="#E5CC7C" d="M135 152a2 2 0 0 0 2 1l4 1 5 7 9 3v-10l-9-7-11 4v1Z"/><path fill="#D2C281" d="M134 155h3l7-2c2 1 1 4 3 6 2 1 4 1 5 3l6 1 2 9-7 9-2 11h-10l-8-3-4-11 2-10 3-13Z"/><path fill="#E2C270" d="M152 156h1l-1 2v4l1 2c1 1 1 2 3 2a5 5 0 0 0-1 1s2 1 3 3l3-1h2l-1-3 2-2v-3l1-5-1-8-4-2-3-4-3 6-2 2v6Z"/><path fill="#CCB360" d="m162 149 1 4v-1 4l1 1v4a11 11 0 0 1 4-4l3-1 5 1c5 0 10-4 13-5l6-3 3-4c2-2 3-5 5-5h-2l1-1 3-1h6l2-1s1 2 5 2h20l-6-16-19-17-12 9-18 18-18 6-3 4v6Z"/><path fill="#D5B457" d="m201 140 1-1 3-1h8l5 1h20l-3-7-3-5-8-9-10-6-3-1-9 5-8 21v5l5 2 4-4h-2Z"/><path fill="#D2B257" d="m201 142-2-1-2-2-2 1-1-1-5 4c-2 2-5 6-7 6l-8 2a11 11 0 0 0-4 2l1 1h-2l1 2a4 4 0 0 1 1 0l5 1c5 0 10-4 13-5l6-3 3-4a28 28 0 0 1 3-3Z"/><path fill="#D2B159" d="m129 253-4-6-3-3-4-4c-3-2-7-2-9-5-3-2-6-8-8-13l-2-7 1-2 1 2 1 2 3 5-1-4 8 5 6 5 4 7c1 2 16 6 16 6l8 6 3 8-3 4-5 1-9-4-3-3Z"/><path fill="#C2A44D" d="m110 225 6 6c4 3 11 5 16 6a45 45 0 0 0 10 1c8 1 13-2 20-2l13-2 14-6c3-1 7-2 9-4l10-5c-1 1-1 3-4 5h4l-6 4-9 7-6 2-7 6h1l-5 1-3 1-4 1h-2v1h-4l-1 1h-1l1 3-5 4v1l1 1v1h-1l-4 1h-1c0 1 1 3-1 5l-3 4-1-1-1-1-1 2-2 4c0-1-1-2-3-2l-3 3c0 1-1 6-6 10v-4l-4 2-3 3 1-5 3-3a1 1 0 0 0 0-1h-1c1 0 3-2 3-4a7 7 0 0 0-2-5l1-1-2-2 1-1v-1a9 9 0 0 0-1-2h1l-1-2v-3h1l-1-1h2l-2-2a4 4 0 0 1 3 0l2 2 2 1 6 4h3a5 5 0 0 0 2 0v-1a11 11 0 0 0-1-1h1l-1-2 1-1h-1l1-1-2-2a7 7 0 0 0 1 0l-2-1-2-2h-2 2l1-1h1l-2-1-2-2h-4s-3 0-9-4l-9-6a10 10 0 0 1-1-1c-2-1-5-4-5-7Z"/><path fill="#CAA13E" d="m192 91 1 1c2 1 2 3 0 6h2c-1 1-3 3-3 5l1 2-2 4a18 18 0 0 1 3-2 59 59 0 0 1 5-3v1s3-3 6-2v2l3 1 3 5 2 3a37 37 0 0 1 3 6c0-1 1-3 4-2s7 4 10 9l6 12 3 7 3 18 2-13 1-7 1-23-24-19-18-14-13 1 1 2Z"/><path fill="#B59544" d="M236 125s0-2-6-6c-5-4-9-4-14-7-3-2-6-8-8-10s-2-7-2-7l7-6 10-15 8-9 5 5 5 7 4 14 1 20-10 14Z"/><path fill="#C89D3A" d="m243 149-1-9a161 161 0 0 0-6-16c-1-3 0-4 1-4 0 0 3-2 4-7s5-5 5-5l3-2 4 10 3 9 1 7 1 5-2 12-9 8-4-8Z"/><path fill="#CEB052" d="m117 283 1-1a4 4 0 0 1 1 0h10c4 0 5 3 8 5l4 1 2-1 1 1 5-1a2 2 0 0 1 1 5l-3 3 1 1a130 130 0 0 1-31-13Z"/><path fill="#CCA847" d="m236 238 5-6c1-3-4-33-4-33l10-33v-11l1-14 7 7 2-16 3 14 2 8 2 9 3 10 2 7 1 1 1 3v3l3 7 1 6 1 11 1 2-1 3 1 4-2 4-2 9-3-2v-4a4 4 0 0 0-5-2l-5 1-4 4c-2 2-6 2-8 2l-6 4a36 36 0 0 1-6 2Z"/><path fill="#C39D3C" d="M236 287v1a132 132 0 0 0 42-31v-21l-2-13-2-3-1 5v4h-1v1-1l-1-1v-1l-1 4v3l-1 1v2l-1 4v5l-1 3h1s1 3-1 6l-2 2-3 5a8 8 0 0 1 0-1s-2 3-3 4l-4 3v2c-1 0-2 0-2 2a4 4 0 0 1-2 2l-3 1h1l-4 3a8 8 0 0 0-3 3l-2 2 2 1c-1 0-2 0-3 2l-3 1Z"/><path fill="#D2BA6B" d="m205 298 3-2 8-2 4-1v1a130 130 0 0 1-15 4Z"/><path fill="#C0993A" d="m269 206-2 6a82 82 0 0 0-2 6v-2l-7 4-3 3 2-7a144 144 0 0 0-13 12l-12 10a43 43 0 0 1-4 2l-7 2 3-4 5-6v-5l-3 1a6 6 0 0 0-2 1s1-4 2-8h-3s3-4 8-7l-5 1-8 4 16-27c5-12 7-15 8-21l1-12v-10c2 1 7 6 7 17s-5 26-10 33c1 1 4 1 8-5l5-10v1s5-6 7-14c1 4 2 7 0 13-2 5-5 7-5 7l4-2v3l2 1 2-3v14c2-1 4-1 5-4a14 14 0 0 0 0 8 9 9 0 0 0 1-2Z"/><path fill="#A88F33" d="m211 82-5 1-5-1-32 4 9 1h32l2-4-1-1Z"/><path fill="#E3C571" d="m140 136-5 5-4 5 2-1-1 1a2 2 0 0 1 2 0c-1 1-2 2-1 4l2 1 1 1c4 0 8-2 9-1 2 0 3 0 4 2l3 3 1-5 1-5-2-9-5-6-6 4-1 1Z"/><path fill="#D8B65B" d="m147 135 2 1v2l1-1v3l2 2 1 6v-1 4l1-1c1 0 2-1 2-3l1-3 1 1 1 1v-3l1-5 2-4 5-9 11-8 9 2 8-10-14-8-12 1-12 16-9 14-1 3Z"/><path fill="#D3AE4D" d="m213 112-3 1c-3 1-4 1-5 3l-1 3 2-1 2 1 2 1a5 5 0 0 1-1 2l-2 2v2l-3 5a28 28 0 0 0-4 5s-1-2-2-4l-2 1-6-19v-1l1-2-2-1-4-4-2-1h-2l1-1h-7c-1 0-2 1-2-1l-3 1c-1 2-1 3-3 3a6 6 0 0 1 0 2l-3 3c-1 2-1 5-4 8-2 2 1-7 1-7l4-10 12-12 19-1 2 10 9 3 6 9Z"/><path fill="#CAA13E" d="m216 114-8-12-6-4-4-7-6-1v1l1 1c2 1 2 3 0 6h2c-1 1-3 3-3 5l1 2-2 4a18 18 0 0 1 3-2 58 58 0 0 1 5-3v1s3-3 6-2v2l3 1 3 5 2 3a37 37 0 0 1 3 6l2-2-2-4Z"/><path fill="#F4EFC8" d="M97 146v-4l2-8c0-4 3-9 3-9l7-3 5 1 2 7-7 4-2 2-5 4a10 10 0 0 0-1 2s-2 0-3 1l-1 3Z"/><path fill="#EBCC73" d="m112 144-1 2-2-9 1-6c1-2 4-3 4-5-1-3-3-4-6-3l-4 6-4 2v3l-2 3c-2 3-5 7-6 11l1-5 2-8 1-6 3-10 6-10 6-6h5l1 9 3 16 7 9-11 7h-4Z"/><path fill="#E5C66B" d="M115 147h-2l1-1a1 1 0 0 0-1-1v1l-1-1h1a7 7 0 0 0-2 0l2-2h1l-1-1v-2l-1-2 1-2 1-1 2-1h2v1h3l5 1 1 3-8 7-3 1h-1Z"/><path fill="#E6BD62" d="m126 136-3 2 1 1-3 3a17 17 0 0 0-2 3l-4 2 7-2 1 2 6-2 4-4 4-4a9 9 0 0 1 2-1l1-1a1 1 0 0 1 0 1l6-2v-1l1 1 1-2 2-6v-6h-1l-14 6-8 8-1 2Z"/><path fill="#B6933F" d="m164 107 3-1-2 3-2 4-2 6 1-1-1 2-3 4-6 4-5 7 1-5v-5l3-6 5-15 6-2 2 5Z"/><path fill="#C49937" d="m160 103-3 6v6a8 8 0 0 1 2-3l5-3 4-4-3-1 6-4 7-4h-3l3-3c2-2-1-4-1-4l-12 7-5 7Z"/><path fill="#DFC068" d="M128 98v-2l3-6 4-9v-13l-1-8 1-5v-1l1-1 3 1 4 6v10l-4 17-11 12v-1Z"/><path fill="#A88F33" d="m136 52-2 8-1 15-1 8-1 7-4 5a22 22 0 0 1-7 4c-1 0-6 0-8 2 0 0-2 0-3 2a42 42 0 0 0-9 12c-4 8-8 30-8 30l1-2 2-5c2-4 1-8 4-14l4-9c3-5 6-9 9-11 5-3 11-4 11-4l6-4 2-4c2-4 4-7 5-13 1-7-1-13-1-17l1-9v-1Z"/><path fill="#C99E3D" d="m136 88 4-13 1-3v-11l-4-6-1-2 2-1a7 7 0 0 1 5 2l3 9 1 9 4 11-15 5Z"/><path fill="#B58634" d="M161 81h-1a2 2 0 0 1-1 2h-10s-4-1-5-6v-12l-2-7v-3h-1l-1-2 4 2 3 3 4 5 4 11 1 2 5 5Z"/><path fill="#A88F33" d="M147 58a62 62 0 0 1 3 7l4 7-3-9-4-5Z"/><path fill="#E6C367" d="m132 95-7 3-4 2a70 70 0 0 1-10 3l1 1v1c0 1-4 4-3 14l2-1 1 1 2-2c0 1 0 7 3 11l3-4 1-6 2-5 10-13-1-5Z"/><path fill="#DCBA5A" d="M123 115a5 5 0 0 1-2 1 6 6 0 0 1 1-5l6-7c1-2 0-5 6-10l7-7 9-4 11 4-6 21-4 10-16-3h-12Z"/><path fill="#E9CE77" d="m129 109 2-2v-2l5-3c2-3 5-7 8-7s4 6 4 8l1 8c1 2-7 10-7 10l-6 4-7-16Z"/><path fill="#CDAE50" d="M135 131s2-3 1-4l2-3 4-5c3-3 5-5 5-7l1-4 1 1s2 2 2 6-2 6-2 6l-2 2-3 1-2 1-5 4-2 2Z"/><path fill="#D2A83E" d="M210 87a27 27 0 0 0-9-2l-18 1c-7 0-14-3-23-3-1-1-5-5-17 3 1 0 9-2 11 2 3 3 2 9 2 10l-4 11-1 7c-1 2-3 4-2 6l4-5c2-4 2-8 5-11l10-10c2-2 18-10 35-2 4 0 7-7 7-7Z"/><path fill="#C29637" d="M150 84a2 2 0 0 0-1 0 4 4 0 0 0 0-1l-6-1c-4 1-7 5-8 7-2 2-3 6-5 7a1 1 0 0 0-1 0v1h1l7-5 10-7 3-1Z"/><path fill="#AC8132" d="m226 67-2 2-6 7-8 7-6 8a7 7 0 0 0-1 3l-1-1 1 1 1 3 2 2s2 1 4-3a127 127 0 0 1 5-7l4-7 3-6 4-6v-3Z"/><path fill="#A88F33" d="m231 63-4 3-4 5h1l5-4 2-3v-1Z"/><path fill="#A67A2E" d="m230 241 1-3c1-1 4-3 6-9l3-7s-5 4-8 4l2-3-2-1 3-4 10-8 10-10 1 1-5 7-1 3 3-1s1 3-3 8l3-1c-2 2-4 3-6 7s-5 8-10 11l-7 6Z"/><path fill="#8C6228" d="m218 89-2 7-1 2v7l-1-1-1 5-1-6v-4l-1 3-1-2-1 1v-5a14 14 0 0 1 3-5l6-9 3-8h3l-4 8-3 5-4 8 2-2 3-4Z"/><path fill="#CBA94C" d="M231 62a10 10 0 0 1-2 4l-6 5c-1 2-4 7-3 12l4-6 6-8a14 14 0 0 0 1-5v-2Z"/><path fill="#A88F33" d="m276 211-1-5-1-5-1-1v-4l-1-4-1-2-1-3-1-2 1-1-1-1v-2l-1 1-1-5v-3l-4-12a51 51 0 0 1-2-5v-3l-1 1v-4l-2-4-1-8v-5l-1-5a46 46 0 0 0-2-8l-6-16h1a891 891 0 0 0 10 26l1 15 2 6 2 7a49 49 0 0 1 3 7v6l2 6 3 9a52 52 0 0 1 3 12l1 12Z"/><path fill="#BE9C44" d="M231 62v3l-1 2c0 1 1 2-1 5l-1 2a6 6 0 0 1-1 2l5-2a11 11 0 0 0-3 3 8 8 0 0 0 2 0l8-1c3 0 2-3 2-3l-3-7-6-4h-1Z"/><path fill="#A17C34" d="M246 113s-3-3-4-12v-22l-3-5-1-5-4-4-3-3c0-1 2-4 7-4 6 0 8 3 9 5 0 1 3 6 4 15l1 14a79 79 0 0 1-2 11c-1 4-2 8-4 10Z"/><path fill="#8C6228" d="M238 120a4 4 0 0 0 2 0c1 0 4 0 6-3v4l1-1c1 1 1 4-2 10l3-1c0 1 1 5-1 7-1 2-3 1-3 1v-2a8 8 0 0 1-2-2c-2-2-5-5-5-7a3 3 0 0 1 2-4h-1v-2Z"/><path fill="#92723A" d="m221 92-1 1v-2l1-2v1l2-2 2-2 1-1 2-2 1-1 2-1 4-2 3-2 1-3c1 0 5 3 7 9 1 4-1 10-2 13l-2 7-7 6c-1 1-3 3-3 5s2 2 2 3h3s0 2-5 2l-1 1 2-2h-3l1-1-1-1-1 2-2 2c-1-1-1-3 1-4h-2a7 7 0 0 1 0-2l2-3 7-12 2-10-16 3Z"/><path fill="#B18E3E" d="m220 93 1 1-1 1-1 1-1 1-1 4-1 2-1 2a23 23 0 0 0 0 3v-1a6 6 0 0 1-1 2l3-2 8-6h-3c1 0 6-6 9-7l-2-1-5 1-1-3-3 2Z"/><path fill="#543E26" d="m227 113-1 2-1-1c-1-2-2-4-5-3v-2l4-3 2-4 3-2c1-1 3-2 3-4l-4 1 2-2v-1h-1l-2 1-1 1v-1l-2 1-5 2 1-1a21 21 0 0 1 2-3l1-3 3-2 10-2 6 1-1 4-3 7-4 7-3 4-4 3Z"/><path fill="#806031" d="m243 94-5 6 7-13v-4l-2 4h-1v-1h-6l-8 2-4 1-1 2-2 1-1 1 2-1a52 52 0 0 1 4-2l6-2h10l-1 1v1l-3 7-3 5c0 1-1 4-3 5l-2 3-3 3a15 15 0 0 0 6-4l5-5 4-6 1-4Z"/><path fill="#B6903C" d="m162 129-2 3c-1 1-3 2-3 4l2 2-1 3v4l1 3 2 1h1l1-4 1-4 3-7 2-3-3-2h-4Z"/><path fill="#685026" d="m167 133-2 1-2 3c-1 0-2 0-1 1l1 2 1 3 1-2 5-8h-3Z"/><path fill="#D4B968" d="M182 116v-2l-3-2-3-1v-1l-3 1-2 1-1 1v-1l-3 3-3 5-3 5h1v5h3c1 0 0 3 2 3h3l6-3 5-3 3-6-1-5h-1Z"/><path fill="#CCA849" d="M177 129v-3l4-2a1 1 0 0 0-1-1 4 4 0 0 1 2-1l-1-1-3 1-1-1 2-1-1-1 4-2v-1c1 0 3-2 4-1v2l4-4 3-1c1 0 3 1 3 5v6l1 7 1 2-1 1v4l-1 1-1 1h-3v-2l-6-4-9-4Z"/><path fill="#585136" d="M166 143s2 3 11 3h6l8-6c3-4 2-5 2-5h-8l-17 8h-2Z"/><path fill="#252211" d="M173 144s-8 2-8-3c0-4 5-9 6-10l4-2h6l2 4-1 7-10 4Z"/><path fill="#C3B378" d="M179 131s-1-2-4 0c-4 2-6 5-6 9 0 3 2 5 6 5l6-1-2-1v-12Z"/><path fill="#E6D89C" d="m178 131-1 1-3 2-2 1-2 6c1 1 3 3 9 2l-1-12Z"/><path fill="#252211" d="m176 134-1 4c0 2 1 6 6 6 4 0 6-5 9-7l3-2-8-5c-5-3-11-3-14 1l6-1h3l-4 4Z"/><path fill="#6F674D" d="M183 137v-1l2 1v1l-2-1Zm-1-3 1-1v1l-1 1v-1Z"/><path fill="#AC924C" d="m121 135 4 2c2 0 5-2 6-4l2-2 1-1 1-2-2 2-3 1-6 4h-3Z"/><path fill="#9F8E57" d="m124 119 3-1 5-1 4 1 1 5-2 5-3 1-4-5-4-5Z"/><path fill="#EAC970" d="m120 123-1 1 1-2 3-8 1-2a1 1 0 0 0-1 1 11 11 0 0 1 3-3c2-1 2-2 4-1l3 1 2-1-1 2c0 2-4 5-4 5l-7 5-3 2Z"/><path fill="#D7BC6B" d="M125 118h8a1 1 0 0 1 0 1v1a1 1 0 0 1-1 0l1 1c0 1 1 2 2 1 0 0 1 2-2 6l-1 1v2s4-2 6-6a32 32 0 0 0 1-13 6 6 0 0 0 0-2h-4l-5 5-5 3Z"/><path fill="#585136" d="m119 124-1 3c-1 2 0 5 1 6 0 0 2 3 4 3l2-1a11 11 0 0 0 2-1l2-2-6-5-3-3h-1Z"/><path fill="#453A25" d="M125 133h2c1-1-4-6-4-6v6h2Z"/><path fill="#84754B" d="m120 124-1 2v5c1 1 2 3 4 3l3-1-2-1-1-3 1-1v-3l2-4h-2l-4 2v1Z"/><path fill="#252211" d="m119 125 4-3 3-1-1 3-2 2v1s0 3 2 4c1 2 2 2 3 2l4-3c1-3 2-5 0-8a7 7 0 0 0-6-4s-5 1-7 7Z"/><path fill="#F7F7E7" d="M176 135v-3a6 6 0 0 1 4-2l1 1-2 3c-1 1-2 2-3 1Z"/><path fill="#F8F6DE" d="m131 122 1 2-1 2-2-2 1-1 1-1Z"/><path fill="#D4C38B" d="m122 123-2 2a6 6 0 0 0-1 4l1 2 2 1 1-2 1-4c0-2-2-3-2-3Z"/><path fill="#E2D59D" d="m122 123 1 2v1h1l2-2 1 1 1-1-2-1v-2l-2 1-2 1Z"/><path fill="#CBAC5A" d="m158 170 3-1 1 1 2 1-1 2v1s-3 5 3 10a92 92 0 0 0-4 2l3 1 1 1 1 1-2-1-6 1-9 1v-1l-4-1-3-4 5-1v-2l1-2 2-2 3-2 3-1v-2l1-2Z"/><path fill="#D6BC6F" d="M148 170h2l11-1a69 69 0 0 1 24 4h-1l-8-2-11-1h-7l-9 1-1-1Z"/><path fill="#DFC677" d="M166 188s5 2 6 5c2 3 0 4 0 4l2 1-7 5-5 1-6 1v2l2 1-4 1-5 1h3l4 1-3 1-7 2 2 1-3 1h1l-3 3-10 3c-5-2-6-8-7-8h-5l2-2-5-3a34 34 0 0 0-2-3l-3-5-4-9h1l17 5 28 1 8-10h3Z"/><path fill="#C4A859" d="m123 204 1 1 2 1h2l3 1 2-1h2l2-1c1 1 2 3 9 0l10-3h2l-2-4-8-2h-4l-13 2-7 4-1 2Z"/><path fill="#927D49" d="m119 200 2 2a11 11 0 0 1 2 2s1 0 1-1l1-1h7l1-3a4 4 0 0 1 4 0l1 1h2l2 1 1-1 2-2 1-1 3 1h-1l1 1 1 1h4a9 9 0 0 1 4 2c0-1 0-1 0 0l1-1h1l1-1 2-1-1-1 1-2 3-3c0-3-2-4-2-4l-14 4h-17l-14 7Z"/><path fill="#6E6342" d="m107 160-1 2v2c-1 1-3 11-2 14l4 7v1l1 5 1 1 4 4c2 1 3 4 6 5l4-2 4-2 3-1h5l7 1 5-1 10-3 4-1 5-2c-1-1-2-2-6-2-5 0-11 3-14 3h-8l-3-2s-3-2-5-8c-1-6 0-11 4-15l1-2s2-3 1-6c0-3-5-2-5-2l-25 4Z"/><path fill="#39331F" d="m111 170-1 1 2 4c2 1 1 3 1 3l3-1c2-1 3 1 3 1l1-1h2l3 3h3l1-2-1-1-1-2 1-4-4 1-13-2Z"/><path fill="#292311" d="M116 180v-7h1s1 5-1 7Z"/><path fill="#252211" d="m107 156 1-1c-1 1-3 4-1 10 2 5 6 9 11 9s8-2 11-6l4-5c1-2 3-2 3-4 0-4-4-6-10-8a23 23 0 0 0-14 0c-3 1-4 3-5 5Z"/><path fill="#3F3824" d="M126 182h1l1-2 1 1-1 1h-2Z"/><path fill="#2D2815" d="m124 174 1 1h3l1 1h-3l-2-2Z"/><path fill="#82764F" d="m134 175-2-1h-1v-1 1l1 1v1h1l1-1Z"/><path fill="#2D2816" d="m123 179 2-1 2 1-1 1-3-1Z"/><path fill="#574F35" d="m133 173-3 1v-2h2a1 1 0 0 1 1 1Z"/><path fill="#82764F" d="M136 174v-1h1v1l-1 1v-1Zm4-3h1v2a6 6 0 0 1-1-2Z"/><path fill="#6E6342" d="m132 174 1 1-1-1Z"/><path fill="#585136" d="M131 169h3l1 1h-1v1c1 0 0 0 0 0a9 9 0 0 1-3-2Zm3-3a1 1 0 0 0 0-1l-1 1 1 2 1 2a1 1 0 0 0 1 0v-7h-1a21 21 0 0 0-1 3Z"/><path fill="#574F35" d="M132 177h-1l-1 2a1 1 0 0 0 1 0l1-2Z"/><path fill="#82764F" d="m134 179-1-1a1 1 0 0 1 1 0l1 1-1 1v-1Zm4-1h-1 2l1 1h-1l-1-1Zm5-1v1h-3l1-1a1 1 0 0 1 1 0h2-1Zm2-7-1 1v-2h2l-1 1s0 1 0 0Zm-5 14h-1 2v-1a1 1 0 0 0-1 0h-1l1 1Zm-3 2h1v1h-1v-1Zm-2-3 1-1h1v1l-1 1a4 4 0 0 1-1 0v-1Z"/><path fill="#6E6342" d="M136 183c0 1 0 0 0 0Z"/><path fill="#585136" d="M133 182h1l-1 1h-1a1 1 0 0 1 0-1h1Z"/><path fill="#574F35" d="m132 182-1 1-1 2v-1l-1 1 3 2h2l-2-2v-1l1-1a7 7 0 0 0-1-1Z"/><path fill="#252211" d="M107 184c1 0 4-2 8-1l8 1 14 5 3 1 4 2 6-1 11-2h4s-3 3-11 4h-9a27 27 0 0 1-5-1l-7-2-8-2a94 94 0 0 1-18-4Z"/><path fill="#CFB66C" d="m99 170-6 4-5 5-6 4a98 98 0 0 1-6 4 94 94 0 0 1 6-5l5-4 6-4 6-4Zm-10 16 4-4 8-8-12 12Zm0 0 3-3 2-2 1-1 3-3a19 19 0 0 1 2-2l1-1v1l-1 1-2 1-3 3-3 3-3 3Zm13-9-9 8 9-8Zm0 0-2 2-2 2-2 2-3 2 3-2 2-2 2-2 2-2Zm1 4a47 47 0 0 1-3 5l-6 11 9-16Z"/><path fill="#CFB66C" d="m103 181-1 2a22 22 0 0 1-2 4l-1 2-2 4-3 4 2-4a78 78 0 0 0 3-6l1-2 1-2 2-2Z"/><path fill="#DEC270" d="M111 199s-3 3-2 7l2-7Zm2 3-2 12 2-12Zm14 12-3 13 3-13Z"/><path fill="#CBAF59" d="m135 198 9 17a37 37 0 0 0-9-17Z"/><path fill="#E3C677" d="M149 211a163 163 0 0 1 8 16c0-3-1-10-8-16Z"/><path fill="#ECD592" d="m192 224 4-4 4-2c2-2 2-3 5-4 4-2 1-5 1-5l2-1 2-3c0-3-1-8-3-10l10-2 5-2s-2-3 1-6l7-9c-2 0-5-1-13 2h1l-7 3-7 7c-4 2-7 1-10 3l-4 3v1l-3 3 1 1-3 1 5 4-1 3c1 1 2 2 7 3l-9 1-8-1 2 1c-1 1-5 0-6 2-2 2-3 5-2 7-1 1-2 1-2 3l4 2c1 1 1 2 3 1l4-1 2 1 3-1v2l5-3Z"/></g><defs><linearGradient id="c" x1="130.72" x2="33.48" y1="304.12" y2="222.22" gradientUnits="userSpaceOnUse"><stop offset=".21" stop-color="#ED1E79"/><stop offset="1" stop-color="#522785"/></linearGradient><linearGradient id="d" x1="309.32" x2="212.08" y1="123.06" y2="41.16" gradientUnits="userSpaceOnUse"><stop offset=".21" stop-color="#F15A24"/><stop offset=".68" stop-color="#FBB03B"/></linearGradient><clipPath id="a"><path fill="#fff" d="M0 0h360v360h-360z"/></clipPath></defs></svg>