<svg width="74" height="74" viewBox="0 0 74 74" fill="none" xmlns="http://www.w3.org/2000/svg">
<g clip-path="url(#clip0_35670_14069)">
<path d="M74 37C74 16.5655 57.4345 0 37 0C16.5655 0 0 16.5655 0 37C0 57.4345 16.5655 74 37 74C57.4345 74 74 57.4345 74 37Z" fill="#3B00B9"/>
<path fill-rule="evenodd" clip-rule="evenodd" d="M8.30257 39.1309C9.34176 53.323 20.6749 64.6562 34.8671 65.6952V68.9006C18.9084 67.8499 6.1481 55.0894 5.09766 39.1309H8.30257Z" fill="url(#paint0_linear_35670_14069)"/>
<path fill-rule="evenodd" clip-rule="evenodd" d="M34.8515 8.28889C20.6593 9.32804 9.32608 20.6612 8.28694 34.8535H5.08203C6.13243 18.8947 18.8928 6.13438 34.8515 5.08398V8.28889Z" fill="#29ABE2"/>
<path fill-rule="evenodd" clip-rule="evenodd" d="M65.6972 34.8378C64.6582 20.6456 53.325 9.31237 39.1328 8.27323V5.06836C55.0914 6.11876 67.8519 18.8791 68.902 34.8378H65.6972Z" fill="url(#paint1_linear_35670_14069)"/>
<path fill-rule="evenodd" clip-rule="evenodd" d="M39.1484 65.6798C53.3405 64.6407 64.6737 53.3076 65.7132 39.1152H68.918C67.8673 55.0739 55.1074 67.8344 39.1484 68.8846V65.6798Z" fill="#29ABE2"/>
<path d="M37.0977 15.7129V31.2639L50.2416 37.1372L37.0977 15.7129Z" fill="white" fill-opacity="0.6"/>
<path d="M37.0949 15.7129L23.9492 37.1372L37.0949 31.2639V15.7129Z" fill="white"/>
<path d="M37.0977 47.214V57.7807L50.2503 39.584L37.0977 47.214Z" fill="white" fill-opacity="0.6"/>
<path d="M37.0949 57.7807V47.2123L23.9492 39.584L37.0949 57.7807Z" fill="white"/>
<path d="M37.0977 44.7691L50.2416 37.1373L37.0977 31.2676V44.7691Z" fill="white" fill-opacity="0.2"/>
<path d="M23.9492 37.1373L37.0949 44.7691V31.2676L23.9492 37.1373Z" fill="white" fill-opacity="0.6"/>
</g>
<defs>
<linearGradient id="paint0_linear_35670_14069" x1="27.1016" y1="62.2355" x2="7.11274" y2="45.4023" gradientUnits="userSpaceOnUse">
<stop offset="0.21" stop-color="#ED1E79"/>
<stop offset="1" stop-color="#522785"/>
</linearGradient>
<linearGradient id="paint1_linear_35670_14069" x1="61.1528" y1="28.1818" x2="41.1642" y2="11.3489" gradientUnits="userSpaceOnUse">
<stop offset="0.21" stop-color="#F15A24"/>
<stop offset="0.6841" stop-color="#FBB03B"/>
</linearGradient>
<clipPath id="clip0_35670_14069">
<rect width="74" height="74" fill="white"/>
</clipPath>
</defs>
</svg>
