<svg width="50" height="50" viewBox="0 0 50 50" fill="none" xmlns="http://www.w3.org/2000/svg">
<rect x="8" y="7" width="33" height="28" rx="3" fill="#4450C1"/>
<path d="M34.5338 40.2857H15.6014C14.79 40.2857 14.2491 40.9643 14.2491 41.6429C14.2491 42.3214 14.79 42.8643 15.6014 43H34.5338C35.3452 43 35.8861 42.3214 35.8861 41.6429C35.7509 40.9643 35.21 40.4214 34.5338 40.2857ZM38.0498 5H11.8149C8.56939 5 6 7.71429 6 10.8357V30.8714C6 34.1286 8.56939 36.7071 11.8149 36.7071H38.1851C41.4306 36.7071 44 34.1286 44 30.8714V10.8357C43.8648 7.71429 41.2954 5.13571 38.0498 5ZM41.0249 30.8714C41.0249 32.5 39.6726 33.7214 38.1851 33.7214H11.8149C10.1922 33.7214 8.97509 32.3643 8.97509 30.8714V10.8357C8.83986 9.20714 10.1922 7.98571 11.8149 7.98571H38.1851C39.8078 7.98571 41.0249 9.34286 41.0249 10.8357V30.8714Z" fill="#5464F8"/>
<path d="M26.8942 31C26.8942 31 29.2837 27.6622 26.8942 25.7365C24.5047 23.8108 25.0078 21.8851 25.0078 21.8851C18.8455 25.7365 23.6244 30.8716 23.6244 30.8716C14.1923 26.6351 18.9712 20.9865 21.2349 19.0608C23.4986 17.1351 24.1275 12 24.1275 12C28.7806 13.9257 28.7806 19.5743 28.7806 19.5743L30.164 18.1622C38.0869 28.1757 26.8942 31 26.8942 31Z" fill="white"/>
</svg>
