<svg width="42" height="42" viewBox="0 0 42 42" fill="none" xmlns="http://www.w3.org/2000/svg">
<path d="M31.3031 19.8557H30.1586V10.6971C30.1586 6.27131 26.0577 2.68359 21 2.68359C15.9423 2.68359 11.8414 6.27131 11.8414 10.6971V19.8557H10.6969C8.79963 19.8557 7.2627 21.3926 7.2627 23.2905V35.8833C7.2627 37.7792 8.80029 39.3174 10.6969 39.3174H31.3031C33.201 39.3174 34.7373 37.7785 34.7373 35.8833V23.2905C34.7379 21.3926 33.201 19.8557 31.3031 19.8557ZM25.5793 18.7112C25.5793 19.1148 25.4697 19.4967 25.2984 19.8557H16.7015C16.5303 19.4967 16.4207 19.1148 16.4207 18.7112V10.6971C16.4207 8.79919 18.4708 7.26291 21 7.26291C23.5292 7.26291 25.5793 8.79984 25.5793 10.6971V18.7112Z" fill="#5464F8"/>
<path d="M22.4996 31.0913V32.3637C22.4996 33.267 21.8276 34 20.9996 34C20.1711 34 19.5 33.267 19.5 32.3637V31.0913C18.6071 30.5238 18 29.4808 18 28.2726C18 26.4651 19.3431 25 21 25C22.6569 25 24 26.4647 24 28.2726C23.9996 29.4808 23.3921 30.5238 22.4996 31.0913Z" fill="white"/>
</svg>
