<svg width="50" height="50" viewBox="0 0 50 50" fill="none" xmlns="http://www.w3.org/2000/svg">
<path d="M35.3031 23.8557H34.1586V14.6971C34.1586 10.2713 30.0577 6.68359 25 6.68359C19.9423 6.68359 15.8414 10.2713 15.8414 14.6971V23.8557H14.6969C12.7996 23.8557 11.2627 25.3926 11.2627 27.2905V39.8833C11.2627 41.7792 12.8003 43.3174 14.6969 43.3174H35.3031C37.201 43.3174 38.7373 41.7785 38.7373 39.8833V27.2905C38.7379 25.3926 37.201 23.8557 35.3031 23.8557ZM29.5793 22.7112C29.5793 23.1148 29.4697 23.4967 29.2984 23.8557H20.7015C20.5303 23.4967 20.4207 23.1148 20.4207 22.7112V14.6971C20.4207 12.7992 22.4708 11.2629 25 11.2629C27.5292 11.2629 29.5793 12.7998 29.5793 14.6971V22.7112Z" fill="#5464F8"/>
<path d="M26.4996 35.0913V36.3637C26.4996 37.267 25.8276 38 24.9996 38C24.1711 38 23.5 37.267 23.5 36.3637V35.0913C22.6071 34.5238 22 33.4808 22 32.2726C22 30.4651 23.3431 29 25 29C26.6569 29 28 30.4647 28 32.2726C27.9996 33.4808 27.3921 34.5238 26.4996 35.0913Z" fill="white"/>
</svg>
