<svg width="50" height="50" viewBox="0 0 50 50" fill="none" xmlns="http://www.w3.org/2000/svg">
<path d="M16.0706 9.03266C21.6136 5.90857 28.3864 5.90856 33.9294 9.03266L34.2571 9.21733C39.7737 12.3265 43.1865 18.1675 43.1865 24.5C43.1865 30.8325 39.7737 36.6735 34.2571 39.7827L33.9294 39.9673C28.3864 43.0914 21.6136 43.0914 16.0706 39.9673L15.7429 39.7827C10.2263 36.6735 6.81347 30.8325 6.81347 24.5C6.81347 18.1675 10.2263 12.3265 15.7429 9.21734L16.0706 9.03266Z" fill="#5464F8"/>
<path d="M18.6692 13.5332C22.6041 11.3372 27.3959 11.3372 31.3308 13.5332L31.6596 13.7168C35.5682 15.8982 37.9904 20.0239 37.9904 24.5C37.9904 28.9761 35.5682 33.1018 31.6596 35.2832L31.3308 35.4668C27.3959 37.6628 22.6041 37.6628 18.6692 35.4668L18.3404 35.2832C14.4318 33.1018 12.0096 28.9761 12.0096 24.5C12.0096 20.0239 14.4318 15.8982 18.3404 13.7168L18.6692 13.5332Z" fill="#4450C1"/>
<rect x="18.5" y="23" width="13" height="3" rx="1.5" fill="white"/>
<rect x="26.5" y="18" width="13" height="3" rx="1.5" transform="rotate(90 26.5 18)" fill="white"/>
</svg>
