<svg xmlns="http://www.w3.org/2000/svg" width="50" height="50" viewBox="0 0 50 50" fill="none">
  <path d="M20.0901 6.76725C23.138 5.04944 26.862 5.04944 29.9099 6.76725L38.0964 11.3812C41.2411 13.1536 43.1865 16.4831 43.1865 20.0929V28.9071C43.1865 32.5169 41.2411 35.8464 38.0964 37.6188L29.9099 42.2327C26.862 43.9506 23.138 43.9506 20.0901 42.2328L11.9036 37.6188C8.75888 35.8464 6.81347 32.5169 6.81347 28.9071V20.0929C6.81347 16.4831 8.75888 13.1536 11.9036 11.3812L20.0901 6.76725Z" fill="#5464F8"/>
  <path d="M21.1013 12.1759C23.5245 10.8235 26.4755 10.8235 28.8987 12.1759L33.8891 14.9611C36.4212 16.3743 37.9904 19.047 37.9904 21.9468V27.0532C37.9904 29.953 36.4212 32.6258 33.8891 34.0389L28.8987 36.8241C26.4755 38.1765 23.5245 38.1765 21.1013 36.8241L16.1109 34.0389C13.5788 32.6257 12.0096 29.953 12.0096 27.0532V21.9468C12.0096 19.047 13.5788 16.3742 16.1109 14.9611L21.1013 12.1759Z" fill="#4450C1"/>
  <path d="M26.7895 25.9702L26.1339 26.6258C25.8476 26.9223 25.6891 27.3194 25.6927 27.7316C25.6963 28.1438 25.8616 28.5381 26.1531 28.8295C26.4446 29.121 26.8389 29.2864 27.2511 29.2899C27.6632 29.2935 28.0604 29.1351 28.3569 28.8487L31.6912 25.5143C31.9209 25.285 32.0739 24.9903 32.1294 24.6705C32.1848 24.3508 32.14 24.0217 32.0009 23.7284C31.923 23.5606 31.8161 23.4078 31.6849 23.2773L28.3506 19.9413C28.0541 19.6549 27.657 19.4965 27.2448 19.5001C26.8326 19.5036 26.4383 19.669 26.1468 19.9605C25.8553 20.2519 25.69 20.6462 25.6864 21.0584C25.6828 21.4706 25.8413 21.8677 26.1276 22.1642L26.7879 22.8245H19.5721C19.1551 22.8245 18.7553 22.9901 18.4605 23.2849C18.1656 23.5798 18 23.9796 18 24.3966C18 24.8135 18.1656 25.2134 18.4605 25.5082C18.7553 25.803 19.1551 25.9687 19.5721 25.9687L26.7895 25.9702Z" fill="white"/>
</svg>