<svg xmlns="http://www.w3.org/2000/svg" width="50" height="50" viewBox="0 0 50 50" fill="none">
  <path d="M20.0901 6.76725C23.138 5.04944 26.862 5.04944 29.9099 6.76725L38.0964 11.3812C41.2411 13.1536 43.1865 16.4831 43.1865 20.0929V28.9071C43.1865 32.5169 41.2411 35.8464 38.0964 37.6188L29.9099 42.2327C26.862 43.9506 23.138 43.9506 20.0901 42.2328L11.9036 37.6188C8.75888 35.8464 6.81347 32.5169 6.81347 28.9071V20.0929C6.81347 16.4831 8.75888 13.1536 11.9036 11.3812L20.0901 6.76725Z" fill="#5464F8"/>
  <path d="M21.1013 12.1759C23.5245 10.8235 26.4755 10.8235 28.8987 12.1759L33.8891 14.9611C36.4212 16.3743 37.9904 19.047 37.9904 21.9468V27.0532C37.9904 29.953 36.4212 32.6258 33.8891 34.0389L28.8987 36.8241C26.4755 38.1765 23.5245 38.1765 21.1013 36.8241L16.1109 34.0389C13.5788 32.6257 12.0096 29.953 12.0096 27.0532V21.9468C12.0096 19.047 13.5788 16.3742 16.1109 14.9611L21.1013 12.1759Z" fill="#4450C1"/>
  <rect x="25.8574" y="18" width="5.14286" height="5.14286" rx="1" fill="white"/>
  <rect x="25.8574" y="24.8594" width="5.14286" height="5.14286" rx="1" fill="white"/>
  <rect x="19" y="24.8594" width="5.14286" height="5.14286" rx="1" fill="white"/>
</svg>