<svg width="50" height="50" viewBox="0 0 50 50" fill="none" xmlns="http://www.w3.org/2000/svg">
<path d="M18.7871 11H29.2129C29.9648 10.989 30.6808 10.7195 31.2034 10.2506C31.726 9.78175 32.0124 9.15202 31.9996 8.5C32.0124 7.84798 31.726 7.21825 31.2034 6.74939C30.6808 6.28053 29.9648 6.01096 29.2129 6H18.7871C18.0352 6.01096 17.3192 6.28053 16.7966 6.74939C16.274 7.21825 15.9876 7.84798 16.0004 8.5C15.9876 9.15202 16.274 9.78175 16.7966 10.2506C17.3192 10.7195 18.0352 10.989 18.7871 11Z" fill="#5464F8"/>
<path fill-rule="evenodd" clip-rule="evenodd" d="M14.0275 9H12C9.79086 9 8 10.7909 8 13V36C8 39.866 11.134 43 15 43H33C36.866 43 40 39.866 40 36V13C40 10.7909 38.2091 9 36 9H33.9725C33.7238 11.25 31.8163 13 29.5 13H18.5C16.1837 13 14.2762 11.25 14.0275 9Z" fill="#5464F8"/>
<rect x="12" y="16" width="24" height="20" rx="4" fill="#4450C1"/>
<path d="M18 22.5C18 21.6716 18.6716 21 19.5 21H28.5C29.3284 21 30 21.6716 30 22.5C30 23.3284 29.3284 24 28.5 24H19.5C18.6716 24 18 23.3284 18 22.5Z" fill="white"/>
<path d="M18 29.5C18 28.6716 18.6716 28 19.5 28H28.5C29.3284 28 30 28.6716 30 29.5C30 30.3284 29.3284 31 28.5 31H19.5C18.6716 31 18 30.3284 18 29.5Z" fill="white"/>
</svg>
