<svg width="42" height="42" viewBox="0 0 42 42" fill="none" xmlns="http://www.w3.org/2000/svg">
<circle cx="18" cy="9.32031" r="8" fill="#5464F8"/>
<path d="M3 27.663C3 22.8786 6.87855 19 11.663 19H24.337C29.1215 19 33 22.8786 33 27.663C33 32.4474 29.1215 36.326 24.337 36.326H11.663C6.87855 36.326 3 32.4474 3 27.663Z" fill="#5464F8"/>
<path fill-rule="evenodd" clip-rule="evenodd" d="M37.9999 24.918C37.9963 23.1918 35.1192 21.793 31.5708 21.793C28.0223 21.793 25.1453 23.1918 25.1416 24.918H25.1416V24.9213V33.5067H25.1416C25.1416 33.5094 25.1416 33.5121 25.1416 33.5148C25.1416 35.2425 28.02 36.6431 31.5708 36.6431C35.1215 36.6431 37.9999 35.2425 37.9999 33.5148C37.9999 33.5121 37.9999 33.5094 37.9999 33.5067H37.9999V24.9213" fill="white"/>
<ellipse cx="31.5679" cy="25.3673" rx="5.08641" ry="2.2345" fill="#4450C1"/>
</svg>
