<svg width="50" height="50" viewBox="0 0 50 50" fill="none" xmlns="http://www.w3.org/2000/svg">
<path d="M14.1504 14.3135C14.1504 15.1113 14.3074 15.9013 14.6125 16.6384C14.9177 17.3754 15.3649 18.0452 15.9286 18.6093C16.4924 19.1734 17.1617 19.6209 17.8983 19.9262C18.6349 20.2315 19.4244 20.3887 20.2217 20.3887C21.019 20.3887 21.8085 20.2315 22.5451 19.9262C23.2817 19.6209 23.951 19.1734 24.5147 18.6093C25.0785 18.0452 25.5257 17.3754 25.8308 16.6384C26.1359 15.9013 26.293 15.1113 26.293 14.3135C26.293 12.7022 25.6533 11.157 24.5147 10.0177C23.3761 8.87834 21.8319 8.23828 20.2217 8.23828C18.6115 8.23828 17.0672 8.87834 15.9286 10.0177C14.79 11.157 14.1504 12.7022 14.1504 14.3135Z" fill="#5464F8"/>
<path d="M15.3779 14.3125C15.3779 14.9491 15.5032 15.5795 15.7466 16.1676C15.9901 16.7558 16.3468 17.2902 16.7966 17.7403C17.2464 18.1905 17.7804 18.5475 18.3681 18.7912C18.9557 19.0348 19.5856 19.1602 20.2217 19.1602C20.8578 19.1602 21.4876 19.0348 22.0753 18.7912C22.663 18.5475 23.1969 18.1905 23.6467 17.7403C24.0965 17.2902 24.4533 16.7558 24.6967 16.1676C24.9401 15.5795 25.0654 14.9491 25.0654 14.3125C25.0654 13.0268 24.5551 11.7938 23.6467 10.8847C22.7383 9.97558 21.5063 9.46484 20.2217 9.46484C18.937 9.46484 17.705 9.97558 16.7966 10.8847C15.8883 11.7938 15.3779 13.0268 15.3779 14.3125Z" fill="#4450C1"/>
<path d="M12.4199 16.4389L30.0227 6.26767C30.866 5.78039 31.5313 5.95841 32.0186 6.80171L38.2758 17.6308C38.763 18.4741 38.585 19.1394 37.7417 19.6266L20.1389 29.7978C19.2956 30.2851 18.6303 30.1071 18.143 29.2638L11.8858 18.4347C11.3986 17.5914 11.5766 16.9261 12.4199 16.4389Z" fill="white"/>
<path d="M16.7422 12.5508H36.2148C37.5062 12.5518 38.7444 13.0656 39.657 13.9792C40.5697 14.8928 41.0823 16.1315 41.082 17.4229V39.0889C41.082 40.3801 40.5694 41.6185 39.6567 42.5319C38.744 43.4453 37.5061 43.9589 36.2148 43.96H16.7422C14.1584 43.96 11.6804 42.9336 9.85342 41.1065C8.02641 39.2795 7 36.8016 7 34.2178V22.2939C7 19.7102 8.02641 17.2322 9.85342 15.4052C11.6804 13.5782 14.1584 12.5518 16.7422 12.5518V12.5508Z" fill="#5464F8"/>
<path d="M34.5195 23.6211H41.291C41.6241 23.6211 41.9435 23.7534 42.179 23.9889C42.4146 24.2244 42.5469 24.5439 42.5469 24.877V31.6367C42.5469 31.9698 42.4146 32.2892 42.179 32.5247C41.9435 32.7603 41.6241 32.8926 41.291 32.8926H34.5195C33.2906 32.8926 32.1119 32.4044 31.2429 31.5354C30.3739 30.6664 29.8857 29.4877 29.8857 28.2588C29.8857 27.0298 30.3739 25.8512 31.2429 24.9822C32.1119 24.1132 33.2906 23.625 34.5195 23.625V23.6211Z" fill="#4450C1"/>
<path d="M32.7383 28.2559C32.7383 28.7174 32.9215 29.16 33.2477 29.4864C33.5739 29.8127 34.0163 29.9961 34.4775 29.9961C34.9388 29.9961 35.3812 29.8127 35.7074 29.4864C36.0336 29.16 36.2168 28.7174 36.2168 28.2559C36.2168 27.7943 36.0336 27.3517 35.7074 27.0253C35.3812 26.699 34.9388 26.5156 34.4775 26.5156C34.0163 26.5156 33.5739 26.699 33.2477 27.0253C32.9215 27.3517 32.7383 27.7943 32.7383 28.2559Z" fill="white"/>
</svg>
