<svg width="36" height="39" viewBox="0 0 36 39" fill="none" xmlns="http://www.w3.org/2000/svg">
<path d="M7.15039 8.83301C7.15039 9.63081 7.30743 10.4208 7.61254 11.1579C7.91765 11.895 8.36486 12.5647 8.92863 13.1288C9.4924 13.693 10.1617 14.1404 10.8983 14.4458C11.6349 14.7511 12.4244 14.9082 13.2217 14.9082C14.019 14.9082 14.8085 14.7511 15.5451 14.4458C16.2817 14.1404 16.951 13.693 17.5147 13.1288C18.0785 12.5647 18.5257 11.895 18.8308 11.1579C19.1359 10.4208 19.293 9.63081 19.293 8.83301C19.293 7.22177 18.6533 5.67652 17.5147 4.5372C16.3761 3.39788 14.8319 2.75781 13.2217 2.75781C11.6115 2.75781 10.0672 3.39788 8.92863 4.5372C7.79004 5.67652 7.15039 7.22177 7.15039 8.83301Z" fill="#5464F8"/>
<path d="M8.37793 8.83203C8.37793 9.46863 8.50322 10.099 8.74664 10.6872C8.99006 11.2753 9.34685 11.8097 9.79663 12.2598C10.2464 12.71 10.7804 13.0671 11.3681 13.3107C11.9557 13.5543 12.5856 13.6797 13.2217 13.6797C13.8578 13.6797 14.4876 13.5543 15.0753 13.3107C15.663 13.0671 16.1969 12.71 16.6467 12.2598C17.0965 11.8097 17.4533 11.2753 17.6967 10.6872C17.9401 10.099 18.0654 9.46863 18.0654 8.83203C18.0654 7.54635 17.5551 6.31333 16.6467 5.40422C15.7383 4.49511 14.5063 3.98438 13.2217 3.98438C11.937 3.98437 10.705 4.49511 9.79663 5.40422C8.88825 6.31333 8.37793 7.54635 8.37793 8.83203Z" fill="#4450C1"/>
<path d="M5.41988 10.9584L23.0227 0.7872C23.866 0.299926 24.5313 0.477941 25.0186 1.32124L31.2758 12.1503C31.763 12.9936 31.585 13.6589 30.7417 14.1462L13.1389 24.3173C12.2956 24.8046 11.6303 24.6266 11.143 23.7833L4.88583 12.9542C4.39856 12.1109 4.57657 11.4457 5.41988 10.9584Z" fill="white"/>
<path d="M9.74219 7.07031H29.2148C30.5062 7.07135 31.7444 7.58514 32.657 8.49875C33.5697 9.41235 34.0823 10.651 34.082 11.9424V33.6084C34.082 34.8996 33.5694 36.138 32.6567 37.0514C31.744 37.9648 30.5061 38.4785 29.2148 38.4795H9.74219C7.1584 38.4795 4.68044 37.4531 2.85342 35.6261C1.02641 33.7991 0 31.3211 0 28.7373V16.8135C0 14.2297 1.02641 11.7517 2.85342 9.92471C4.68044 8.09769 7.1584 7.07129 9.74219 7.07129V7.07031Z" fill="#5464F8"/>
<path d="M27.5195 18.1406H34.291C34.6241 18.1406 34.9435 18.2729 35.179 18.5085C35.4146 18.744 35.5469 19.0634 35.5469 19.3965V26.1562C35.5469 26.4893 35.4146 26.8088 35.179 27.0443C34.9435 27.2798 34.6241 27.4121 34.291 27.4121H27.5195C26.2906 27.4121 25.1119 26.9239 24.2429 26.0549C23.3739 25.1859 22.8857 24.0073 22.8857 22.7783C22.8857 21.5494 23.3739 20.3707 24.2429 19.5017C25.1119 18.6327 26.2906 18.1445 27.5195 18.1445V18.1406Z" fill="#4450C1"/>
<path d="M25.7383 22.7754C25.7383 23.2369 25.9215 23.6796 26.2477 24.0059C26.5739 24.3323 27.0163 24.5156 27.4775 24.5156C27.9388 24.5156 28.3812 24.3323 28.7074 24.0059C29.0336 23.6796 29.2168 23.2369 29.2168 22.7754C29.2168 22.3139 29.0336 21.8712 28.7074 21.5449C28.3812 21.2185 27.9388 21.0352 27.4775 21.0352C27.0163 21.0352 26.5739 21.2185 26.2477 21.5449C25.9215 21.8712 25.7383 22.3139 25.7383 22.7754Z" fill="white"/>
</svg>
