<svg width="16" height="16" viewBox="0 0 16 16" fill="none" xmlns="http://www.w3.org/2000/svg">
<path d="M4.26589 0.47486C4.43544 0.139713 4.82194 -0.0243476 5.1808 0.0865051L7.70392 0.8659C7.85645 0.913017 8.01985 0.911591 8.17153 0.86182L10.6807 0.0385081C11.0375 -0.0785906 11.4268 0.0786986 11.6022 0.410836L12.8352 2.74607C12.9097 2.88724 13.0263 3.00177 13.1687 3.07383L15.5251 4.26589C15.8603 4.43544 16.0243 4.82194 15.9135 5.1808L15.1341 7.70392C15.087 7.85645 15.0884 8.01985 15.1382 8.17153L15.9615 10.6807C16.0786 11.0375 15.9213 11.4268 15.5892 11.6022L13.2539 12.8352C13.1128 12.9097 12.9982 13.0263 12.9262 13.1687L11.7341 15.5251C11.5646 15.8603 11.1781 16.0243 10.8192 15.9135L8.29608 15.1341C8.14355 15.087 7.98015 15.0884 7.82847 15.1382L5.31934 15.9615C4.96246 16.0786 4.57316 15.9213 4.39779 15.5892L3.16479 13.2539C3.09025 13.1128 2.9737 12.9982 2.83125 12.9262L0.47486 11.7341C0.139713 11.5646 -0.0243478 11.1781 0.0865048 10.8192L0.8659 8.29608C0.913016 8.14355 0.911591 7.98015 0.86182 7.82847L0.0385081 5.31934C-0.0785906 4.96246 0.0786988 4.57316 0.410836 4.39779L2.74607 3.16479C2.88724 3.09025 3.00177 2.9737 3.07383 2.83125L4.26589 0.47486Z" fill="#4954F6"/>
<path d="M5.51172 7.99303L7.34618 9.8275L11.0151 6.61719" stroke="white" stroke-width="1.5" stroke-linecap="round" stroke-linejoin="round"/>
</svg>