<svg width="24" height="24" viewBox="0 0 24 24" fill="none" xmlns="http://www.w3.org/2000/svg">
<path d="M7.5 18C7.91484 18 8.25 17.6648 8.25 17.25H8.26641C8.25469 17.1258 8.25 17.0016 8.25 16.875C8.25 14.5969 10.0969 12.75 12.375 12.75C14.6531 12.75 16.5 14.5969 16.5 16.875C16.5 17.0016 16.4953 17.1258 16.4836 17.25H16.5C16.5 17.6648 16.8352 18 17.25 18C17.6648 18 18 17.6648 18 17.25C18 17.2172 17.9977 17.182 17.993 17.1492C17.9977 17.0578 18 16.9664 18 16.875C18 14.6156 16.6687 12.668 14.7492 11.775C15.368 11.1633 15.75 10.3125 15.75 9.375C15.75 7.51172 14.2383 6 12.375 6C10.5117 6 9 7.51172 9 9.375C9 10.3125 9.38203 11.1633 10.0008 11.775C8.08125 12.6703 6.75 14.618 6.75 16.8773C6.75 16.9711 6.75234 17.0625 6.75703 17.1516C6.75234 17.1844 6.75 17.2148 6.75 17.25C6.75 17.6648 7.08516 18 7.5 18ZM12.375 7.5C13.4109 7.5 14.25 8.33906 14.25 9.375C14.25 10.4109 13.4109 11.25 12.375 11.25C11.3391 11.25 10.5 10.4109 10.5 9.375C10.5 8.33906 11.3391 7.5 12.375 7.5ZM2.25 11.25V12.75C2.25 13.1648 2.58516 13.5 3 13.5C3.41484 13.5 3.75 13.1648 3.75 12.75V11.25C3.75 10.8352 3.41484 10.5 3 10.5C2.58516 10.5 2.25 10.8352 2.25 11.25ZM2.25 9.75H3.75C4.16484 9.75 4.5 9.41484 4.5 9C4.5 8.58516 4.16484 8.25 3.75 8.25H2.25C1.83516 8.25 1.5 8.58516 1.5 9C1.5 9.41484 1.83516 9.75 2.25 9.75ZM4.5 15C4.5 14.5852 4.16484 14.25 3.75 14.25H2.25C1.83516 14.25 1.5 14.5852 1.5 15C1.5 15.4148 1.83516 15.75 2.25 15.75H3.75C4.16484 15.75 4.5 15.4148 4.5 15ZM21.4969 6.56719C21.2977 4.40859 19.5891 2.7 17.4305 2.50078L16.5258 2.42344C15.0187 2.30859 13.5094 2.25 12 2.25C10.1883 2.25 8.37891 2.33437 6.56953 2.50078L6.39141 2.52187C4.50938 2.77031 2.99766 4.17422 2.58984 6L2.59453 6.11484C2.63672 6.50625 2.96719 6.81094 3.37031 6.81094C3.80156 6.81094 4.15078 6.46172 4.15078 6.03047L4.14844 6C4.50938 4.95469 5.43047 4.17422 6.55547 4.0125L6.70781 3.99375L7.58906 3.91875C9.05859 3.80625 10.5305 3.75 12 3.75C13.7648 3.75 15.5297 3.82969 17.2945 3.99375C18.7336 4.12734 19.8727 5.26641 20.0062 6.70547C20.168 8.47031 20.25 10.2352 20.25 12C20.25 13.7648 20.1703 15.5297 20.0062 17.2945C19.8727 18.7336 18.7336 19.8727 17.2945 20.0062C15.5297 20.168 13.7648 20.25 12 20.25C10.2352 20.25 8.47031 20.1703 6.70547 20.0062C5.5125 19.8961 4.52344 19.0922 4.14609 18L4.14844 17.993C4.14844 17.5617 3.79922 17.2125 3.36797 17.2125C2.96484 17.2125 2.63437 17.5172 2.59219 17.9086L2.5875 18.0234H2.59453C3.02344 19.8961 4.61016 21.3188 6.56953 21.4992L7.47422 21.5766C8.98125 21.6914 10.4906 21.75 12 21.75C13.8117 21.75 15.6211 21.6656 17.4328 21.4969C19.5914 21.2977 21.3 19.5891 21.4992 17.4305L21.5766 16.5258C21.6914 15.0187 21.75 13.5094 21.75 12C21.75 10.1883 21.6656 8.37891 21.4969 6.56719Z" fill="white"/>
</svg>
