<svg width="20" height="20" viewBox="0 0 20 20" fill="none" xmlns="http://www.w3.org/2000/svg">
<path d="M6.25 15C6.5957 15 6.875 14.7207 6.875 14.375H6.88867C6.87891 14.2715 6.875 14.168 6.875 14.0625C6.875 12.1641 8.41406 10.625 10.3125 10.625C12.2109 10.625 13.75 12.1641 13.75 14.0625C13.75 14.168 13.7461 14.2715 13.7363 14.375H13.75C13.75 14.7207 14.0293 15 14.375 15C14.7207 15 15 14.7207 15 14.375C15 14.3477 14.998 14.3184 14.9941 14.291C14.998 14.2148 15 14.1387 15 14.0625C15 12.1797 13.8906 10.5566 12.291 9.8125C12.8066 9.30273 13.125 8.59375 13.125 7.8125C13.125 6.25977 11.8652 5 10.3125 5C8.75977 5 7.5 6.25977 7.5 7.8125C7.5 8.59375 7.81836 9.30273 8.33398 9.8125C6.73438 10.5586 5.625 12.1816 5.625 14.0645C5.625 14.1426 5.62695 14.2188 5.63086 14.293C5.62695 14.3203 5.625 14.3457 5.625 14.375C5.625 14.7207 5.9043 15 6.25 15ZM10.3125 6.25C11.1758 6.25 11.875 6.94922 11.875 7.8125C11.875 8.67578 11.1758 9.375 10.3125 9.375C9.44922 9.375 8.75 8.67578 8.75 7.8125C8.75 6.94922 9.44922 6.25 10.3125 6.25ZM1.875 9.375V10.625C1.875 10.9707 2.1543 11.25 2.5 11.25C2.8457 11.25 3.125 10.9707 3.125 10.625V9.375C3.125 9.0293 2.8457 8.75 2.5 8.75C2.1543 8.75 1.875 9.0293 1.875 9.375ZM1.875 8.125H3.125C3.4707 8.125 3.75 7.8457 3.75 7.5C3.75 7.1543 3.4707 6.875 3.125 6.875H1.875C1.5293 6.875 1.25 7.1543 1.25 7.5C1.25 7.8457 1.5293 8.125 1.875 8.125ZM3.75 12.5C3.75 12.1543 3.4707 11.875 3.125 11.875H1.875C1.5293 11.875 1.25 12.1543 1.25 12.5C1.25 12.8457 1.5293 13.125 1.875 13.125H3.125C3.4707 13.125 3.75 12.8457 3.75 12.5ZM17.9141 5.47266C17.748 3.67383 16.3242 2.25 14.5254 2.08398L13.7715 2.01953C12.5156 1.92383 11.2578 1.875 10 1.875C8.49023 1.875 6.98242 1.94531 5.47461 2.08398L5.32617 2.10156C3.75781 2.30859 2.49805 3.47852 2.1582 5L2.16211 5.0957C2.19727 5.42188 2.47266 5.67578 2.80859 5.67578C3.16797 5.67578 3.45898 5.38477 3.45898 5.02539L3.45703 5C3.75781 4.12891 4.52539 3.47852 5.46289 3.34375L5.58984 3.32812L6.32422 3.26562C7.54883 3.17187 8.77539 3.125 10 3.125C11.4707 3.125 12.9414 3.19141 14.4121 3.32812C15.6113 3.43945 16.5605 4.38867 16.6719 5.58789C16.8066 7.05859 16.875 8.5293 16.875 10C16.875 11.4707 16.8086 12.9414 16.6719 14.4121C16.5605 15.6113 15.6113 16.5605 14.4121 16.6719C12.9414 16.8066 11.4707 16.875 10 16.875C8.5293 16.875 7.05859 16.8086 5.58789 16.6719C4.59375 16.5801 3.76953 15.9102 3.45508 15L3.45703 14.9941C3.45703 14.6348 3.16602 14.3438 2.80664 14.3438C2.4707 14.3438 2.19531 14.5977 2.16016 14.9238L2.15625 15.0195H2.16211C2.51953 16.5801 3.8418 17.7656 5.47461 17.916L6.22852 17.9805C7.48438 18.0762 8.74219 18.125 10 18.125C11.5098 18.125 13.0176 18.0547 14.5273 17.9141C16.3262 17.748 17.75 16.3242 17.916 14.5254L17.9805 13.7715C18.0762 12.5156 18.125 11.2578 18.125 10C18.125 8.49023 18.0547 6.98242 17.9141 5.47266Z" fill="white"/>
</svg>
