<svg width="20" height="20" viewBox="0 0 20 20" fill="none" xmlns="http://www.w3.org/2000/svg">
<g clip-path="url(#clip0_56145_14532)">
<path d="M16.6667 7.5H9.16667C8.24619 7.5 7.5 8.24619 7.5 9.16667V16.6667C7.5 17.5871 8.24619 18.3333 9.16667 18.3333H16.6667C17.5871 18.3333 18.3333 17.5871 18.3333 16.6667V9.16667C18.3333 8.24619 17.5871 7.5 16.6667 7.5Z" stroke="#8492C4" stroke-width="1.5" stroke-linecap="round" stroke-linejoin="round"/>
<path d="M4.16406 12.5013H3.33073C2.8887 12.5013 2.46478 12.3257 2.15222 12.0131C1.83966 11.7006 1.66406 11.2767 1.66406 10.8346V3.33464C1.66406 2.89261 1.83966 2.46868 2.15222 2.15612C2.46478 1.84356 2.8887 1.66797 3.33073 1.66797H10.8307C11.2728 1.66797 11.6967 1.84356 12.0092 2.15612C12.3218 2.46868 12.4974 2.89261 12.4974 3.33464V4.16797" stroke="#8492C4" stroke-width="1.5" stroke-linecap="round" stroke-linejoin="round"/>
</g>
<defs>
<clipPath id="clip0_56145_14532">
<rect width="20" height="20" fill="white"/>
</clipPath>
</defs>
</svg>
