<svg width="20" height="20" viewBox="0 0 20 20" fill="none" xmlns="http://www.w3.org/2000/svg">
<path d="M7.86162 3.91016C6.70732 3.96323 5.57689 4.08795 4.47434 4.21532C3.85289 4.2886 3.27438 4.56954 2.83251 5.01261C2.39064 5.45569 2.11128 6.03496 2.03968 6.6566C1.88047 8.08688 1.72656 9.56624 1.72656 11.0788C1.72656 12.5926 1.88047 14.072 2.03968 15.5036C2.18298 16.7773 3.20062 17.795 4.47434 17.9422C5.91257 18.1081 7.39857 18.2739 8.91907 18.2739C10.4409 18.2739 11.9269 18.1081 13.3651 17.9422C13.9859 17.8688 14.5638 17.5881 15.0054 17.1456C15.4469 16.7031 15.7264 16.1246 15.7985 15.5036C15.9245 14.4541 16.0183 13.4011 16.0797 12.3459" stroke="#8492C4" stroke-width="1.4" stroke-linecap="round" stroke-linejoin="round"/>
<path d="M14.1191 2.44107L9.22993 7.98703L8.56123 11.1382C8.45244 11.645 8.98182 12.1253 9.47672 11.9687L12.6106 10.9842L17.6603 5.67047C18.5002 4.78815 18.3529 3.31144 17.3379 2.41321C16.3468 1.53753 14.9059 1.54814 14.1191 2.43974V2.44107Z" stroke="#8492C4" stroke-width="1.4" stroke-linecap="round" stroke-linejoin="round"/>
</svg>
