<svg width="20" height="20" viewBox="0 0 20 20" fill="none" xmlns="http://www.w3.org/2000/svg">
<path d="M3.03906 6.81367C3.38555 12.2102 3.71719 15.0176 3.91406 16.3539C4.01406 17.0297 4.45781 17.5805 5.12227 17.7398C6.02656 17.9574 7.58398 18.2035 10 18.2035C12.416 18.2035 13.973 17.9574 14.8777 17.7402C15.5418 17.5809 15.9855 17.0301 16.0855 16.3543C16.2828 15.0176 16.6141 12.2102 16.9605 6.8125" stroke="#D3625B" stroke-width="1.4" stroke-linecap="round" stroke-linejoin="round"/>
<path d="M11.9806 2.4192C12.5823 2.91411 13.2443 3.43571 14.0231 3.45835C14.8185 3.48148 15.4763 3.50913 15.9963 3.53555C16.9299 3.58242 17.7971 4.07969 18.058 4.97734C18.0971 5.11211 18.1338 5.25469 18.1659 5.40586C18.3198 6.12461 17.7819 6.74219 17.0494 6.8043C15.8698 6.90391 13.7108 7.01719 9.98812 7.01719C6.26585 7.01719 4.10648 6.90391 2.92718 6.8043C2.19437 6.74258 1.65335 6.1207 1.84281 5.41055C1.91117 5.15469 1.99515 4.92109 2.08343 4.71367C2.40101 3.97031 3.16546 3.58672 3.9725 3.54219C4.47951 3.51455 5.14361 3.48438 5.97168 3.45931C6.75016 3.43574 7.41196 2.91449 8.0134 2.41967C8.09112 2.35573 8.17255 2.29593 8.25741 2.24061C8.70171 1.95098 9.22064 1.79681 9.75101 1.79688H10.244C10.7743 1.79688 11.2931 1.95109 11.7374 2.24072C11.8219 2.29587 11.9031 2.35548 11.9806 2.4192Z" stroke="#D3625B" stroke-width="1.4" stroke-linecap="round" stroke-linejoin="round"/>
<path d="M7.65625 10.3906L8.04687 14.2969" stroke="#D3625B" stroke-width="1.4" stroke-linecap="round" stroke-linejoin="round"/>
<path d="M12.3437 10.3906L11.9531 14.2969" stroke="#D3625B" stroke-width="1.4" stroke-linecap="round" stroke-linejoin="round"/>
</svg>
