<svg width="36" height="36" viewBox="0 0 36 36" fill="none" xmlns="http://www.w3.org/2000/svg">
<path fill-rule="evenodd" clip-rule="evenodd" d="M19.8626 9.46252C19.3875 7.51249 16.6125 7.51249 16.1374 9.46252C16.0665 9.75555 15.9274 10.0277 15.7315 10.2568C15.5355 10.4859 15.2882 10.6655 15.0097 10.781C14.7312 10.8965 14.4294 10.9446 14.1288 10.9214C13.8282 10.8982 13.5373 10.8044 13.2799 10.6475C11.5648 9.60253 9.60224 11.5651 10.6473 13.2801C11.3223 14.3876 10.7235 15.8326 9.46348 16.1389C7.51217 16.6126 7.51217 19.3889 9.46348 19.8614C9.75659 19.9324 10.0288 20.0717 10.2579 20.2678C10.487 20.4639 10.6666 20.7113 10.7819 20.99C10.8973 21.2686 10.9453 21.5706 10.9219 21.8712C10.8985 22.1719 10.8044 22.4628 10.6473 22.7202C9.60224 24.4353 11.5648 26.3978 13.2799 25.3528C13.5373 25.1957 13.8282 25.1016 14.1289 25.0782C14.4295 25.0548 14.7315 25.1027 15.0101 25.2181C15.2888 25.3335 15.5362 25.513 15.7323 25.7421C15.9285 25.9712 16.0677 26.2434 16.1387 26.5365C16.6125 28.4878 19.3888 28.4878 19.8613 26.5365C19.9326 26.2436 20.0719 25.9716 20.2681 25.7426C20.4642 25.5137 20.7116 25.3342 20.9902 25.2189C21.2688 25.1036 21.5706 25.0556 21.8712 25.0788C22.1718 25.1021 22.4627 25.1959 22.7201 25.3528C24.4352 26.3978 26.3978 24.4353 25.3527 22.7202C25.1959 22.4627 25.102 22.1719 25.0788 21.8713C25.0555 21.5707 25.1035 21.2689 25.2189 20.9903C25.3342 20.7118 25.5136 20.4644 25.7426 20.2682C25.9716 20.072 26.2436 19.9327 26.5365 19.8614C28.4878 19.3877 28.4878 16.6114 26.5365 16.1389C26.2434 16.0679 25.9712 15.9286 25.7421 15.7325C25.513 15.5364 25.3334 15.289 25.2181 15.0103C25.1027 14.7317 25.0547 14.4297 25.0781 14.1291C25.1015 13.8284 25.1956 13.5375 25.3527 13.2801C26.3978 11.5651 24.4352 9.60253 22.7201 10.6475C22.4627 10.8046 22.1718 10.8987 21.8711 10.9221C21.5705 10.9455 21.2685 10.8976 20.9899 10.7822C20.7112 10.6668 20.4638 10.4873 20.2677 10.2582C20.0715 10.0291 19.9323 9.75688 19.8613 9.46377L19.8626 9.46252ZM18 21.7502C18.9946 21.7502 19.9485 21.3551 20.6517 20.6518C21.355 19.9486 21.7501 18.9947 21.7501 18.0002C21.7501 17.0056 21.355 16.0517 20.6517 15.3485C19.9485 14.6452 18.9946 14.2501 18 14.2501C17.0054 14.2501 16.0516 14.6452 15.3483 15.3485C14.645 16.0517 14.2499 17.0056 14.2499 18.0002C14.2499 18.9947 14.645 19.9486 15.3483 20.6518C16.0516 21.3551 17.0054 21.7502 18 21.7502Z" fill="#8492C4"/>
</svg>
