<svg width="20" height="20" viewBox="0 0 20 20" fill="none" xmlns="http://www.w3.org/2000/svg">
<path d="M17.9267 6.71607L15.0907 2.66407C15.0455 2.59949 14.988 2.54444 14.9215 2.50209C14.855 2.45974 14.7808 2.43092 14.7032 2.41727C14.6255 2.40361 14.5459 2.4054 14.469 2.42253C14.392 2.43965 14.3192 2.47178 14.2547 2.51708C14.1243 2.60842 14.0356 2.74774 14.0078 2.90447C13.9801 3.0612 14.0156 3.22253 14.1067 3.35307L15.6207 5.51607V7.46507C15.6207 7.93707 15.9947 8.32007 16.4557 8.32007H16.9647V15.5201C16.9647 15.9921 16.5967 16.3751 16.1437 16.3751C15.6907 16.3751 15.3227 15.9911 15.3227 15.5201V11.5541C15.3227 10.4211 14.4157 9.49907 13.3017 9.49907H12.2797C11.9487 9.49907 11.6797 9.76807 11.6797 10.0991C11.6797 10.4301 11.9487 10.6991 12.2797 10.6991H13.3017C13.7547 10.6991 14.1227 11.0831 14.1227 11.5541V15.5201C14.1227 16.6531 15.0297 17.5751 16.1437 17.5751C17.2577 17.5751 18.1647 16.6531 18.1647 15.5201V7.47707C18.1667 7.20307 18.0837 6.93907 17.9267 6.71607Z" fill="#8492C4"/>
<path d="M11.0954 17.7872H3.44437C2.63937 17.7872 1.98438 17.1322 1.98438 16.3272V4.8212C1.98438 3.4912 3.06638 2.4082 4.39738 2.4082H10.1424C11.4724 2.4082 12.5554 3.4902 12.5554 4.8212V10.1982C12.5554 10.5292 12.2864 10.7982 11.9554 10.7982C11.6244 10.7982 11.3554 10.5292 11.3554 10.1982V4.8212C11.3554 4.1522 10.8114 3.6082 10.1424 3.6082H4.39738C3.72838 3.6082 3.18437 4.1522 3.18437 4.8212V16.3272C3.18437 16.4702 3.30037 16.5872 3.44437 16.5872H11.0954C11.2384 16.5872 11.3554 16.4712 11.3554 16.3272V14.3572C11.3554 14.0262 11.6244 13.7572 11.9554 13.7572C12.2864 13.7572 12.5554 14.0262 12.5554 14.3572V16.3272C12.5544 17.1322 11.9004 17.7872 11.0954 17.7872Z" fill="#8492C4"/>
<path d="M1.88281 16.3271V4.82129C1.88281 3.43609 3.00925 2.30859 4.39551 2.30859V2.4082L4.14941 2.4209C2.93364 2.54456 1.98242 3.57427 1.98242 4.82129V16.3271C1.98242 17.1321 2.6374 17.7871 3.44238 17.7871H11.0938L11.2422 17.7793C11.9284 17.7095 12.4752 17.1628 12.5459 16.4766L12.5537 16.3271V14.3574C12.5537 14.0264 12.2841 13.7568 11.9531 13.7568C11.6223 13.757 11.3535 14.0265 11.3535 14.3574V16.3271L11.3477 16.3799C11.3232 16.4983 11.2186 16.5868 11.0938 16.5869V16.4873C11.1816 16.4871 11.2539 16.4156 11.2539 16.3271V14.3574C11.2539 13.9713 11.567 13.6574 11.9531 13.6572C12.3394 13.6572 12.6533 13.9712 12.6533 14.3574V16.3271C12.6523 17.1871 11.9539 17.8865 11.0938 17.8867H3.44238C2.58217 17.8867 1.88281 17.1874 1.88281 16.3271ZM11.0938 16.4873V16.5869H3.44238V16.4873H11.0938ZM11.2539 10.1982V4.82129C11.2539 4.20759 10.7543 3.70812 10.1406 3.70801H4.39551C3.78174 3.70801 3.28223 4.20752 3.28223 4.82129V16.3271C3.28223 16.4152 3.35388 16.4873 3.44238 16.4873V16.5869C3.31654 16.5869 3.21182 16.4979 3.1875 16.3799L3.18262 16.3271V4.82129C3.18262 4.19412 3.6605 3.67649 4.27148 3.61426L4.39551 3.6084H10.1406C10.8095 3.60851 11.3535 4.15236 11.3535 4.82129V10.1982L11.3652 10.3193C11.4213 10.5924 11.6637 10.7977 11.9531 10.7979C12.2426 10.7979 12.4849 10.5924 12.541 10.3193L12.5537 10.1982V4.82129C12.5537 3.57349 11.6016 2.54466 10.3867 2.4209L10.1406 2.4082V2.30859C11.5257 2.3087 12.6533 3.4351 12.6533 4.82129V10.1982C12.6533 10.5845 12.3393 10.8984 11.9531 10.8984C11.567 10.8983 11.2539 10.5844 11.2539 10.1982ZM10.1406 2.30859V2.4082H4.39551V2.30859H10.1406Z" fill="#8492C4"/>
<path d="M9.07219 15.1053H5.46719C5.13619 15.1053 4.86719 14.8363 4.86719 14.5053C4.86719 14.1743 5.13619 13.9053 5.46719 13.9053H9.07219C9.40319 13.9053 9.67219 14.1743 9.67219 14.5053C9.67219 14.8363 9.40319 15.1053 9.07219 15.1053ZM8.59419 8.61134H5.94519C5.35119 8.61134 4.86719 8.12834 4.86719 7.53334V6.23034C4.86719 5.63634 5.35019 5.15234 5.94519 5.15234H8.59419C9.18819 5.15234 9.67219 5.63534 9.67219 6.23034V7.53434C9.67219 8.12834 9.18819 8.61134 8.59419 8.61134ZM6.06719 7.41134H8.47219V6.35234H6.06719V7.41134Z" fill="#8492C4"/>
</svg>
