<svg width="16" height="18" viewBox="0 0 16 18" fill="none" xmlns="http://www.w3.org/2000/svg">
<path d="M15.1264 14.4165C15.2361 12.6681 15.2938 10.8562 15.2938 8.99959C15.2938 8.24766 15.2844 7.50307 15.2659 6.76705C15.2529 6.24999 15.0851 5.7475 14.7791 5.33055C13.6125 3.74133 12.6832 2.75333 11.1515 1.57128C10.7306 1.24644 10.2142 1.0702 9.68264 1.05858C9.14964 1.04693 8.59305 1.04102 7.99848 1.04102C6.19858 1.04102 4.74668 1.09523 3.24416 1.19853C1.96596 1.28642 0.950809 2.30396 0.870547 3.58266C0.760811 5.33112 0.703125 7.143 0.703125 8.99959C0.703125 10.8562 0.760811 12.6681 0.870547 14.4165C0.950809 15.6953 1.96596 16.7128 3.24416 16.8006C4.74668 16.9039 6.19858 16.9582 7.99848 16.9582C9.79838 16.9582 11.2503 16.9039 12.7528 16.8006C14.0309 16.7128 15.0462 15.6953 15.1264 14.4165Z" stroke="#8492C4" stroke-width="1.4" stroke-linecap="round" stroke-linejoin="round"/>
<path d="M5.46875 9.01953H10.5258" stroke="#8492C4" stroke-width="1.4" stroke-linecap="round" stroke-linejoin="round"/>
<path d="M5.46875 12.8744H10.51M5.46875 5.01953H8.5204" stroke="#8492C4" stroke-width="1.4" stroke-linecap="round" stroke-linejoin="round"/>
</svg>
