<svg width="16" height="16" viewBox="0 0 16 16" fill="none" xmlns="http://www.w3.org/2000/svg">
<path d="M8.00625 10.375C8.3641 10.375 8.66406 10.675 8.66406 11.0328C8.66406 11.3907 8.3641 11.6906 8.00625 11.6906C7.66156 11.6906 7.34844 11.3907 7.36423 11.0486C7.34844 10.6723 7.64577 10.375 8.00625 10.375Z" fill="#8492C4"/>
<path d="M1.90991 12.7023C1.49681 11.9893 1.49417 11.1394 1.90465 10.4289L6.02517 3.29303C6.43301 2.5747 7.16976 2.14844 7.99597 2.14844C8.82217 2.14844 9.55892 2.57733 9.96676 3.2904L14.0925 10.4342C14.503 11.1525 14.5004 12.0077 14.0846 12.7208C13.6742 13.4259 12.9401 13.8496 12.1191 13.8496H3.8886C3.06502 13.8496 2.32565 13.4207 1.90991 12.7023ZM2.80453 12.1866C3.03345 12.5813 3.43866 12.8155 3.89123 12.8155H12.1217C12.5691 12.8155 12.9716 12.5866 13.1953 12.1998C13.4216 11.8077 13.4242 11.3394 13.1979 10.9447L9.07214 3.80349C8.84849 3.41143 8.44854 3.17988 7.99597 3.17988C7.54602 3.17988 7.14344 3.41406 6.91979 3.80612L2.79664 10.9473C2.57561 11.3315 2.57825 11.7946 2.80453 12.1866Z" fill="#8492C4"/>
<path d="M8.16405 5.75295C8.47716 5.84241 8.67188 6.12658 8.67188 6.47127C8.65609 6.67914 8.64293 6.88964 8.62714 7.09751C8.58241 7.88951 8.53768 8.66573 8.49295 9.45773C8.47716 9.72611 8.2693 9.92083 8.00091 9.92083C7.73252 9.92083 7.52202 9.71296 7.50887 9.44194C7.50887 9.2788 7.50887 9.12882 7.49308 8.96305C7.46414 8.45523 7.43256 7.9474 7.40362 7.43957C7.38783 7.11066 7.35889 6.78176 7.3431 6.45285C7.3431 6.33445 7.35889 6.2292 7.40362 6.12395C7.53781 5.82925 7.85093 5.67927 8.16405 5.75295Z" fill="#8492C4"/>
</svg>
