<svg width="258" height="258" viewBox="0 0 258 258" fill="none" xmlns="http://www.w3.org/2000/svg">
<mask id="mask0_57933_41725" style="mask-type:alpha" maskUnits="userSpaceOnUse" x="0" y="0" width="258" height="258">
<path d="M129 0C163.213 0 196.025 13.591 220.217 37.7832C244.409 61.9754 258 94.7871 258 129C258 163.213 244.409 196.025 220.217 220.217C196.025 244.409 163.213 258 129 258C94.7871 258 61.9754 244.409 37.7832 220.217C13.591 196.025 0 163.213 0 129C0 94.7871 13.591 61.9754 37.7832 37.7832C61.9754 13.591 94.7871 0 129 0Z" fill="#3B00B9"/>
</mask>
<g mask="url(#mask0_57933_41725)">
<path d="M129 1.5C162.815 1.5 195.245 14.9329 219.156 38.8438C243.067 62.7546 256.5 95.1849 256.5 129C256.5 162.815 243.067 195.245 219.156 219.156C195.245 243.067 162.815 256.5 129 256.5C95.1849 256.5 62.7546 243.067 38.8438 219.156C14.9329 195.245 1.5 162.815 1.5 129C1.5 95.1849 14.9329 62.7546 38.8438 38.8438C62.7546 14.9329 95.1849 1.5 129 1.5Z" fill="#B7A235" stroke="#8F7A1B" stroke-width="3"/>
<path d="M55.2425 115.064L53.3393 113.161C52.3928 112.519 51.4411 111.885 50.4844 111.258L48.5812 109.355L47.6296 107.452L48.5812 108.403L50.4844 111.258C51.4525 111.867 52.4044 112.502 53.3393 113.161C53.9612 113.808 54.5957 114.443 55.2425 115.064ZM16.2266 115.064L32.4039 116.968L52.3877 119.823L16.2266 115.064ZM16.2266 115.064L24.791 116.016H32.4039L34.3071 116.968H32.4039L29.5491 116.016H24.791C21.9312 115.746 19.0759 115.429 16.2266 115.064ZM51.4361 122.677L36.2103 126.484L20.033 131.242L51.4361 122.677Z" fill="#CFB66C"/>
<path d="M21.936 137.903C28.3051 135.105 34.6494 132.25 40.9681 129.339C43.1593 128.32 45.3807 127.368 47.6294 126.484L21.936 137.903Z" fill="#CFB66C"/>
<path d="M21.9355 137.904L25.742 136.952L28.5968 135.049L35.2581 132.194L40.9677 129.339L44.7741 127.436H45.7257L47.629 126.484L40.9677 129.339L35.2581 132.194L28.5968 135.049L21.9355 137.904ZM23.8388 143.613L40.9677 134.097L51.4354 128.388L23.8388 143.613Z" fill="#CFB66C"/>
<path d="M30.5001 139.806L33.3549 137.903L37.1614 136L40.0162 133.145H41.9194L43.8226 132.193L51.4355 128.387L44.7742 132.193L40.9678 134.096L37.1614 136C36.2213 136.651 35.2695 137.286 34.3066 137.903L30.5001 139.806ZM51.4355 130.29L40.0162 138.854L29.5485 146.467L51.4355 130.29Z" fill="#CFB66C"/>
<path d="M98.0647 180.725L93.3066 173.112L96.1615 162.645L113.29 155.983L105.678 140.758L109.484 125.532L116.145 112.209L138.032 108.403L153.258 94.1289L186.564 96.9837L193.225 132.193L180.855 177.87L173.242 200.709L143.742 201.661L130.419 193.096L114.242 186.435L98.0647 180.725Z" fill="#E2CC85"/>
<path d="M149.451 180.727C149.451 180.727 145.645 182.63 138.032 181.678C136.129 178.824 121.855 177.872 121.855 177.872L117.097 178.824L108.532 180.727C105.677 180.727 102.822 177.872 100.919 176.92L96.1612 174.066H90.4516L78.0807 168.356L60.0001 150.275L54.2905 157.888L53.3389 167.404L59.0485 179.775L74.2742 193.098L103.774 200.711L121.855 195.953L143.742 186.436L149.451 180.727Z" fill="#F1D789"/>
<path d="M42.8714 114.113L46.6779 102.693L51.4359 95.0805L65.71 94.1289L61.9036 106.5L49.5327 128.387L54.2907 147.419L45.7262 152.177L42.8714 148.371L40.9682 138.854L40.0166 127.435L42.8714 114.113Z" fill="#F4ECB4"/>
<path d="M59.0483 179.773L56.1935 175.966V170.257L54.2903 165.499C54.2903 163.596 54.2903 162.644 56.1935 161.692L57.1451 157.886L59.0483 158.838V157.886L59.9999 159.789C59.9999 157.886 59.0483 153.128 60.9515 152.176C61.9031 150.273 64.758 157.886 64.758 157.886L62.8548 147.418L59.0483 136.951L52.3871 127.434L51.4355 116.967L47.629 125.531C46.6774 128.386 48.5806 131.241 48.5806 135.047V139.805C49.5322 141.709 51.4355 144.563 50.4839 147.418C50.4839 149.321 47.629 147.418 47.629 147.418L45.7258 150.273C45.7258 149.244 45.3919 148.242 44.7742 147.418V148.37L43.8226 145.515L41.9194 137.902C41.5862 139.167 41.269 140.436 40.9678 141.709L41.9194 146.467L42.871 153.128L44.7742 156.934L46.6774 162.644L47.629 165.499L49.5322 168.354L50.4839 174.063L55.2419 179.773L57.1451 180.725L59.0483 179.773Z" fill="#F3E19D"/>
<path d="M45.7269 104.595C45.7269 104.595 41.9204 110.304 40.9688 116.966C40.0172 122.675 39.0656 129.337 40.0172 136.95C40.3727 142.743 41.3294 148.483 42.872 154.078L48.5817 168.353V167.401C48.1559 166.162 47.8375 164.888 47.6301 163.595L45.7269 156.933L43.8236 153.127L42.872 148.369L41.9204 143.611L40.9688 135.998V126.482L44.7753 113.159L46.6785 104.595C48.5817 102.692 49.5333 99.8368 49.5333 97.9336L45.7269 104.595Z" fill="#F2E8B0"/>
<path d="M61.9035 102.691L59.0487 103.643L57.1455 107.449L55.2423 112.207L51.4358 116.966L50.4842 125.53C49.5326 127.433 51.4358 130.288 51.4358 130.288H52.3874L53.339 132.191C54.2907 134.094 55.2423 129.336 55.2423 129.336L59.0487 114.111L66.6616 109.353V105.546L61.9035 102.691Z" fill="#F5EEC0"/>
<path d="M65.7098 109.352L60.9517 110.304L59.0485 112.207C58.0969 113.159 56.1937 114.11 56.1937 116.014C55.2421 116.965 54.2905 118.869 54.2905 122.675L53.3389 127.433V131.239C53.3389 134.094 55.2421 135.046 56.1937 136.949L60.0001 135.046L63.8066 118.869L73.3226 113.159L67.613 107.449L65.7098 109.352Z" fill="#E6DB9D"/>
<path d="M42.8715 218.789V217.838L43.8231 205.467L44.7747 199.757V194.047L46.678 187.386L45.7264 183.58L44.7747 182.628C44.7747 182.628 48.5812 178.822 48.5812 167.402H49.5328L51.436 173.112L52.3876 175.015L58.0973 185.483L65.7101 193.096L76.1778 199.757L82.8391 207.37L83.7907 226.402L75.2262 237.821L73.323 240.676C61.7986 235.028 51.208 227.646 41.9199 218.789H42.8715Z" fill="#E5CB7A"/>
<path d="M69.5166 236.871L71.4198 233.065L72.3714 234.968C73.3054 233.457 74.5538 232.166 76.0316 231.18C77.5095 230.195 79.1821 229.54 80.9359 229.259C86.6455 228.307 87.5972 223.549 87.5972 223.549L99.9681 213.081L113.291 199.759L130.42 194.049L138.984 192.146L138.032 194.049L146.597 192.146H149.452L151.355 195.952L156.113 194.049L162.774 197.856C166.581 197.856 167.532 195.952 170.387 194.049L174.193 191.194L205.597 180.727L215.113 181.678L217.016 192.146L216.064 218.791L215.113 219.742L171.339 242.581L109.484 252.097C95.4979 249.974 81.9794 245.468 69.5166 238.775V236.871Z" fill="#D8C173"/>
<path d="M45.7256 222.594L47.6288 217.836L48.5804 224.497L45.7256 222.594Z" fill="#F1D789"/>
<path d="M91.4043 248.29L99.0172 245.435L99.9688 246.386V247.338L102.824 246.386L104.727 249.241L109.485 247.338L114.243 244.483L115.194 246.386C117.098 245.435 120.904 239.725 124.711 239.725L131.372 232.112C135.178 229.257 138.033 229.257 140.888 229.257C142.234 227.714 143.845 226.425 145.646 225.451H149.452L156.114 220.693C157.449 220.621 158.776 220.952 159.92 221.645C159.92 221.645 168.485 214.032 174.194 211.177C173.243 211.177 173.243 208.322 179.904 202.612V204.516L183.71 201.661L191.323 197.854C194.178 196.903 197.984 198.806 197.984 198.806L198.936 197.854H200.839V202.612L202.742 203.564L200.839 207.37L203.694 209.274C202.682 210.163 201.729 211.117 200.839 212.128L197.984 218.79L196.081 223.548L192.275 228.306L200.839 225.451L193.226 235.919C178.103 245.085 161.202 250.929 143.647 253.062C126.091 255.195 108.283 253.568 91.4043 248.29Z" fill="#E0CD81"/>
<path d="M65.7099 108.402L63.8066 109.354L66.6615 110.305L68.5647 112.209L81.8872 118.87L91.4033 117.918L94.2581 114.112L88.5484 108.402L92.3549 96.0312L86.6452 96.9829L73.3227 104.596L66.6615 107.451L65.7099 108.402Z" fill="#DFC57C"/>
<path d="M85.6934 113.162C85.8797 113.492 86.1605 113.759 86.4996 113.929C86.8386 114.099 87.2206 114.163 87.5966 114.114L91.403 115.066L96.161 121.727L104.726 124.582V115.066L96.161 108.404L85.6934 112.211V113.162Z" fill="#E5CC7C"/>
<path d="M84.7424 116.016H87.5972L94.2585 114.113C96.1617 115.065 95.2101 117.92 97.1133 119.823C99.0165 120.775 100.92 120.775 101.871 122.678L107.581 123.629L109.484 132.194L102.823 140.758L100.92 151.226H91.4037L83.7908 148.371L79.9844 137.903L81.8876 128.387L84.7424 116.016Z" fill="#D2C281"/>
<path d="M101.871 116.967H102.823L101.871 118.87V122.677L102.823 124.58C103.774 125.532 103.774 126.483 105.678 126.483C105.317 126.754 104.996 127.074 104.726 127.435C104.726 127.435 106.629 128.386 107.581 130.29L110.436 129.338H112.339L111.387 126.483L113.29 124.58V121.725L114.242 116.967L113.29 109.354L109.484 107.451L106.629 103.645L103.774 109.354L101.871 111.257V116.967Z" fill="#E2C270"/>
<path d="M111.387 110.308L112.338 114.114V113.163V116.969L113.29 117.921V121.727C114.205 120.148 115.517 118.836 117.096 117.921L119.951 116.969L124.709 117.921C129.467 117.921 134.225 114.114 137.08 113.163L142.79 110.308L145.645 106.501C147.548 104.598 148.499 101.743 150.403 101.743H148.499L149.451 100.792L152.306 99.8401H158.016L159.919 98.8885C159.919 98.8885 160.87 100.792 164.677 100.792H183.709L177.999 85.566L159.919 69.3887L148.499 77.9531L131.37 95.0821L114.242 100.792L111.387 104.598V110.308Z" fill="#CCB360"/>
<path d="M148.5 101.741L149.452 100.79L152.307 99.8379H159.919L164.677 100.79H183.71L180.855 94.1283L178 89.3703L170.387 80.8058L160.871 75.0961L158.016 74.1445L149.452 78.9026L141.839 98.8863V103.644L146.597 105.548L150.403 101.741H148.5Z" fill="#D5B457"/>
<path d="M148.5 103.646L146.597 102.694L144.694 100.791L142.791 101.743L141.839 100.791L137.081 104.597C135.178 106.501 132.323 110.307 130.42 110.307L122.807 112.21C121.421 112.577 120.126 113.225 119 114.114L119.952 115.065H118.049L119 116.968C119.316 116.929 119.636 116.929 119.952 116.968L124.71 117.92C129.468 117.92 134.226 114.114 137.081 113.162L142.791 110.307L145.645 106.501C146.523 105.478 147.478 104.524 148.5 103.646Z" fill="#D2B257"/>
<path d="M79.9838 209.271L76.1774 203.562L73.3225 200.707L69.5161 196.9C66.6613 194.997 62.8548 194.997 60.9516 192.142C58.0968 190.239 55.242 184.53 53.3388 179.772L51.4355 173.11L52.3872 171.207L53.3388 173.11L54.2904 175.013L57.1452 179.772L56.1936 175.965L63.8065 180.723L69.5161 185.481L73.3225 192.142C74.2741 194.046 88.5483 197.852 88.5483 197.852L96.1611 203.562L99.0159 211.175L96.1611 214.981L91.4031 215.933L82.8386 212.126L79.9838 209.271Z" fill="#D2B159"/>
<path d="M61.9043 182.628L67.6139 188.337C71.4204 191.192 78.0816 193.095 82.8397 194.047C85.9662 194.718 89.1581 195.038 92.3558 194.999C99.9686 195.95 104.727 193.095 111.388 193.095L123.759 191.192L137.081 185.482C139.936 184.531 143.743 183.579 145.646 181.676L155.162 176.918C154.21 177.87 154.21 179.773 151.355 181.676H155.162L149.452 185.482L140.888 192.144L135.178 194.047L128.517 199.757H129.468L124.71 200.708L121.856 201.66L118.049 202.611H116.146V203.563H112.34L111.388 204.515H110.436L111.388 207.369L106.63 211.176V212.127L107.581 213.079V214.031H106.63L102.823 214.982H101.872C101.872 215.934 102.823 217.837 100.92 219.74L98.0654 223.547L97.1138 222.595L96.1622 221.644L95.2106 223.547L93.3074 227.353C93.3074 226.402 92.3558 225.45 90.4525 225.45L87.5977 228.305C87.5977 229.256 86.6461 234.014 81.8881 237.821V234.014L78.0816 235.918L75.2268 238.772L76.1784 234.014L79.0332 231.16C79.1168 231.015 79.1607 230.851 79.1607 230.684C79.1607 230.517 79.1168 230.353 79.0332 230.208H78.0816C79.0332 230.208 80.9365 228.305 80.9365 226.402C80.9491 225.522 80.7874 224.649 80.4607 223.832C80.1341 223.016 79.6489 222.272 79.0332 221.644L79.9849 220.692L78.0816 218.789L79.0332 217.837V216.886C78.7964 216.214 78.4767 215.575 78.0816 214.982H79.0332L78.0816 213.079V210.224H79.0332L78.0816 209.273H79.9849L78.0816 207.369C78.9972 206.999 80.0209 206.999 80.9365 207.369L82.8397 209.273L84.7429 210.224L90.4525 214.031H93.3074C93.9353 214.159 94.5826 214.159 95.2106 214.031V213.079C94.9141 212.742 94.5963 212.424 94.259 212.127H95.2106L94.259 210.224L95.2106 209.273H94.259L95.2106 208.321L93.3074 206.418C93.6242 206.441 93.9422 206.441 94.259 206.418L92.3558 205.466L90.4525 203.563L91.4041 202.611H92.3558L90.4525 201.66L88.5493 199.757H84.7429C84.7429 199.757 81.8881 199.757 76.1784 195.95L67.6139 190.24C67.2747 189.946 66.9567 189.628 66.6623 189.289C64.7591 188.337 61.9043 185.482 61.9043 182.628Z" fill="#C2A44D"/>
<path d="M139.936 55.1107L140.888 56.0623C142.791 57.0139 142.791 58.9171 140.888 61.7719H142.791C141.839 62.7235 139.936 64.6268 139.936 66.53L140.888 68.4332L138.984 72.2396C139.87 71.5113 140.826 70.8737 141.839 70.3364C143.377 69.307 144.965 68.3542 146.597 67.4816V68.4332C146.597 68.4332 149.452 65.5784 152.307 66.53V68.4332L155.162 69.3848L158.017 74.1428L159.92 76.9977C161.042 78.8105 161.998 80.7216 162.775 82.7073C162.775 81.7557 163.726 79.8525 166.581 80.8041C169.436 81.7557 173.242 84.6105 176.097 89.3686L181.807 100.788L184.662 107.449L187.516 124.578L189.42 112.207L190.371 105.546L191.323 83.6589L168.484 65.5784L151.355 52.2559L138.984 53.2075L139.936 55.1107Z" fill="#CAA13E"/>
<path d="M181.806 87.4656C181.806 87.4656 181.806 85.5624 176.096 81.756C171.338 77.9495 167.532 77.9495 162.774 75.0947C159.919 73.1915 157.064 67.4819 155.161 65.5786C153.258 63.6754 153.258 58.9174 153.258 58.9174L159.919 53.2077L169.435 38.9336L177.048 30.3691L181.806 35.1272L186.564 41.7884L190.371 55.1109L191.322 74.1431L181.806 87.4656Z" fill="#B59544"/>
<path d="M188.468 110.308L187.516 101.743C185.884 96.5706 183.978 91.4882 181.806 86.5176C180.855 83.6628 181.806 82.7112 182.758 82.7112C182.758 82.7112 185.613 80.808 186.564 76.0499C187.516 71.2919 191.322 71.2919 191.322 71.2919L194.177 69.3887L197.984 78.9048L200.838 87.4692L201.79 94.1305L202.742 98.8885L200.838 110.308L192.274 117.921L188.468 110.308Z" fill="#C89D3A"/>
<path d="M68.5645 237.821L69.5161 236.87C69.832 236.83 70.1517 236.83 70.4677 236.87H79.9837C83.7902 236.87 84.7418 239.725 87.5966 241.628L91.403 242.579L93.3063 241.628L94.2579 242.579L99.0159 241.628C99.3283 241.565 99.65 241.565 99.9625 241.627C100.275 241.689 100.572 241.811 100.837 241.988C101.103 242.165 101.33 242.392 101.508 242.657C101.685 242.921 101.808 243.219 101.871 243.531C101.933 243.843 101.934 244.165 101.872 244.478C101.81 244.79 101.687 245.087 101.51 245.353C101.334 245.618 101.106 245.845 100.842 246.023C100.577 246.2 100.28 246.323 99.9675 246.386L97.1127 249.241L98.0643 250.192C87.7371 247.363 77.8209 243.204 68.5645 237.821Z" fill="#CEB052"/>
<path d="M181.807 194.999L186.565 189.29C187.516 186.435 182.758 157.887 182.758 157.887L192.274 126.484V116.016L193.226 102.693L199.887 109.355L201.79 94.1289L204.645 107.451L206.548 115.064L208.452 123.629L211.306 133.145L213.21 139.806L214.161 140.758L215.113 143.613V146.467L217.968 153.129L218.919 158.838L219.871 169.306L220.823 171.209L219.871 174.064L220.823 177.87L218.919 181.677L217.016 190.241L214.161 188.338V184.532C213.748 183.679 213.03 183.011 212.151 182.659C211.271 182.307 210.291 182.296 209.403 182.628L204.645 183.58L200.839 187.386C198.936 189.29 195.129 189.29 193.226 189.29L187.516 193.096C185.673 193.897 183.762 194.534 181.807 194.999Z" fill="#CCA847"/>
<path d="M181.807 241.629V242.58C196.96 235.506 210.548 225.476 221.774 213.081V193.097L219.871 180.726L217.968 177.871L217.016 182.629V186.436H216.065L215.113 185.484V184.532L214.161 188.339V191.194L213.21 192.145V194.048L212.258 197.855V202.613L211.306 205.468H212.258C212.258 205.468 213.21 208.323 211.306 211.177L209.403 213.081L206.548 217.839C206.529 217.522 206.529 217.204 206.548 216.887C206.548 216.887 204.645 219.742 203.694 220.693L199.887 223.548V225.451C198.936 225.451 197.984 225.451 197.984 227.355C197.603 228.2 196.926 228.876 196.081 229.258L193.226 230.21H194.178L190.371 233.064C189.18 233.742 188.194 234.728 187.516 235.919L185.613 237.822L187.516 238.774C186.565 238.774 185.613 238.774 184.661 240.677L181.807 241.629Z" fill="#C39D3C"/>
<path d="M152.307 252.094L155.161 250.191L162.774 248.288L166.581 247.336V248.288C161.903 249.84 157.136 251.111 152.307 252.094Z" fill="#D2BA6B"/>
<path d="M213.21 164.546L211.307 170.256C210.599 172.134 209.964 174.039 209.403 175.966V174.062L202.742 177.869L199.887 180.724L201.79 174.062C197.437 177.612 193.305 181.425 189.42 185.482L178 194.998C176.765 195.698 175.495 196.333 174.194 196.901L167.533 198.804L170.387 194.998L175.145 189.288V184.53L172.291 185.482C171.602 185.677 170.957 186 170.387 186.433C170.387 186.433 171.339 182.627 172.291 178.82H169.436C169.436 178.82 172.291 175.014 177.049 172.159L172.291 173.111L164.678 176.917L179.903 151.224C184.662 139.805 186.565 136.95 187.516 131.24L188.468 119.821V110.305C190.371 111.256 195.129 116.014 195.129 126.482C195.129 136.95 190.371 151.224 185.613 157.885C186.565 158.837 189.42 158.837 193.226 153.127L197.984 143.611V144.563C197.984 144.563 202.742 138.853 204.645 131.24C205.597 135.046 206.548 137.901 204.645 143.611C202.742 148.369 199.887 150.272 199.887 150.272L203.694 148.369V151.224L205.597 152.175L207.5 149.321V162.643C209.403 161.692 211.307 161.692 212.258 158.837C211.518 161.32 211.518 163.966 212.258 166.45C212.653 165.857 212.973 165.218 213.21 164.546Z" fill="#C0993A"/>
<path d="M158.016 46.5469L153.258 47.4985L148.5 46.5469L118.049 50.3533L126.613 51.3049H157.065L158.968 47.4985L158.016 46.5469Z" fill="#A88F33"/>
<path d="M90.4522 97.9358L85.6941 102.694L81.8877 107.452L83.7909 106.5L82.8393 107.452C83.1286 107.285 83.4568 107.197 83.7909 107.197C84.125 107.197 84.4532 107.285 84.7425 107.452C83.7909 108.403 82.8393 109.355 83.7909 111.258L85.6941 112.21L86.6457 113.162C90.4522 113.162 94.2586 111.258 95.2102 112.21C97.1134 112.21 98.065 112.21 99.0166 114.113L101.871 116.968L102.823 112.21L103.775 107.452L101.871 98.8874L97.1134 93.1777L91.4038 96.9842L90.4522 97.9358Z" fill="#E3C571"/>
<path d="M97.1133 96.9836L99.0165 97.9352V99.8384L99.9681 98.8868V101.742L101.871 103.645L102.823 109.354V108.403V112.209L103.775 111.258C104.726 111.258 105.678 110.306 105.678 108.403L106.629 105.548L107.581 106.5L108.533 107.451V104.596L109.484 99.8384L111.387 96.032L116.145 87.4675L126.613 79.8546L135.178 81.7578L142.79 72.2418L129.468 64.6289L118.049 65.5805L106.629 80.8062L98.0649 94.1288L97.1133 96.9836Z" fill="#D8B65B"/>
<path d="M159.92 75.0955L157.065 76.0471C154.21 76.9987 153.258 76.9987 152.307 78.902L151.355 81.7568L153.258 80.8052L155.161 81.7568L157.065 82.7084C156.895 83.4065 156.57 84.0572 156.113 84.6116L154.21 86.5148V88.418L151.355 93.1761C149.908 94.6113 148.631 96.2078 147.549 97.9341C147.549 97.9341 146.597 96.0309 145.645 94.1277L143.742 95.0793L138.033 76.9987V76.0471L138.984 74.1439L137.081 73.1923L133.275 69.3859L131.371 68.4343H129.468L130.42 67.4827H123.758C122.807 67.4827 121.855 68.4343 121.855 66.5311L119 67.4827C118.049 69.3859 118.049 70.3375 116.146 70.3375C116.252 70.9674 116.252 71.6108 116.146 72.2407L113.291 75.0955C112.339 76.9987 112.339 79.8536 109.484 82.7084C107.581 84.6116 110.436 76.0471 110.436 76.0471L114.242 66.5311L125.662 55.1118L143.742 54.1602L145.645 63.6762L154.21 66.5311L159.92 75.0955Z" fill="#D3AE4D"/>
<path d="M162.775 76.9987L155.162 65.5795L149.452 61.773L145.646 55.1118L139.936 54.1602V55.1118L140.888 56.0634C142.791 57.015 142.791 58.9182 140.888 61.773H142.791C141.839 62.7246 139.936 64.6278 139.936 66.5311L140.888 68.4343L138.984 72.2407C139.87 71.5124 140.826 70.8748 141.839 70.3375C143.376 69.3067 144.964 68.3539 146.597 67.4827V68.4343C146.597 68.4343 149.452 65.5795 152.307 66.5311V68.4343L155.162 69.3859L158.017 74.1439L159.92 76.9987C161.042 78.8116 161.998 80.7227 162.775 82.7084L164.678 80.8052L162.775 76.9987Z" fill="#CAA13E"/>
<path d="M49.5322 107.452V103.645L51.4354 96.0326C51.4354 92.2261 54.2903 87.4681 54.2903 87.4681L60.9515 84.6133L65.7096 85.5649L67.6128 92.2261L60.9515 96.0326L59.0483 97.9358L54.2903 101.742C53.9029 102.339 53.5837 102.977 53.3387 103.645C53.3387 103.645 51.4354 103.645 50.4838 104.597L49.5322 107.452Z" fill="#F4EFC8"/>
<path d="M63.8066 105.547L62.855 107.45L60.9518 98.8859L61.9034 93.1763C62.855 91.2731 65.7098 90.3215 65.7098 88.4182C64.7582 85.5634 62.855 84.6118 60.0001 85.5634L56.1937 91.2731L52.3873 93.1763V96.0311L50.4841 98.8859C48.5808 101.741 45.726 105.547 44.7744 109.354L45.726 104.596L47.6292 96.9827L48.5808 91.2731L51.4357 81.757L57.1453 72.2409L62.855 66.5312H67.613L68.5646 75.0957L71.4194 90.3215L78.0807 98.8859L67.613 105.547H63.8066Z" fill="#EBCC73"/>
<path d="M66.6619 108.402H64.7587L65.7103 107.451C65.7103 107.198 65.61 106.956 65.4316 106.778C65.2531 106.599 65.0111 106.499 64.7587 106.499V107.451L63.8071 106.499H64.7587C64.1275 106.408 63.4866 106.408 62.8555 106.499L64.7587 104.596H65.7103L64.7587 103.644V101.741L63.8071 99.8377L64.7587 97.9345L65.7103 96.9829L67.6135 96.0312H69.5167V96.9829H72.3715L77.1296 97.9345L78.0812 100.789L70.4683 107.451L67.6135 108.402H66.6619Z" fill="#E5C66B"/>
<path d="M77.1288 97.9367L74.274 99.8399L75.2256 100.791L72.3708 103.646C71.637 104.528 70.999 105.485 70.4676 106.501L66.6611 108.404L73.3224 106.501L74.274 108.404L79.9836 106.501L83.7901 102.695L87.5965 98.8883C88.1889 98.4932 88.8282 98.1735 89.4997 97.9367L90.4513 96.9851C90.5349 97.1297 90.5788 97.2938 90.5788 97.4609C90.5788 97.6279 90.5349 97.792 90.4513 97.9367L96.161 96.0334V95.0818L97.1126 96.0334L98.0642 94.1302L99.9674 88.4206V82.7109H99.0158L85.6933 88.4206L78.0804 96.0334L77.1288 97.9367Z" fill="#E6BD62"/>
<path d="M113.291 70.3381L116.145 69.3865L114.242 72.2413L112.339 76.0478L110.436 81.7574L111.387 80.8058L110.436 82.709L107.581 86.5155L101.871 90.3219L97.1133 96.9831L98.0649 92.2251V87.4671L100.92 81.7574L105.678 67.4833L111.387 65.5801L113.291 70.3381Z" fill="#B6933F"/>
<path d="M109.484 66.5334L106.629 72.2431V77.9527C107.038 76.8687 107.689 75.8923 108.532 75.0979L113.29 72.2431L117.097 68.4367L114.242 67.4851L119.951 63.6786L126.613 59.8722H123.758L126.613 57.0174C128.516 55.1142 125.661 53.2109 125.661 53.2109L114.242 59.8722L109.484 66.5334Z" fill="#C49937"/>
<path d="M79.0322 61.7755V59.8723L81.8871 54.1626L85.6935 45.5981V33.2272L84.7419 25.6144L85.6935 20.8563V19.9047L86.6451 18.9531L89.4999 19.9047L93.3063 25.6144V35.1305L89.4999 51.3078L79.0322 62.7271V61.7755Z" fill="#DFC068"/>
<path d="M86.6452 18L84.7419 25.6129L83.7903 39.887L82.8387 47.4998L81.8871 54.1611L78.0807 58.9191C76.1137 60.5875 73.8554 61.8779 71.4194 62.7256C70.4678 62.7256 65.7098 62.7256 63.8066 64.6288C63.8066 64.6288 61.9034 64.6288 60.9517 66.532C57.4348 69.7937 54.5337 73.6618 52.3873 77.9513C48.5808 85.5642 44.7744 106.5 44.7744 106.5L45.726 104.596L47.6292 99.8383C49.5325 96.0319 48.5808 92.2254 51.4357 86.5158L55.2421 77.9513C58.0969 73.1933 60.9517 69.3868 63.8066 67.4836C68.5646 64.6288 74.2743 63.6772 74.2743 63.6772L79.9839 59.8708L81.8871 56.0643C83.7903 52.2579 85.6936 49.4031 86.6452 43.6934C87.5968 37.0322 85.6936 31.3225 85.6936 27.5161L86.6452 18.9516V18Z" fill="#A88F33"/>
<path d="M86.6455 52.2586L90.4519 39.8877L91.4035 37.0328V26.5652L87.5971 20.8555L86.6455 18.9523L88.5487 18.0007C89.4282 17.9881 90.3014 18.1498 91.1181 18.4764C91.9347 18.8031 92.6786 19.2882 93.3068 19.9039L96.1616 28.4684L97.1132 37.0328L100.92 47.5005L86.6455 52.2586Z" fill="#C99E3D"/>
<path d="M110.436 45.5981H109.484C109.533 45.9741 109.469 46.3561 109.299 46.6952C109.13 47.0343 108.863 47.315 108.533 47.5014H99.0166C99.0166 47.5014 95.2102 46.5498 94.2586 41.7917V30.3724L92.3554 23.7112V20.8563H91.4038L90.4521 18.9531L94.2586 20.8563L97.1134 23.7112L100.92 28.4692L104.726 38.9369L105.678 40.8401L110.436 45.5981Z" fill="#B58634"/>
<path d="M97.1133 23.7109C98.2005 25.8708 99.1539 28.0954 99.9681 30.3722L103.775 37.0334L100.92 28.469L97.1133 23.7109Z" fill="#A88F33"/>
<path d="M82.8385 58.918L76.1773 61.7728L72.3709 63.676C69.2743 64.8632 66.0934 65.8174 62.8548 66.5308L63.8064 67.4824V68.434C63.8064 69.3857 59.9999 72.2405 60.9516 81.7566L62.8548 80.805L63.8064 81.7566L65.7096 79.8533C65.7096 80.805 65.7096 86.5146 68.5644 90.321L71.4192 86.5146L72.3709 80.805L74.2741 76.0469L83.7901 63.676L82.8385 58.918Z" fill="#E6C367"/>
<path d="M74.274 77.9515C73.7195 78.4083 73.0688 78.7336 72.3707 78.9031C72.1702 78.0888 72.1515 77.2403 72.316 76.4179C72.4804 75.5956 72.824 74.8196 73.3223 74.145L79.032 67.4838C79.9836 65.5806 79.032 62.7257 84.7416 57.9677L91.4029 51.3064L99.9674 47.5L110.435 51.3064L104.725 71.2902L100.919 80.8063L85.6933 77.9515H74.274Z" fill="#DCBA5A"/>
<path d="M79.9844 72.2405L81.8876 70.3373V68.434L86.6456 65.5792C88.5488 62.7244 91.4037 58.918 94.2585 58.918C97.1133 58.918 98.0649 64.6276 98.0649 66.5308L99.0165 74.1437C99.9681 76.0469 92.3553 83.6598 92.3553 83.6598L86.6456 87.4662L79.9844 72.2405Z" fill="#E9CE77"/>
<path d="M85.6934 93.178C85.6934 93.178 87.5966 90.3232 86.645 89.3716L88.5482 86.5167L92.3546 81.7587C95.2094 78.9039 97.1127 77.0007 97.1127 75.0974L98.0643 71.291L99.0159 72.2426C99.0159 72.2426 100.919 74.1458 100.919 77.9523C100.919 81.7587 99.0159 83.6619 99.0159 83.6619L97.1127 85.5651L94.2578 86.5167L92.3546 87.4684L87.5966 91.2748L85.6934 93.178Z" fill="#CDAE50"/>
<path d="M157.064 51.3074C154.34 50.1866 151.443 49.5428 148.5 49.4041L131.371 50.3557C124.71 50.3557 118.048 47.5009 109.484 47.5009C108.532 46.5493 104.726 42.7429 93.3066 50.3557C94.2582 50.3557 101.871 48.4525 103.774 52.259C106.629 55.1138 105.678 60.8234 105.678 61.775L101.871 72.2427L100.92 78.904C99.9679 80.8072 98.0647 82.7104 99.0163 84.6136L102.823 79.8556C104.726 76.0492 104.726 72.2427 107.581 69.3879L117.097 59.8718C119 57.9686 134.226 50.3557 150.403 57.9686C154.21 57.9686 157.064 51.3074 157.064 51.3074Z" fill="#D2A83E"/>
<path d="M99.9681 48.4501C99.6561 48.3695 99.3286 48.3695 99.0165 48.4501C99.0563 48.1341 99.0563 47.8144 99.0165 47.4985L93.3069 46.5469C89.5005 47.4985 86.6456 51.3049 85.694 53.2081C83.7908 55.1113 82.8392 58.9178 80.936 59.8694C80.7913 59.7859 80.6272 59.7419 80.4602 59.7419C80.2931 59.7419 80.129 59.7859 79.9844 59.8694V60.821H80.936L87.5972 56.063L97.1133 49.4017L99.9681 48.4501Z" fill="#C29637"/>
<path d="M172.29 32.2734L170.387 34.1767L164.677 40.8379L157.064 47.4992L151.354 55.112C150.824 55.9786 150.498 56.9551 150.403 57.9669L151.354 60.8217L153.258 62.7249C153.258 62.7249 155.161 63.6765 157.064 59.8701C158.574 57.5966 160.161 55.3749 161.822 53.2088L165.629 46.5476L168.483 40.8379L172.29 35.1283V32.2734Z" fill="#AC8132"/>
<path d="M177.048 28.4688L173.242 31.3236L169.436 36.0816H170.387L175.145 32.2752L177.048 29.4204V28.4688Z" fill="#A88F33"/>
<path d="M176.096 197.854L177.047 194.999C177.999 194.047 180.854 192.144 182.757 186.435L185.612 179.773C185.612 179.773 180.854 183.58 177.999 183.58L179.902 180.725L177.999 179.773L180.854 175.967L190.37 168.354L199.886 158.838L200.838 159.789L196.079 166.451L195.128 169.306L197.983 168.354C197.983 168.354 198.934 171.209 195.128 175.967L197.983 175.015C196.079 176.918 194.176 177.87 192.273 181.676C190.37 185.483 187.515 189.289 182.757 192.144L176.096 197.854Z" fill="#A67A2E"/>
<path d="M164.677 53.2077L162.774 59.869L161.822 61.7722V68.4334L160.87 67.4818L159.919 72.2399L158.967 66.5302V62.7238L158.016 65.5786L157.064 63.6754L156.112 64.627V59.869C156.719 58.1002 157.692 56.479 158.967 55.1109L164.677 46.5465L167.532 38.9336H170.386L166.58 46.5465L163.725 51.3045L159.919 58.9174L161.822 57.0141L164.677 53.2077Z" fill="#8C6228"/>
<path d="M177.049 27.5176C176.71 28.9138 176.059 30.2151 175.146 31.324L169.436 36.082C168.484 37.9853 165.63 42.7433 166.581 47.5013L170.388 41.7917L176.097 34.1788C176.703 32.6644 177.026 31.0517 177.049 29.4208V27.5176Z" fill="#CBA94C"/>
<path d="M219.871 169.304L218.919 164.546L217.967 159.788L217.016 158.836V155.03L216.064 151.223L215.113 149.32L214.161 146.465L213.209 144.562L214.161 143.611L213.209 142.659V140.756L212.258 141.707L211.306 136.949V134.095L207.5 122.675C206.782 121.124 206.147 119.536 205.596 117.917V115.062L204.645 116.014V112.208L202.742 108.401L201.79 100.788V96.0302L200.838 91.2722C200.433 88.6827 199.796 86.1348 198.935 83.6593L193.226 68.4336H194.177C197.22 76.7299 200.393 84.9782 203.693 93.1754L204.645 107.45L206.548 113.159L208.451 119.82C209.574 121.963 210.529 124.191 211.306 126.482V132.191L213.209 137.901L216.064 146.465C217.467 150.145 218.425 153.978 218.919 157.885L219.871 169.304Z" fill="#A88F33"/>
<path d="M177.049 27.5176V30.3724L176.097 32.2756C176.097 33.2272 177.049 34.1788 175.145 37.0337L174.194 38.9369C173.999 39.6253 173.676 40.2709 173.242 40.8401L178 38.9369C176.872 39.6942 175.903 40.6639 175.145 41.7917C175.777 41.8713 176.417 41.8713 177.049 41.7917L184.661 40.8401C187.516 40.8401 186.565 37.9853 186.565 37.9853L183.71 31.324L178 27.5176H177.049Z" fill="#BE9C44"/>
<path d="M191.322 76.0494C191.322 76.0494 188.467 73.1946 187.516 64.6301V43.6947L184.661 38.9367L183.709 34.1786L179.903 30.3722L177.048 27.5174C177.048 26.5658 178.951 23.7109 183.709 23.7109C189.419 23.7109 191.322 26.5658 192.274 28.469C192.274 29.4206 195.128 34.1786 196.08 42.7431L197.032 56.0656C196.645 59.5954 196.009 63.0934 195.128 66.5333C194.177 70.3397 193.225 74.1462 191.322 76.0494Z" fill="#A17C34"/>
<path d="M183.709 82.7083C184.333 82.8695 184.988 82.8695 185.612 82.7083C186.564 82.7083 189.419 82.7083 191.322 79.8535V83.6599L192.274 82.7083C193.225 83.6599 193.225 86.5148 190.37 92.2244L193.225 91.2728C193.225 92.2244 194.177 96.0309 192.274 97.9341C191.322 99.8373 189.419 98.8857 189.419 98.8857V96.9825C188.676 96.4661 188.032 95.8217 187.516 95.0792C185.612 93.176 182.758 90.3212 182.758 88.418C182.61 88.0446 182.542 87.6442 182.559 87.2429C182.577 86.8416 182.678 86.4485 182.858 86.0892C183.038 85.7299 183.291 85.4126 183.602 85.158C183.912 84.9034 184.273 84.7172 184.661 84.6116H183.709V82.7083Z" fill="#8C6228"/>
<path d="M167.532 56.0625L166.58 57.0141V55.1109L167.532 53.2077V54.1593L169.435 52.2561L171.338 50.3529L172.29 49.4013L174.193 47.4981L175.145 46.5465L177.048 45.5948L180.854 43.6916L183.709 41.7884L184.661 38.9336C185.612 38.9336 189.419 41.7884 191.322 47.4981C192.273 51.3045 190.37 57.0141 189.419 59.869L187.515 66.5302L180.854 72.2399C179.903 73.1915 177.999 75.0947 177.999 76.9979C177.999 78.9011 179.903 78.9011 179.903 79.8527H182.757C182.757 79.8527 182.757 81.756 177.999 81.756L177.048 82.7076L178.951 80.8043H176.096L177.048 79.8527L176.096 78.9011L175.145 80.8043L173.241 82.7076C172.29 81.756 172.29 79.8527 174.193 78.9011H172.29C172.199 78.27 172.199 77.629 172.29 76.9979L174.193 74.1431L180.854 62.7238L182.757 53.2077L167.532 56.0625Z" fill="#92723A"/>
<path d="M166.581 57.0165L167.532 57.9681L166.581 58.9197L165.629 59.8713L164.678 60.8229L163.726 64.6294L162.774 66.5326L161.823 68.4358C161.761 69.3864 161.761 70.34 161.823 71.2906V70.339C161.628 71.0274 161.305 71.6731 160.871 72.2422L163.726 70.339L171.339 64.6294H168.484C169.436 64.6294 174.194 58.9197 177.048 57.9681L175.145 57.0165L170.387 57.9681L169.436 55.1133L166.581 57.0165Z" fill="#B18E3E"/>
<path d="M173.242 76.0465L172.29 77.9497L171.339 76.9981C170.387 75.0949 169.435 73.1917 166.581 74.1433V72.2401L170.387 69.3852L172.29 65.5788L175.145 63.6756C176.097 62.724 178 61.7724 178 59.8692L174.193 60.8208L176.097 58.9176V57.9659H175.145L173.242 58.9176L172.29 59.8692V58.9176L170.387 59.8692L165.629 61.7724L166.581 60.8208C167.132 59.8164 167.769 58.8612 168.484 57.9659L169.435 55.1111L172.29 53.2079L181.806 51.3047L187.516 52.2563L186.564 56.0627L183.709 62.724L179.903 69.3852L177.048 73.1917L173.242 76.0465Z" fill="#543E26"/>
<path d="M188.467 57.9677L183.709 63.6773L190.37 51.3064V47.5L188.467 51.3064H187.515V50.3548H181.806L174.193 52.258L170.387 53.2096L169.435 55.1129L167.532 56.0645L166.58 57.0161L168.483 56.0645C169.724 55.3758 170.994 54.7408 172.29 54.1613L177.999 52.258H187.515L186.564 53.2096V54.1613L183.709 60.8225L180.854 65.5806C180.854 66.5322 179.903 69.387 177.999 70.3386L176.096 73.1934L173.241 76.0482C175.426 75.2626 177.386 73.956 178.951 72.2418L183.709 67.4838L187.515 61.7741L188.467 57.9677Z" fill="#806031"/>
<path d="M111.387 91.2734L109.484 94.1283C108.532 95.0799 106.629 96.0315 106.629 97.9347L108.532 99.8379L107.581 102.693V106.499L108.532 109.354L110.435 110.306H111.387L112.339 106.499L113.29 102.693L116.145 96.0315L118.048 93.1767L115.193 91.2734H111.387Z" fill="#B6903C"/>
<path d="M116.145 95.082L114.242 96.0336L112.339 98.8885C111.387 98.8885 110.436 98.8885 111.387 99.8401L112.339 101.743L113.291 104.598L114.242 102.695L119 95.082H116.145Z" fill="#685026"/>
<path d="M130.419 78.9011V76.9978L127.564 75.0946L124.71 74.143V73.1914L121.855 74.143L119.952 75.0946L119 76.0462V75.0946L116.145 77.9494L113.29 82.7075L110.436 87.4655H111.387V92.2236H114.242C115.194 92.2236 114.242 95.0784 116.145 95.0784H119L124.71 92.2236L129.468 89.3687L132.323 83.6591L131.371 78.9011H130.419Z" fill="#D4B968"/>
<path d="M125.661 91.275V88.4202L129.468 86.517C129.468 86.2646 129.367 86.0225 129.189 85.8441C129.01 85.6656 128.768 85.5653 128.516 85.5653C129.047 85.0737 129.707 84.7436 130.419 84.6137L129.468 83.6621L126.613 84.6137L125.661 83.6621L127.564 82.7105L126.613 81.7589L130.419 79.8557V78.9041C131.371 78.9041 133.274 77.0009 134.226 77.9525V79.8557L138.032 76.0493L140.887 75.0977C141.838 75.0977 143.742 76.0493 143.742 79.8557V85.5653L144.693 92.2266L145.645 94.1298L144.693 95.0814V98.8879L143.742 99.8395L142.79 100.791H139.935V98.8879L134.226 95.0814L125.661 91.275Z" fill="#CCA849"/>
<path d="M115.193 104.597C115.193 104.597 117.097 107.452 125.661 107.452H131.371L138.984 101.742C141.838 97.936 140.887 96.9844 140.887 96.9844H133.274L117.097 104.597H115.193Z" fill="#585136"/>
<path d="M121.855 105.548C121.855 105.548 114.242 107.451 114.242 102.693C114.242 98.8863 119 94.1283 119.952 93.1767L123.758 91.2734H129.468L131.371 95.0799L130.42 101.741L120.903 105.548H121.855Z" fill="#252211"/>
<path d="M127.565 93.176C127.565 93.176 126.613 91.2727 123.758 93.176C119.952 95.0792 118.049 97.934 118.049 101.74C118.049 104.595 119.952 106.498 123.758 106.498L129.468 105.547L127.565 104.595V93.176Z" fill="#C3B378"/>
<path d="M126.613 93.1777L125.661 94.1293L122.806 96.0326L120.903 96.9842L119 102.694C119.952 103.645 121.855 105.549 127.564 104.597L126.613 93.1777Z" fill="#E6D89C"/>
<path d="M124.709 96.0289L123.758 99.8353C123.758 101.739 124.709 105.545 129.467 105.545C133.274 105.545 135.177 100.787 138.032 98.8837L140.887 96.9805L133.274 92.2225C128.516 89.3676 122.806 89.3676 119.951 93.1741L125.661 92.2225H128.516L124.709 96.0289Z" fill="#252211"/>
<path d="M131.371 98.8885V97.9369L133.274 98.8885V99.8401L131.371 98.8885ZM130.419 96.0336L131.371 95.082V96.0336L130.419 96.9852V96.0336Z" fill="#6F674D"/>
<path d="M72.3711 96.9816L76.1775 98.8848C78.0807 98.8848 80.9356 96.9816 81.8872 95.0784L83.7904 93.1751L84.742 92.2235L85.6936 90.3203L83.7904 92.2235L80.9356 93.1751L75.2259 96.9816H72.3711Z" fill="#AC924C"/>
<path d="M75.2256 81.7567L78.0804 80.8051L82.8384 79.8535L86.6449 80.8051L87.5965 85.5632L85.6933 90.3212L82.8384 91.2728L79.032 86.5148L75.2256 81.7567Z" fill="#9F8E57"/>
<path d="M71.4194 85.5643L70.4678 86.5159L71.4194 84.6127L74.2742 76.9999L75.2258 75.0966C74.9734 75.0966 74.7314 75.1969 74.5529 75.3754C74.3745 75.5538 74.2742 75.7959 74.2742 76.0483C75.0315 74.9204 76.0012 73.9508 77.129 73.1934C79.0322 72.2418 79.0322 71.2902 80.9355 72.2418L83.7903 73.1934L85.6935 72.2418L84.7419 74.145C84.7419 76.0483 80.9355 78.9031 80.9355 78.9031L74.2742 83.6611L71.4194 85.5643Z" fill="#EAC970"/>
<path d="M76.1777 80.8043H83.7906C83.8741 80.9489 83.9181 81.113 83.9181 81.2801C83.9181 81.4471 83.8741 81.6112 83.7906 81.7559V82.7075C83.6459 82.791 83.4818 82.835 83.3148 82.835C83.1478 82.835 82.9837 82.791 82.839 82.7075L83.7906 83.6591C83.7906 84.6107 84.7422 85.5623 85.6938 84.6107C85.6938 84.6107 86.6454 86.5139 83.7906 90.3203L82.839 91.272V93.1752C82.839 93.1752 86.6454 91.272 88.5486 87.4655C89.7115 83.4509 90.0354 79.2399 89.5002 75.0946C89.6067 74.4647 89.6067 73.8213 89.5002 73.1914H85.6938L80.9358 77.9494L76.1777 80.8043Z" fill="#D7BC6B"/>
<path d="M70.4688 86.5176L69.5172 89.3724C68.5656 91.2756 69.5172 94.1304 70.4688 95.0821C70.4688 95.0821 72.372 97.9369 74.2753 97.9369L76.1785 96.9853C76.8436 96.7335 77.4813 96.4147 78.0817 96.0337L79.9849 94.1304L74.2753 89.3724L71.4204 86.5176H70.4688Z" fill="#585136"/>
<path d="M76.1776 95.0788H78.0808C79.0325 94.1272 74.2744 89.3691 74.2744 89.3691V95.0788H76.1776Z" fill="#453A25"/>
<path d="M71.4194 86.515L70.4678 88.4182V93.1762C71.4194 94.1278 72.371 96.0311 74.2742 96.0311L77.129 95.0795L75.2258 94.1278L74.2742 91.273L75.2258 90.3214V87.4666L77.129 83.6602H75.2258L71.4194 85.5634V86.515Z" fill="#84754B"/>
<path d="M70.4678 87.4659L74.2742 84.6111L77.129 83.6595L76.1774 86.5143L74.2742 88.4176V89.3692C74.2742 89.3692 74.2742 92.224 76.1774 93.1756C77.129 95.0788 78.0806 95.0788 79.0322 95.0788L82.8387 92.224C83.7903 89.3692 84.7419 87.4659 82.8387 84.6111C82.3219 83.5183 81.5175 82.5867 80.5117 81.9161C79.5059 81.2456 78.3365 80.8614 77.129 80.8047C77.129 80.8047 72.371 81.7563 70.4678 87.4659Z" fill="#252211"/>
<path d="M124.709 96.9846V94.1298C125.685 93.0286 127.049 92.3467 128.515 92.2266L129.467 93.1782L127.564 96.033C126.612 96.9846 125.661 97.9362 124.709 96.9846Z" fill="#F7F7E7"/>
<path d="M81.8876 84.6133L82.8392 86.5165L81.8876 88.4197L79.9844 86.5165L80.936 85.5649L81.8876 84.6133Z" fill="#F8F6DE"/>
<path d="M73.3233 85.5625L71.42 87.4657C70.6632 88.5823 70.326 89.9308 70.4684 91.2721L71.42 93.1754L73.3233 94.127L74.2749 92.2238L75.2265 88.4173C75.2265 86.5141 73.3233 85.5625 73.3233 85.5625Z" fill="#D4C38B"/>
<path d="M73.3223 85.5634L74.2739 87.4666V88.4182H75.2255L77.1287 86.515L78.0803 87.4666L79.0319 86.515L77.1287 85.5634V83.6602L75.2255 84.6118L73.3223 85.5634Z" fill="#E2D59D"/>
<path d="M107.581 130.291L110.436 129.34L111.387 130.291L113.29 131.243L112.339 133.146V134.098C112.339 134.098 109.484 138.856 115.194 143.614C113.91 144.217 112.64 144.852 111.387 145.517L114.242 146.469L115.194 147.42L116.145 148.372L114.242 147.42L108.532 148.372L99.9679 149.324V148.372L96.1615 147.42L93.3066 143.614L98.0647 142.662V140.759L99.0163 138.856L100.92 136.953L103.774 135.049L106.629 134.098V132.195L107.581 130.291Z" fill="#CBAC5A"/>
<path d="M98.0645 130.29H99.9677L110.435 129.339C118.214 129.245 125.947 130.534 133.274 133.145H132.322L124.709 131.242L114.242 130.29H107.581L99.0161 131.242L98.0645 130.29Z" fill="#D6BC6F"/>
<path d="M115.194 147.418C115.194 147.418 119.952 149.321 120.903 152.176C122.807 155.031 120.903 155.982 120.903 155.982L122.807 156.934L116.145 161.692L111.387 162.644L105.678 163.595V165.499L107.581 166.45L103.775 167.402L99.0165 168.353H101.871L105.678 169.305L102.823 170.257L96.1616 172.16L98.0649 173.111L95.21 174.063H96.1616L93.3068 176.918L83.7907 179.773C79.0327 177.869 78.0811 172.16 77.1295 172.16H72.3714L74.2747 170.257L69.5166 167.402C68.9332 166.417 68.2979 165.464 67.6134 164.547L64.7586 159.789L60.9521 151.224H61.9038L78.0811 155.982L104.726 156.934L112.339 147.418H115.194Z" fill="#DFC677"/>
<path d="M74.2744 162.644L75.226 163.596L77.1292 164.547H79.0325L81.8873 165.499L83.7905 164.547H85.6937L87.5969 163.596C88.5485 164.547 89.5001 166.451 96.1614 163.596L105.677 160.741H107.581L105.677 156.934L98.0646 155.031H94.2582L81.8873 156.934L75.226 160.741L74.2744 162.644Z" fill="#C4A859"/>
<path d="M70.4678 158.839L72.371 160.742C73.0847 161.292 73.7243 161.932 74.2742 162.645C74.2742 162.645 75.2258 162.645 75.2258 161.694L76.1774 160.742H82.8387L83.7903 157.887C84.3689 157.553 85.0253 157.377 85.6935 157.377C86.3617 157.377 87.0181 157.553 87.5967 157.887L88.5483 158.839H90.4515L92.3548 159.79L93.3064 158.839L95.2096 156.936L96.1612 155.984L99.016 156.936H98.0644L99.016 157.887L99.9676 158.839H103.774C105.183 159.143 106.492 159.797 107.58 160.742C107.58 159.79 107.58 159.79 107.58 160.742L108.532 159.79H109.484L110.435 158.839L112.339 157.887L111.387 156.936L112.339 155.032L115.193 152.178C115.193 149.323 113.29 148.371 113.29 148.371L99.9676 152.178H83.7903L70.4678 158.839Z" fill="#927D49"/>
<path d="M59.0497 120.773L58.0981 122.676V124.58C57.1465 125.531 55.2433 135.047 56.1949 137.902L60.0013 144.563V145.515L60.9529 150.273L61.9045 151.225L65.711 155.031C67.6142 155.983 68.5658 158.837 71.4206 159.789L75.2271 157.886L79.0335 155.983L81.8883 155.031H86.6464L93.3076 155.983L98.0656 155.031L107.582 152.176L111.388 151.225L116.146 149.321C115.195 148.37 114.243 147.418 110.437 147.418C105.679 147.418 99.9689 150.273 97.114 150.273H89.5012L86.6464 148.37C86.6464 148.37 83.7915 146.467 81.8883 140.757C80.9367 135.047 81.8883 130.289 85.6947 126.483L86.6464 124.58C86.6464 124.58 88.5496 121.725 87.598 118.87C87.598 116.015 82.8399 116.967 82.8399 116.967L59.0497 120.773Z" fill="#6E6342"/>
<path d="M62.8559 130.291L61.9043 131.243L63.8075 135.049C65.7107 136.001 64.7591 137.904 64.7591 137.904L67.6139 136.952C69.5172 136.001 70.4688 137.904 70.4688 137.904L71.4204 136.952H73.3236L76.1784 139.807H79.0332L79.9848 137.904L79.0332 136.952L78.0816 135.049L79.0332 131.243L75.2268 132.194L62.8559 130.291Z" fill="#39331F"/>
<path d="M67.6133 139.806V133.145H68.5649C68.5649 133.145 69.5165 137.903 67.6133 139.806Z" fill="#292311"/>
<path d="M59.0487 116.966L60.0003 116.015C59.0487 116.966 57.1455 119.821 59.0487 125.531C60.9519 130.289 64.7584 134.095 69.5164 134.095C74.2744 134.095 77.1293 132.192 79.9841 128.386L83.7905 123.628C84.7421 121.724 86.6454 121.724 86.6454 119.821C86.6454 116.015 82.8389 114.111 77.1293 112.208C72.7963 110.824 68.1397 110.824 63.8068 112.208C60.9519 113.16 60.0003 115.063 59.0487 116.966Z" fill="#252211"/>
<path d="M77.1289 141.708H78.0805L79.0321 139.805L79.9837 140.756L79.0321 141.708H77.1289Z" fill="#3F3824"/>
<path d="M75.2256 134.098L76.1772 135.049H79.032L79.9836 136.001H77.1288L75.2256 134.098Z" fill="#2D2815"/>
<path d="M84.7425 135.048L82.8393 134.096H81.8877L82.8393 135.048V135.999H83.7909L84.7425 135.048Z" fill="#82764F"/>
<path d="M74.2744 138.854L76.1776 137.902L78.0808 138.854L77.1292 139.806L74.2744 138.854Z" fill="#2D2816"/>
<path d="M83.7904 133.143L80.9355 134.095V132.191H82.8388C83.0911 132.191 83.3332 132.292 83.5117 132.47C83.6901 132.649 83.7904 132.891 83.7904 133.143Z" fill="#574F35"/>
<path d="M86.6455 134.095V133.143H87.5971V134.095L86.6455 135.047V134.095ZM90.4519 131.24H91.4035V133.143C90.9699 132.574 90.6471 131.929 90.4519 131.24Z" fill="#82764F"/>
<path d="M81.8877 129.337H84.7425L85.6941 130.288H84.7425V131.24C83.6723 130.804 82.7012 130.157 81.8877 129.337ZM84.7425 126.482C84.826 126.337 84.87 126.173 84.87 126.006C84.87 125.839 84.826 125.675 84.7425 125.53L83.7909 126.482L84.7425 128.385L85.6941 130.288C85.8388 130.372 86.0029 130.416 86.1699 130.416C86.337 130.416 86.5011 130.372 86.6457 130.288V123.627H85.6941C85.3056 124.553 84.9875 125.508 84.7425 126.482Z" fill="#585136"/>
<path d="M82.8388 136.949H81.8872L80.9355 138.852C81.0802 138.936 81.2443 138.98 81.4114 138.98C81.5784 138.98 81.7425 138.936 81.8872 138.852L82.8388 136.949Z" fill="#574F35"/>
<path d="M84.7426 138.856L83.791 137.904C83.9357 137.821 84.0998 137.777 84.2668 137.777C84.4339 137.777 84.598 137.821 84.7426 137.904L85.6942 138.856L84.7426 139.808V138.856ZM88.5491 137.904H87.5974H89.5007L90.4523 138.856H89.5007L88.5491 137.904ZM93.3071 136.953V137.904H90.4523L91.4039 136.953C91.5485 136.869 91.7126 136.825 91.8797 136.825C92.0467 136.825 92.2108 136.869 92.3555 136.953H94.2587H93.3071ZM95.2103 130.291L94.2587 131.243V129.34H96.1619L95.2103 130.291ZM90.4523 143.614H89.5007H91.4039V142.662C91.2592 142.579 91.0951 142.535 90.9281 142.535C90.761 142.535 90.5969 142.579 90.4523 142.662H89.5007L90.4523 143.614ZM87.5974 145.517H88.5491V146.469H87.5974V145.517ZM85.6942 142.662L86.6458 141.711H87.5974V142.662L86.6458 143.614C86.3299 143.654 86.0102 143.654 85.6942 143.614V142.662Z" fill="#82764F"/>
<path d="M83.791 141.709H84.7426L83.791 142.661H82.8394C82.7559 142.516 82.7119 142.352 82.7119 142.185C82.7119 142.018 82.7559 141.854 82.8394 141.709H83.791Z" fill="#585136"/>
<path d="M82.8392 141.709L81.8876 142.661L80.936 144.564V143.612L79.9844 144.564L82.8392 146.467H84.7424L82.8392 144.564V143.612L83.7908 142.661C83.5065 142.312 83.1877 141.993 82.8392 141.709Z" fill="#574F35"/>
<path d="M59.0488 143.615C60.0004 143.615 62.8553 141.711 66.6617 142.663L74.2746 143.615L87.5971 148.373L90.4519 149.324L94.2583 151.227L99.968 150.276L110.436 148.373H114.242C114.242 148.373 111.387 151.227 103.774 152.179H95.2099C93.5975 152.013 92.0043 151.694 90.4519 151.227L83.7906 149.324L76.1778 147.421C70.3572 146.717 64.6199 145.442 59.0488 143.615Z" fill="#252211"/>
<path d="M45.7271 134.097L40.9691 138.855L35.2595 142.662C33.4036 144 31.4991 145.27 29.5498 146.468C31.3863 144.804 33.2911 143.217 35.2595 141.71L40.0175 137.904L45.7271 134.097ZM41.9207 145.517L45.7271 141.71L53.34 134.097L41.9207 145.517ZM44.7755 142.662L46.6787 140.759L47.6304 139.807L50.4852 136.952C51.0714 136.271 51.7076 135.635 52.3884 135.049L53.34 134.097V135.049L52.3884 136.001L50.4852 136.952L47.6304 139.807L44.7755 142.662ZM55.2432 140.759C54.391 142.402 53.4376 143.991 52.3884 145.517L46.6787 155.984L55.2432 140.759Z" fill="#CFB66C"/>
<path d="M55.2422 140.756L54.2906 142.659C53.7871 143.989 53.1494 145.265 52.3874 146.466L51.4358 148.369L49.5326 152.175L46.6777 155.982L48.581 152.175C49.614 150.314 50.5665 148.409 51.4358 146.466L52.3874 144.562L53.339 142.659L55.2422 140.756Z" fill="#CFB66C"/>
<path d="M62.8552 157.887C62.8552 157.887 60.0004 160.742 60.952 164.548L62.8552 157.887Z" fill="#DEC270"/>
<path d="M85.6934 156.934L94.2578 173.111C92.8791 167.058 89.9245 161.477 85.6934 156.934Z" fill="#CBAF59"/>
<path d="M99.0156 169.305C101.83 174.237 104.371 179.32 106.628 184.53C106.628 181.676 105.677 175.014 99.0156 169.305Z" fill="#E3C677"/>
<path d="M139.935 181.677L143.741 177.871L147.548 175.967C149.451 174.064 149.451 173.113 152.306 172.161C156.112 170.258 153.257 167.403 153.257 167.403L155.161 166.451L157.064 163.597C157.064 160.742 156.112 155.984 154.209 154.08L163.725 152.177L168.483 150.274C168.483 150.274 166.58 147.419 169.435 144.564L176.096 136C174.193 136 171.338 135.048 163.725 137.903H164.677L158.015 140.758L151.354 147.419C147.548 149.322 144.693 148.371 141.838 150.274L138.032 153.129V154.08L135.177 156.935L136.129 157.887L133.274 158.839L138.032 162.645L137.08 165.5C138.032 166.451 138.983 167.403 143.741 168.355L135.177 169.306L127.564 168.355L129.467 169.306C128.516 170.258 124.709 169.306 123.758 171.209C121.854 173.113 120.903 175.967 121.854 177.871C120.903 178.822 119.951 178.822 119.951 180.725L123.758 182.629C124.709 183.58 124.709 184.532 126.612 183.58L130.419 182.629L132.322 183.58L135.177 182.629V184.532L139.935 181.677Z" fill="#ECD592"/>
<path d="M129 2.5C162.55 2.5 194.726 15.8274 218.449 39.5508C242.173 63.2741 255.5 95.4501 255.5 129C255.5 162.55 242.173 194.726 218.449 218.449C194.726 242.173 162.55 255.5 129 255.5C95.4501 255.5 63.2741 242.173 39.5508 218.449C15.8274 194.726 2.5 162.55 2.5 129C2.5 95.4501 15.8274 63.2741 39.5508 39.5508C63.2741 15.8274 95.4501 2.5 129 2.5Z" stroke="#8F7A1B" stroke-width="5"/>
<path fill-rule="evenodd" clip-rule="evenodd" d="M136 61C173.003 61 203 90.9969 203 128V139C203 176.003 173.003 206 136 206H59V174H79V93H59V61H136ZM118 169C118 171.761 120.239 174 123 174C142.882 174 159 157.882 159 138V129C159 109.118 142.882 93 123 93C120.239 93 118 95.2386 118 98V169Z" fill="white" fill-opacity="0.9"/>
</g>
</svg>
