<svg width="258" height="258" viewBox="0 0 258 258" fill="none" xmlns="http://www.w3.org/2000/svg">
<rect width="258" height="258" rx="60" fill="#B7A235"/>
<mask id="mask0_11_150" style="mask-type:alpha" maskUnits="userSpaceOnUse" x="0" y="0" width="258" height="258">
<path d="M129 0C163.213 0 196.025 13.591 220.217 37.7832C244.409 61.9754 258 94.7871 258 129C258 163.213 244.409 196.025 220.217 220.217C196.025 244.409 163.213 258 129 258C94.7871 258 61.9754 244.409 37.7832 220.217C13.591 196.025 0 163.213 0 129C0 94.7871 13.591 61.9754 37.7832 37.7832C61.9754 13.591 94.7871 0 129 0Z" fill="#3B00B9"/>
</mask>
<g mask="url(#mask0_11_150)">
<path d="M129 0C163.213 0 196.025 13.591 220.217 37.7832C244.409 61.9754 258 94.7871 258 129C258 163.213 244.409 196.025 220.217 220.217C196.025 244.409 163.213 258 129 258C94.7871 258 61.9754 244.409 37.7832 220.217C13.591 196.025 0 163.213 0 129C0 94.7871 13.591 61.9754 37.7832 37.7832C61.9754 13.591 94.7871 0 129 0Z" fill="#B7A235"/>
<path d="M55.2425 115.064L53.3393 113.161C52.3928 112.519 51.4411 111.885 50.4844 111.258L48.5812 109.355L47.6296 107.451L48.5812 108.403L50.4844 111.258C51.4525 111.867 52.4044 112.502 53.3393 113.161C53.9612 113.808 54.5957 114.442 55.2425 115.064ZM16.2266 115.064L32.4039 116.967L52.3877 119.822L16.2266 115.064ZM16.2266 115.064L24.791 116.016H32.4039L34.3071 116.967H32.4039L29.5491 116.016H24.791C21.9312 115.746 19.0759 115.429 16.2266 115.064ZM51.4361 122.677L36.2103 126.484L20.033 131.242L51.4361 122.677Z" fill="#CFB66C"/>
<path d="M21.936 137.904C28.3051 135.105 34.6494 132.25 40.9681 129.339C43.1593 128.321 45.3807 127.369 47.6294 126.485L21.936 137.904Z" fill="#CFB66C"/>
<path d="M21.936 137.903L25.7425 136.952L28.5973 135.048L35.2585 132.194L40.9682 129.339L44.7746 127.435H45.7262L47.6295 126.484L40.9682 129.339L35.2585 132.194L28.5973 135.048L21.936 137.903ZM23.8393 143.613L40.9682 134.097L51.4359 128.387L23.8393 143.613Z" fill="#CFB66C"/>
<path d="M30.4996 139.806L33.3545 137.903L37.1609 135.999L40.0157 133.145H41.9189L43.8221 132.193L51.435 128.386L44.7738 132.193L40.9673 134.096L37.1609 135.999C36.2208 136.651 35.269 137.285 34.3061 137.903L30.4996 139.806ZM51.435 130.29L40.0157 138.854L29.548 146.467L51.435 130.29Z" fill="#CFB66C"/>
<path d="M98.0647 180.725L93.3066 173.112L96.1615 162.644L113.29 155.983L105.678 140.757L109.484 125.532L116.145 112.209L138.032 108.403L153.258 94.1287L186.564 96.9835L193.225 132.193L180.855 177.87L173.242 200.709L143.742 201.66L130.419 193.096L114.242 186.435L98.0647 180.725Z" fill="#E2CC85"/>
<path d="M149.451 180.727C149.451 180.727 145.644 182.63 138.031 181.678C136.128 178.824 121.854 177.872 121.854 177.872L117.096 178.824L108.532 180.727C105.677 180.727 102.822 177.872 100.919 176.92L96.1607 174.066H90.4511L78.0802 168.356L59.9996 150.275L54.29 157.888L53.3384 167.404L59.048 179.775L74.2738 193.098L103.774 200.711L121.854 195.953L143.741 186.436L149.451 180.727Z" fill="#F1D789"/>
<path d="M42.8719 114.112L46.6783 102.693L51.4364 95.0803L65.7105 94.1287L61.9041 106.5L49.5332 128.387L54.2912 147.419L45.7267 152.177L42.8719 148.37L40.9687 138.854L40.0171 127.435L42.8719 114.112Z" fill="#F4ECB4"/>
<path d="M59.0478 179.772L56.193 175.966V170.256L54.2898 165.498C54.2898 163.595 54.2898 162.643 56.193 161.692L57.1446 157.885L59.0478 158.837V157.885L59.9994 159.788C59.9994 157.885 59.0478 153.127 60.9511 152.176C61.9027 150.272 64.7575 157.885 64.7575 157.885L62.8543 147.418L59.0478 136.95L52.3866 127.434L51.435 116.966L47.6285 125.531C46.6769 128.385 48.5801 131.24 48.5801 135.047V139.805C49.5318 141.708 51.435 144.563 50.4834 147.418C50.4834 149.321 47.6285 147.418 47.6285 147.418L45.7253 150.272C45.7253 149.243 45.3914 148.241 44.7737 147.418V148.369L43.8221 145.514L41.9189 137.901C41.5858 139.166 41.2685 140.435 40.9673 141.708L41.9189 146.466L42.8705 153.127L44.7737 156.934L46.6769 162.643L47.6285 165.498L49.5318 168.353L50.4834 174.063L55.2414 179.772L57.1446 180.724L59.0478 179.772Z" fill="#F3E19D"/>
<path d="M45.7269 104.596C45.7269 104.596 41.9204 110.305 40.9688 116.966C40.0172 122.676 39.0656 129.337 40.0172 136.95C40.3727 142.743 41.3294 148.484 42.872 154.079L48.5817 168.353V167.402C48.1559 166.163 47.8375 164.889 47.6301 163.595L45.7269 156.934L43.8236 153.128L42.872 148.37L41.9204 143.612L40.9688 135.999V126.483L44.7753 113.16L46.6785 104.596C48.5817 102.692 49.5333 99.8375 49.5333 97.9343L45.7269 104.596Z" fill="#F2E8B0"/>
<path d="M61.9035 102.692L59.0487 103.644L57.1455 107.45L55.2423 112.208L51.4358 116.966L50.4842 125.531C49.5326 127.434 51.4358 130.289 51.4358 130.289H52.3874L53.339 132.192C54.2907 134.095 55.2423 129.337 55.2423 129.337L59.0487 114.111L66.6616 109.353V105.547L61.9035 102.692Z" fill="#F5EEC0"/>
<path d="M65.7093 109.353L60.9512 110.305L59.048 112.208C58.0964 113.16 56.1932 114.111 56.1932 116.015C55.2416 116.966 54.29 118.869 54.29 122.676L53.3384 127.434V131.24C53.3384 134.095 55.2416 135.047 56.1932 136.95L59.9996 135.047L63.8061 118.869L73.3221 113.16L67.6125 107.45L65.7093 109.353Z" fill="#E6DB9D"/>
<path d="M42.8715 218.789V217.838L43.8231 205.467L44.7747 199.757V194.047L46.678 187.386L45.7264 183.58L44.7747 182.628C44.7747 182.628 48.5812 178.822 48.5812 167.402H49.5328L51.436 173.112L52.3876 175.015L58.0973 185.483L65.7101 193.096L76.1778 199.757L82.8391 207.37L83.7907 226.402L75.2262 237.821L73.323 240.676C61.7986 235.028 51.208 227.646 41.9199 218.789H42.8715Z" fill="#E5CB7A"/>
<path d="M69.5171 236.87L71.4203 233.064L72.3719 234.967C73.3059 233.456 74.5543 232.165 76.0321 231.179C77.51 230.194 79.1826 229.539 80.9364 229.258C86.646 228.306 87.5976 223.548 87.5976 223.548L99.9685 213.08L113.291 199.758L130.42 194.048L138.984 192.145L138.033 194.048L146.597 192.145H149.452L151.355 195.951L156.113 194.048L162.775 197.855C166.581 197.855 167.533 195.951 170.388 194.048L174.194 191.193L205.597 180.726L215.113 181.677L217.016 192.145L216.065 218.79L215.113 219.742L171.339 242.58L109.485 252.096C95.4984 249.973 81.9799 245.467 69.5171 238.774V236.87Z" fill="#D8C173"/>
<path d="M45.7256 222.595L47.6288 217.837L48.5804 224.498L45.7256 222.595Z" fill="#F1D789"/>
<path d="M91.4038 248.29L99.0167 245.435L99.9683 246.386V247.338L102.823 246.386L104.726 249.241L109.484 247.338L114.242 244.483L115.194 246.386C117.097 245.435 120.904 239.725 124.71 239.725L131.371 232.112C135.178 229.257 138.033 229.257 140.887 229.257C142.233 227.714 143.845 226.425 145.645 225.451H149.452L156.113 220.693C157.449 220.621 158.775 220.952 159.92 221.645C159.92 221.645 168.484 214.032 174.194 211.177C173.242 211.177 173.242 208.322 179.903 202.612V204.516L183.71 201.661L191.323 197.854C194.177 196.903 197.984 198.806 197.984 198.806L198.936 197.854H200.839V202.612L202.742 203.564L200.839 207.37L203.694 209.274C202.682 210.163 201.728 211.117 200.839 212.128L197.984 218.79L196.081 223.548L192.274 228.306L200.839 225.451L193.226 235.919C178.102 245.085 161.202 250.929 143.646 253.062C126.091 255.195 108.282 253.568 91.4038 248.29Z" fill="#E0CD81"/>
<path d="M65.7099 108.402L63.8066 109.354L66.6615 110.306L68.5647 112.209L81.8872 118.87L91.4033 117.918L94.2581 114.112L88.5484 108.402L92.3549 96.0315L86.6452 96.9831L73.3227 104.596L66.6615 107.451L65.7099 108.402Z" fill="#DFC57C"/>
<path d="M85.6934 113.163C85.8797 113.493 86.1605 113.76 86.4996 113.929C86.8386 114.099 87.2206 114.163 87.5966 114.114L91.403 115.066L96.161 121.727L104.726 124.582V115.066L96.161 108.405L85.6934 112.211V113.163Z" fill="#E5CC7C"/>
<path d="M84.7424 116.016H87.5972L94.2585 114.113C96.1617 115.064 95.2101 117.919 97.1133 119.822C99.0165 120.774 100.92 120.774 101.871 122.677L107.581 123.629L109.484 132.193L102.823 140.758L100.92 151.226H91.4037L83.7908 148.371L79.9844 137.903L81.8876 128.387L84.7424 116.016Z" fill="#D2C281"/>
<path d="M101.871 116.967H102.823L101.871 118.87V122.677L102.823 124.58C103.774 125.532 103.774 126.483 105.678 126.483C105.317 126.754 104.996 127.074 104.726 127.435C104.726 127.435 106.629 128.386 107.581 130.29L110.436 129.338H112.339L111.387 126.483L113.29 124.58V121.725L114.242 116.967L113.29 109.354L109.484 107.451L106.629 103.645L103.774 109.354L101.871 111.257V116.967Z" fill="#E2C270"/>
<path d="M111.387 110.308L112.338 114.114V113.163V116.969L113.29 117.921V121.727C114.205 120.148 115.517 118.836 117.096 117.921L119.951 116.969L124.709 117.921C129.467 117.921 134.225 114.114 137.08 113.163L142.79 110.308L145.645 106.501C147.548 104.598 148.499 101.743 150.403 101.743H148.499L149.451 100.792L152.306 99.8401H158.016L159.919 98.8885C159.919 98.8885 160.87 100.792 164.677 100.792H183.709L177.999 85.566L159.919 69.3887L148.499 77.9531L131.37 95.0821L114.242 100.792L111.387 104.598V110.308Z" fill="#CCB360"/>
<path d="M148.501 101.741L149.452 100.79L152.307 99.8382H159.92L164.678 100.79H183.71L180.855 94.1285L178 89.3705L170.388 80.806L160.872 75.0964L158.017 74.1448L149.452 78.9028L141.839 98.8866V103.645L146.597 105.548L150.404 101.741H148.501Z" fill="#D5B457"/>
<path d="M148.5 103.646L146.597 102.694L144.694 100.791L142.791 101.743L141.839 100.791L137.081 104.598C135.178 106.501 132.323 110.307 130.42 110.307L122.807 112.211C121.421 112.578 120.126 113.225 119 114.114L119.952 115.065H118.049L119 116.969C119.316 116.929 119.636 116.929 119.952 116.969L124.71 117.92C129.468 117.92 134.226 114.114 137.081 113.162L142.791 110.307L145.645 106.501C146.523 105.478 147.478 104.524 148.5 103.646Z" fill="#D2B257"/>
<path d="M79.9838 209.272L76.1774 203.563L73.3225 200.708L69.5161 196.901C66.6613 194.998 62.8548 194.998 60.9516 192.143C58.0968 190.24 55.242 184.531 53.3388 179.772L51.4355 173.111L52.3872 171.208L53.3388 173.111L54.2904 175.014L57.1452 179.772L56.1936 175.966L63.8065 180.724L69.5161 185.482L73.3225 192.143C74.2741 194.047 88.5483 197.853 88.5483 197.853L96.1611 203.563L99.0159 211.176L96.1611 214.982L91.4031 215.934L82.8386 212.127L79.9838 209.272Z" fill="#D2B159"/>
<path d="M61.9038 182.628L67.6135 188.338C71.4199 191.192 78.0811 193.096 82.8392 194.047C85.9657 194.719 89.1577 195.038 92.3553 194.999C99.9681 195.95 104.726 193.096 111.387 193.096L123.758 191.192L137.081 185.483C139.936 184.531 143.742 183.579 145.645 181.676L155.161 176.918C154.21 177.87 154.21 179.773 151.355 181.676H155.161L149.452 185.483L140.887 192.144L135.178 194.047L128.516 199.757H129.468L124.71 200.708L121.855 201.66L118.049 202.612H116.145V203.563H112.339L111.387 204.515H110.436L111.387 207.37L106.629 211.176V212.128L107.581 213.079V214.031H106.629L102.823 214.983H101.871C101.871 215.934 102.823 217.837 100.92 219.741L98.0649 223.547L97.1133 222.595L96.1617 221.644L95.2101 223.547L93.3069 227.353C93.3069 226.402 92.3553 225.45 90.4521 225.45L87.5972 228.305C87.5972 229.257 86.6456 234.015 81.8876 237.821V234.015L78.0811 235.918L75.2263 238.773L76.1779 234.015L79.0328 231.16C79.1163 231.015 79.1602 230.851 79.1602 230.684C79.1602 230.517 79.1163 230.353 79.0328 230.208H78.0811C79.0328 230.208 80.936 228.305 80.936 226.402C80.9486 225.522 80.7869 224.649 80.4602 223.832C80.1336 223.016 79.6484 222.272 79.0328 221.644L79.9844 220.692L78.0811 218.789L79.0328 217.837V216.886C78.7959 216.214 78.4762 215.575 78.0811 214.983H79.0328L78.0811 213.079V210.224H79.0328L78.0811 209.273H79.9844L78.0811 207.37C78.9967 206.999 80.0204 206.999 80.936 207.37L82.8392 209.273L84.7424 210.224L90.4521 214.031H93.3069C93.9348 214.159 94.5822 214.159 95.2101 214.031V213.079C94.9136 212.742 94.5958 212.424 94.2585 212.128H95.2101L94.2585 210.224L95.2101 209.273H94.2585L95.2101 208.321L93.3069 206.418C93.6237 206.441 93.9417 206.441 94.2585 206.418L92.3553 205.466L90.4521 203.563L91.4037 202.612H92.3553L90.4521 201.66L88.5488 199.757H84.7424C84.7424 199.757 81.8876 199.757 76.1779 195.95L67.6135 190.241C67.2742 189.946 66.9562 189.628 66.6618 189.289C64.7586 188.338 61.9038 185.483 61.9038 182.628Z" fill="#C2A44D"/>
<path d="M139.935 55.1107L140.887 56.0623C142.79 57.0139 142.79 58.9171 140.887 61.7719H142.79C141.839 62.7235 139.935 64.6268 139.935 66.53L140.887 68.4332L138.984 72.2396C139.869 71.5113 140.826 70.8737 141.839 70.3364C143.377 69.307 144.965 68.3542 146.597 67.4816V68.4332C146.597 68.4332 149.452 65.5784 152.306 66.53V68.4332L155.161 69.3848L158.016 74.1428L159.919 76.9977C161.042 78.8105 161.997 80.7216 162.774 82.7073C162.774 81.7557 163.726 79.8525 166.581 80.8041C169.435 81.7557 173.242 84.6105 176.097 89.3686L181.806 100.788L184.661 107.449L187.516 124.578L189.419 112.207L190.371 105.546L191.322 83.6589L168.484 65.5784L151.355 52.2559L138.984 53.2075L139.935 55.1107Z" fill="#CAA13E"/>
<path d="M181.806 87.4656C181.806 87.4656 181.806 85.5624 176.096 81.756C171.338 77.9495 167.532 77.9495 162.774 75.0947C159.919 73.1915 157.064 67.4819 155.161 65.5786C153.258 63.6754 153.258 58.9174 153.258 58.9174L159.919 53.2077L169.435 38.9336L177.048 30.3691L181.806 35.1272L186.564 41.7884L190.371 55.1109L191.322 74.1431L181.806 87.4656Z" fill="#B59544"/>
<path d="M188.468 110.308L187.516 101.743C185.884 96.5706 183.978 91.4882 181.806 86.5176C180.855 83.6628 181.806 82.7112 182.758 82.7112C182.758 82.7112 185.613 80.808 186.564 76.0499C187.516 71.2919 191.322 71.2919 191.322 71.2919L194.177 69.3887L197.984 78.9048L200.838 87.4692L201.79 94.1305L202.742 98.8885L200.838 110.308L192.274 117.921L188.468 110.308Z" fill="#C89D3A"/>
<path d="M68.5645 237.821L69.5161 236.87C69.832 236.83 70.1517 236.83 70.4677 236.87H79.9837C83.7902 236.87 84.7418 239.725 87.5966 241.628L91.403 242.579L93.3063 241.628L94.2579 242.579L99.0159 241.628C99.3283 241.565 99.65 241.565 99.9625 241.627C100.275 241.689 100.572 241.811 100.837 241.988C101.103 242.165 101.33 242.392 101.508 242.657C101.685 242.921 101.808 243.219 101.871 243.531C101.933 243.843 101.934 244.165 101.872 244.478C101.81 244.79 101.687 245.087 101.51 245.353C101.334 245.618 101.106 245.845 100.842 246.023C100.577 246.2 100.28 246.323 99.9675 246.386L97.1127 249.241L98.0643 250.192C87.7371 247.363 77.8209 243.204 68.5645 237.821Z" fill="#CEB052"/>
<path d="M181.806 194.999L186.564 189.289C187.516 186.435 182.758 157.886 182.758 157.886L192.274 126.483V116.016L193.225 102.693L199.887 109.354L201.79 94.1287L204.645 107.451L206.548 115.064L208.451 123.629L211.306 133.145L213.209 139.806L214.161 140.757L215.112 143.612V146.467L217.967 153.128L218.919 158.838L219.87 169.306L220.822 171.209L219.87 174.064L220.822 177.87L218.919 181.677L217.016 190.241L214.161 188.338V184.531C213.747 183.679 213.03 183.011 212.15 182.659C211.27 182.307 210.29 182.296 209.403 182.628L204.645 183.58L200.838 187.386C198.935 189.289 195.129 189.289 193.225 189.289L187.516 193.096C185.672 193.897 183.762 194.533 181.806 194.999Z" fill="#CCA847"/>
<path d="M181.806 241.628V242.58C196.96 235.505 210.548 225.476 221.774 213.08V193.096L219.87 180.725L217.967 177.871L217.016 182.629V186.435H216.064L215.112 185.483V184.532L214.161 188.338V191.193L213.209 192.145V194.048L212.258 197.854V202.612L211.306 205.467H212.258C212.258 205.467 213.209 208.322 211.306 211.177L209.403 213.08L206.548 217.838C206.528 217.521 206.528 217.203 206.548 216.887C206.548 216.887 204.645 219.741 203.693 220.693L199.887 223.548V225.451C198.935 225.451 197.983 225.451 197.983 227.354C197.602 228.199 196.925 228.876 196.08 229.257L193.225 230.209H194.177L190.371 233.064C189.179 233.741 188.193 234.727 187.516 235.919L185.613 237.822L187.516 238.774C186.564 238.774 185.613 238.774 184.661 240.677L181.806 241.628Z" fill="#C39D3C"/>
<path d="M152.307 252.095L155.161 250.191L162.774 248.288L166.581 247.337V248.288C161.903 249.84 157.136 251.111 152.307 252.095Z" fill="#D2BA6B"/>
<path d="M213.209 164.547L211.306 170.257C210.598 172.135 209.964 174.039 209.403 175.966V174.063L202.742 177.87L199.887 180.724L201.79 174.063C197.436 177.612 193.305 181.426 189.419 185.482L178 194.999C176.765 195.699 175.494 196.334 174.193 196.902L167.532 198.805L170.387 194.999L175.145 189.289V184.531L172.29 185.482C171.602 185.678 170.956 186 170.387 186.434C170.387 186.434 171.339 182.628 172.29 178.821H169.435C169.435 178.821 172.29 175.015 177.048 172.16L172.29 173.112L164.677 176.918L179.903 151.225C184.661 139.805 186.564 136.95 187.516 131.241L188.467 119.821V110.305C190.371 111.257 195.129 116.015 195.129 126.483C195.129 136.95 190.371 151.225 185.613 157.886C186.564 158.837 189.419 158.837 193.225 153.128L197.984 143.612V144.563C197.984 144.563 202.742 138.854 204.645 131.241C205.596 135.047 206.548 137.902 204.645 143.612C202.742 148.37 199.887 150.273 199.887 150.273L203.693 148.37V151.225L205.596 152.176L207.5 149.321V162.644C209.403 161.692 211.306 161.692 212.258 158.837C211.517 161.321 211.517 163.967 212.258 166.45C212.653 165.858 212.972 165.219 213.209 164.547Z" fill="#C0993A"/>
<path d="M158.016 46.5476L153.258 47.4992L148.5 46.5476L118.049 50.354L126.613 51.3056H157.065L158.968 47.4992L158.016 46.5476Z" fill="#A88F33"/>
<path d="M90.4527 97.9363L85.6946 102.694L81.8882 107.452L83.7914 106.501L82.8398 107.452C83.1291 107.285 83.4573 107.197 83.7914 107.197C84.1255 107.197 84.4537 107.285 84.743 107.452C83.7914 108.404 82.8398 109.356 83.7914 111.259L85.6946 112.21L86.6462 113.162C90.4527 113.162 94.2591 111.259 95.2107 112.21C97.1139 112.21 98.0655 112.21 99.0171 114.114L101.872 116.968L102.824 112.21L103.775 107.452L101.872 98.8879L97.1139 93.1782L91.4043 96.9847L90.4527 97.9363Z" fill="#E3C571"/>
<path d="M97.1133 96.9836L99.0165 97.9352V99.8384L99.9681 98.8868V101.742L101.871 103.645L102.823 109.354V108.403V112.209L103.775 111.258C104.726 111.258 105.678 110.306 105.678 108.403L106.629 105.548L107.581 106.5L108.533 107.451V104.596L109.484 99.8384L111.387 96.032L116.145 87.4675L126.613 79.8546L135.178 81.7578L142.79 72.2418L129.468 64.6289L118.049 65.5805L106.629 80.8062L98.0649 94.1288L97.1133 96.9836Z" fill="#D8B65B"/>
<path d="M159.92 75.096L157.065 76.0476C154.21 76.9992 153.258 76.9992 152.307 78.9025L151.355 81.7573L153.258 80.8057L155.161 81.7573L157.065 82.7089C156.895 83.407 156.57 84.0577 156.113 84.6121L154.21 86.5153V88.4185L151.355 93.1766C149.908 94.6118 148.631 96.2083 147.549 97.9346C147.549 97.9346 146.597 96.0314 145.645 94.1282L143.742 95.0798L138.033 76.9992V76.0476L138.984 74.1444L137.081 73.1928L133.275 69.3864L131.371 68.4348H129.468L130.42 67.4832H123.758C122.807 67.4832 121.855 68.4348 121.855 66.5315L119 67.4832C118.049 69.3864 118.049 70.338 116.146 70.338C116.252 70.9679 116.252 71.6113 116.146 72.2412L113.291 75.096C112.339 76.9992 112.339 79.8541 109.484 82.7089C107.581 84.6121 110.436 76.0476 110.436 76.0476L114.242 66.5315L125.662 55.1123L143.742 54.1606L145.645 63.6767L154.21 66.5315L159.92 75.096Z" fill="#D3AE4D"/>
<path d="M162.774 76.9992L155.161 65.5799L149.452 61.7735L145.645 55.1123L139.935 54.1606V55.1123L140.887 56.0639C142.79 57.0155 142.79 58.9187 140.887 61.7735H142.79C141.839 62.7251 139.935 64.6283 139.935 66.5315L140.887 68.4348L138.984 72.2412C139.869 71.5128 140.826 70.8752 141.839 70.338C143.376 69.3072 144.964 68.3544 146.597 67.4832V68.4348C146.597 68.4348 149.452 65.5799 152.306 66.5315V68.4348L155.161 69.3864L158.016 74.1444L159.919 76.9992C161.042 78.8121 161.997 80.7232 162.774 82.7089L164.677 80.8057L162.774 76.9992Z" fill="#CAA13E"/>
<path d="M49.5317 107.451V103.645L51.435 96.0321C51.435 92.2257 54.2898 87.4676 54.2898 87.4676L60.951 84.6128L65.7091 85.5644L67.6123 92.2257L60.951 96.0321L59.0478 97.9353L54.2898 101.742C53.9024 102.339 53.5832 102.977 53.3382 103.645C53.3382 103.645 51.435 103.645 50.4833 104.597L49.5317 107.451Z" fill="#F4EFC8"/>
<path d="M63.8061 105.548L62.8545 107.451L60.9513 98.8864L61.9029 93.1768C62.8545 91.2735 65.7093 90.3219 65.7093 88.4187C64.7577 85.5639 62.8545 84.6123 59.9997 85.5639L56.1932 91.2735L52.3868 93.1768V96.0316L50.4836 98.8864C48.5804 101.741 45.7255 105.548 44.7739 109.354L45.7255 104.596L47.6287 96.9832L48.5804 91.2735L51.4352 81.7575L57.1448 72.2414L62.8545 66.5317H67.6125L68.5641 75.0962L71.419 90.3219L78.0802 98.8864L67.6125 105.548H63.8061Z" fill="#EBCC73"/>
<path d="M66.6619 108.402H64.7587L65.7103 107.451C65.7103 107.198 65.61 106.956 65.4316 106.778C65.2531 106.599 65.0111 106.499 64.7587 106.499V107.451L63.8071 106.499H64.7587C64.1275 106.408 63.4866 106.408 62.8555 106.499L64.7587 104.596H65.7103L64.7587 103.644V101.741L63.8071 99.8379L64.7587 97.9347L65.7103 96.9831L67.6135 96.0315H69.5167V96.9831H72.3715L77.1296 97.9347L78.0812 100.79L70.4683 107.451L67.6135 108.402H66.6619Z" fill="#E5C66B"/>
<path d="M77.1288 97.9359L74.274 99.8391L75.2256 100.791L72.3708 103.646C71.637 104.527 70.999 105.484 70.4676 106.5L66.6611 108.404L73.3224 106.5L74.274 108.404L79.9836 106.5L83.7901 102.694L87.5965 98.8875C88.1889 98.4925 88.8282 98.1728 89.4997 97.9359L90.4513 96.9843C90.5349 97.129 90.5788 97.2931 90.5788 97.4601C90.5788 97.6272 90.5349 97.7913 90.4513 97.9359L96.161 96.0327V95.0811L97.1126 96.0327L98.0642 94.1295L99.9674 88.4199V82.7102H99.0158L85.6933 88.4199L78.0804 96.0327L77.1288 97.9359Z" fill="#E6BD62"/>
<path d="M113.291 70.3374L116.145 69.3858L114.242 72.2406L112.339 76.047L110.436 81.7567L111.387 80.8051L110.436 82.7083L107.581 86.5147L101.871 90.3212L97.1133 96.9824L98.0649 92.2244V87.4663L100.92 81.7567L105.678 67.4826L111.387 65.5793L113.291 70.3374Z" fill="#B6933F"/>
<path d="M109.484 66.5327L106.629 72.2424V77.952C107.038 76.868 107.689 75.8916 108.532 75.0972L113.29 72.2424L117.097 68.4359L114.242 67.4843L119.951 63.6779L126.613 59.8715H123.758L126.613 57.0166C128.516 55.1134 125.661 53.2102 125.661 53.2102L114.242 59.8715L109.484 66.5327Z" fill="#C49937"/>
<path d="M79.0317 61.7748V59.8715L81.8866 54.1619L85.693 45.5974V33.2265L84.7414 25.6136L85.693 20.8556V19.904L86.6446 18.9524L89.4994 19.904L93.3059 25.6136V35.1297L89.4994 51.3071L79.0317 62.7264V61.7748Z" fill="#DFC068"/>
<path d="M86.6447 18L84.7415 25.6129L83.7899 39.887L82.8382 47.4998L81.8866 54.1611L78.0802 58.9191C76.1132 60.5875 73.8549 61.8779 71.4189 62.7256C70.4673 62.7256 65.7093 62.7256 63.8061 64.6288C63.8061 64.6288 61.9029 64.6288 60.9513 66.532C57.4343 69.7937 54.5333 73.6618 52.3868 77.9513C48.5804 85.5642 44.7739 106.5 44.7739 106.5L45.7255 104.596L47.6287 99.8383C49.532 96.0319 48.5804 92.2254 51.4352 86.5158L55.2416 77.9513C58.0964 73.1933 60.9513 69.3868 63.8061 67.4836C68.5641 64.6288 74.2738 63.6772 74.2738 63.6772L79.9834 59.8708L81.8866 56.0643C83.7899 52.2579 85.6931 49.4031 86.6447 43.6934C87.5963 37.0322 85.6931 31.3225 85.6931 27.5161L86.6447 18.9516V18Z" fill="#A88F33"/>
<path d="M86.646 52.2586L90.4524 39.8877L91.404 37.0328V26.5652L87.5976 20.8555L86.646 18.9523L88.5492 18.0007C89.4287 17.9881 90.3019 18.1498 91.1186 18.4764C91.9352 18.8031 92.6791 19.2882 93.3073 19.9039L96.1621 28.4684L97.1137 37.0328L100.92 47.5005L86.646 52.2586Z" fill="#C99E3D"/>
<path d="M110.436 45.5974H109.485C109.534 45.9734 109.469 46.3554 109.3 46.6944C109.13 47.0335 108.863 47.3143 108.533 47.5006H99.0171C99.0171 47.5006 95.2107 46.549 94.2591 41.791V30.3717L92.3559 23.7104V20.8556H91.4042L90.4526 18.9524L94.2591 20.8556L97.1139 23.7104L100.92 28.4685L104.727 38.9362L105.678 40.8394L110.436 45.5974Z" fill="#B58634"/>
<path d="M97.1133 23.7102C98.2005 25.87 99.1539 28.0946 99.9681 30.3715L103.775 37.0327L100.92 28.4682L97.1133 23.7102Z" fill="#A88F33"/>
<path d="M82.839 58.9185L76.1778 61.7733L72.3713 63.6765C69.2748 64.8637 66.0939 65.8179 62.8553 66.5313L63.8069 67.4829V68.4345C63.8069 69.3861 60.0004 72.241 60.952 81.757L62.8553 80.8054L63.8069 81.757L65.7101 79.8538C65.7101 80.8054 65.7101 86.5151 68.5649 90.3215L71.4197 86.5151L72.3713 80.8054L74.2746 76.0474L83.7906 63.6765L82.839 58.9185Z" fill="#E6C367"/>
<path d="M74.2744 77.9515C73.72 78.4083 73.0693 78.7336 72.3712 78.9031C72.1707 78.0888 72.152 77.2403 72.3164 76.4179C72.4809 75.5956 72.8245 74.8196 73.3228 74.145L79.0325 67.4838C79.9841 65.5806 79.0325 62.7257 84.7421 57.9677L91.4034 51.3064L99.9679 47.5L110.436 51.3064L104.726 71.2902L100.919 80.8063L85.6937 77.9515H74.2744Z" fill="#DCBA5A"/>
<path d="M79.9844 72.241L81.8876 70.3378V68.4345L86.6456 65.5797C88.5488 62.7249 91.4037 58.9185 94.2585 58.9185C97.1133 58.9185 98.0649 64.6281 98.0649 66.5313L99.0165 74.1442C99.9681 76.0474 92.3553 83.6603 92.3553 83.6603L86.6456 87.4667L79.9844 72.241Z" fill="#E9CE77"/>
<path d="M85.6934 93.1785C85.6934 93.1785 87.5966 90.3237 86.645 89.3721L88.5482 86.5172L92.3546 81.7592C95.2094 78.9044 97.1127 77.0012 97.1127 75.0979L98.0643 71.2915L99.0159 72.2431C99.0159 72.2431 100.919 74.1463 100.919 77.9528C100.919 81.7592 99.0159 83.6624 99.0159 83.6624L97.1127 85.5656L94.2578 86.5172L92.3546 87.4688L87.5966 91.2753L85.6934 93.1785Z" fill="#CDAE50"/>
<path d="M157.064 51.3078C154.34 50.1871 151.443 49.5433 148.5 49.4046L131.371 50.3562C124.71 50.3562 118.048 47.5014 109.484 47.5014C108.532 46.5498 104.726 42.7434 93.3066 50.3562C94.2582 50.3562 101.871 48.453 103.774 52.2595C106.629 55.1143 105.678 60.8239 105.678 61.7755L101.871 72.2432L100.92 78.9045C99.9679 80.8077 98.0647 82.7109 99.0163 84.6141L102.823 79.8561C104.726 76.0496 104.726 72.2432 107.581 69.3884L117.097 59.8723C119 57.9691 134.226 50.3562 150.403 57.9691C154.21 57.9691 157.064 51.3078 157.064 51.3078Z" fill="#D2A83E"/>
<path d="M99.9681 48.4508C99.6561 48.3702 99.3286 48.3702 99.0165 48.4508C99.0563 48.1349 99.0563 47.8152 99.0165 47.4992L93.3069 46.5476C89.5005 47.4992 86.6456 51.3056 85.694 53.2089C83.7908 55.1121 82.8392 58.9185 80.936 59.8701C80.7913 59.7866 80.6272 59.7426 80.4602 59.7426C80.2931 59.7426 80.129 59.7866 79.9844 59.8701V60.8217H80.936L87.5972 56.0637L97.1133 49.4024L99.9681 48.4508Z" fill="#C29637"/>
<path d="M172.29 32.2737L170.387 34.1769L164.677 40.8382L157.064 47.4994L151.354 55.1123C150.824 55.9788 150.498 56.9554 150.403 57.9671L151.354 60.8219L153.258 62.7251C153.258 62.7251 155.161 63.6767 157.064 59.8703C158.574 57.5968 160.161 55.3751 161.822 53.2091L165.629 46.5478L168.483 40.8382L172.29 35.1285V32.2737Z" fill="#AC8132"/>
<path d="M177.048 28.4683L173.242 31.3231L169.436 36.0811H170.387L175.145 32.2747L177.048 29.4199V28.4683Z" fill="#A88F33"/>
<path d="M176.096 197.855L177.048 195C177.999 194.048 180.854 192.145 182.757 186.435L185.612 179.774C185.612 179.774 180.854 183.581 177.999 183.581L179.903 180.726L177.999 179.774L180.854 175.968L190.37 168.355L199.886 158.839L200.838 159.79L196.08 166.452L195.128 169.307L197.983 168.355C197.983 168.355 198.935 171.21 195.128 175.968L197.983 175.016C196.08 176.919 194.177 177.871 192.274 181.677C190.37 185.484 187.515 189.29 182.757 192.145L176.096 197.855Z" fill="#A67A2E"/>
<path d="M164.676 53.2087L162.773 59.8699L161.821 61.7732V68.4344L160.87 67.4828L159.918 72.2409L158.967 66.5312V62.7248L158.015 65.5796L157.063 63.6764L156.112 64.628V59.8699C156.719 58.1011 157.692 56.48 158.967 55.1119L164.676 46.5474L167.531 38.9346H170.386L166.58 46.5474L163.725 51.3055L159.918 58.9183L161.821 57.0151L164.676 53.2087Z" fill="#8C6228"/>
<path d="M177.049 27.5178C176.71 28.914 176.059 30.2154 175.146 31.3243L169.436 36.0823C168.484 37.9855 165.63 42.7435 166.581 47.5016L170.388 41.7919L176.097 34.1791C176.703 32.6647 177.026 31.0519 177.049 29.421V27.5178Z" fill="#CBA94C"/>
<path d="M219.871 169.305L218.919 164.547L217.968 159.789L217.016 158.837V155.031L216.065 151.224L215.113 149.321L214.161 146.466L213.21 144.563L214.161 143.611L213.21 142.66V140.757L212.258 141.708L211.307 136.95V134.095L207.5 122.676C206.782 121.125 206.147 119.536 205.597 117.918V115.063L204.645 116.015V112.208L202.742 108.402L201.791 100.789V96.031L200.839 91.2729C200.434 88.6834 199.797 86.1356 198.936 83.6601L193.226 68.4343H194.178C197.221 76.7307 200.393 84.979 203.694 93.1761L204.645 107.45L206.549 113.16L208.452 119.821C209.575 121.964 210.529 124.191 211.307 126.482V132.192L213.21 137.902L216.065 146.466C217.467 150.145 218.426 153.979 218.919 157.885L219.871 169.305Z" fill="#A88F33"/>
<path d="M177.048 27.5178V30.3726L176.097 32.2759C176.097 33.2275 177.048 34.1791 175.145 37.0339L174.193 38.9371C173.998 39.6255 173.675 40.2712 173.242 40.8403L178 38.9371C176.872 39.6945 175.902 40.6641 175.145 41.7919C175.777 41.8716 176.416 41.8716 177.048 41.7919L184.661 40.8403C187.516 40.8403 186.564 37.9855 186.564 37.9855L183.709 31.3243L178 27.5178H177.048Z" fill="#BE9C44"/>
<path d="M191.321 76.0486C191.321 76.0486 188.467 73.1938 187.515 64.6293V43.694L184.66 38.9359L183.709 34.1779L179.902 30.3715L177.047 27.5166C177.047 26.565 178.951 23.7102 183.709 23.7102C189.418 23.7102 191.321 26.565 192.273 28.4682C192.273 29.4199 195.128 34.1779 196.08 42.7424L197.031 56.0649C196.645 59.5947 196.009 63.0927 195.128 66.5326C194.176 70.339 193.225 74.1454 191.321 76.0486Z" fill="#A17C34"/>
<path d="M183.709 82.7079C184.333 82.869 184.988 82.869 185.612 82.7079C186.564 82.7079 189.419 82.7079 191.322 79.853V83.6595L192.274 82.7079C193.225 83.6595 193.225 86.5143 190.37 92.2239L193.225 91.2723C193.225 92.2239 194.177 96.0304 192.274 97.9336C191.322 99.8368 189.419 98.8852 189.419 98.8852V96.982C188.676 96.4656 188.032 95.8212 187.516 95.0788C185.612 93.1755 182.758 90.3207 182.758 88.4175C182.61 88.0441 182.542 87.6437 182.559 87.2424C182.577 86.8411 182.678 86.448 182.858 86.0887C183.038 85.7295 183.291 85.4121 183.602 85.1575C183.912 84.9029 184.273 84.7167 184.661 84.6111H183.709V82.7079Z" fill="#8C6228"/>
<path d="M167.532 56.0635L166.58 57.0151V55.1119L167.532 53.2087V54.1603L169.435 52.2571L171.338 50.3539L172.29 49.4023L174.193 47.499L175.145 46.5474L177.048 45.5958L180.854 43.6926L183.709 41.7894L184.661 38.9346C185.612 38.9346 189.419 41.7894 191.322 47.499C192.273 51.3055 190.37 57.0151 189.419 59.8699L187.515 66.5312L180.854 72.2409C179.903 73.1925 177.999 75.0957 177.999 76.9989C177.999 78.9021 179.903 78.9021 179.903 79.8537H182.757C182.757 79.8537 182.757 81.7569 177.999 81.7569L177.048 82.7085L178.951 80.8053H176.096L177.048 79.8537L176.096 78.9021L175.145 80.8053L173.241 82.7085C172.29 81.7569 172.29 79.8537 174.193 78.9021H172.29C172.199 78.271 172.199 77.63 172.29 76.9989L174.193 74.1441L180.854 62.7248L182.757 53.2087L167.532 56.0635Z" fill="#92723A"/>
<path d="M166.581 57.0163L167.532 57.9679L166.581 58.9195L165.629 59.8711L164.678 60.8227L163.726 64.6291L162.774 66.5323L161.823 68.4355C161.761 69.3861 161.761 70.3398 161.823 71.2904V70.3388C161.628 71.0272 161.305 71.6728 160.871 72.242L163.726 70.3388L171.339 64.6291H168.484C169.436 64.6291 174.194 58.9195 177.048 57.9679L175.145 57.0163L170.387 57.9679L169.436 55.113L166.581 57.0163Z" fill="#B18E3E"/>
<path d="M173.242 76.0472L172.29 77.9504L171.339 76.9988C170.387 75.0956 169.435 73.1924 166.581 74.144V72.2408L170.387 69.386L172.29 65.5795L175.145 63.6763C176.097 62.7247 178 61.7731 178 59.8699L174.193 60.8215L176.097 58.9183V57.9667H175.145L173.242 58.9183L172.29 59.8699V58.9183L170.387 59.8699L165.629 61.7731L166.581 60.8215C167.132 59.8171 167.769 58.862 168.484 57.9667L169.435 55.1119L172.29 53.2086L181.806 51.3054L187.516 52.257L186.564 56.0635L183.709 62.7247L179.903 69.386L177.048 73.1924L173.242 76.0472Z" fill="#543E26"/>
<path d="M188.467 57.9677L183.709 63.6773L190.37 51.3064V47.5L188.467 51.3064H187.515V50.3548H181.806L174.193 52.258L170.387 53.2096L169.435 55.1129L167.532 56.0645L166.58 57.0161L168.483 56.0645C169.724 55.3758 170.994 54.7408 172.29 54.1613L177.999 52.258H187.515L186.564 53.2096V54.1613L183.709 60.8225L180.854 65.5806C180.854 66.5322 179.903 69.387 177.999 70.3386L176.096 73.1934L173.241 76.0482C175.426 75.2626 177.386 73.956 178.951 72.2418L183.709 67.4838L187.515 61.7741L188.467 57.9677Z" fill="#806031"/>
<path d="M111.387 91.2737L109.484 94.1285C108.532 95.0801 106.629 96.0317 106.629 97.9349L108.532 99.8382L107.581 102.693V106.499L108.532 109.354L110.435 110.306H111.387L112.339 106.499L113.29 102.693L116.145 96.0317L118.048 93.1769L115.193 91.2737H111.387Z" fill="#B6903C"/>
<path d="M116.146 95.0811L114.243 96.0327L112.339 98.8875C111.388 98.8875 110.436 98.8875 111.388 99.8391L112.339 101.742L113.291 104.597L114.243 102.694L119.001 95.0811H116.146Z" fill="#685026"/>
<path d="M130.419 78.902V76.9988L127.564 75.0956L124.71 74.144V73.1924L121.855 74.144L119.952 75.0956L119 76.0472V75.0956L116.145 77.9504L113.29 82.7085L110.436 87.4665H111.387V92.2245H114.242C115.194 92.2245 114.242 95.0794 116.145 95.0794H119L124.71 92.2245L129.468 89.3697L132.323 83.6601L131.371 78.902H130.419Z" fill="#D4B968"/>
<path d="M125.661 91.2743V88.4194L129.467 86.5162C129.467 86.2638 129.367 86.0218 129.188 85.8433C129.01 85.6649 128.768 85.5646 128.515 85.5646C129.047 85.0729 129.707 84.7428 130.419 84.613L129.467 83.6614L126.612 84.613L125.661 83.6614L127.564 82.7098L126.612 81.7582L130.419 79.855V78.9034C131.37 78.9034 133.274 77.0001 134.225 77.9517V79.855L138.032 76.0485L140.886 75.0969C141.838 75.0969 143.741 76.0485 143.741 79.855V85.5646L144.693 92.2259L145.644 94.1291L144.693 95.0807V98.8871L143.741 99.8387L142.79 100.79H139.935V98.8871L134.225 95.0807L125.661 91.2743Z" fill="#CCA849"/>
<path d="M115.193 104.597C115.193 104.597 117.097 107.452 125.661 107.452H131.371L138.984 101.742C141.838 97.9355 140.887 96.9839 140.887 96.9839H133.274L117.097 104.597H115.193Z" fill="#585136"/>
<path d="M121.855 105.548C121.855 105.548 114.242 107.451 114.242 102.693C114.242 98.8865 119 94.1285 119.952 93.1769L123.758 91.2737H129.468L131.371 95.0801L130.42 101.741L120.903 105.548H121.855Z" fill="#252211"/>
<path d="M127.565 93.1767C127.565 93.1767 126.613 91.2735 123.758 93.1767C119.952 95.0799 118.049 97.9347 118.049 101.741C118.049 104.596 119.952 106.499 123.758 106.499L129.468 105.548L127.565 104.596V93.1767Z" fill="#C3B378"/>
<path d="M126.613 93.1782L125.661 94.1298L122.806 96.033L120.903 96.9847L119 102.694C119.952 103.646 121.855 105.549 127.564 104.598L126.613 93.1782Z" fill="#E6D89C"/>
<path d="M124.709 96.0294L123.758 99.8358C123.758 101.739 124.709 105.545 129.467 105.545C133.274 105.545 135.177 100.787 138.032 98.8842L140.887 96.981L133.274 92.2229C128.516 89.3681 122.806 89.3681 119.951 93.1746L125.661 92.2229H128.516L124.709 96.0294Z" fill="#252211"/>
<path d="M131.37 98.8875V97.9359L133.273 98.8875V99.8391L131.37 98.8875ZM130.418 96.0327L131.37 95.0811V96.0327L130.418 96.9843V96.0327Z" fill="#6F674D"/>
<path d="M72.3711 96.9825L76.1775 98.8858C78.0807 98.8858 80.9356 96.9825 81.8872 95.0793L83.7904 93.1761L84.742 92.2245L85.6936 90.3213L83.7904 92.2245L80.9356 93.1761L75.2259 96.9825H72.3711Z" fill="#AC924C"/>
<path d="M75.2256 81.7562L78.0804 80.8046L82.8384 79.853L86.6449 80.8046L87.5965 85.5627L85.6933 90.3207L82.8384 91.2723L79.032 86.5143L75.2256 81.7562Z" fill="#9F8E57"/>
<path d="M71.4189 85.5643L70.4673 86.5159L71.4189 84.6127L74.2737 76.9999L75.2253 75.0966C74.9729 75.0966 74.7309 75.1969 74.5524 75.3754C74.374 75.5538 74.2737 75.7959 74.2737 76.0483C75.0311 74.9204 76.0007 73.9508 77.1285 73.1934C79.0318 72.2418 79.0318 71.2902 80.935 72.2418L83.7898 73.1934L85.693 72.2418L84.7414 74.145C84.7414 76.0483 80.935 78.9031 80.935 78.9031L74.2737 83.6611L71.4189 85.5643Z" fill="#EAC970"/>
<path d="M76.1777 80.8052H83.7906C83.8741 80.9499 83.9181 81.114 83.9181 81.2811C83.9181 81.4481 83.8741 81.6122 83.7906 81.7569V82.7085C83.6459 82.792 83.4818 82.836 83.3148 82.836C83.1478 82.836 82.9837 82.792 82.839 82.7085L83.7906 83.6601C83.7906 84.6117 84.7422 85.5633 85.6938 84.6117C85.6938 84.6117 86.6454 86.5149 83.7906 90.3213L82.839 91.2729V93.1761C82.839 93.1761 86.6454 91.2729 88.5486 87.4665C89.7115 83.4519 90.0354 79.2408 89.5002 75.0956C89.6067 74.4657 89.6067 73.8223 89.5002 73.1924H85.6938L80.9358 77.9504L76.1777 80.8052Z" fill="#D7BC6B"/>
<path d="M70.4683 86.5176L69.5167 89.3724C68.5651 91.2756 69.5167 94.1304 70.4683 95.0821C70.4683 95.0821 72.3716 97.9369 74.2748 97.9369L76.178 96.9853C76.8431 96.7335 77.4808 96.4147 78.0812 96.0337L79.9844 94.1304L74.2748 89.3724L71.4199 86.5176H70.4683Z" fill="#585136"/>
<path d="M76.1771 95.0785H78.0804C79.032 94.1269 74.2739 89.3689 74.2739 89.3689V95.0785H76.1771Z" fill="#453A25"/>
<path d="M71.4189 86.5155L70.4673 88.4187V93.1767C71.4189 94.1283 72.3705 96.0315 74.2737 96.0315L77.1285 95.0799L75.2253 94.1283L74.2737 91.2735L75.2253 90.3219V87.4671L77.1285 83.6606H75.2253L71.4189 85.5639V86.5155Z" fill="#84754B"/>
<path d="M70.4673 87.4667L74.2737 84.6119L77.1285 83.6602L76.1769 86.5151L74.2737 88.4183V89.3699C74.2737 89.3699 74.2737 92.2247 76.1769 93.1763C77.1285 95.0795 78.0801 95.0795 79.0318 95.0795L82.8382 92.2247C83.7898 89.3699 84.7414 87.4667 82.8382 84.6119C82.3214 83.519 81.517 82.5874 80.5112 81.9169C79.5054 81.2463 78.3361 80.8621 77.1285 80.8054C77.1285 80.8054 72.3705 81.757 70.4673 87.4667Z" fill="#252211"/>
<path d="M124.709 96.9841V94.1293C125.686 93.0281 127.049 92.3462 128.516 92.2261L129.468 93.1777L127.564 96.0325C126.613 96.9841 125.661 97.9357 124.709 96.9841Z" fill="#F7F7E7"/>
<path d="M81.8876 84.6128L82.8392 86.516L81.8876 88.4192L79.9844 86.516L80.936 85.5644L81.8876 84.6128Z" fill="#F8F6DE"/>
<path d="M73.3237 85.5632L71.4205 87.4664C70.6636 88.583 70.3265 89.9315 70.4689 91.2729L71.4205 93.1761L73.3237 94.1277L74.2754 92.2245L75.227 88.4181C75.227 86.5148 73.3237 85.5632 73.3237 85.5632Z" fill="#D4C38B"/>
<path d="M73.3228 85.5639L74.2744 87.4671V88.4187H75.226L77.1292 86.5155L78.0808 87.4671L79.0324 86.5155L77.1292 85.5639V83.6606L75.226 84.6123L73.3228 85.5639Z" fill="#E2D59D"/>
<path d="M107.581 130.29L110.436 129.339L111.387 130.29L113.29 131.242L112.339 133.145V134.097C112.339 134.097 109.484 138.855 115.194 143.613C113.91 144.216 112.64 144.851 111.387 145.516L114.242 146.468L115.194 147.419L116.145 148.371L114.242 147.419L108.532 148.371L99.9679 149.323V148.371L96.1615 147.419L93.3066 143.613L98.0647 142.661V140.758L99.0163 138.855L100.92 136.952L103.774 135.049L106.629 134.097V132.194L107.581 130.29Z" fill="#CBAC5A"/>
<path d="M98.0645 130.29H99.9677L110.435 129.338C118.214 129.244 125.947 130.533 133.274 133.144H132.322L124.709 131.241L114.242 130.29H107.581L99.0161 131.241L98.0645 130.29Z" fill="#D6BC6F"/>
<path d="M115.194 147.418C115.194 147.418 119.952 149.321 120.904 152.176C122.807 155.031 120.904 155.983 120.904 155.983L122.807 156.934L116.146 161.692L111.388 162.644L105.678 163.596V165.499L107.581 166.45L103.775 167.402L99.017 168.354H101.872L105.678 169.305L102.823 170.257L96.1621 172.16L98.0653 173.112L95.2105 174.063H96.1621L93.3073 176.918L83.7912 179.773C79.0332 177.87 78.0816 172.16 77.13 172.16H72.3719L74.2751 170.257L69.5171 167.402C68.9336 166.417 68.2983 165.464 67.6139 164.547L64.7591 159.789L60.9526 151.225H61.9042L78.0816 155.983L104.727 156.934L112.339 147.418H115.194Z" fill="#DFC677"/>
<path d="M74.2739 162.644L75.2255 163.596L77.1287 164.547H79.032L81.8868 165.499L83.79 164.547H85.6932L87.5964 163.596C88.548 164.547 89.4997 166.451 96.1609 163.596L105.677 160.741H107.58L105.677 156.934L98.0641 155.031H94.2577L81.8868 156.934L75.2255 160.741L74.2739 162.644Z" fill="#C4A859"/>
<path d="M70.4673 158.838L72.3705 160.742C73.0842 161.291 73.7239 161.931 74.2737 162.645C74.2737 162.645 75.2253 162.645 75.2253 161.693L76.1769 160.742H82.8382L83.7898 157.887C84.3684 157.553 85.0248 157.377 85.693 157.377C86.3612 157.377 87.0176 157.553 87.5962 157.887L88.5478 158.838H90.4511L92.3543 159.79L93.3059 158.838L95.2091 156.935L96.1607 155.983L99.0155 156.935H98.0639L99.0155 157.887L99.9671 158.838H103.774C105.182 159.142 106.492 159.797 107.58 160.742C107.58 159.79 107.58 159.79 107.58 160.742L108.532 159.79H109.483L110.435 158.838L112.338 157.887L111.386 156.935L112.338 155.032L115.193 152.177C115.193 149.322 113.29 148.371 113.29 148.371L99.9671 152.177H83.7898L70.4673 158.838Z" fill="#927D49"/>
<path d="M59.0497 120.772L58.0981 122.676V124.579C57.1465 125.53 55.2433 135.047 56.1949 137.901L60.0013 144.563V145.514L60.9529 150.272L61.9045 151.224L65.711 155.03C67.6142 155.982 68.5658 158.837 71.4206 159.788L75.2271 157.885L79.0335 155.982L81.8883 155.03H86.6464L93.3076 155.982L98.0656 155.03L107.582 152.175L111.388 151.224L116.146 149.321C115.195 148.369 114.243 147.417 110.437 147.417C105.679 147.417 99.9689 150.272 97.114 150.272H89.5012L86.6464 148.369C86.6464 148.369 83.7915 146.466 81.8883 140.756C80.9367 135.047 81.8883 130.288 85.6947 126.482L86.6464 124.579C86.6464 124.579 88.5496 121.724 87.598 118.869C87.598 116.014 82.8399 116.966 82.8399 116.966L59.0497 120.772Z" fill="#6E6342"/>
<path d="M62.8554 130.291L61.9038 131.243L63.807 135.049C65.7102 136.001 64.7586 137.904 64.7586 137.904L67.6135 136.953C69.5167 136.001 70.4683 137.904 70.4683 137.904L71.4199 136.953H73.3231L76.1779 139.807H79.0328L79.9844 137.904L79.0328 136.953L78.0811 135.049L79.0328 131.243L75.2263 132.194L62.8554 130.291Z" fill="#39331F"/>
<path d="M67.6133 139.806V133.145H68.5649C68.5649 133.145 69.5165 137.903 67.6133 139.806Z" fill="#292311"/>
<path d="M59.0487 116.967L60.0003 116.015C59.0487 116.967 57.1455 119.821 59.0487 125.531C60.9519 130.289 64.7584 134.095 69.5164 134.095C74.2744 134.095 77.1293 132.192 79.9841 128.386L83.7905 123.628C84.7421 121.725 86.6454 121.725 86.6454 119.821C86.6454 116.015 82.8389 114.112 77.1293 112.208C72.7963 110.824 68.1397 110.824 63.8068 112.208C60.9519 113.16 60.0003 115.063 59.0487 116.967Z" fill="#252211"/>
<path d="M77.1289 141.708H78.0805L79.0321 139.805L79.9837 140.757L79.0321 141.708H77.1289Z" fill="#3F3824"/>
<path d="M75.2256 134.097L76.1772 135.049H79.032L79.9836 136H77.1288L75.2256 134.097Z" fill="#2D2815"/>
<path d="M84.743 135.048L82.8398 134.096H81.8882L82.8398 135.048V135.999H83.7914L84.743 135.048Z" fill="#82764F"/>
<path d="M74.2739 138.854L76.1771 137.902L78.0804 138.854L77.1287 139.806L74.2739 138.854Z" fill="#2D2816"/>
<path d="M83.7904 133.144L80.9355 134.095V132.192H82.8388C83.0911 132.192 83.3332 132.292 83.5117 132.471C83.6901 132.649 83.7904 132.891 83.7904 133.144Z" fill="#574F35"/>
<path d="M86.646 134.095V133.143H87.5976V134.095L86.646 135.046V134.095ZM90.4524 131.24H91.404V133.143C90.9704 132.574 90.6476 131.928 90.4524 131.24Z" fill="#82764F"/>
<path d="M81.8882 129.336H84.743L85.6946 130.288H84.743V131.24C83.6728 130.804 82.7017 130.157 81.8882 129.336ZM84.743 126.482C84.8265 126.337 84.8705 126.173 84.8705 126.006C84.8705 125.839 84.8265 125.675 84.743 125.53L83.7914 126.482L84.743 128.385L85.6946 130.288C85.8393 130.371 86.0034 130.415 86.1704 130.415C86.3375 130.415 86.5016 130.371 86.6462 130.288V123.627H85.6946C85.3061 124.553 84.988 125.507 84.743 126.482Z" fill="#585136"/>
<path d="M82.8388 136.95H81.8872L80.9355 138.853C81.0802 138.937 81.2443 138.981 81.4114 138.981C81.5784 138.981 81.7425 138.937 81.8872 138.853L82.8388 136.95Z" fill="#574F35"/>
<path d="M84.7426 138.855L83.791 137.903C83.9357 137.82 84.0998 137.776 84.2668 137.776C84.4339 137.776 84.598 137.82 84.7426 137.903L85.6942 138.855L84.7426 139.807V138.855ZM88.5491 137.903H87.5974H89.5007L90.4523 138.855H89.5007L88.5491 137.903ZM93.3071 136.952V137.903H90.4523L91.4039 136.952C91.5485 136.868 91.7126 136.824 91.8797 136.824C92.0467 136.824 92.2108 136.868 92.3555 136.952H94.2587H93.3071ZM95.2103 130.29L94.2587 131.242V129.339H96.1619L95.2103 130.29ZM90.4523 143.613H89.5007H91.4039V142.661C91.2592 142.578 91.0951 142.534 90.9281 142.534C90.761 142.534 90.5969 142.578 90.4523 142.661H89.5007L90.4523 143.613ZM87.5974 145.516H88.5491V146.468H87.5974V145.516ZM85.6942 142.661L86.6458 141.71H87.5974V142.661L86.6458 143.613C86.3299 143.653 86.0102 143.653 85.6942 143.613V142.661Z" fill="#82764F"/>
<path d="M83.791 141.71H84.7426L83.791 142.662H82.8394C82.7559 142.517 82.7119 142.353 82.7119 142.186C82.7119 142.019 82.7559 141.855 82.8394 141.71H83.791Z" fill="#585136"/>
<path d="M82.8392 141.71L81.8876 142.662L80.936 144.565V143.613L79.9844 144.565L82.8392 146.468H84.7424L82.8392 144.565V143.613L83.7908 142.662C83.5065 142.313 83.1877 141.994 82.8392 141.71Z" fill="#574F35"/>
<path d="M59.0488 143.614C60.0004 143.614 62.8553 141.71 66.6617 142.662L74.2746 143.614L87.5971 148.372L90.4519 149.323L94.2583 151.226L99.968 150.275L110.436 148.372H114.242C114.242 148.372 111.387 151.226 103.774 152.178H95.2099C93.5975 152.012 92.0043 151.693 90.4519 151.226L83.7906 149.323L76.1778 147.42C70.3572 146.716 64.6199 145.441 59.0488 143.614Z" fill="#252211"/>
<path d="M45.7271 134.098L40.9691 138.856L35.2595 142.662C33.4036 144.001 31.4991 145.27 29.5498 146.469C31.3863 144.804 33.2911 143.217 35.2595 141.711L40.0175 137.904L45.7271 134.098ZM41.9207 145.517L45.7271 141.711L53.34 134.098L41.9207 145.517ZM44.7755 142.662L46.6787 140.759L47.6304 139.807L50.4852 136.953C51.0714 136.272 51.7076 135.636 52.3884 135.049L53.34 134.098V135.049L52.3884 136.001L50.4852 136.953L47.6304 139.807L44.7755 142.662ZM55.2432 140.759C54.391 142.403 53.4376 143.992 52.3884 145.517L46.6787 155.985L55.2432 140.759Z" fill="#CFB66C"/>
<path d="M55.2422 140.756L54.2906 142.659C53.7871 143.989 53.1494 145.264 52.3874 146.465L51.4358 148.368L49.5326 152.175L46.6777 155.981L48.581 152.175C49.614 150.314 50.5665 148.409 51.4358 146.465L52.3874 144.562L53.339 142.659L55.2422 140.756Z" fill="#CFB66C"/>
<path d="M62.8557 157.886C62.8557 157.886 60.0009 160.741 60.9525 164.548L62.8557 157.886Z" fill="#DEC270"/>
<path d="M85.6934 156.934L94.2578 173.111C92.8791 167.058 89.9245 161.477 85.6934 156.934Z" fill="#CBAF59"/>
<path d="M99.0161 169.305C101.831 174.237 104.372 179.32 106.629 184.531C106.629 181.676 105.677 175.015 99.0161 169.305Z" fill="#E3C677"/>
<path d="M139.935 181.677L143.741 177.87L147.548 175.967C149.451 174.064 149.451 173.112 152.306 172.161C156.112 170.257 153.257 167.402 153.257 167.402L155.161 166.451L157.064 163.596C157.064 160.741 156.112 155.983 154.209 154.08L163.725 152.177L168.483 150.274C168.483 150.274 166.58 147.419 169.435 144.564L176.096 135.999C174.193 135.999 171.338 135.048 163.725 137.903H164.677L158.015 140.757L151.354 147.419C147.548 149.322 144.693 148.37 141.838 150.274L138.032 153.128V154.08L135.177 156.935L136.129 157.886L133.274 158.838L138.032 162.644L137.08 165.499C138.032 166.451 138.983 167.402 143.741 168.354L135.177 169.306L127.564 168.354L129.467 169.306C128.516 170.257 124.709 169.306 123.758 171.209C121.854 173.112 120.903 175.967 121.854 177.87C120.903 178.822 119.951 178.822 119.951 180.725L123.758 182.628C124.709 183.58 124.709 184.531 126.612 183.58L130.419 182.628L132.322 183.58L135.177 182.628V184.531L139.935 181.677Z" fill="#ECD592"/>
<path fill-rule="evenodd" clip-rule="evenodd" d="M136 61C173.003 61 203 90.9969 203 128V139C203 176.003 173.003 206 136 206H59V174H79V93H59V61H136ZM118 169C118 171.761 120.239 174 123 174C142.882 174 159 157.882 159 138V129C159 109.118 142.882 93 123 93C120.239 93 118 95.2386 118 98V169Z" fill="white" fill-opacity="0.9"/>
</g>
</svg>
