<svg width="207" height="32" viewBox="0 0 207 32" fill="none" xmlns="http://www.w3.org/2000/svg">
<path fill-rule="evenodd" clip-rule="evenodd" d="M40 22.113H42.7347V7.5H40V22.113Z" fill="white"/>
<path fill-rule="evenodd" clip-rule="evenodd" d="M58.2042 20.2754C56.7013 21.7574 54.7598 22.4464 52.6511 22.4464C47.2233 22.4464 44.927 18.7096 44.9064 14.9105C44.8856 11.0903 47.3695 7.20703 52.6511 7.20703C54.6344 7.20703 56.5135 7.95854 58.0166 9.44076L56.1792 11.2153C55.2191 10.2762 53.925 9.83768 52.6511 9.83768C49.1233 9.83768 47.5993 12.468 47.6204 14.9105C47.641 17.3322 49.0399 19.8582 52.6511 19.8582C53.925 19.8582 55.3651 19.3363 56.3256 18.376L58.2042 20.2754Z" fill="white"/>
<path fill-rule="evenodd" clip-rule="evenodd" d="M62.2969 15.2867H66.4304C69.9581 15.2867 69.9375 10.1094 66.4304 10.1094H62.2969V15.2867ZM66.436 17.814H62.3025V22.1143H59.5469V7.50127C61.8434 7.50127 64.1397 7.48047 66.436 7.48047C73.5755 7.48047 73.5963 17.814 66.436 17.814Z" fill="white"/>
<path fill-rule="evenodd" clip-rule="evenodd" d="M82.6811 11.0293C82.1806 10.194 80.8024 9.40089 79.2161 9.40089C77.17 9.40089 76.1889 10.2566 76.1889 11.3424C76.1889 12.6157 77.6918 12.9708 79.4457 13.1796C82.4935 13.5554 85.3324 14.3483 85.3324 17.8345C85.3324 21.0913 82.4514 22.4901 79.1948 22.4901C76.2097 22.4901 73.9132 21.5718 72.8281 18.8995L75.1239 17.7095C75.7712 19.3167 77.4622 20.0268 79.2368 20.0268C80.9694 20.0268 82.5977 19.4213 82.5977 17.8345C82.5977 16.457 81.1573 15.8931 79.2161 15.6843C76.2304 15.3297 73.4749 14.5364 73.4749 11.2589C73.4749 8.25245 76.4393 7.02117 79.1322 7C81.4077 7 83.7668 7.64731 84.8734 9.90147L82.6811 11.0293Z" fill="white"/>
<path fill-rule="evenodd" clip-rule="evenodd" d="M96.5253 11.8008L98.7799 19.5455L101.139 11.8008H103.957L100.366 22.1555H97.4019L96.3374 19.1077L95.4191 15.6629L94.5 19.1077L93.4355 22.1555H90.4711L86.8594 11.8008H89.699L92.0575 19.5455L94.2918 11.8008H96.5253Z" fill="white"/>
<path fill-rule="evenodd" clip-rule="evenodd" d="M109.4 20.0619C107.792 20.0619 106.484 18.7538 106.484 17.146C106.484 15.5386 107.792 14.2305 109.4 14.2305C111.008 14.2305 112.316 15.5386 112.316 17.146C112.316 18.7538 111.008 20.0619 109.4 20.0619ZM112.347 12.5598C111.466 11.9939 110.451 11.6953 109.405 11.6953C106.399 11.6953 103.953 14.1411 103.953 17.1468C103.953 20.1528 106.399 22.5984 109.405 22.5984C110.451 22.5984 111.466 22.2998 112.347 21.7339V22.388H114.856V11.8846H112.347V12.5598Z" fill="white"/>
<mask id="mask0_37103_16135" style="mask-type:luminance" maskUnits="userSpaceOnUse" x="116" y="11" width="12" height="16">
<path fill-rule="evenodd" clip-rule="evenodd" d="M116.555 11.6836H127.935V26.5185H116.555V11.6836Z" fill="white"/>
</mask>
<g mask="url(#mask0_37103_16135)">
<path fill-rule="evenodd" clip-rule="evenodd" d="M122.478 20.05C120.871 20.05 119.562 18.742 119.562 17.1343C119.562 15.5267 120.871 14.2188 122.478 14.2188C124.086 14.2188 125.394 15.5267 125.394 17.1343C125.394 18.742 124.086 20.05 122.478 20.05ZM122.483 11.6836C121.242 11.6836 120.032 12.1128 119.064 12.8948V11.9354H116.555V26.5185H119.064V21.3755C120.032 22.1575 121.242 22.5867 122.483 22.5867C125.489 22.5867 127.935 20.1409 127.935 17.135C127.935 14.1294 125.489 11.6836 122.483 11.6836Z" fill="white"/>
</g>
<path d="M144.151 14.65C143.773 15.112 143.22 15.483 142.492 15.763C141.778 16.029 140.938 16.162 139.972 16.162H137.536V22H134.575V7.342H139.972C141.666 7.342 142.968 7.769 143.878 8.623C144.802 9.463 145.264 10.457 145.264 11.605C145.264 12.753 144.893 13.768 144.151 14.65ZM137.536 13.894H139.972C140.714 13.894 141.281 13.705 141.673 13.327C142.065 12.935 142.261 12.41 142.261 11.752C142.261 11.094 142.065 10.576 141.673 10.198C141.281 9.806 140.714 9.61 139.972 9.61H137.536V13.894ZM150.456 10.366V12.424C151.24 10.94 152.374 10.198 153.858 10.198V13.222H153.123C152.241 13.222 151.576 13.446 151.128 13.894C150.68 14.328 150.456 15.084 150.456 16.162V22H147.495V10.366H150.456ZM161.131 19.669C161.957 19.669 162.664 19.368 163.252 18.766C163.854 18.15 164.155 17.289 164.155 16.183C164.155 15.063 163.861 14.202 163.273 13.6C162.685 12.998 161.971 12.697 161.131 12.697C160.305 12.697 159.605 12.998 159.031 13.6C158.457 14.202 158.17 15.063 158.17 16.183C158.17 17.303 158.457 18.164 159.031 18.766C159.605 19.368 160.305 19.669 161.131 19.669ZM156.868 20.509C155.734 19.403 155.167 17.954 155.167 16.162C155.167 14.37 155.741 12.928 156.889 11.836C158.037 10.744 159.458 10.198 161.152 10.198C162.86 10.198 164.288 10.744 165.436 11.836C166.584 12.928 167.158 14.37 167.158 16.162C167.158 17.954 166.577 19.403 165.415 20.509C164.267 21.615 162.839 22.168 161.131 22.168C159.423 22.168 158.002 21.615 156.868 20.509Z" fill="white"/>
<circle cx="16" cy="16" r="16" fill="white" fill-opacity="0.06"/>
<path fill-rule="evenodd" clip-rule="evenodd" d="M20.1734 7.03906C17.5978 7.03906 15.7373 9.09941 15.2411 10.5543C14.3706 12.793 14.7381 14.5127 15.0619 16.0292L15.0854 16.1397C15.3861 17.5501 15.6698 18.8822 15.2635 20.5542C15.2257 20.7831 15.1587 21.0082 15.0642 21.2233C14.5992 22.2895 13.5448 22.9781 12.3783 22.9781C10.7638 22.9781 9.45023 21.6724 9.45023 20.0671C9.45023 18.4612 10.7638 17.1547 12.3783 17.1547C12.8131 17.1547 13.231 17.2479 13.6211 17.4311L13.9612 17.5912L13.5375 15.0161L13.4038 14.9892C13.0683 14.9221 12.7233 14.8883 12.3783 14.8883C9.50738 14.8883 7.17188 17.2114 7.17188 20.0671C7.17188 22.923 9.50738 25.246 12.3783 25.246C14.7616 25.246 16.8356 23.6431 17.419 21.361C18.0088 19.5736 17.7331 17.9428 17.3423 16.148L17.2986 15.9483C16.9151 14.193 16.6121 12.8065 17.5257 10.9757C18.0065 9.96187 19.0457 9.30655 20.1734 9.30655C21.7873 9.30655 23.1004 10.6122 23.1004 12.2175C23.1004 13.8226 21.7873 15.1288 20.1734 15.1288C19.7734 15.1288 19.3847 15.0498 19.0172 14.8933L18.6869 14.753L19.1041 17.2888L19.2413 17.3138C19.5462 17.3686 19.86 17.3967 20.1734 17.3967C23.0437 17.3967 25.3788 15.0732 25.3788 12.2175C25.3788 9.36205 23.0437 7.03906 20.1734 7.03906Z" fill="white"/>
<rect x="172.25" y="6.25" width="34.5" height="17.5" rx="3.75" fill="#3A4367" fill-opacity="0.1" stroke="#3A4367" stroke-width="0.5"/>
<path d="M176.9 10.684H179.876C180.724 10.684 181.38 10.892 181.844 11.308C182.308 11.716 182.54 12.244 182.54 12.892C182.54 13.82 182.008 14.432 180.944 14.728C181.48 14.816 181.912 15.056 182.24 15.448C182.568 15.84 182.732 16.292 182.732 16.804C182.732 17.436 182.484 17.96 181.988 18.376C181.5 18.792 180.844 19 180.02 19H176.9V10.684ZM177.992 11.56V14.296H179.828C180.332 14.296 180.724 14.176 181.004 13.936C181.292 13.688 181.436 13.356 181.436 12.94C181.436 12.516 181.292 12.18 181.004 11.932C180.724 11.684 180.332 11.56 179.828 11.56H177.992ZM177.992 18.136H179.96C180.488 18.136 180.9 18.004 181.196 17.74C181.5 17.476 181.652 17.116 181.652 16.66C181.652 16.196 181.488 15.832 181.16 15.568C180.84 15.304 180.412 15.172 179.876 15.172H177.992V18.136ZM187.008 19.108C186.064 19.108 185.296 18.796 184.704 18.172C184.112 17.548 183.816 16.724 183.816 15.7C183.816 14.676 184.116 13.856 184.716 13.24C185.316 12.616 186.092 12.304 187.044 12.304C188.004 12.304 188.772 12.6 189.348 13.192C189.932 13.776 190.224 14.524 190.224 15.436C190.224 15.668 190.208 15.884 190.176 16.084H184.932C184.964 16.74 185.168 17.26 185.544 17.644C185.928 18.02 186.416 18.208 187.008 18.208C187.456 18.208 187.832 18.108 188.136 17.908C188.448 17.708 188.676 17.444 188.82 17.116H189.996C189.788 17.692 189.428 18.168 188.916 18.544C188.412 18.92 187.776 19.108 187.008 19.108ZM189.084 15.292C189.076 14.66 188.876 14.156 188.484 13.78C188.092 13.396 187.604 13.204 187.02 13.204C186.444 13.204 185.964 13.392 185.58 13.768C185.196 14.136 184.984 14.644 184.944 15.292H189.084ZM193.744 18.112H194.644V19H193.54C192.396 19 191.824 18.436 191.824 17.308V13.3H190.972V12.412H191.824V10.78H192.928V12.412H194.632V13.3H192.928V17.308C192.928 17.604 192.988 17.812 193.108 17.932C193.228 18.052 193.44 18.112 193.744 18.112ZM200.325 17.5C200.765 17.052 200.985 16.456 200.985 15.712C200.985 14.968 200.765 14.372 200.325 13.924C199.893 13.476 199.369 13.252 198.753 13.252C198.145 13.252 197.621 13.468 197.181 13.9C196.749 14.332 196.533 14.92 196.533 15.664C196.533 16.408 196.753 17.012 197.193 17.476C197.633 17.94 198.157 18.172 198.765 18.172C199.373 18.172 199.893 17.948 200.325 17.5ZM198.561 19.108C197.665 19.108 196.917 18.788 196.317 18.148C195.717 17.5 195.417 16.676 195.417 15.676C195.417 14.668 195.713 13.856 196.305 13.24C196.905 12.616 197.657 12.304 198.561 12.304C199.121 12.304 199.609 12.436 200.025 12.7C200.449 12.964 200.769 13.308 200.985 13.732V12.412H202.089V19H200.985V17.656C200.769 18.088 200.449 18.44 200.025 18.712C199.609 18.976 199.121 19.108 198.561 19.108Z" fill="#8492C4"/>
</svg>
