<svg width="18" height="18" viewBox="0 0 18 18" fill="none" xmlns="http://www.w3.org/2000/svg">
<rect width="18" height="18" rx="9" fill="black"/>
<g clip-path="url(#clip0_50152_49126)">
<path fill-rule="evenodd" clip-rule="evenodd" d="M9.96571 7.42109C10.3011 7.25386 10.7278 7.00769 11.1551 6.67041C11.2452 6.85749 11.255 7.02074 11.2086 7.15256C11.1757 7.24545 11.1138 7.32626 11.0323 7.39054C10.944 7.46001 10.8338 7.51059 10.7119 7.53793C10.4808 7.59001 10.2108 7.5596 9.96571 7.42109ZM10.0239 9.13456L10.4678 9.391C9.56134 9.89906 9.31491 10.8424 9.02218 11.7613C8.72949 10.8424 8.48303 9.89906 7.57659 9.391L8.02055 9.13456C8.06349 9.11833 8.1002 9.08892 8.12541 9.05055C8.15062 9.01218 8.16303 8.96681 8.16088 8.92095C8.12021 8.06042 8.35256 7.67987 8.66598 7.44094C8.77839 7.35535 8.90111 7.31237 9.02218 7.31237C9.14326 7.31237 9.26598 7.35535 9.37843 7.44094C9.69184 7.67987 9.9242 8.06042 9.88352 8.92095C9.88137 8.96681 9.89379 9.01218 9.919 9.05055C9.9442 9.08892 9.98091 9.11833 10.0239 9.13456ZM9.02218 3.51562C9.53536 3.5294 10.0498 3.62903 10.4963 3.82283C10.8055 3.9572 11.0939 4.13471 11.3552 4.34696C11.4731 4.44278 11.5703 4.53535 11.6773 4.64192C11.9659 4.6519 12.3877 4.33128 12.5835 4.03128C12.2465 5.13605 10.7087 6.44069 9.64411 6.9399C9.64368 6.93972 9.64338 6.93946 9.64305 6.93924C9.452 6.79335 9.23711 6.72041 9.02218 6.72041C8.80726 6.72041 8.59241 6.79335 8.40135 6.93924C8.40102 6.93942 8.40073 6.93975 8.40029 6.9399C7.33565 6.44069 5.79792 5.13605 5.46094 4.03128C5.65671 4.33128 6.07848 4.6519 6.36708 4.64192C6.47412 4.53539 6.57126 4.44278 6.68919 4.34696C6.95042 4.13471 7.23891 3.9572 7.54809 3.82283C7.9946 3.62903 8.50905 3.5294 9.02218 3.51562ZM8.07865 7.42109C7.74331 7.25386 7.31653 7.00769 6.88932 6.67041C6.79923 6.85749 6.78937 7.02074 6.83574 7.15256C6.86867 7.24545 6.93065 7.32626 7.01211 7.39054C7.1004 7.46001 7.21062 7.51059 7.33247 7.53793C7.56365 7.59001 7.83354 7.5596 8.07865 7.42109Z" fill="white"/>
<path fill-rule="evenodd" clip-rule="evenodd" d="M11.6235 6.25796C11.8587 6.0206 12.066 5.75788 12.2326 5.52344L12.3173 5.68274C12.5898 6.22789 12.7313 6.77084 12.7313 7.38188L12.7307 8.35151L12.7359 8.85415C12.7556 10.0881 13.0226 11.3366 13.6274 12.4792L12.362 11.4588L11.4666 12.9118L10.5259 12.0263L9.0227 14.4656L7.51951 12.0263L6.57887 12.9118L5.68346 11.4588L4.41797 12.4792C5.0228 11.3367 5.2898 10.0882 5.30957 8.85419L5.31468 8.35154L5.3141 7.38192C5.3141 6.77084 5.45564 6.22789 5.7282 5.68278L5.8128 5.52347C5.97945 5.75791 6.18666 6.0206 6.4219 6.258L6.34845 6.41058C6.20574 6.70693 6.15848 7.03828 6.26965 7.35341C6.34132 7.55639 6.47212 7.73045 6.64074 7.86333C6.80446 7.99237 6.99822 8.07935 7.20109 8.12503C7.33324 8.15478 7.46787 8.16702 7.60163 8.16286C7.57042 8.33978 7.55679 8.52327 7.55591 8.71024L6.36219 9.3997L7.28335 9.91605C7.35698 9.95733 7.42707 10.0046 7.4929 10.0574C8.25235 10.7393 8.70895 12.7565 9.02273 13.7418C9.33655 12.7565 9.79311 10.7393 10.5526 10.0574C10.6184 10.0046 10.6885 9.95732 10.7622 9.91605L11.6833 9.3997L10.4896 8.71024C10.4887 8.52327 10.475 8.33978 10.4438 8.16286C10.5776 8.16702 10.7122 8.15478 10.8444 8.12503C11.0472 8.07935 11.241 7.99237 11.4047 7.86333C11.5733 7.73045 11.7041 7.55639 11.7758 7.35341C11.887 7.03828 11.8397 6.70696 11.697 6.41058L11.6236 6.258L11.6235 6.25796Z" fill="white"/>
</g>
<defs>
<clipPath id="clip0_50152_49126">
<rect width="9.20946" height="10.9636" fill="white" transform="translate(4.41797 3.51562)"/>
</clipPath>
</defs>
</svg>
