<svg width="20" height="20" viewBox="0 0 20 20" fill="none" xmlns="http://www.w3.org/2000/svg">
<path d="M11.375 18.0118L11 17.3623L11.375 18.0118L12.875 17.1458C15.5823 15.5828 17.25 12.6942 17.25 9.5681V6.33013C17.25 5.70491 16.9165 5.12719 16.375 4.81458L10.875 1.63916L10.5 2.28868L10.875 1.63916C10.3335 1.32655 9.66645 1.32655 9.125 1.63916L3.625 4.81458C3.08355 5.12719 2.75 5.70491 2.75 6.33013V9.5681C2.75 12.6942 4.41774 15.5828 7.125 17.1458L8.625 18.0118C9.47585 18.5031 10.5241 18.5031 11.375 18.0118Z" fill="#192D3F" stroke="#54C081" stroke-width="1.5"/>
<path d="M10.8135 6.89062V14H9.35352V6.89062H10.8135ZM13.001 6.89062V8.03809H7.2002V6.89062H13.001Z" fill="#54C081"/>
</svg>
