<svg width="16" height="16" viewBox="0 0 16 16" fill="none" xmlns="http://www.w3.org/2000/svg">
<path d="M6.7125 14.2956L7.0125 13.776L6.7125 14.2956C7.51694 14.76 8.50806 14.76 9.3125 14.2956L9.5125 14.1801L9.2125 13.6605L9.5125 14.1801C12.1734 12.6439 13.8125 9.80477 13.8125 6.73228V5.18113C13.8125 4.60951 13.5075 4.08131 13.0125 3.79549L8.8125 1.37062C8.31746 1.08481 7.70754 1.08481 7.2125 1.37062L3.0125 3.79549C2.51746 4.08131 2.2125 4.60951 2.2125 5.18113V6.73228C2.2125 9.80477 3.85165 12.6439 6.5125 14.1801L6.7125 14.2956Z" fill="#1A223F" stroke="#1A223F" stroke-width="1.2"/>
<path d="M8.65625 5.51562V11.2031H7.48828V5.51562H8.65625ZM10.4062 5.51562V6.43359H5.76562V5.51562H10.4062Z" fill="#54C081"/>
</svg>
