<svg width="36" height="36" viewBox="0 0 36 36" fill="none" xmlns="http://www.w3.org/2000/svg">
<circle cx="18" cy="18" r="17.5" fill="#1A1A1A" stroke="#313131"/>
<path d="M30.4996 18C30.4996 14.6916 27.7713 12 24.4233 12C23.0274 12 21.5076 12.7275 19.8973 14.1618C19.136 14.8399 18.4759 15.5651 17.9803 16.1484C16.2398 14.1776 13.9057 12 11.5763 12C8.76079 12 6.30554 13.9818 5.66666 16.6076C5.55772 17.055 5.5 17.5213 5.5 18C5.5 21.3084 8.18485 24 11.5329 24C12.9287 24 14.492 23.2725 16.1022 21.8383C16.8635 21.1601 17.5236 20.4349 18.0193 19.8516C19.7597 21.8223 22.0943 24 24.4237 24C27.2392 24 29.6945 22.0183 30.3333 19.3928C30.4423 18.9454 30.5 18.4791 30.5 18.0004L30.4996 18ZM18.4473 16.1422C19.0162 15.4897 19.5805 14.9135 20.1265 14.4274C21.6716 13.0509 23.1173 12.3529 24.4233 12.3529C27.5825 12.3529 30.1523 14.8862 30.1523 18C30.1523 18.4367 30.1007 18.8731 29.9983 19.2975C29.9818 19.3465 29.7713 19.9323 29.1715 20.5019C28.3924 21.2417 27.3364 21.6172 26.0326 21.6177C27.4349 20.9983 28.4158 19.6067 28.4158 18C28.4158 15.8157 26.6246 14.0391 24.4233 14.0391C23.5652 14.0391 22.5149 14.5875 21.3001 15.6697C20.7536 16.1568 20.2003 16.7294 19.6161 17.4137L19.3869 17.681L18.2129 16.4047L18.4473 16.1422ZM16.3705 18.0591C15.907 18.6185 15.2385 19.3809 14.4703 20.0651C13.0389 21.3406 12.1084 21.608 11.5763 21.608C9.56851 21.608 7.93095 19.9893 7.93095 18C7.93095 16.0107 9.56677 14.4044 11.5763 14.3921C11.6492 14.3921 11.7373 14.3996 11.8441 14.419C12.8796 14.8226 13.8046 15.4668 14.3632 15.9865C14.8123 16.4047 15.6261 17.2606 16.3701 18.0587L16.3705 18.0591ZM17.5523 19.8578C16.9829 20.5103 16.4191 21.0865 15.8731 21.5727C14.3497 22.9297 12.8488 23.647 11.5329 23.647C10.0073 23.647 8.57677 23.0581 7.50387 21.9887C6.43532 20.9237 5.84722 19.507 5.84722 18C5.84722 17.5633 5.8993 17.1265 6.00129 16.7025C6.01865 16.6518 6.22915 16.0668 6.8281 15.4981C7.60717 14.7582 8.66314 14.3828 9.96693 14.3824C8.56462 15.0018 7.58373 16.3932 7.58373 18C7.58373 20.1843 9.37493 21.9609 11.5763 21.9609C12.4343 21.9609 13.4847 21.4125 14.6995 20.3303C15.2459 19.8433 15.7993 19.2706 16.3835 18.5863L16.6122 18.3185C16.6122 18.3185 17.7689 19.5759 17.7815 19.59L17.5523 19.8578ZM19.6291 17.9409C20.0926 17.3815 20.761 16.6191 21.5292 15.9349C22.9607 14.6594 23.8912 14.3921 24.4233 14.3921C26.431 14.3921 28.0686 16.0107 28.0686 18C28.0686 19.9893 26.4328 21.5956 24.4233 21.608C24.3504 21.608 24.2623 21.6004 24.1551 21.581C24.1559 21.581 24.1564 21.5815 24.1572 21.5819C23.1208 21.1783 22.195 20.5337 21.636 20.0135C21.1868 19.5953 20.373 18.7394 19.6286 17.9413L19.6291 17.9409Z" fill="white"/>
</svg>
