<svg xmlns="http://www.w3.org/2000/svg" width="48" height="48" viewBox="0 0 48 48" fill="none">
<circle cx="24" cy="24" r="24" fill="#F8F9FB"/>
<path d="M38.4387 9.50195L26.0804 18.6437L28.3846 13.2546L38.4387 9.50195Z" fill="#E17726" stroke="#E17726" stroke-width="0.25" stroke-linecap="round" stroke-linejoin="round"/>
<path d="M9.94122 9.50195L22.1867 18.719L19.9953 13.264L9.94122 9.50195ZM33.9901 30.6917L30.6983 35.714L37.7427 37.6515L39.7554 30.8045L33.9901 30.6917ZM8.63391 30.8045L10.6372 37.6515L17.6628 35.714L14.3898 30.6917L8.63391 30.8045Z" fill="#E27625" stroke="#E27625" stroke-width="0.25" stroke-linecap="round" stroke-linejoin="round"/>
<path d="M17.2866 22.2076L15.3304 25.1608L22.2902 25.4806L22.0644 17.9847L17.2866 22.217V22.2076ZM31.0934 22.217L26.2403 17.8906L26.0804 25.4806L33.0402 25.1608L31.0934 22.217ZM17.6629 35.7133L21.8857 33.6818L18.2554 30.8603L17.6629 35.7133ZM26.5037 33.6724L30.6983 35.7133L30.134 30.8509L26.5037 33.6724Z" fill="#E27625" stroke="#E27625" stroke-width="0.25" stroke-linecap="round" stroke-linejoin="round"/>
<path d="M30.6983 35.7151L26.5037 33.6836L26.8422 36.4111L26.8046 37.5679L30.6983 35.7151ZM17.6628 35.7151L21.5754 37.5679L21.5472 36.4111L21.8857 33.6836L17.6628 35.7151Z" fill="#D5BFB2" stroke="#D5BFB2" stroke-width="0.25" stroke-linecap="round" stroke-linejoin="round"/>
<path d="M21.6412 29.0444L18.1613 28.0286L20.6255 26.9L21.6506 29.0444H21.6412ZM26.7294 29.0444L27.7639 26.8906L30.2375 28.0192L26.7294 29.0538V29.0444Z" fill="#233447" stroke="#233447" stroke-width="0.25" stroke-linecap="round" stroke-linejoin="round"/>
<path d="M17.6628 35.7147L18.2741 30.6923L14.3898 30.8052L17.6628 35.7147ZM30.1058 30.6923L30.6983 35.7147L33.9901 30.8052L30.1058 30.6923ZM33.0496 25.1621L26.0898 25.4819L26.7293 29.0558L27.7639 26.8927L30.2375 28.0213L33.0496 25.1621ZM18.1613 28.0307L20.6254 26.9021L21.6506 29.0464L22.2995 25.4725L15.3397 25.1621L18.1613 28.0307Z" fill="#CC6228" stroke="#CC6228" stroke-width="0.25" stroke-linecap="round" stroke-linejoin="round"/>
<path d="M15.3398 25.1621L18.2554 30.8522L18.1613 28.0307L15.3398 25.1621ZM30.2375 28.0307L30.1246 30.8522L33.0402 25.1621L30.2375 28.0307ZM22.2996 25.4819L21.6412 29.0558L22.4689 33.2693L22.657 27.7109L22.2996 25.4819ZM26.0804 25.4819L25.7418 27.7015L25.9111 33.2693L26.7294 29.0464L26.0804 25.4725V25.4819Z" fill="#E27525" stroke="#E27525" stroke-width="0.25" stroke-linecap="round" stroke-linejoin="round"/>
<path d="M26.7294 29.045L25.9111 33.2679L26.5037 33.6818L30.1246 30.8602L30.2375 28.0293L26.7294 29.045ZM18.1613 28.0293L18.2554 30.8508L21.8857 33.6724L22.4689 33.2679L21.6506 29.045L18.1519 28.0293H18.1613Z" fill="#F5841F" stroke="#F5841F" stroke-width="0.25" stroke-linecap="round" stroke-linejoin="round"/>
<path d="M26.814 37.5657L26.8422 36.4089L26.5225 36.1455H21.8575L21.5472 36.4089L21.5754 37.5657L17.6628 35.7129L19.036 36.8415L21.8105 38.7507H26.5601L29.344 36.8321L30.6983 35.7129L26.8046 37.5657H26.814Z" fill="#C0AC9D" stroke="#C0AC9D" stroke-width="0.25" stroke-linecap="round" stroke-linejoin="round"/>
<path d="M26.5037 33.672L25.9112 33.2676H22.4689L21.8858 33.6814L21.5472 36.4089L21.8575 36.1455H26.5225L26.8423 36.4089L26.5037 33.6814V33.672Z" fill="#161616" stroke="#161616" stroke-width="0.25" stroke-linecap="round" stroke-linejoin="round"/>
<path d="M38.9654 19.2362L40 14.2045L38.4388 9.50195L26.4943 18.3428L31.0934 22.2083L37.5829 24.0987L39.0125 22.434L38.3917 21.9825L39.3793 21.0797L38.6269 20.4965L39.6144 19.7441L38.956 19.2362H38.9654ZM8.38 14.1951L9.43338 19.2362L8.75621 19.7347L9.76256 20.4871L9.01015 21.0797L9.98828 21.9825L9.36754 22.434L10.7971 24.0987L17.2866 22.2177L21.8858 18.3334L9.94125 9.50195L8.38 14.1951Z" fill="#763E1A" stroke="#763E1A" stroke-width="0.25" stroke-linecap="round" stroke-linejoin="round"/>
<path d="M37.5829 24.1L31.0933 22.2189L33.0496 25.1627L30.134 30.8528L33.9901 30.8058H39.7554L37.5829 24.1ZM17.2866 22.2095L10.7971 24.1L8.63391 30.8058H14.3992L18.2553 30.8528L15.3398 25.1627L17.296 22.2095H17.2866ZM26.0804 25.4825L26.5036 18.3346L28.3847 13.2559H19.9953L21.8763 18.3346L22.2995 25.4825L22.4594 27.7209V33.2699H25.9111L25.9299 27.7209L26.0804 25.4825Z" fill="#F5841F" stroke="#F5841F" stroke-width="0.25" stroke-linecap="round" stroke-linejoin="round"/>
</svg>