<svg width="512" height="512" viewBox="0 0 512 512" fill="none" xmlns="http://www.w3.org/2000/svg">
<path fill-rule="evenodd" clip-rule="evenodd" d="M170.143 102.166C174.778 101.672 178.135 97.5142 177.641 92.8791C177.147 88.244 172.988 84.8871 168.353 85.3813L151.115 87.219C142.283 88.1605 135.2 88.9157 129.447 89.9586C123.521 91.033 118.442 92.5017 113.724 95.1453C106.066 99.4373 99.716 105.727 95.3547 113.343C92.668 118.035 91.1553 123.099 90.0307 129.011C88.9392 134.749 88.1251 141.818 87.1104 150.63L87.0666 151.009L85.374 167.842C84.9077 172.48 88.2896 176.618 92.9278 177.084C97.566 177.55 101.704 174.168 102.17 169.53L103.851 152.82C104.907 143.648 105.655 137.212 106.614 132.165C107.557 127.212 108.608 124.169 110.004 121.731C112.846 116.769 116.984 112.669 121.977 109.871C124.432 108.495 127.49 107.469 132.459 106.568C137.532 105.648 144 104.954 153.223 103.97L170.143 102.166ZM334.353 92.8791C333.859 97.5142 337.216 101.672 341.852 102.167L358.771 103.97C367.994 104.954 374.463 105.649 379.536 106.568C384.504 107.469 387.562 108.495 390.017 109.871C395.011 112.669 399.149 116.769 401.99 121.731C403.386 124.169 404.438 127.212 405.38 132.165C406.34 137.212 407.087 143.648 408.143 152.82L409.824 169.531C410.29 174.169 414.428 177.55 419.066 177.084C423.705 176.618 427.087 172.48 426.62 167.842L424.928 151.009L424.884 150.63L424.884 150.629L424.884 150.628C423.869 141.817 423.055 134.748 421.964 129.011C420.839 123.099 419.326 118.035 416.64 113.343C412.278 105.727 405.929 99.4374 398.27 95.1453C393.553 92.5018 388.473 91.0331 382.547 89.9587C376.794 88.9157 369.711 88.1606 360.879 87.2191L343.641 85.3813C339.006 84.8871 334.848 88.244 334.353 92.8791ZM334.353 419.119C333.859 414.484 337.216 410.326 341.852 409.832L358.771 408.028C367.994 407.045 374.463 406.35 379.536 405.43C384.504 404.529 387.562 403.503 390.017 402.127C395.011 399.329 399.149 395.229 401.99 390.267C403.386 387.829 404.438 384.786 405.38 379.833C406.34 374.786 407.087 368.351 408.143 359.179L409.824 342.468C410.29 337.83 414.428 334.448 419.066 334.914C423.705 335.381 427.087 339.519 426.62 344.157L424.928 360.989L424.884 361.368L424.884 361.369L424.884 361.37L424.884 361.372L424.883 361.375C423.869 370.184 423.055 377.251 421.964 382.987C420.839 388.899 419.326 393.963 416.64 398.655C412.278 406.271 405.929 412.561 398.27 416.853C393.553 419.496 388.473 420.965 382.547 422.04C376.794 423.083 369.711 423.838 360.879 424.779L343.641 426.617C339.006 427.111 334.848 423.754 334.353 419.119ZM177.641 419.122C178.135 414.487 174.778 410.328 170.143 409.834L153.223 408.031C144 407.047 137.532 406.352 132.459 405.433C127.49 404.532 124.432 403.506 121.977 402.13C116.984 399.331 112.846 395.232 110.004 390.27C108.608 387.832 107.557 384.789 106.615 379.836C105.655 374.789 104.907 368.353 103.851 359.181L102.17 342.47C101.704 337.832 97.566 334.451 92.9278 334.917C88.2896 335.383 84.9077 339.521 85.3741 344.159L87.0667 360.991L87.1104 361.371C88.1252 370.183 88.9393 377.252 90.0307 382.99C91.1553 388.902 92.668 393.965 95.3547 398.657C99.7161 406.274 106.066 412.563 113.724 416.855C118.442 419.499 123.521 420.968 129.447 422.042C135.2 423.085 142.283 423.84 151.115 424.782L168.353 426.62C172.988 427.114 177.147 423.757 177.641 419.122ZM173.07 190.908C169.04 190.908 165.772 194.176 165.772 198.206V316.251C165.772 320.282 169.04 323.549 173.07 323.549H195.994C200.025 323.549 203.292 320.281 203.292 316.251V198.206C203.292 194.176 200.025 190.908 195.994 190.908H173.07ZM235.241 190.908C231.21 190.908 227.943 194.176 227.943 198.206V316.251C227.943 320.282 231.21 323.549 235.241 323.549H290.666C305.194 323.549 318.079 320.833 329.323 315.401C340.566 309.969 349.283 302.263 355.473 292.284C361.663 282.304 364.759 270.619 364.759 257.229C364.759 243.838 361.663 232.153 355.473 222.174C349.283 212.194 340.566 204.488 329.323 199.056C318.079 193.624 305.194 190.908 290.666 190.908H235.241ZM316.437 283.946C309.615 290.389 300.52 293.61 289.15 293.61H267.652C266.443 293.61 265.463 292.63 265.463 291.421V223.037C265.463 221.827 266.443 220.847 267.652 220.847H289.15C300.52 220.847 309.615 224.068 316.437 230.511C323.385 236.954 326.859 245.859 326.859 257.229C326.859 268.598 323.385 277.504 316.437 283.946Z" fill="url(#paint0_linear_79280_74506)"/>
<defs>
<linearGradient id="paint0_linear_79280_74506" x1="89.4154" y1="85.333" x2="424.219" y2="428.155" gradientUnits="userSpaceOnUse">
<stop stop-color="#00A695"/>
<stop offset="0.5" stop-color="#018477"/>
<stop offset="1" stop-color="#006F64"/>
</linearGradient>
</defs>
</svg>
