<svg width="40" height="40" viewBox="0 0 40 40" fill="none" xmlns="http://www.w3.org/2000/svg">
<g clip-path="url(#clip0_51980_11346)">
<path d="M20 40C31.0457 40 40 31.0457 40 20C40 8.9543 31.0457 0 20 0C8.9543 0 0 8.9543 0 20C0 31.0457 8.9543 40 20 40Z" fill="#2A64F6"/>
<path fill-rule="evenodd" clip-rule="evenodd" d="M22.1927 30.3804L21.7115 32.5085C21.6397 32.8264 21.3357 33.036 21.0138 32.9863C20.28 32.8728 19.5363 32.7425 18.7852 32.5986C18.4402 32.5325 18.2203 32.1931 18.2977 31.8505L18.7333 29.9237C18.4283 29.864 18.1213 29.7994 17.8127 29.7303C17.5345 29.6668 17.2591 29.6005 16.9867 29.5315L16.5513 31.4577C16.4738 31.8001 16.1296 32.0119 15.7899 31.9235C15.0498 31.731 14.3224 31.5297 13.6112 31.3177C13.2985 31.2245 13.1137 30.9042 13.1857 30.586L13.6643 28.4686C8.93357 26.5716 5.9469 23.3474 7.21456 17.8412L7.51958 16.492C8.74629 10.9652 12.8281 9.34564 17.9142 9.67127L18.3925 7.55534C18.4644 7.23712 18.7691 7.02741 19.0914 7.07777C19.8247 7.19235 20.5679 7.32357 21.3188 7.4682C21.6635 7.53459 21.8831 7.87384 21.8057 8.21623L21.3703 10.1424C21.6458 10.1973 21.923 10.2559 22.2013 10.3184C22.5099 10.3881 22.815 10.4613 23.1161 10.538L23.5513 8.61291C23.6288 8.27033 23.9733 8.05853 24.3132 8.14726C25.0533 8.34049 25.7805 8.54271 26.4918 8.75592C26.8039 8.84949 26.9881 9.16954 26.9163 9.48736L26.4364 11.6098C31.1055 13.5065 34.0237 16.7283 32.7857 22.2043L32.4807 23.5535C31.2644 29.0334 27.2265 30.6738 22.1927 30.3804ZM29.0572 22.4573L29.2288 21.698C30.4376 16.675 26.4183 14.7989 21.4631 13.6061C16.4534 12.546 12.0178 12.5106 10.9483 17.5652L10.7767 18.3245C9.56262 23.3705 13.5821 25.2465 18.5604 26.4446C23.5469 27.4995 27.9824 27.5349 29.0572 22.4573Z" fill="white"/>
</g>
<defs>
<clipPath id="clip0_51980_11346">
<rect width="40" height="40" fill="white"/>
</clipPath>
</defs>
</svg>
