<svg width="20" height="21" viewBox="0 0 20 21" fill="none" xmlns="http://www.w3.org/2000/svg">
<path d="M2.42969 5.62109C2.15071 5.4217 2.15075 5.00705 2.42969 4.80762L5.70898 2.46484C6.03992 2.22846 6.5 2.46538 6.5 2.87207V7.55664C6.5 7.96333 6.03992 8.20025 5.70898 7.96387L2.42969 5.62109Z" fill="#8492C4" stroke="#8492C4"/>
<path d="M18.1028 9.33315V7.97461C18.1028 6.31775 16.7596 4.97461 15.1028 4.97461H3.9375" stroke="#8492C4" stroke-width="1.4" stroke-linecap="round"/>
<path d="M18.5703 15.3789C18.8493 15.5783 18.8492 15.9929 18.5703 16.1924L15.291 18.5352C14.9601 18.7715 14.5 18.5346 14.5 18.1279V13.4434C14.5 13.0367 14.9601 12.7998 15.291 13.0361L18.5703 15.3789Z" fill="#8492C4" stroke="#8492C4"/>
<path d="M2.92849 11.5985V12.957C2.92849 14.6139 4.27164 15.957 5.92849 15.957H17.0938" stroke="#8492C4" stroke-width="1.4" stroke-linecap="round"/>
</svg>
