<svg width="20" height="20" viewBox="0 0 20 20" fill="none" xmlns="http://www.w3.org/2000/svg">
<path d="M2.50121 9.83333C2.47871 9.83333 2.45542 9.8325 2.43209 9.83C2.08876 9.7925 1.84126 9.48333 1.87876 9.14083C2.18126 6.37666 3.84957 3.99586 6.34124 2.77252C6.53541 2.67752 6.76456 2.68918 6.94706 2.80334C7.1304 2.91751 7.24206 3.11832 7.24206 3.33415V5.87586C7.24206 6.22086 6.96206 6.50086 6.61706 6.50086C6.27206 6.50086 5.99206 6.22086 5.99206 5.87586V4.42505C4.38956 5.54005 3.33871 7.2908 3.12204 9.27667C3.08704 9.59583 2.81538 9.83333 2.50121 9.83333ZM13.6596 17.2275C16.1512 16.005 17.8196 13.6242 18.1212 10.8592C18.1596 10.5158 17.9112 10.2075 17.5679 10.17C17.2279 10.1333 16.9171 10.38 16.8796 10.7233C16.6621 12.7092 15.6121 14.4599 14.0087 15.5749V14.1242C14.0087 13.7792 13.7287 13.4992 13.3837 13.4992C13.0387 13.4992 12.7587 13.7792 12.7587 14.1242V16.6658C12.7587 16.8817 12.8704 17.0825 13.0537 17.1967C13.1546 17.2592 13.2687 17.2908 13.3837 17.2908C13.4779 17.2917 13.5721 17.2708 13.6596 17.2275ZM10.0004 5.83333C10.0004 7.67417 11.4929 9.16667 13.3337 9.16667C15.1746 9.16667 16.6671 7.67417 16.6671 5.83333C16.6671 3.9925 15.1746 2.5 13.3337 2.5C11.4929 2.5 10.0004 3.9925 10.0004 5.83333ZM3.33373 14.1667C3.33373 16.0075 4.82623 17.5 6.66706 17.5C8.50791 17.5 10.0004 16.0075 10.0004 14.1667C10.0004 12.3258 8.50791 10.8333 6.66706 10.8333C4.82623 10.8333 3.33373 12.3258 3.33373 14.1667Z" fill="#8492C4"/>
</svg>
