<svg width="20" height="20" viewBox="0 0 20 20" fill="none" xmlns="http://www.w3.org/2000/svg">
<path d="M17.1264 15.4165C17.2361 13.6681 17.2938 11.8562 17.2938 9.99959C17.2938 9.24766 17.2844 8.50307 17.2659 7.76705C17.2529 7.24999 17.0851 6.7475 16.7791 6.33055C15.6125 4.74133 14.6832 3.75333 13.1515 2.57128C12.7306 2.24644 12.2142 2.0702 11.6826 2.05858C11.1496 2.04693 10.5931 2.04102 9.99848 2.04102C8.19858 2.04102 6.74668 2.09523 5.24416 2.19853C3.96596 2.28642 2.95081 3.30396 2.87055 4.58266C2.76081 6.33112 2.70312 8.143 2.70312 9.99959C2.70312 11.8562 2.76081 13.6681 2.87055 15.4165C2.95081 16.6953 3.96596 17.7128 5.24416 17.8006C6.74668 17.9039 8.19858 17.9582 9.99848 17.9582C11.7984 17.9582 13.2503 17.9039 14.7528 17.8006C16.0309 17.7128 17.0462 16.6953 17.1264 15.4165Z" stroke="#8492C4" stroke-width="1.4" stroke-linecap="round" stroke-linejoin="round"/>
<path d="M7.46875 10.0195H12.5258" stroke="#8492C4" stroke-width="1.4" stroke-linecap="round" stroke-linejoin="round"/>
<path d="M7.46875 13.8744H12.51M7.46875 6.01953H10.5204" stroke="#8492C4" stroke-width="1.4" stroke-linecap="round" stroke-linejoin="round"/>
</svg>
