<svg width="177" height="36" viewBox="0 0 177 36" fill="none" xmlns="http://www.w3.org/2000/svg">
<path fill-rule="evenodd" clip-rule="evenodd" d="M42.0642 24.9568H44.7989V10.3438H42.0642V24.9568Z" fill="white"/>
<path fill-rule="evenodd" clip-rule="evenodd" d="M60.2689 23.1192C58.766 24.6012 56.8245 25.2901 54.7157 25.2901C49.288 25.2901 46.9917 21.5534 46.9711 17.7542C46.9503 13.9341 49.4342 10.0508 54.7157 10.0508C56.6991 10.0508 58.5782 10.8023 60.0812 12.2845L58.2439 14.0591C57.2838 13.12 55.9897 12.6814 54.7157 12.6814C51.188 12.6814 49.664 15.3117 49.6851 17.7542C49.7057 20.1759 51.1046 22.702 54.7157 22.702C55.9897 22.702 57.4298 22.18 58.3903 21.2198L60.2689 23.1192Z" fill="white"/>
<path fill-rule="evenodd" clip-rule="evenodd" d="M64.363 18.1315H68.4965C72.0243 18.1315 72.0037 12.9541 68.4965 12.9541H64.363V18.1315ZM68.4966 20.6577H64.3631V24.958H61.6074V10.345C63.9039 10.345 66.2002 10.3242 68.4966 10.3242C75.6361 10.3242 75.6569 20.6577 68.4966 20.6577Z" fill="white"/>
<path fill-rule="evenodd" clip-rule="evenodd" d="M84.7405 13.873C84.2399 13.0378 82.8617 12.2446 81.2755 12.2446C79.2293 12.2446 78.2483 13.1004 78.2483 14.1862C78.2483 15.4594 79.7511 15.8146 81.505 16.0234C84.5529 16.3991 87.3917 17.192 87.3917 20.6782C87.3917 23.935 84.5107 25.3338 81.2541 25.3338C78.2691 25.3338 75.9726 24.4155 74.8875 21.7433L77.1832 20.5532C77.8305 22.1604 79.5215 22.8705 81.2961 22.8705C83.0287 22.8705 84.6571 22.265 84.6571 20.6782C84.6571 19.3008 83.2167 18.7369 81.2755 18.5281C78.2897 18.1735 75.5342 17.3802 75.5342 14.1026C75.5342 11.0962 78.4986 9.86492 81.1915 9.84375C83.467 9.84375 85.8261 10.4911 86.9328 12.7452L84.7405 13.873Z" fill="white"/>
<path fill-rule="evenodd" clip-rule="evenodd" d="M98.5839 14.6445L100.838 22.3892L103.197 14.6445H106.016L102.425 24.9992H99.4605L98.396 21.9514L97.4777 18.5066L96.5586 21.9514L95.4941 24.9992H92.5297L88.918 14.6445H91.7576L94.1161 22.3892L96.3504 14.6445H98.5839Z" fill="white"/>
<path fill-rule="evenodd" clip-rule="evenodd" d="M111.467 22.9062C109.86 22.9062 108.552 21.5981 108.552 19.9903C108.552 18.3829 109.86 17.0748 111.467 17.0748C113.075 17.0748 114.383 18.3829 114.383 19.9903C114.383 21.5981 113.075 22.9062 111.467 22.9062ZM114.409 15.4035C113.529 14.8376 112.514 14.5391 111.467 14.5391C108.461 14.5391 106.016 16.9848 106.016 19.9905C106.016 22.9966 108.461 25.4422 111.467 25.4422C112.514 25.4422 113.529 25.1436 114.409 24.5777V25.2317H116.919V14.7283H114.409V15.4035Z" fill="white"/>
<mask id="mask0_638_0" style="mask-type:alpha" maskUnits="userSpaceOnUse" x="118" y="14" width="13" height="16">
<path fill-rule="evenodd" clip-rule="evenodd" d="M118.62 14.5273H130V29.3623H118.62V14.5273Z" fill="white"/>
</mask>
<g mask="url(#mask0_638_0)">
<path fill-rule="evenodd" clip-rule="evenodd" d="M124.548 22.8943C122.941 22.8943 121.633 21.5864 121.633 19.9786C121.633 18.371 122.941 17.0631 124.548 17.0631C126.156 17.0631 127.464 18.371 127.464 19.9786C127.464 21.5864 126.156 22.8943 124.548 22.8943ZM124.549 14.5273C123.307 14.5273 122.098 14.9566 121.129 15.7386V14.7792H118.62V29.3623H121.129V24.2192C122.098 25.0012 123.307 25.4304 124.549 25.4304C127.555 25.4304 130 22.9847 130 19.9788C130 16.9731 127.555 14.5273 124.549 14.5273Z" fill="white"/>
</g>
<circle cx="17.6411" cy="17.6411" r="17.6411" fill="white" fill-opacity="0.06"/>
<path fill-rule="evenodd" clip-rule="evenodd" d="M22.243 7.75391C19.4032 7.75391 17.3519 10.0256 16.8048 11.6297C15.8451 14.098 16.2502 15.994 16.6072 17.6662L16.6331 17.7879C16.9647 19.343 17.2775 20.8118 16.8295 22.6552C16.7879 22.9076 16.7139 23.1558 16.6098 23.393C16.0971 24.5686 14.9346 25.3277 13.6484 25.3277C11.8683 25.3277 10.42 23.8882 10.42 22.1182C10.42 20.3476 11.8683 18.9071 13.6484 18.9071C14.1278 18.9071 14.5885 19.0098 15.0187 19.2119L15.3936 19.3883L14.9265 16.5491L14.7791 16.5194C14.4092 16.4455 14.0287 16.4082 13.6484 16.4082C10.483 16.4082 7.90796 18.9696 7.90796 22.1182C7.90796 25.267 10.483 27.8282 13.6484 27.8282C16.2761 27.8282 18.5629 26.061 19.2061 23.5448C19.8564 21.5741 19.5524 19.776 19.1215 17.7972L19.0733 17.577C18.6505 15.6416 18.3164 14.1129 19.3237 12.0943C19.8539 10.9765 20.9997 10.254 22.243 10.254C24.0224 10.254 25.4702 11.6935 25.4702 13.4635C25.4702 15.2332 24.0224 16.6734 22.243 16.6734C21.8019 16.6734 21.3734 16.5863 20.9682 16.4137L20.6041 16.259L21.064 19.0549L21.2153 19.0825C21.5515 19.1429 21.8974 19.1739 22.243 19.1739C25.4077 19.1739 27.9823 16.6121 27.9823 13.4635C27.9823 10.3152 25.4077 7.75391 22.243 7.75391Z" fill="white"/>
<path d="M139.72 11V25H142.4V11H139.72ZM152.173 14.2C150.433 14.22 149.093 14.88 148.333 16.3V14.3H145.733V25H148.333V19.74C148.333 17.98 149.373 16.68 151.133 16.66C152.613 16.66 153.513 17.58 153.513 19.08V25H156.133V18.32C156.133 15.78 154.633 14.2 152.173 14.2ZM163.514 12.28C163.974 12.28 164.494 12.46 164.934 12.76L165.894 10.78C165.174 10.3 164.234 10.04 163.334 10.04C161.354 10.04 159.534 11.26 159.534 13.72V14.74H158.134V16.64H159.534V25H162.134V16.64H164.814V14.74H162.134V13.64C162.134 12.7 162.754 12.28 163.514 12.28ZM170.648 14.22C167.268 14.22 164.988 16.4 164.988 19.64C164.988 22.9 167.268 25.1 170.648 25.1C173.988 25.1 176.268 22.9 176.268 19.64C176.268 16.4 173.988 14.22 170.648 14.22ZM170.648 16.44C172.408 16.44 173.648 17.76 173.648 19.68C173.648 21.6 172.408 22.92 170.648 22.92C168.848 22.92 167.608 21.6 167.608 19.68C167.608 17.76 168.848 16.44 170.648 16.44Z" fill="white"/>
</svg>
