<svg width="48" height="48" viewBox="0 0 48 48" fill="none" xmlns="http://www.w3.org/2000/svg">
<circle cx="24" cy="24" r="24" fill="url(#paint0_linear)"/>
<path fill-rule="evenodd" clip-rule="evenodd" d="M28.9961 14C26.0253 14 23.8794 16.3764 23.3071 18.0545C22.3031 20.6366 22.727 22.6201 23.1004 24.3693L23.1275 24.4967C23.4743 26.1235 23.8016 27.66 23.3329 29.5885C23.2894 29.8525 23.2121 30.1121 23.1031 30.3602C22.5668 31.59 21.3506 32.3842 20.0051 32.3842C18.1429 32.3842 16.6279 30.8783 16.6279 29.0267C16.6279 27.1744 18.1429 25.6675 20.0051 25.6675C20.5067 25.6675 20.9886 25.775 21.4386 25.9863L21.8309 26.1709L21.3422 23.2007L21.1879 23.1697C20.801 23.0923 20.403 23.0534 20.0051 23.0534C16.6938 23.0534 14 25.7329 14 29.0267C14 32.3206 16.6938 35 20.0051 35C22.7541 35 25.1463 33.1513 25.8191 30.5191C26.4994 28.4574 26.1814 26.5765 25.7306 24.5064L25.6802 24.276C25.2379 22.2514 24.8884 20.6522 25.9422 18.5406C26.4968 17.3712 27.6954 16.6153 28.9961 16.6153C30.8575 16.6153 32.3721 18.1213 32.3721 19.9728C32.3721 21.8242 30.8575 23.3308 28.9961 23.3308C28.5347 23.3308 28.0864 23.2397 27.6625 23.0592L27.2816 22.8973L27.7627 25.8222L27.921 25.851C28.2727 25.9142 28.6346 25.9466 28.9961 25.9466C32.3067 25.9466 35 23.2666 35 19.9728C35 16.6794 32.3067 14 28.9961 14Z" fill="white"/>
<defs>
<linearGradient id="paint0_linear" x1="-0.396694" y1="22.7027" x2="43.9219" y2="22.2712" gradientUnits="userSpaceOnUse">
<stop stop-color="#5569DB"/>
<stop offset="1" stop-color="#8572FF"/>
</linearGradient>
</defs>
</svg>
